<svg xmlns="http://www.w3.org/2000/svg" width="659.498" height="398.191" viewBox="0 0 659.498 398.191">
  <g id="Layer_x0020_1" transform="translate(0 -0.007)">
    <path id="Path_8153" data-name="Path 8153" d="M13.882,358.33h308.7l335.193-.516c6.708-15.118-7.25-32.084-22.21-37.882s-31.918-5.8-45.763-14.081c-25.064-15-30.472-50.359-49.757-72.819-21.017-24.478-56.183-31.034-77.883-54.853-19.379-21.272-24.53-52.163-35.835-79.044C401.969,41.233,343.712.238,283.148.008S163.416,41.24,142.076,100.423c-8.685,24.088-12.711,52.363-32.125,68.222-11.47,9.371-26.332,12.527-40.465,16.2s-28.92,8.68-38.261,20.347-10.108,31.943,2.028,40.349C20.723,262.227.082,286.011,0,307.215a100.4,100.4,0,0,0,13.88,51.114Z" transform="translate(0)" fill="#edf5ed"/>
    <path id="Path_8154" data-name="Path 8154" d="M2276.744,1051.477l-402.782,3.491c-4.885.043-8.822-5.167-8.822-11.633V828.013c0-6.468,3.937-12.37,8.822-13.189l402.782-67.551c7.9-1.324,14.346,4.324,14.346,12.626v276.421c0,8.3-6.45,15.087-14.346,15.155Z" transform="translate(-1734.545 -694.765)" fill="#2b3137"/>
    <path id="Path_8155" data-name="Path 8155" d="M2140.45,1013.959l-407.485,3.532c-4.942.044-8.925-5.226-8.925-11.769V787.886c0-6.543,3.983-12.514,8.925-13.343L2140.45,706.2c7.989-1.339,14.514,4.375,14.514,12.773V998.626c0,8.4-6.525,15.264-14.514,15.333Z" transform="translate(-1603.325 -656.569)" fill="#2b3137"/>
    <path id="Path_8156" data-name="Path 8156" d="M2176.295,1051.477l-402.782,3.491c-4.885.043-8.822-5.167-8.822-11.633V828.013c0-6.468,3.937-12.37,8.822-13.189l402.782-67.551c7.9-1.324,14.346,4.324,14.346,12.626v276.421c0,8.3-6.449,15.087-14.346,15.155Z" transform="translate(-1641.129 -694.765)" fill="#beced5"/>
    <path id="Path_8157" data-name="Path 8157" d="M1773.512,1625.535c-4.885.819-8.823,6.721-8.823,13.189v215.322c0,6.466,3.937,11.676,8.823,11.633l4.11-.035c13.67-81.965,28.759-163.879,35.87-246.813Z" transform="translate(-1641.129 -1505.476)" fill="#dbe5e9"/>
    <path id="Path_8158" data-name="Path 8158" d="M2652.127,1934.359a66.089,66.089,0,1,1-66.089-66.089A66.089,66.089,0,0,1,2652.127,1934.359Z" transform="translate(-2343.506 -1737.45)" fill="#fefefe"/>
    <path id="Path_8159" data-name="Path 8159" d="M2809.684,2071.48c11.881,17.052,8.966,42.272,1.191,61.275-9.708,22.652-32.359,35.595-56.089,37.752a79.379,79.379,0,0,1-38.376-6.827,66.077,66.077,0,1,0,93.274-92.2Z" transform="translate(-2526.21 -1926.432)" fill="#dbe5e9"/>
    <path id="Path_8160" data-name="Path 8160" d="M2771.051,1862.052c-28.2,0-51.148,29.42-51.148,65.583s22.944,65.582,51.148,65.582,51.147-29.42,51.147-65.582S2799.253,1862.052,2771.051,1862.052Zm0,132.177c-28.761,0-52.16-29.874-52.16-66.594s23.4-66.6,52.16-66.6,52.159,29.874,52.159,66.6S2799.811,1994.229,2771.051,1994.229Z" transform="translate(-2528.517 -1730.726)" fill="#beced5"/>
    <path id="Path_8161" data-name="Path 8161" d="M2949.207,1862.052c-20.807,0-37.734,29.42-37.734,65.583s16.927,65.582,37.734,65.582,37.733-29.42,37.733-65.582S2970.013,1862.052,2949.207,1862.052Zm0,132.177c-21.365,0-38.747-29.874-38.747-66.594s17.382-66.6,38.747-66.6,38.746,29.874,38.746,66.6S2970.571,1994.229,2949.207,1994.229Z" transform="translate(-2706.673 -1730.726)" fill="#beced5"/>
    <path id="Path_8162" data-name="Path 8162" d="M3141.072,1862.052c-12.842,0-23.29,29.42-23.29,65.583s10.448,65.582,23.29,65.582,23.287-29.42,23.287-65.582S3153.912,1862.052,3141.072,1862.052Zm0,132.177c-13.4,0-24.3-29.874-24.3-66.594s10.9-66.6,24.3-66.6,24.3,29.874,24.3,66.6S3154.469,1994.229,3141.072,1994.229Z" transform="translate(-2898.538 -1730.726)" fill="#beced5"/>
    <path id="Path_8163" data-name="Path 8163" d="M3322.669,1862.052c-4.645,0-9.616,26.352-9.616,65.583s4.973,65.582,9.616,65.582,9.616-26.352,9.616-65.582S3327.312,1862.052,3322.669,1862.052Zm0,132.177c-6.654,0-10.629-33.859-10.629-66.594s3.975-66.6,10.629-66.6,10.629,33.859,10.629,66.6S3329.321,1994.229,3322.669,1994.229Z" transform="translate(-3080.135 -1730.726)" fill="#beced5"/>
    <path id="Path_8164" data-name="Path 8164" d="M2520.362,2624.981l-.131-.307c-.008-.242-.015-.484-.021-.727a203.27,203.27,0,0,1,131.776-8.544q.057.539.1,1.081a202.223,202.223,0,0,0-131.73,8.5Z" transform="translate(-2343.748 -2425.617)" fill="#beced5"/>
    <path id="Path_8165" data-name="Path 8165" d="M2541.349,2325.371a163.482,163.482,0,0,1,123.607-13.943q.3.61.591,1.227a162.38,162.38,0,0,0-124.5,14.049q.143-.669.3-1.333Z" transform="translate(-2363.129 -2143.728)" fill="#beced5"/>
    <path id="Path_8166" data-name="Path 8166" d="M2714.9,2003.962a131.394,131.394,0,0,1,87.233-13.08q1.1.725,2.168,1.489a130.141,130.141,0,0,0-91.042,13.658q.8-1.05,1.641-2.068Z" transform="translate(-2523.281 -1849.19)" fill="#beced5"/>
    <path id="Path_8167" data-name="Path 8167" d="M2698.573,3013.739a238.071,238.071,0,0,0-124.137.627q-.176-.475-.345-.954a239.1,239.1,0,0,1,124.82-.631c-.11.321-.222.639-.337.958Z" transform="translate(-2393.856 -2794.406)" fill="#beced5"/>
    <path id="Path_8168" data-name="Path 8168" d="M2857.544,3390.324a320.993,320.993,0,0,0-97.057.089q-.413-.445-.817-.9a322.209,322.209,0,0,1,98.69-.092c-.27.3-.541.6-.816.9Z" transform="translate(-2566.442 -3148.602)" fill="#beced5"/>
    <path id="Path_8169" data-name="Path 8169" d="M2968.3,3590.26a333.924,333.924,0,0,1-42.693-2.74q-.954-.619-1.884-1.27a332.81,332.81,0,0,0,72.94,1.787q-.961.6-1.943,1.177-13.192,1.047-26.421,1.047Z" transform="translate(-2719.005 -3335.14)" fill="#beced5"/>
    <path id="Path_8170" data-name="Path 8170" d="M3415.749,753.9l-151.831,25.462-166.139,281.5,317.969-2.755c7.9-.069,14.345-6.855,14.345-15.157V766.529c0-8.3-6.449-13.95-14.345-12.626Z" transform="translate(-2880.877 -700.931)" fill="#afb8bd"/>
    <path id="Path_8171" data-name="Path 8171" d="M4888,2254.842a1.567,1.567,0,0,0-.218.016l-55.8,7.71a1.91,1.91,0,0,0-1.533,1.849v30.646a1.261,1.261,0,0,0,1.406,1.346l55.794-6.463a1.953,1.953,0,0,0,1.674-1.9v-31.823a1.309,1.309,0,0,0-1.327-1.378Zm-56.3,42.589a2.291,2.291,0,0,1-2.258-2.369v-30.646a2.888,2.888,0,0,1,2.407-2.852l55.8-7.711a2.323,2.323,0,0,1,2.7,2.366v31.823a2.991,2.991,0,0,1-2.568,2.906l-55.8,6.465A2.579,2.579,0,0,1,4831.7,2297.431Z" transform="translate(-4491.29 -2096.012)" fill="#dbe5e9"/>
    <path id="Path_8172" data-name="Path 8172" d="M5171.33,2361.886h1.013V2326.56h-1.013Z" transform="translate(-4809.241 -2163.651)" fill="#dbe5e9"/>
    <path id="Path_8173" data-name="Path 8173" d="M4923.581,2389.034l-.13-1,53.662-7.011.13,1Z" transform="translate(-4578.717 -2214.298)" fill="#dbe5e9"/>
    <path id="Path_8174" data-name="Path 8174" d="M4927.421,2570.043l-.131-1,53.663-7.011.13,1Z" transform="translate(-4582.288 -2382.634)" fill="#dbe5e9"/>
    <path id="Path_8175" data-name="Path 8175" d="M5870.128,2611.382c-.064,0-.129,0-.2.007l-83.16,5.979a2.753,2.753,0,0,0-2.472,2.736l-.068,44.666a2.4,2.4,0,0,0,.691,1.722,2.23,2.23,0,0,0,1.593.658l.119,0,83.158-4.163a2.85,2.85,0,0,0,2.684-2.8l.07-46.382a2.377,2.377,0,0,0-2.418-2.419Zm-83.611,56.779a3.23,3.23,0,0,1-2.31-.956,3.407,3.407,0,0,1-.987-2.439l.068-44.664a3.782,3.782,0,0,1,3.412-3.745l83.159-5.979a3.455,3.455,0,0,1,2.71.986,3.413,3.413,0,0,1,.989,2.438l-.07,46.382a3.87,3.87,0,0,1-3.645,3.808l-83.327,4.168Z" transform="translate(-5378.287 -2427.589)" fill="#dbe5e9"/>
    <path id="Path_8176" data-name="Path 8176" d="M1765.866,878.406a16.169,16.169,0,0,0-1.176,6.028v7.156l425.951-66.083v-9.186a13.3,13.3,0,0,0-2.927-8.571Z" transform="translate(-1641.129 -751.186)" fill="#fefefe"/>
    <path id="Path_8177" data-name="Path 8177" d="M1764.69,4744.1v7.807c0,6.466,3.937,11.676,8.823,11.633l402.782-3.491c7.9-.068,14.346-6.854,14.346-15.155V4734.87Z" transform="translate(-1641.129 -4403.335)" fill="#0096af"/>
    <path id="Path_8178" data-name="Path 8178" d="M6173.035,1349.776l-55.794,6.465a1.769,1.769,0,0,1-1.972-1.85v-30.646a2.4,2.4,0,0,1,1.972-2.35l55.794-7.711a1.821,1.821,0,0,1,2.121,1.866v31.823a2.467,2.467,0,0,1-2.121,2.4Z" transform="translate(-5687.087 -1221.676)" fill="#fefefe"/>
    <path id="Path_8179" data-name="Path 8179" d="M5210.227,1692.546l-55.8,6.464a1.767,1.767,0,0,1-1.971-1.849v-30.646a2.4,2.4,0,0,1,1.971-2.35l55.8-7.711a1.82,1.82,0,0,1,2.12,1.865v31.824a2.467,2.467,0,0,1-2.12,2.4Z" transform="translate(-4791.692 -1540.446)" fill="#dbe5e9"/>
    <path id="Path_8180" data-name="Path 8180" d="M6264.59,1535.908l-44.97,5.786v-.581l44.97-5.8Z" transform="translate(-5784.131 -1427.803)" fill="#afb8bd"/>
    <path id="Path_8181" data-name="Path 8181" d="M6264.59,1634.129l-44.97,5.595v-.582l44.97-5.611Z" transform="translate(-5784.131 -1519.146)" fill="#afb8bd"/>
    <path id="Path_8182" data-name="Path 8182" d="M6264.59,1732.367l-44.97,5.4v-.58l44.97-5.419Z" transform="translate(-5784.131 -1610.508)" fill="#afb8bd"/>
    <path id="Path_8183" data-name="Path 8183" d="M5892.5,1921.623l-54.377,5.033a1.783,1.783,0,0,1-1.922-1.874v-30.262a2.29,2.29,0,0,1,1.922-2.272L5892.5,1886a1.834,1.834,0,0,1,2.066,1.892v31.41A2.352,2.352,0,0,1,5892.5,1921.623Z" transform="translate(-5427.557 -1753.927)" fill="#fefefe"/>
    <path id="Path_8184" data-name="Path 8184" d="M5976.728,2120.79l-43.808,4.583v-.574l43.808-4.6Z" transform="translate(-5517.505 -1971.74)" fill="#afb8bd"/>
    <path id="Path_8185" data-name="Path 8185" d="M5976.728,2217.73l-43.808,4.4v-.573l43.808-4.413Z" transform="translate(-5517.505 -2061.893)" fill="#afb8bd"/>
    <path id="Path_8186" data-name="Path 8186" d="M5976.728,2314.65l-43.808,4.209v-.573l43.808-4.226Z" transform="translate(-5517.505 -2152.027)" fill="#afb8bd"/>
    <path id="Path_8187" data-name="Path 8187" d="M6527.637,2422.795l-57.611,3.914a1.912,1.912,0,0,1-2.035-1.972v-31.131a2.316,2.316,0,0,1,2.035-2.3l57.611-5.2a1.971,1.971,0,0,1,2.192,2v32.347A2.382,2.382,0,0,1,6527.637,2422.795Z" transform="translate(-6015.111 -2219.023)" fill="#fefefe"/>
    <path id="Path_8188" data-name="Path 8188" d="M6613.119,2627.447l-46.4,3.709v-.59l46.4-3.726Z" transform="translate(-6106.928 -2442.906)" fill="#afb8bd"/>
    <path id="Path_8189" data-name="Path 8189" d="M6613.119,2727.227l-46.4,3.512v-.591l46.4-3.529Z" transform="translate(-6106.928 -2535.7)" fill="#afb8bd"/>
    <path id="Path_8190" data-name="Path 8190" d="M6613.119,2827.027l-46.4,3.313v-.59l46.4-3.33Z" transform="translate(-6106.928 -2628.512)" fill="#afb8bd"/>
    <path id="Path_8191" data-name="Path 8191" d="M6175.156,1322.688v-7.138a1.822,1.822,0,0,0-2.121-1.866l-55.794,7.711a2.4,2.4,0,0,0-1.972,2.35v6.874l59.886-7.932Z" transform="translate(-5687.087 -1221.677)" fill="#dbe5e9"/>
    <path id="Path_8192" data-name="Path 8192" d="M6863.591,1348.567l-4.5.6v-4.585l4.5-.616Z" transform="translate(-6378.827 -1249.861)" fill="#afb8bd"/>
    <path id="Path_8193" data-name="Path 8193" d="M5894.556,1895.659V1887.9a1.834,1.834,0,0,0-2.066-1.892l-54.377,6.248a2.291,2.291,0,0,0-1.922,2.272V1902Z" transform="translate(-5427.548 -1753.936)" fill="#dbe5e9"/>
    <path id="Path_8194" data-name="Path 8194" d="M6575.868,1925.12l-4.389.484v-4.527l4.389-.5Z" transform="translate(-6111.354 -1786.097)" fill="#afb8bd"/>
    <path id="Path_8195" data-name="Path 8195" d="M6529.829,2395.865V2388.1a1.971,1.971,0,0,0-2.192-2l-57.611,5.2a2.316,2.316,0,0,0-2.035,2.3v7.476Z" transform="translate(-6015.111 -2219.014)" fill="#dbe5e9"/>
    <path id="Path_8196" data-name="Path 8196" d="M7247.7,2434.955l-4.653.4v-4.66l4.653-.412Z" transform="translate(-6735.901 -2260.109)" fill="#afb8bd"/>
    <path id="Path_8197" data-name="Path 8197" d="M603.115,5102.182H89.406a7.056,7.056,0,0,1-7.056-7.056v-3.105H610.171v3.105a7.056,7.056,0,0,1-7.056,7.056Z" transform="translate(-76.583 -4735.478)" fill="#a8d4af"/>
    <path id="Path_8198" data-name="Path 8198" d="M610.157,5095.407c0-.094.014-.187.014-.282v-3.105H82.35v3.105c0,.095.01.188.014.282Z" transform="translate(-76.584 -4735.478)" fill="#a8d4af"/>
    <path id="Path_8199" data-name="Path 8199" d="M6875.5,834.8a72.448,72.448,0,1,0-74.771,72.389q-3.859,10.156-7.715,20.312,12.195-10.7,24.171-21.642A72.464,72.464,0,0,0,6875.5,834.8Z" transform="translate(-6259.333 -708.965)" fill="#a8d4af"/>
    <path id="Path_8200" data-name="Path 8200" d="M6771.488,1120.253c-6.53-29.386-21.611-60.088-17.124-89.453a72.428,72.428,0,0,0,20.046,120.179,132.722,132.722,0,0,0-2.923-30.725Z" transform="translate(-6259.333 -958.619)" fill="#a8d4af"/>
    <path id="Path_8201" data-name="Path 8201" d="M8026.954,1088.2a72.246,72.246,0,0,0-23.465-53.37c3.64,26.015-13.855,49.363-26.892,71.962-8.757,16.166-8.1,34.123-7.577,52.383A72.46,72.46,0,0,0,8026.954,1088.2Z" transform="translate(-7410.79 -962.366)" fill="#a8d4af"/>
    <path id="Path_8202" data-name="Path 8202" d="M6929.92,350.717a54.457,54.457,0,1,0-78.229,49,17.31,17.31,0,0,1,9.726,15.578v10.811h28.1V415.3a17.216,17.216,0,0,1,9.623-15.534,54.446,54.446,0,0,0,30.787-49.047Z" transform="translate(-6343.409 -275.51)" fill="#faebb5"/>
    <path id="Path_8203" data-name="Path 8203" d="M7400.235,507.811c10.4,17.961,11.032,42.468.178,59.524a72.384,72.384,0,0,1-55.253,33.985,17.346,17.346,0,0,1,3.708,10.712v10.811h28.1V612.035a17.217,17.217,0,0,1,9.623-15.534,54.445,54.445,0,0,0,13.649-88.691Z" transform="translate(-6830.862 -472.247)" fill="#f5a785"/>
    <path id="Path_8204" data-name="Path 8204" d="M7451.3,2173.279h-10.014a6.055,6.055,0,0,1-6.054-6.055V2137.75h22.123v29.474A6.055,6.055,0,0,1,7451.3,2173.279Z" transform="translate(-6914.626 -1988.062)" fill="#2b3137"/>
    <path id="Path_8205" data-name="Path 8205" d="M7366.04,2019.3h31.813v-40.5H7366.04Z" transform="translate(-6850.28 -1840.241)" fill="#006888"/>
    <path id="Path_8206" data-name="Path 8206" d="M7420.59,2019.3h8.1v-40.5h-8.1Z" transform="translate(-6901.011 -1840.241)" fill="#0096af"/>
    <path id="Path_8207" data-name="Path 8207" d="M6933.288,358.732A50.476,50.476,0,0,0,6882,439.608c-5.242-11.732-4.145-25.761,1.517-37.3s15.534-20.676,26.775-26.9,23.822-9.707,36.5-11.819l-13.5-4.855Z" transform="translate(-6389.595 -332.264)" fill="#fefefe"/>
    <path id="Path_8208" data-name="Path 8208" d="M7355.9,2044.859a.38.38,0,0,1-.057-.755l32.472-4.845a.373.373,0,0,1,.433.32.38.38,0,0,1-.319.431l-32.473,4.844A.41.41,0,0,1,7355.9,2044.859Z" transform="translate(-6840.5 -1896.464)" fill="#2b3137"/>
    <path id="Path_8209" data-name="Path 8209" d="M7355.9,2123.411a.379.379,0,0,1-.057-.755l32.472-4.845a.375.375,0,0,1,.433.32.379.379,0,0,1-.319.431l-32.473,4.844c-.02,0-.039,0-.057,0Z" transform="translate(-6840.5 -1969.516)" fill="#2b3137"/>
    <path id="Path_8210" data-name="Path 8210" d="M7355.9,2201.949a.38.38,0,0,1-.057-.756l32.472-4.844a.373.373,0,0,1,.433.32.381.381,0,0,1-.319.431l-32.473,4.844A.43.43,0,0,1,7355.9,2201.949Z" transform="translate(-6840.5 -2042.554)" fill="#2b3137"/>
    <path id="Path_8211" data-name="Path 8211" d="M7355.9,2280.483a.38.38,0,0,1-.057-.755l32.472-4.846a.373.373,0,0,1,.433.32.38.38,0,0,1-.319.432l-32.473,4.844a.537.537,0,0,1-.057,0Z" transform="translate(-6840.5 -2115.588)" fill="#2b3137"/>
    <path id="Path_8212" data-name="Path 8212" d="M7355.9,2359.023a.38.38,0,0,1-.057-.756l32.472-4.844a.373.373,0,0,1,.433.32.381.381,0,0,1-.319.433l-32.473,4.844a.292.292,0,0,1-.057,0Z" transform="translate(-6840.5 -2188.629)" fill="#2b3137"/>
    <path id="Path_8213" data-name="Path 8213" d="M1123.161,693.878l2.008.672a16.525,16.525,0,0,0,1.113-1.873l-1.573-1.392a14.221,14.221,0,0,0,.949-2.778l2.108-.2a16.191,16.191,0,0,0,.256-2.126l-2.005-.632c0-.08.006-.16.006-.24a14.284,14.284,0,0,0-.27-2.765l1.842-1.042a16.167,16.167,0,0,0-.62-2.006l-2.082.237a14.226,14.226,0,0,0-1.515-2.7l1.257-1.7a16.293,16.293,0,0,0-1.363-1.553l-1.812,1.068a14.237,14.237,0,0,0-2.533-1.878l.457-2.063a16.355,16.355,0,0,0-1.86-.841l-1.222,1.713a14.145,14.145,0,0,0-3.116-.674l-.419-2.06c-.338-.021-.675-.035-1.017-.035s-.679.014-1.016.035l-.42,2.06a14.145,14.145,0,0,0-3.116.674l-1.222-1.713a16.136,16.136,0,0,0-1.86.841l.458,2.063a14.2,14.2,0,0,0-2.532,1.878l-1.812-1.068a16.283,16.283,0,0,0-1.363,1.553l1.257,1.7a14.219,14.219,0,0,0-1.515,2.7l-2.083-.237a16.289,16.289,0,0,0-.62,2.006l1.841,1.042a14.385,14.385,0,0,0-.269,2.765c0,.08,0,.16.006.24l-2.005.632a16.191,16.191,0,0,0,.256,2.126l2.108.2a14.123,14.123,0,0,0,.948,2.778l-1.573,1.392a16.49,16.49,0,0,0,1.113,1.873l2.007-.672a14.374,14.374,0,0,0,1.944,2.1l-.874,1.917a16.462,16.462,0,0,0,1.8,1.283l1.561-1.431a14.11,14.11,0,0,0,2.582,1.131l-.018,2.107a16.105,16.105,0,0,0,2.178.454l.842-1.936c.461.045.927.069,1.4.069s.94-.024,1.4-.069l.841,1.936a16.048,16.048,0,0,0,2.178-.454l-.018-2.107a14.161,14.161,0,0,0,2.582-1.131l1.561,1.431a16.392,16.392,0,0,0,1.8-1.283l-.873-1.917A14.33,14.33,0,0,0,1123.161,693.878Z" transform="translate(-1018.776 -622.161)" fill="#57a7b3"/>
    <path id="Path_8214" data-name="Path 8214" d="M518.927,875.4a9.521,9.521,0,1,1,9.521-9.521A9.521,9.521,0,0,1,518.927,875.4Zm21.162-5.464a21.449,21.449,0,0,0,.338-2.8l-2.645-.834c0-.106.008-.211.008-.317a18.89,18.89,0,0,0-.356-3.646l2.43-1.374a21.226,21.226,0,0,0-.818-2.646l-2.746.313a18.815,18.815,0,0,0-2-3.559l1.658-2.241a21.507,21.507,0,0,0-1.8-2.047l-2.391,1.407a18.908,18.908,0,0,0-3.341-2.477l.6-2.72a21.434,21.434,0,0,0-2.451-1.111l-1.612,2.259a18.685,18.685,0,0,0-4.111-.888l-.552-2.718c-.445-.027-.89-.045-1.341-.045s-.9.018-1.342.045l-.552,2.718a18.686,18.686,0,0,0-4.111.888l-1.611-2.259a21.156,21.156,0,0,0-2.452,1.111l.6,2.72a18.9,18.9,0,0,0-3.341,2.477l-2.39-1.407a21.723,21.723,0,0,0-1.8,2.047l1.658,2.241a18.834,18.834,0,0,0-2,3.559l-2.746-.313a21.334,21.334,0,0,0-.818,2.646l2.43,1.374a18.9,18.9,0,0,0-.356,3.646c0,.106.006.211.008.317l-2.645.834a21.449,21.449,0,0,0,.338,2.8l2.78.268a18.737,18.737,0,0,0,1.251,3.665l-2.075,1.835a21.273,21.273,0,0,0,1.469,2.469l2.647-.886a19.007,19.007,0,0,0,2.564,2.776l-1.152,2.529a21.466,21.466,0,0,0,2.371,1.692l2.058-1.886a18.712,18.712,0,0,0,3.405,1.492l-.024,2.779a21.428,21.428,0,0,0,2.873.6l1.111-2.553c.608.06,1.224.092,1.848.092s1.24-.032,1.848-.092l1.11,2.553a21.536,21.536,0,0,0,2.873-.6l-.025-2.779a18.69,18.69,0,0,0,3.405-1.492l2.059,1.886a21.459,21.459,0,0,0,2.369-1.692l-1.152-2.529a18.966,18.966,0,0,0,2.564-2.776l2.647.886a21.261,21.261,0,0,0,1.469-2.469l-2.075-1.835a18.63,18.63,0,0,0,1.251-3.665Z" transform="translate(-462.665 -785.353)" fill="#57a7b3"/>
    <path id="Path_8215" data-name="Path 8215" d="M951.79,1201.447a24.927,24.927,0,1,1,24.927-24.927A24.927,24.927,0,0,1,951.79,1201.447Zm31.159-24.927c0-.407-.015-.811-.03-1.213l5.172-1.093q-.094-1.509-.307-2.983l-5.289.006c-.138-.8-.3-1.6-.5-2.38l4.826-2.142c-.27-.967-.573-1.92-.919-2.854l-5.176,1.106c-.3-.755-.628-1.5-.987-2.222l4.277-3.1q-.7-1.332-1.5-2.594l-4.82,2.152c-.452-.673-.933-1.325-1.435-1.96l3.546-3.929c-.639-.77-1.313-1.51-2.012-2.225l-4.272,3.112c-.581-.565-1.179-1.109-1.8-1.629l2.645-4.569q-1.175-.933-2.423-1.769l-3.535,3.935q-1.026-.649-2.1-1.218l1.64-5.027q-1.339-.665-2.741-1.218l-2.634,4.573c-.757-.279-1.531-.522-2.315-.744l.559-5.265c-.962-.246-1.942-.445-2.935-.613l-1.627,5.026q-1.2-.17-2.416-.249l-.547-5.256c-.5-.02-1-.038-1.5-.038s-1,.018-1.5.038l-.547,5.256q-1.22.081-2.415.249l-1.628-5.026c-.991.167-1.972.366-2.935.613l.559,5.265c-.784.221-1.558.464-2.315.744l-2.634-4.573q-1.4.555-2.739,1.218l1.638,5.027q-1.077.568-2.1,1.218l-3.535-3.935c-.833.556-1.638,1.148-2.421,1.769l2.645,4.569q-.934.779-1.8,1.629l-4.272-3.112c-.7.716-1.373,1.454-2.012,2.225l3.545,3.929c-.5.634-.983,1.287-1.435,1.96l-4.82-2.152q-.8,1.263-1.5,2.6l4.278,3.1q-.537,1.087-.987,2.222l-5.176-1.106c-.347.933-.649,1.887-.919,2.854l4.826,2.142c-.2.781-.36,1.576-.5,2.38l-5.289-.006q-.215,1.472-.308,2.983l5.172,1.093c-.016.4-.03.806-.03,1.213s.015.811.03,1.213l-5.172,1.093c.064,1.006.164,2,.308,2.984l5.289-.006c.137.8.3,1.6.5,2.378l-4.826,2.142c.27.968.572,1.921.919,2.854l5.176-1.106c.3.754.629,1.5.987,2.221l-4.278,3.1q.7,1.332,1.5,2.6l4.82-2.153c.452.674.933,1.325,1.435,1.96l-3.545,3.929c.639.77,1.312,1.51,2.012,2.225l4.272-3.112c.581.565,1.179,1.111,1.8,1.629l-2.645,4.569c.783.62,1.588,1.214,2.421,1.769l3.535-3.934q1.026.647,2.1,1.218l-1.638,5.026q1.339.665,2.739,1.218l2.634-4.574c.757.279,1.532.523,2.315.744l-.559,5.265c.963.246,1.944.445,2.935.613l1.628-5.027q1.193.171,2.415.249l.547,5.258c.5.02,1,.037,1.5.037s1-.018,1.5-.037l.547-5.258q1.221-.079,2.416-.249l1.627,5.027c.992-.167,1.972-.366,2.935-.613l-.559-5.265c.784-.221,1.558-.464,2.315-.744l2.634,4.574c.932-.37,1.848-.775,2.741-1.218l-1.64-5.026c.719-.379,1.419-.787,2.1-1.218l3.535,3.934c.833-.556,1.639-1.149,2.421-1.769l-2.644-4.569c.622-.518,1.221-1.064,1.8-1.629l4.272,3.112c.7-.714,1.374-1.454,2.012-2.225l-3.546-3.929c.5-.636.983-1.287,1.435-1.96l4.82,2.153q.8-1.264,1.5-2.6l-4.277-3.1c.358-.725.685-1.467.987-2.221l5.176,1.106c.347-.932.649-1.885.918-2.854L982,1184.183c.2-.781.361-1.576.5-2.378l5.288.006q.215-1.475.307-2.984l-5.172-1.093c.015-.4.03-.807.03-1.213Z" transform="translate(-851.388 -1060.302)" fill="#57a7b3"/>
    <path id="Path_8216" data-name="Path 8216" d="M570.483,2064.24a12.943,12.943,0,1,0,12.944,12.944A12.958,12.958,0,0,0,570.483,2064.24Z" transform="translate(-518.501 -1919.699)" fill="#57a7b3"/>
    <path id="Path_8217" data-name="Path 8217" d="M395.86,1918.814a15.1,15.1,0,1,1,15.1-15.1A15.118,15.118,0,0,1,395.86,1918.814Zm25.68-10.167a26.108,26.108,0,0,0,.411-3.408l-3.216-1.015c0-.129.011-.255.011-.385a22.994,22.994,0,0,0-.433-4.432l2.954-1.67a26.081,26.081,0,0,0-.994-3.218l-3.339.381a22.808,22.808,0,0,0-2.43-4.326l2.017-2.725a26.16,26.16,0,0,0-2.185-2.489l-2.905,1.712a22.933,22.933,0,0,0-4.061-3.011l.733-3.307a26.124,26.124,0,0,0-2.98-1.349l-1.96,2.746a22.8,22.8,0,0,0-5-1.08l-.672-3.3c-.54-.034-1.082-.056-1.631-.056s-1.09.022-1.63.056l-.672,3.3a22.725,22.725,0,0,0-5,1.08L386.6,1879.4a26.09,26.09,0,0,0-2.981,1.349l.734,3.307a22.938,22.938,0,0,0-4.062,3.011l-2.906-1.712a26.463,26.463,0,0,0-2.185,2.489l2.017,2.725a22.843,22.843,0,0,0-2.43,4.326l-3.339-.381a25.842,25.842,0,0,0-.994,3.218l2.953,1.67a23,23,0,0,0-.433,4.432c0,.13.008.256.01.385l-3.216,1.015a26.24,26.24,0,0,0,.411,3.408l3.38.325a22.718,22.718,0,0,0,1.52,4.455l-2.522,2.231a26.032,26.032,0,0,0,1.786,3l3.218-1.077a23.056,23.056,0,0,0,3.117,3.375l-1.4,3.074a26.145,26.145,0,0,0,2.882,2.056l2.5-2.292a22.727,22.727,0,0,0,4.14,1.814l-.029,3.378a26.005,26.005,0,0,0,3.491.728l1.349-3.1c.74.072,1.488.111,2.246.111s1.507-.039,2.246-.111l1.349,3.1a25.927,25.927,0,0,0,3.493-.728l-.029-3.378a22.764,22.764,0,0,0,4.139-1.814l2.5,2.292a26.271,26.271,0,0,0,2.882-2.056l-1.4-3.074a22.975,22.975,0,0,0,3.116-3.375l3.218,1.077a25.923,25.923,0,0,0,1.785-3l-2.521-2.231a22.7,22.7,0,0,0,1.52-4.455l3.38-.325Z" transform="translate(-343.879 -1746.229)" fill="#57a7b3"/>
    <path id="Path_8218" data-name="Path 8218" d="M4606.65,1705.24v1.977c3.711-.257,6-.6,6-.989s-2.292-.731-6-.988Z" transform="translate(-4284.099 -1585.835)" fill="#2b3137"/>
    <path id="Path_8219" data-name="Path 8219" d="M4505.484,3047.244h-2.108l-16.445-172.5h2.109Z" transform="translate(-4172.761 -2673.448)" fill="#2b3137"/>
    <path id="Path_8220" data-name="Path 8220" d="M5207.923,3047.244h-2.107l-16.445-172.5h2.109Z" transform="translate(-4826.018 -2673.448)" fill="#2b3137"/>
    <path id="Path_8221" data-name="Path 8221" d="M4959.93,3047.244h2.108l16.444-172.5h-2.108Z" transform="translate(-4612.643 -2673.448)" fill="#2b3137"/>
    <path id="Path_8222" data-name="Path 8222" d="M4257.48,3047.244h2.108l16.446-172.5h-2.109Z" transform="translate(-3959.377 -2673.448)" fill="#2b3137"/>
    <path id="Path_8223" data-name="Path 8223" d="M4444.83,3020.458h-64.067l-9.823-103.049h64.066Z" transform="translate(-4064.893 -2713.131)" fill="#2b3137"/>
    <path id="Path_8224" data-name="Path 8224" d="M4475.811,3020.458h-64.066l-9.825-103.049h64.067Z" transform="translate(-4093.704 -2713.131)" fill="#beced5"/>
    <path id="Path_8225" data-name="Path 8225" d="M4470.43,2921.443l-.641-6.722h-67.87l.641,6.722Z" transform="translate(-4093.704 -2710.629)" fill="#fefefe"/>
    <path id="Path_8226" data-name="Path 8226" d="M4469.974,2916.636l-.184-1.916h-67.87l.184,1.916Z" transform="translate(-4093.704 -2710.629)" fill="#0096af"/>
    <path id="Path_8227" data-name="Path 8227" d="M4718.285,3165.446l-.475-.593,25.026-20.042.476.593Z" transform="translate(-4387.476 -2924.609)" fill="#fefefe"/>
    <path id="Path_8228" data-name="Path 8228" d="M4889.917,3344.784l-.526-.548,5.751-5.516.526.548Z" transform="translate(-4547.042 -3104.942)" fill="#fefefe"/>
    <path id="Path_8229" data-name="Path 8229" d="M5508.771,4991.357c-1.085-.575-4.466,2.96-5.553,2.384-1.273-6.97-3.091-11.53-5.3-18.825,3.12-.795,5.677.649,8.9-.256a101.926,101.926,0,0,0,1.95,16.7Z" transform="translate(-5112.963 -4626.335)" fill="#fbcfae"/>
    <path id="Path_8230" data-name="Path 8230" d="M5527.453,5060.87a100.047,100.047,0,0,0,1.543,10.49c-1.084-.576-4.465,2.96-5.551,2.384a88.56,88.56,0,0,0-3-11.551c2.6.038,5.036-.132,7.013-1.323Z" transform="translate(-5133.906 -4706.509)" fill="#fefefe"/>
    <path id="Path_8231" data-name="Path 8231" d="M5210.757,3687.279c1.524,4.609,9.168,29.175,10.692,33.783,4.994,3.327,8.6-.638,11.708-2.416-1.3-4.922-8.654-35.475-11.834-39.518l-.007,0a25.772,25.772,0,0,1-2.576-6.788c-2.058-9.615.991-19.3,4.325-28.4,1.963-5.362,4.051-10.746,4.678-16.422a24.2,24.2,0,0,0-2.085-13.4h-26.451c-2.053,10.865.78,38.565,6.462,57.334,1.6,5.3,3.345,10.561,5.087,15.825Z" transform="translate(-4834.546 -3361.057)" fill="#006888"/>
    <path id="Path_8232" data-name="Path 8232" d="M5273.341,3794.992c.029-.263.043-.528.065-.792-7.733,2.123-16.952,1.939-18.776,8.325-2.423,7.028-4.731,14.054-7.061,21.04a152.589,152.589,0,0,0,3.7,15.36c1.6,5.3,3.346,10.561,5.087,15.825,1.524,4.609,9.167,29.175,10.692,33.783a8.291,8.291,0,0,0,1.495.788c.772-11.979.526-24.178,1.233-35.992-1.1-3.278-2.094-5.764-2.853-6.729l-.007,0a25.772,25.772,0,0,1-2.576-6.788c-2.058-9.614.991-19.3,4.324-28.4,1.963-5.362,4.052-10.746,4.679-16.421Z" transform="translate(-4880.143 -3528.53)" fill="#2b3137"/>
    <path id="Path_8233" data-name="Path 8233" d="M5526.845,5064.8a2.754,2.754,0,0,0,1.4-1.475c.323-1.178-.835-2.309-.752-3.528a13.686,13.686,0,0,1-11.871,3.888q.306,1.46.609,2.921A15.234,15.234,0,0,0,5526.845,5064.8Z" transform="translate(-5129.424 -4705.514)" fill="#2b3137"/>
    <path id="Path_8234" data-name="Path 8234" d="M5471.568,5179.953c-.644-.9.065-3.414.782-4.25,2.409-2.816,4.09-4.7,3.908-8.225-.056-1.076-.543-1.774.62-2.165.642-.215,1.788-.708,2.391-.4a6.112,6.112,0,0,0,1.874.778,1.723,1.723,0,0,0,1.658-1.277c.932.63.919,2.2,1.935,5.2.445,1.316-1.192,2.438-1.873,3.66-1.035,1.858-.593,3.28-2.109,4.872a9.979,9.979,0,0,1-6.988,2.621c-1.011-.027-1.665-.065-2.2-.811Z" transform="translate(-5088.222 -4802.799)" fill="#2b3137"/>
    <path id="Path_8235" data-name="Path 8235" d="M5289.553,5179.89c-1.709,5.347-4.039,10.682-3.94,16.265l-7.353-.372a131.52,131.52,0,0,0,2.614-15.871,52.622,52.622,0,0,0,8.678-.023Z" transform="translate(-4908.684 -4817.195)" fill="#fbcfae"/>
    <path id="Path_8236" data-name="Path 8236" d="M5294.3,5225.883a30.983,30.983,0,0,0-1.837,9.982l-7.352-.371c.772-3.366,1.39-6.765,1.891-10.184a12.3,12.3,0,0,0,7.3.573Z" transform="translate(-4915.053 -4859.436)" fill="#fefefe"/>
    <path id="Path_8237" data-name="Path 8237" d="M5280.643,3684.128c.089,5.53-1.126,28.112-1.752,33.409l13.779,2.535c0-1.628,4.244-36.809,3.561-43.19-.835-4.872-.037-8.571.547-13.4.693-5.735,2.177-10.225,3.556-15.862,3.007-12.306,5.472-21.042,7.283-27.62,2.686-9.752,3.346-10.342.991-20.207l-.947-.443h-26.974c-.433,14.513.5,28.854-.043,43.074-.175,4.558-1.433,10.734-1.368,15.315.068,4.679-.667,7.356.262,11.988.861,4.294.667,10.068,1.106,14.4Z" transform="translate(-4909.27 -3347.323)" fill="#006888"/>
    <path id="Path_8238" data-name="Path 8238" d="M5299.336,3789.49l-.506-.025a243.712,243.712,0,0,1,7.156-47.485l.49.125a243.218,243.218,0,0,0-7.139,47.385Z" transform="translate(-4927.813 -3479.966)" fill="#fefefe"/>
    <path id="Path_8239" data-name="Path 8239" d="M5271.671,5242.977a79.815,79.815,0,0,1,14.459,2.431q.172-2.413.343-4.826a116.624,116.624,0,0,1-13.805-1.6q-.5,2-1,4Z" transform="translate(-4902.555 -4872.148)" fill="#2b3137"/>
    <path id="Path_8240" data-name="Path 8240" d="M5208.388,3688.229a7.717,7.717,0,0,0-4.565.8c-1.3.868-1.841,2.984-.634,4.025,11.642-.424,23.558-.813,34.74,2.728q.114-3.331.228-6.661l-29.769-.895Z" transform="translate(-4838.243 -3429.962)" fill="#2b3137"/>
    <path id="Path_8241" data-name="Path 8241" d="M5195,5313.017a3.173,3.173,0,0,0-2.9,1.467c-1.78,2.025-1.462,4.218-3.184,6.772s-3.877,3.98-3.266,6.634a13.087,13.087,0,0,0,11.923-1.956c1.543-1.073,1.245-2.6,2.532-3.909,1.524-1.549.917-4.024,1.236-6.4a1.307,1.307,0,0,0-.92-1.531c-.767-.261.8,3.275-1.939,1.159-.994-.767-2.6-2.2-3.482-2.234Z" transform="translate(-4822.461 -4940.998)" fill="#2b3137"/>
    <path id="Path_8242" data-name="Path 8242" d="M4694.984,2121.586a19.184,19.184,0,0,0-1.7-5.167,104.8,104.8,0,0,1-5.876-13.274,6.382,6.382,0,0,0,.9-.874c1.083-1.266.609-3.337,1.551-4.713a1.447,1.447,0,0,0,.4-.868.734.734,0,0,0-.48-.592,1.2,1.2,0,0,0-.783,0,1.85,1.85,0,0,0-1.225,1.25,5.912,5.912,0,0,1-.177.691.624.624,0,0,1-.525.42.755.755,0,0,1-.479-.225,8.176,8.176,0,0,1-1.511-2.687c-1.131-3.175-3.283-6.88-4.629-9.864-.363-.139-.762.193-.879.593a2.586,2.586,0,0,0,.048,1.24c.19.929,1.266,2.639,1.456,3.568a2.838,2.838,0,0,1,.083,1.015.872.872,0,0,1-.573.738c-.382.088-.73-.234-1.009-.531l-4.888-5.221c-.362-.388-.983-.772-1.308-.347-.308.4.075,1.535.429,1.888a20.51,20.51,0,0,1,4.24,5.992c-1.889-.684-3.806-1.83-5.7-2.514-.275.347-.471,1.012-.157,1.315a9.618,9.618,0,0,0,1.762,1.188c1.351.577,3.087,1.71,3.377,3.268a2.965,2.965,0,0,0-.381.522c-.935-.33-2.062-.986-2.929-1.2a2.039,2.039,0,0,0-1.034-.073.816.816,0,0,0-.61.809c.044.451,1.038.822,1.439.96,2.9,1.006,2.894,3.1,4.632,5.013a5.167,5.167,0,0,0,2.108,1.694c1.515,5.663,3.3,12.042,4.557,17.576.524,2.321,1.511,5,3.983,5.794a4.7,4.7,0,0,0,5.125-1.9A6.965,6.965,0,0,0,4694.984,2121.586Z" transform="translate(-4344.905 -1939.612)" fill="#fbcfae"/>
    <path id="Path_8243" data-name="Path 8243" d="M4765.756,2228.943c.271.446.485.988.963,1.193a1.5,1.5,0,0,0,1.655-.672,4.357,4.357,0,0,0,.583-3.579,12.906,12.906,0,0,0-1.521-3.406c-.252-.443-.656-.956-1.148-.827-.453.118-.585.68-.714,1.132a4.241,4.241,0,0,1-2.2,2.616c-.43.209-.973.441-1.008.917a.849.849,0,0,0,.485.75,4.549,4.549,0,0,0,.892.3,3.661,3.661,0,0,1,2.012,1.573Z" transform="translate(-4428.912 -2066.07)" fill="#eeb286"/>
    <path id="Path_8244" data-name="Path 8244" d="M4830.957,2442.85q-3.554.514-7.056,1.328.338,1.675.676,3.352,3.668-1.24,7.443-2.127Q4831.489,2444.126,4830.957,2442.85Z" transform="translate(-4486.138 -2271.799)" fill="#eeb286"/>
    <path id="Path_8245" data-name="Path 8245" d="M4856.634,2482.533c-13.492-2.839-19.727-15.534-25.879-27.563-2.187.87-6.779,1.55-8.964,2.42,1.213,8.962,4.076,18,9.139,25.572s13.132,13.539,22.126,14.429q1.789-7.43,3.579-14.858Z" transform="translate(-4484.176 -2283.07)" fill="#f08450"/>
    <path id="Path_8246" data-name="Path 8246" d="M4823.807,2480.62a17.547,17.547,0,0,0-2.017.624c1.213,8.962,4.075,18,9.139,25.572s13.131,13.539,22.126,14.429q.539-2.241,1.079-4.48c-15.86-4.361-31.994-18.771-30.328-36.145Z" transform="translate(-4484.175 -2306.924)" fill="#d95f33"/>
    <path id="Path_8247" data-name="Path 8247" d="M5227.117,2843.443c1.689,3.334.979,7.251-.5,10.611s-3.677,6.427-5.033,9.832c-4.115,10.33,1.406,21.585,2.383,33.608-12.573-.861-26.1-1.658-38.68-1.388.91-6.568-.352-6.7.08-13.309.7-10.76,1.128-31.573,4.133-45.486,5.855-3.189,11.2-3.068,18.075-3.007a30.747,30.747,0,0,1,10.9,2.461c3.714,1.554,6.932,3.3,8.644,6.68Z" transform="translate(-4822.207 -2635.824)" fill="#f08450"/>
    <path id="Path_8248" data-name="Path 8248" d="M5627.077,2950.23c1.48-3.361,2.189-7.277.5-10.611a10.083,10.083,0,0,0-1.288-1.919c-13.016,15.932-10.4,36-9.76,55.457,2.659.164,5.3.336,7.9.513-.977-12.023-6.5-23.278-2.383-33.608C5623.4,2956.657,5625.6,2953.591,5627.077,2950.23Z" transform="translate(-5222.668 -2732)" fill="#d95f33"/>
    <path id="Path_8249" data-name="Path 8249" d="M5226.161,3691.135a230.642,230.642,0,0,0-37.535-.385l-.036-.5a231.174,231.174,0,0,1,37.616.385Z" transform="translate(-4825.292 -3431.309)" fill="#2b3137"/>
    <path id="Path_8250" data-name="Path 8250" d="M5326.7,2833.691c-.892,0-1.815.036-2.743.1a10.606,10.606,0,0,0-3.576.742,4.308,4.308,0,0,0-2.426,2.5,4.507,4.507,0,0,0,1.314,4.354c1.908,1.891,4.806,2.269,7.389,2.389.675.032,1.295.048,1.894.048,4.061,0,7.058-.735,9.427-2.309.552-.368,2.324-1.693,2-3.369-.188-.959-1.026-1.749-2.568-2.418a26.741,26.741,0,0,0-10.708-2.044Zm1.851,10.646h0c-.607,0-1.234-.016-1.916-.048-2.68-.125-5.693-.525-7.723-2.537a4.92,4.92,0,0,1-1.44-4.867,4.822,4.822,0,0,1,2.7-2.811,11.073,11.073,0,0,1,3.746-.783,28.86,28.86,0,0,1,13.69,1.979c1.705.74,2.641,1.652,2.861,2.786.388,1.983-1.595,3.475-2.212,3.886-2.457,1.633-5.542,2.394-9.708,2.394Z" transform="translate(-4944.98 -2634.805)" fill="#2b3137"/>
    <path id="Path_8251" data-name="Path 8251" d="M5363.45,2709.305a2.525,2.525,0,0,0-1.569-1.463,13.944,13.944,0,0,0-3.548-.936c-.157-.8-.264-1.61-.35-2.413a78.644,78.644,0,0,1-.443-8.273H5349.4a48.3,48.3,0,0,1-1.687,10.666c-.269.038-.541.059-.809.1a3.572,3.572,0,0,0-2.678,1.357,2.863,2.863,0,0,0-.019,2.378,6.833,6.833,0,0,0,2.961,3.417,10.355,10.355,0,0,0,4.356,1.325,13.9,13.9,0,0,0,10.944-3.886,2.527,2.527,0,0,0,.981-2.275Z" transform="translate(-4969.783 -2507.429)" fill="#fbcfae"/>
    <path id="Path_8252" data-name="Path 8252" d="M5434.475,2709.305a2.526,2.526,0,0,0-1.57-1.463,13.934,13.934,0,0,0-3.548-.936c-.157-.8-.263-1.61-.349-2.413a78.513,78.513,0,0,1-.443-8.273h-7.893a20.6,20.6,0,0,0,6.3,18.929,13.747,13.747,0,0,0,6.518-3.569,2.528,2.528,0,0,0,.981-2.275Z" transform="translate(-5040.807 -2507.429)" fill="#eeb286"/>
    <path id="Path_8253" data-name="Path 8253" d="M5421.3,2705.936c-.072-.481-.135-.963-.187-1.442a78.779,78.779,0,0,1-.443-8.273h-8.138a47.266,47.266,0,0,1-.69,6.155A12.476,12.476,0,0,0,5421.3,2705.936Z" transform="translate(-5032.911 -2507.428)" fill="#2b3137"/>
    <path id="Path_8254" data-name="Path 8254" d="M5646.759,2965.61a143.413,143.413,0,0,1-4.21-15.289c-.382-2.8-.659-5.607-.8-8.42-.117-2.36-.166-4.794-1.161-6.974s-3.222-4.067-5.682-3.922a6.046,6.046,0,0,0-3.968,2.082c-2.873,3.121-3.061,7.8-2.14,11.926.693,3.1,3.254,9.637,3.242,9.644.244.725,1.82,10.864,3.933,15.678a8.834,8.834,0,0,0,5.108,4.8c2.417.978,5.307-1.8,6.266-4.1.716-1.712.038-3.659-.59-5.427Z" transform="translate(-5234.22 -2725.767)" fill="#f08450"/>
    <path id="Path_8255" data-name="Path 8255" d="M5436.589,3217.725H5483.6v-1.475h-47.013Z" transform="translate(-5055.927 -2991.047)" fill="#2b3137"/>
    <path id="Path_8256" data-name="Path 8256" d="M5557.33,2885.679h-40.607a1.11,1.11,0,0,1-1.1-1.233l2.438-22.046a1.112,1.112,0,0,1,1.1-.99h40.607a1.112,1.112,0,0,1,1.1,1.233l-2.438,22.046a1.111,1.111,0,0,1-1.1.989Z" transform="translate(-5129.417 -2661.052)" fill="#fefefe"/>
    <path id="Path_8257" data-name="Path 8257" d="M5557.33,2901.489h-40.607a1.11,1.11,0,0,1-1.1-1.233l2.438-22.046a1.112,1.112,0,0,1,1.1-.989h40.607a1.111,1.111,0,0,1,1.1,1.233l-2.438,22.046a1.111,1.111,0,0,1-1.1.989Z" transform="translate(-5129.417 -2675.755)" fill="#0096af"/>
    <path id="Path_8258" data-name="Path 8258" d="M5657.255,3065a30.687,30.687,0,0,0-7.175,10.762h20.442c-.087-4.794-1.651-12.513-7.829-7.444C5660.864,3069.82,5660.121,3062.952,5657.255,3065Z" transform="translate(-5254.469 -2850.029)" fill="#2b3137"/>
    <path id="Path_8259" data-name="Path 8259" d="M5691.48,3075.465c.615-.089.922.143,1,.572s-.08,1-.029,1.43a7.782,7.782,0,0,0,1.294,3,32.832,32.832,0,0,1-.358-4.327,18.429,18.429,0,0,1,.6-2.62,1.158,1.158,0,0,1,1.03.812,3.767,3.767,0,0,1,.106,1.331,9.269,9.269,0,0,0,1.222,4.694,24.621,24.621,0,0,0-.387-3,39.826,39.826,0,0,1-.064-4.55c.683-.347,1.328.156,1.526.889.227.84.25,1.321.489,2.411a11.932,11.932,0,0,0,.87,2.912c.236.517.5,1.033,1.069,1.178a1.589,1.589,0,0,0,1.272-.064,4,4,0,0,0,.745-1.064,18.739,18.739,0,0,0,2.271-3.968,4.208,4.208,0,0,1,.516-1.179.841.841,0,0,1,.913-.223c.424.192.5.732.47,1.168-.165,2.754-1.78,4.759-2.364,6.125.929-.615.819-1.152,1.4-2.035a2.857,2.857,0,0,1,.924-.681,1.264,1.264,0,0,1,1.1.209c-.979,1.215-.691,3.069-1.622,4.317a5.5,5.5,0,0,1-1.411,1.2c-.506.341-.328.307-.834.647a1.322,1.322,0,0,0-.52.525c.924,4.776,3.29,9.44,3.158,13.958a10.264,10.264,0,0,1-1.065,4.77,4.931,4.931,0,0,1-4.045,2.625c-2.448.044-4.445-2.175-5-4.467s-.065-4.659.235-6.978a39.455,39.455,0,0,0,.2-7.963c-.285-1.224-.475-2.421-1.183-2.793-.4-.212-.575-.587-.977-.8a5.3,5.3,0,0,1-1.223-1.232,11.211,11.211,0,0,1-1.735-3.17c-.594-1.29.042-1.69.4-3.654Z" transform="translate(-5292.372 -2857.544)" fill="#fbcfae"/>
    <path id="Path_8260" data-name="Path 8260" d="M5757.3,3239a29.274,29.274,0,0,1-7.774-.931c.025.015.043.034.069.048.708.372.9,1.569,1.183,2.793.087,1.185.116,2.37.1,3.556,2.316-.928,4.735-1.708,7.156-2.5-.282-.984-.539-1.973-.733-2.966Z" transform="translate(-5346.955 -3011.339)" fill="#eeb286"/>
    <path id="Path_8261" data-name="Path 8261" d="M5383.238,2503.323c4.132-2.479,7.591-6.3,12.025-6.524l-.486-2.723c-1.458-4.17-9.525-4.238-13.215-.957a7.346,7.346,0,0,0-2.232,5.036c1.792,1.456,3.456,2.909,3.907,5.168Z" transform="translate(-5002.677 -2316.382)" fill="#eeb286"/>
    <path id="Path_8262" data-name="Path 8262" d="M5395.01,2578.674l-.368-2.063c-4.436.22-7.894,4.045-12.026,6.524-.452-2.26-2.115-3.713-3.907-5.168a23,23,0,0,0,1.6,9.28c1.644,4.45,11.329,6.33,12.6,5.167s2.335-9.094,2.335-9.094l-.884-3.007.649-1.64Z" transform="translate(-5002.054 -2396.193)" fill="#fbcfae"/>
    <path id="Path_8263" data-name="Path 8263" d="M5400.577,2664.511c.085.284.517.436.455.726-.036.174-.233.252-.39.337s-.3.286-.194.425a2.829,2.829,0,0,1,.1-3.438,4.454,4.454,0,0,1,.823,1.326,1.121,1.121,0,0,0-.563.13.461.461,0,0,0-.227.494Z" transform="translate(-5021.818 -2476.125)" fill="#eeb286"/>
    <path id="Path_8264" data-name="Path 8264" d="M5377.908,2461.307a5.529,5.529,0,0,0,2.286-1.437c-4.857,1.936-10.394.171-15.557.994a6.563,6.563,0,0,0-4.675,2.546,6.2,6.2,0,0,0-.8,3.206c-.086.064-.176.122-.257.2a5.444,5.444,0,0,0-1.383,4.417,12.827,12.827,0,0,0,3.388,7.942c.022-.288.05-.577.079-.868a2.58,2.58,0,0,1-.7-.972,4.22,4.22,0,0,1-.23-1.951,2.791,2.791,0,0,1,.409-1.364,1.289,1.289,0,0,1,1.229-.591,1.339,1.339,0,0,1,.88.717c1.349-1.357,3.446-1.856,4.808-3.237a7.719,7.719,0,0,0,1.785-3.6,27.013,27.013,0,0,0,2.912.262,8.2,8.2,0,0,0,4.556-1.063c2.12-1.338,3.1-3.866,3.958-6.223a4.309,4.309,0,0,1-2.689,1.023Z" transform="translate(-4982.384 -2287.627)" fill="#2b3137"/>
    <path id="Path_8265" data-name="Path 8265" d="M5404.916,2504.3a6.344,6.344,0,0,0-2.568-.352,2.638,2.638,0,0,1-1.6-.227,2.152,2.152,0,0,0-.464-.305c-.458-.155-.874.3-1.143.7a3.466,3.466,0,0,0-.855,2.784,4.409,4.409,0,0,1,2.271-1.914c-.281.212-.061.715.282.792a1.244,1.244,0,0,0,.966-.332,1.945,1.945,0,0,1,.917-.492,2.308,2.308,0,0,1,.881.185,6.3,6.3,0,0,0,1.335.2l1.912.143a17.473,17.473,0,0,0,3.852,0,5.846,5.846,0,0,0,3.422-1.625,7.121,7.121,0,0,1-3.281.943c-.608-.029-1.2-.214-1.8-.295a2.39,2.39,0,0,0-1.753.322c0-.236-.282-.377-.518-.366s-.458.119-.693.143a2.574,2.574,0,0,1-1.158-.3Z" transform="translate(-5020.229 -2328.097)" fill="#006888"/>
    <path id="Path_8266" data-name="Path 8266" d="M7586.635,5363.1a3.677,3.677,0,1,1-3.675,3.677A3.677,3.677,0,0,1,7586.635,5363.1Z" transform="translate(-7052.012 -4987.577)" fill="#2b3137"/>
    <path id="Path_8267" data-name="Path 8267" d="M6627.436,5363.1a3.677,3.677,0,1,1-3.676,3.677A3.676,3.676,0,0,1,6627.436,5363.1Z" transform="translate(-6159.974 -4987.577)" fill="#2b3137"/>
    <path id="Path_8268" data-name="Path 8268" d="M6699.628,4605.531a12.616,12.616,0,0,1-6.454-2.979l-33.854,2.736v-.863a1.594,1.594,0,0,1,1.465-1.589c4.334-.353,17.087-1.4,21.992-1.982,5.951-.7,8.4-3.851,8.4-3.851h.771v-20.33h.779V4547.51h2.93v29.163h.778V4597h.772s2.45,3.15,8.4,3.851c4.906.577,17.659,1.629,21.991,1.982a1.594,1.594,0,0,1,1.466,1.589v.863l-30.576-2.471a18.8,18.8,0,0,0,1.756,1.323,5.47,5.47,0,0,1,1.386,1.159,2.875,2.875,0,0,1,.4.773h1.8v6.825h-6.052v-6.825h1.9c-.021-.181-.036-.362-.062-.541Z" transform="translate(-6193.044 -4229.094)" fill="#2b3137"/>
    <path id="Path_8269" data-name="Path 8269" d="M6809.364,3840.883h-35.408c-4.142-1.729-7.26-5.242-7.682-9.456-.441-4.405,1.683-8.916,4.141-13.028s5.333-8.14,6.63-12.567c1.432-4.881.99-10.284,4.394-14.467,3.045-3.741,8.968-5.426,13.354-3.8l3.843.183,8.122-.183c4.755-1.629,10.3.056,12.5,3.8,2.458,4.182,1.551,7.583,1.123,14.467-.279,4.492-.886,8.1-.447,12.567.512,5.224,1.331,8.807-.1,13.213-1.375,4.214-5.929,7.542-10.462,9.271Z" transform="translate(-6292.455 -3521.785)" fill="#f08450"/>
    <path id="Path_8270" data-name="Path 8270" d="M6846.039,3837.223h-31.67a11.042,11.042,0,0,1-6.872-8.812c-.394-4.106,1.505-8.31,3.7-12.142s4.769-7.586,5.93-11.712c1.281-4.548.886-9.585,3.929-13.482,2.724-3.487,8.022-5.057,11.946-3.539l3.437.171,7.265-.171c4.252-1.517,9.21.052,11.178,3.539,2.2,3.9,1.388,7.065,1.005,13.482-.25,4.187-.793,7.547-.4,11.712.459,4.869,1.192,8.208-.093,12.313C6854.166,3832.51,6850.093,3835.612,6846.039,3837.223Z" transform="translate(-6330.797 -3521.795)" fill="#2b3137"/>
    <path id="Path_8271" data-name="Path 8271" d="M6960.549,3422.627q4.152-4.237,8.067-8.7a3.908,3.908,0,0,1,1.261-1.083c1.113-.5,2.412.157,3.3,1a8.278,8.278,0,0,1,1.39,9.9c-1.154,1.959-3.065,3.325-4.855,4.726-.437.342-.861.7-1.29,1.051A15.334,15.334,0,0,0,6960.549,3422.627Z" transform="translate(-6473.182 -3173.72)" fill="#ecd26c"/>
    <path id="Path_8272" data-name="Path 8272" d="M6792.725,3563.286a16.259,16.259,0,0,1,3.331-3.744c2.615-2.41,5.729-5.092,8.219-7.632,3.407,1.257,5.482,3.967,7.3,7.093a68.086,68.086,0,0,0-6.4,5.98,32.1,32.1,0,0,1-3.733,3.662,8.215,8.215,0,0,1-4.792,1.876,4.775,4.775,0,0,1-4.335-2.419,5.248,5.248,0,0,1,.412-4.817Z" transform="translate(-6316.339 -3303.204)" fill="#fbcfae"/>
    <path id="Path_8273" data-name="Path 8273" d="M6944.191,3552.549c.219-.216.439-.434.65-.649,3.406,1.257,5.482,3.967,7.3,7.093a68.205,68.205,0,0,0-6.4,5.98c-.883.942-1.744,1.91-2.693,2.781a15.934,15.934,0,0,0,1.142-15.205Z" transform="translate(-6456.908 -3303.195)" fill="#2b3137"/>
    <path id="Path_8274" data-name="Path 8274" d="M6791.745,3139.291a.942.942,0,0,0-.878-.311,2.565,2.565,0,0,0-2.187,1.733,9.442,9.442,0,0,1-.3,1.022c-1.621-1.117-1.067-1.69-1.235-2.513.83-.6,1.8-1.322,2.66-1.883,1.437-.945,1.006-1.69.887-2.669a32.811,32.811,0,0,1-6.792,3.393,3,3,0,0,0-.816.388,1.02,1.02,0,0,0-.395.609,1.978,1.978,0,0,1-1.037,1.035.988.988,0,0,0-.575.912,2.978,2.978,0,0,1-1.071,2.248,1.394,1.394,0,0,0-.488,1.341q.671,3.722,1.343,7.443c.263,4.168-.7,8.333-1.524,12.438-.888,4.4-1.608,9.005-.482,13.341.448,1.725,1.294,3.49,2.829,4.265a4.433,4.433,0,0,0,4.851-.883,8.074,8.074,0,0,0,2.317-4.774,24.745,24.745,0,0,0,.038-5.458c-.381-5.708-1.394-11.431-1.776-17.14l.154-1.978a4.007,4.007,0,0,0,1.54-2.253,10.043,10.043,0,0,0-.268-3.022,5.7,5.7,0,0,1,.65-2.09,9.132,9.132,0,0,0,1.412-1.9,12.272,12.272,0,0,1,.552-1.656c.159-.268.385-.489.538-.758a.861.861,0,0,0,.053-.882Z" transform="translate(-6303.674 -2915.179)" fill="#fbcfae"/>
    <path id="Path_8275" data-name="Path 8275" d="M6824.52,3358.843l.154-1.978a4.835,4.835,0,0,0,1.384-1.745c-1.073.945-2.341,2.248-4.076,2.248,2.024,10.123,1.9,19.612-3.163,28.723-.1.216-.207.423-.318.63a3.9,3.9,0,0,0,.591.375,4.431,4.431,0,0,0,4.85-.883,8.075,8.075,0,0,0,2.317-4.774,24.8,24.8,0,0,0,.038-5.458c-.381-5.708-1.395-11.431-1.775-17.14Z" transform="translate(-6341.079 -3120.193)" fill="#eeb286"/>
    <path id="Path_8276" data-name="Path 8276" d="M6824.7,3267.467a3.923,3.923,0,0,0-1.357-2.687,4.53,4.53,0,0,0,2,.4,1.726,1.726,0,0,0-.1,1.12.968.968,0,0,0,.809.711.68.68,0,0,0,.723-.7,1.072,1.072,0,0,0,1.691-.952,2.3,2.3,0,0,0,1-2.537,6.143,6.143,0,0,1,.216,3.771,4.307,4.307,0,0,1-2.421,2.811,2.426,2.426,0,0,1-1.3.183,1.46,1.46,0,0,1-1.061-.72,3.47,3.47,0,0,1-.2-1.4Z" transform="translate(-6345.58 -3034.356)" fill="#eeb286"/>
    <path id="Path_8277" data-name="Path 8277" d="M6477.027,4069.214c11.271-5.916,24.429-7.853,35.38-14.314h10.569a9.336,9.336,0,0,1,4.947,5.541c1.245,3.851,2.187,4.815,1.092,8.712a14.991,14.991,0,0,1-4.85,6.847c-2.008,1.474-8.349,2.732-10.84,2.71-5.357-.048-19.335,3.536-27.821,5.95a9.718,9.718,0,0,1-9.519-2.352c-4.461-4.438-4.144-8.358,1.042-13.093Z" transform="translate(-6019.649 -3770.975)" fill="#2b3137"/>
    <path id="Path_8278" data-name="Path 8278" d="M6681.353,5252.7a34.112,34.112,0,0,0,9.9-.487,76.293,76.293,0,0,0-2.493,16.3l-9.239.488A74.335,74.335,0,0,0,6681.353,5252.7Z" transform="translate(-6211.83 -4884.452)" fill="#fbcfae"/>
    <path id="Path_8279" data-name="Path 8279" d="M6452.4,5408.162c2.885-1.036,6.046-1.479,8.692-2.959a11.084,11.084,0,0,0,2.346-1.763c3.036,1.293,4.91,2.562,7.459,3.5a21.126,21.126,0,0,0,2.217,1.075c-.2,1.95-.572,4.26-.9,6.195l-22.752.024-3.172-.2c.354-2.828,3.223-4.831,6.108-5.867Z" transform="translate(-5994.929 -5025.093)" fill="#fefefe"/>
    <path id="Path_8280" data-name="Path 8280" d="M6442.43,5549.064h26.623v-1.594H6442.43Z" transform="translate(-5991.34 -5159.038)" fill="#2b3137"/>
    <path id="Path_8281" data-name="Path 8281" d="M6655.505,4095.735a25.428,25.428,0,0,1,4.62-7.711c4.474-5.588,9.588-10.647,13.922-16.344,3.812-5.008,7.05-10.654,8.321-16.779h23.376a30.652,30.652,0,0,1-5.251,24.265c-7.573,10.232-19.2,13.4-29.644,20.675,4.446,15.537,1.11,27.41-1.758,39.528a40.042,40.042,0,0,1-11.625.572c.115-10.606-1.2-21.334-2.376-31.911-.457-4.108-.877-8.367.415-12.294Z" transform="translate(-6188.694 -3770.976)" fill="#006888"/>
    <path id="Path_8282" data-name="Path 8282" d="M6814.052,4201.306l-.5-.057,4.186-36.457a12.413,12.413,0,0,1,.722-3.41c.934-2.234,3-3.7,5.224-5.115l1.617-1.031c6.011-3.829,12.227-7.788,17.169-13.007,6.027-6.366,9.191-14.009,8.682-20.971l.5-.038c.521,7.1-2.7,14.889-8.819,21.357-4.985,5.265-11.227,9.241-17.264,13.085l-1.618,1.032c-2.148,1.375-4.151,2.784-5.028,4.884a12.029,12.029,0,0,0-.687,3.272l-4.187,36.457Z" transform="translate(-6336.475 -3832.652)" fill="#fefefe"/>
    <path id="Path_8283" data-name="Path 8283" d="M6662.572,4429.728a25.418,25.418,0,0,1,4.62-7.712c2.194-2.74,4.542-5.354,6.876-7.977,3.652,3.3,9.06,4.06,11.98,9.17a12.271,12.271,0,0,1,1.7,4.745,102.781,102.781,0,0,0-9.832,5.878,55.591,55.591,0,0,1,1.785,8.857c-.168.065-.328.146-.5.2.173-.057.332-.139.5-.2q.272,2.316.341,4.536c-3.681-7.958-9.391-15.188-17.8-16.289C6662.338,4430.532,6662.44,4430.127,6662.572,4429.728Z" transform="translate(-6195.76 -4104.969)" fill="#2b3137"/>
    <path id="Path_8284" data-name="Path 8284" d="M6878.51,4657.06a30.6,30.6,0,0,0,9.414,10.413c-1.725,2.176-4.235,5.742-5.959,7.918-3.891-4.5-7.675-8.5-11.544-12.216A23.033,23.033,0,0,1,6878.51,4657.06Z" transform="translate(-6389.363 -4330.974)" fill="#fbcfae"/>
    <path id="Path_8285" data-name="Path 8285" d="M6484.745,4262.541a58.219,58.219,0,0,1,5.215,6.51c.8,1.145,8.773,13.761,8.642,13.819a23.042,23.042,0,0,0-8.09,6.114,186.086,186.086,0,0,0-24.18-19.4,7.974,7.974,0,0,1-2.96-2.905c-.767-1.639-2.032-3.8-1.177-6.937a7.546,7.546,0,0,1,3.628-4.191c.333-.185.675-.353,1.011-.53,1.39-.729,4.717-.041,6.205.241a16.734,16.734,0,0,1,5.347,2,29.5,29.5,0,0,1,6.359,5.281Z" transform="translate(-6009.455 -3956.783)" fill="#006888"/>
    <path id="Path_8286" data-name="Path 8286" d="M7007.048,4846.2a40.126,40.126,0,0,1-11.907,16.2,2.517,2.517,0,0,1-1.165.623c-.868.123-1.592-.614-2.156-1.285a62.616,62.616,0,0,0,13.964-19.144,1.525,1.525,0,0,1,1.7,1.292,4.159,4.159,0,0,1-.433,2.318Z" transform="translate(-6502.262 -4503.48)" fill="#2b3137"/>
    <path id="Path_8287" data-name="Path 8287" d="M6973.946,4782.6a11.622,11.622,0,0,0-4.176,1.866c-1.732,1.069-3.679,2.51-3.625,4.545.032,1.2.781,2.249,1.145,3.392a9.6,9.6,0,0,1-.109,4.937,17.574,17.574,0,0,0-.7,4.929,4.672,4.672,0,0,0,2.47,4.058,46.9,46.9,0,0,0,14.008-19.477c-2.55-2.309-5.609-4.781-9.009-4.249Z" transform="translate(-6478.385 -4447.657)" fill="#fefefe"/>
    <path id="Path_8288" data-name="Path 8288" d="M6969.419,3364.864a13.686,13.686,0,0,0-9.359,7.628c-1.536,4-3.889,7.008-4.59,13.656a15.989,15.989,0,0,0,1.461,8.083c2.133,4.851-1.024,16.417-3.871,21.566,9.356.138,22.188.827,31.544.966,1.939-13.9,10.831-30.631,9.948-45.013a4.78,4.78,0,0,0-2.949-4.16c-7.12-2.725-15.2-3.947-22.184-2.725Z" transform="translate(-6466.217 -3128.814)" fill="#faebb5"/>
    <path id="Path_8289" data-name="Path 8289" d="M7009.717,3426.8c-8.265-2.36-16.662,4.07-19.38,11.319-2.024,7.086,1.013,16.2-4.049,21.258-4.626,5.888-10.3,10.029-16.009,14.02,9.231.175,21.376.812,30.339.945,1.94-13.9,10.55-30.616,9.948-45.013A4.746,4.746,0,0,0,7009.717,3426.8Z" transform="translate(-6482.229 -3186.39)" fill="#ecd26c"/>
    <path id="Path_8290" data-name="Path 8290" d="M7028.144,3492.9a12.528,12.528,0,0,0,1.518,6.96,6.7,6.7,0,0,1,.688,6.242c-1.007,2.8-4.2,4.022-7,5.03a108,108,0,0,0-12.885,5.612,4.258,4.258,0,0,0-1.474,1.058,1.493,1.493,0,0,0-.176,1.7c.512.75,1.643.587,2.516.34l18.071-5.119a8.135,8.135,0,0,0,7.193-6.655c2.4-7.113,4.816-14.268,5.968-21.687a10.259,10.259,0,0,0-.13-5.056,3.916,3.916,0,0,0-3.845-2.76s-10.242,9.916-10.444,14.338Z" transform="translate(-6517.885 -3234.973)" fill="#2b3137"/>
    <path id="Path_8291" data-name="Path 8291" d="M6427.76,3951.13h0Z" transform="translate(-5977.697 -3674.471)" fill="#afb8bd"/>
    <path id="Path_8292" data-name="Path 8292" d="M7357.46,3418.293c.359-1.668.747-3.35,1.231-5.078.675-2.4,2.512-5.7,5.028-6.73a6.291,6.291,0,0,1,6.238,1.139,9.361,9.361,0,0,1,2.563,6.186,16.712,16.712,0,0,1-1.266,5.831c-.37,1.01-.779,2.007-1.205,3a18.867,18.867,0,0,0-12.59-4.347Z" transform="translate(-6842.301 -3167.603)" fill="#faebb5"/>
    <path id="Path_8293" data-name="Path 8293" d="M6785.9,3606.889a4.1,4.1,0,0,1,2.078-.958,5.129,5.129,0,0,1,2.186.544,21.221,21.221,0,0,0,2.832.877c6.963-3.187,13.086-6.626,20.1-9.8a11.944,11.944,0,0,0,3.552-2.13c1.272-1.262,1.344-3.427,1.807-5.074.978-3.478,1.575-6.779,2.3-10.139a18.871,18.871,0,0,1,12.59,4.347,123.413,123.413,0,0,1-6.873,13.15,20.855,20.855,0,0,1-4.7,6.132,22.262,22.262,0,0,1-6.312,3.187,126.638,126.638,0,0,1-20.209,5.561,6.3,6.3,0,0,1-1.19.594,14.771,14.771,0,0,1-3.423.673c-.927.1-2.076.1-2.539-.681l-4.378.066-3.375.051a19.933,19.933,0,0,1,5.563-6.4Z" transform="translate(-6305.591 -3329.52)" fill="#fbcfae"/>
    <path id="Path_8294" data-name="Path 8294" d="M6847.448,3628.17c-6.485,20.44-28.5,25.213-48.7,29.061a7.077,7.077,0,0,0-1.828.647l2.213-.033,4.378-.066c.463.784,1.612.786,2.54.681a14.8,14.8,0,0,0,3.423-.673,6.332,6.332,0,0,0,1.19-.594,126.594,126.594,0,0,0,20.208-5.562,22.227,22.227,0,0,0,6.313-3.187,20.869,20.869,0,0,0,4.7-6.132,123.274,123.274,0,0,0,6.873-13.149q-.634-.524-1.31-.992Z" transform="translate(-6321.01 -3374.125)" fill="#eeb286"/>
    <path id="Path_8295" data-name="Path 8295" d="M7156.356,3021.733c-.022-.04.079-.041.058,0Z" transform="translate(-6655.276 -2810.12)" fill="#fbcfae"/>
    <path id="Path_8296" data-name="Path 8296" d="M7100.367,3221.093a7.48,7.48,0,0,1,3.08-1.6c.7-.222,1.152-.7,1.869-.874a31.7,31.7,0,0,0,2.428-11.659l6-.277,1.146.912a38.752,38.752,0,0,0,1.006,10.661,18.83,18.83,0,0,1,4.325,1.39c-.174,1.168-1.31,1.912-2.354,2.465-4.764,2.523-10.2,4.31-15.512,3.367a3.739,3.739,0,0,1-2.811-1.585c-.525-1,.026-1.989.819-2.8Z" transform="translate(-6602.257 -2982.147)" fill="#fbcfae"/>
    <path id="Path_8297" data-name="Path 8297" d="M7101.245,3398.6c-.726,0,.11-1.56,1.015-2.818a5.626,5.626,0,0,0-1.9,1.172c-.792.81-1.344,1.8-.819,2.8a3.739,3.739,0,0,0,2.811,1.584,20.772,20.772,0,0,0,10.536-1.161,16.713,16.713,0,0,1-11.642-1.576Z" transform="translate(-6602.248 -3158.006)" fill="#eeb286"/>
    <path id="Path_8298" data-name="Path 8298" d="M7171.049,3221.726a14.612,14.612,0,0,0,10.411-4.413,38.608,38.608,0,0,1-.819-9.721l-1.146-.912-6,.277a31.7,31.7,0,0,1-2.428,11.659,3.716,3.716,0,0,0-1.023.464c.012,1.067.116,2.645,1.01,2.645Z" transform="translate(-6668.004 -2982.147)" fill="#eeb286"/>
    <path id="Path_8299" data-name="Path 8299" d="M7188.982,3206.69l1.146.912a38.852,38.852,0,0,0,.046,4.205,19.587,19.587,0,0,1-9.934,7.506,31.73,31.73,0,0,0,2.737-12.346Z" transform="translate(-6677.49 -2982.156)" fill="#2b3137"/>
    <path id="Path_8300" data-name="Path 8300" d="M7297.573,2930.393a5.12,5.12,0,0,0-.426.42c-.336.286-.831.286-1.224.49a1.731,1.731,0,0,0-.825,1.235,5.13,5.13,0,0,0,.021,1.531,20.109,20.109,0,0,1,4.236,3.967c1.358,1.544,2.778,3.221,3.022,5.262a9.141,9.141,0,0,0,2.668-7.2,7.539,7.539,0,0,0-4.4-6.134,1.871,1.871,0,0,0-1.086-.181.779.779,0,0,0-.651.783c-.416-.221-.938-.439-1.331-.178Z" transform="translate(-6784.259 -2724.62)" fill="#2b3137"/>
    <path id="Path_8301" data-name="Path 8301" d="M7099.761,2966.919c1.457-2.669,5-4.18,7.995-4.717a10.746,10.746,0,0,1,10.13,3.945,11.428,11.428,0,0,1,1.6,10.819,12.211,12.211,0,0,1-8.177,7.355c-2.335.627-5.154.416-6.712-1.433-1.85-2.2-1.269-5.859-3.392-7.792-.77-.7-1.875-1.151-2.209-2.137a4.666,4.666,0,0,1-.477-2.473,21.737,21.737,0,0,1,1.241-3.57Z" transform="translate(-6601.432 -2754.646)" fill="#2b3137"/>
    <path id="Path_8302" data-name="Path 8302" d="M7106.177,3025.678c0,1.364-.088.694-.32,2.037a6.106,6.106,0,0,0,.491,3.042,29.021,29.021,0,0,0,2.971,5.394,3.761,3.761,0,0,0,1.919,1.6,5.362,5.362,0,0,0,2.938-.436,15.323,15.323,0,0,0,8.756-12.317,8.965,8.965,0,0,0-1.138-5.885,9.82,9.82,0,0,0-5.542-3.561,12.621,12.621,0,0,0-4.866-.615,6.685,6.685,0,0,0-4.356,2.067c-1.09,1.232-2.214,4.9-1.608,6.434a8.115,8.115,0,0,1,.756,2.24Z" transform="translate(-6607.751 -2803.787)" fill="#fbcfae"/>
    <path id="Path_8303" data-name="Path 8303" d="M7135.641,3019.113a9.816,9.816,0,0,0-5.542-3.561,12.622,12.622,0,0,0-4.866-.615,6.686,6.686,0,0,0-4.356,2.068,5.38,5.38,0,0,0-.736,1.193c2.278,4.081,6.693,5.171,8.553,7.96,2.016,4.032,1.341,8.942-1.7,11.5a5.465,5.465,0,0,0,1.031-.342,15.324,15.324,0,0,0,8.755-12.317,8.961,8.961,0,0,0-1.138-5.885Z" transform="translate(-6621.598 -2803.787)" fill="#eeb286"/>
    <path id="Path_8304" data-name="Path 8304" d="M7322.7,2980.43a12.113,12.113,0,0,1,6.145,8.625,8.426,8.426,0,0,0-.405-4.291c-.583-1.442-1.749-1.646-2.517-2.594-1.166-1.44-2.431-1.187-3.223-1.739Z" transform="translate(-6809.976 -2771.738)" fill="#0096af"/>
    <path id="Path_8305" data-name="Path 8305" d="M7134.48,2993.188c.384.131.773.242,1.161.36.431.684.857,1.37,1.226,2.081A20.534,20.534,0,0,1,7134.48,2993.188Zm9-1.981a6.14,6.14,0,0,0-1.185-1.4,8.623,8.623,0,0,0-1.067-3.036,9.441,9.441,0,0,0-14.9-1.479,1.95,1.95,0,0,0-.751,1.348,1.974,1.974,0,0,0,.539,1.138,14.162,14.162,0,0,0,2.047,2.037,4.352,4.352,0,0,0,1.178,1.6,45.027,45.027,0,0,0,4.227,3.012,8.321,8.321,0,0,1,3.271,3.922,2.469,2.469,0,0,1-.486,2.7,11.328,11.328,0,0,0-.957.631,1.675,1.675,0,0,0-.2,1.882,4.924,4.924,0,0,0,1.324,1.5c-.6-.6-1.242-1.352-1.069-2.18.164-.792.988-1.228,1.578-1.785a3.66,3.66,0,0,0,1.082-2.317,12.46,12.46,0,0,1,.948,4.342c1.926-.868,2.255-2.66,3.412-4.429a9.83,9.83,0,0,0,1.782-3.929,5.494,5.494,0,0,0-.78-3.556Z" transform="translate(-6626.654 -2773.475)" fill="#2b3137"/>
    <path id="Path_8306" data-name="Path 8306" d="M7206,3011.847a7.634,7.634,0,0,0,5.571,4.374l-1.7-1.547a3.932,3.932,0,0,0,2.548.475q-.227-.279-.457-.558a3.659,3.659,0,0,1,3.707,1.238,2.925,2.925,0,0,0-1.064-2.728,1.751,1.751,0,0,1,1.19.2c.016-.215.03-.431.045-.645l1.1.3-.847-1.46a3.987,3.987,0,0,1,1.776.444,6.739,6.739,0,0,0-2.85-3.3,1.455,1.455,0,0,1,.1,1.54,4.284,4.284,0,0,1-1.047,1.238c-.311.286-.729.592-1.117.422-.172-.077-.3-.239-.489-.273-.316-.059-.553.273-.687.565s-.32.636-.64.643c-.266.005-.46-.232-.667-.4s-.574-.243-.692,0a1.266,1.266,0,0,0-.06.283.658.658,0,0,1-.795.369,9.046,9.046,0,0,1-.9-.357.764.764,0,0,0-.879.2l-1.148-1.011Z" transform="translate(-6701.446 -2797.973)" fill="#006888"/>
    <path id="Path_8307" data-name="Path 8307" d="M7791.427,4204.19h2.349l-11.607-109.21h-2.348Z" transform="translate(-7235.089 -3808.249)" fill="#2b3137"/>
    <path id="Path_8308" data-name="Path 8308" d="M7693.88,4200.372h2.268l-11.2-105.392h-2.267Z" transform="translate(-7144.75 -3808.249)" fill="#2b3137"/>
    <path id="Path_8309" data-name="Path 8309" d="M5974.358,4204.19h-2.349l11.606-109.21h2.349Z" transform="translate(-5553.858 -3808.249)" fill="#2b3137"/>
    <path id="Path_8310" data-name="Path 8310" d="M6078.386,4200.372h-2.267l11.2-105.392h2.266Z" transform="translate(-5650.678 -3808.249)" fill="#2b3137"/>
    <path id="Path_8311" data-name="Path 8311" d="M7411.255,4121.333l.579-.773-31.706-23.781-.58.773Z" transform="translate(-6862.844 -3809.923)" fill="#2b3137"/>
    <path id="Path_8312" data-name="Path 8312" d="M6109.708,4121.333l31.706-23.78-.579-.773-31.705,23.781Z" transform="translate(-5681.377 -3809.923)" fill="#2b3137"/>
    <path id="Path_8313" data-name="Path 8313" d="M5751.51,4066.249h170.718v-4.559H5751.51Z" transform="translate(-5348.797 -3777.29)" fill="#fffef9"/>
    <path id="Path_8314" data-name="Path 8314" d="M6277.268,3706.888h39.19a1.2,1.2,0,0,0,1.184-1.388l-3.545-22.27a1.2,1.2,0,0,0-1.183-1.01h-39.19a1.2,1.2,0,0,0-1.184,1.388l3.543,22.268a1.2,1.2,0,0,0,1.185,1.011Z" transform="translate(-5833.332 -3424.39)" fill="#fefefe"/>
    <path id="Path_8315" data-name="Path 8315" d="M6277.268,3722.3h39.19a1.2,1.2,0,0,0,1.184-1.387l-3.545-22.27a1.2,1.2,0,0,0-1.183-1.01h-39.19a1.2,1.2,0,0,0-1.184,1.387l3.543,22.27A1.2,1.2,0,0,0,6277.268,3722.3Z" transform="translate(-5833.332 -3438.721)" fill="#0096af"/>
    <path id="Path_8316" data-name="Path 8316" d="M6339.15,4051.531h51.92v-1.071h-51.92Z" transform="translate(-5895.292 -3766.846)" fill="#0096af"/>
    <path id="Path_8317" data-name="Path 8317" d="M7370.836,3567.5a23.963,23.963,0,0,0-12.916-3.938l0-.505a24.448,24.448,0,0,1,13.191,4.022Z" transform="translate(-6842.729 -3313.574)" fill="#fefefe"/>
    <path id="Path_8318" data-name="Path 8318" d="M7092.039,3388.739a6.945,6.945,0,0,1-4.1-1.108,4.144,4.144,0,0,1-1.641-2.863,2.889,2.889,0,0,1,.7-2.29.25.25,0,0,1,.356-.016.254.254,0,0,1,.015.358,2.392,2.392,0,0,0-.568,1.9,3.611,3.611,0,0,0,1.433,2.5c1.179.85,2.792,1.151,5.11.952,4.981-.436,9.623-2.381,13.505-4.229a5.227,5.227,0,0,0,1.859-1.24,1.7,1.7,0,0,0,.279-1.9.252.252,0,0,1,.426-.271,2.184,2.184,0,0,1-.315,2.489,5.642,5.642,0,0,1-2.031,1.374c-3.924,1.867-8.619,3.833-13.681,4.276C7092.981,3388.711,7092.523,3388.739,7092.039,3388.739Z" transform="translate(-6590.11 -3143.721)" fill="#fefefe"/>
    <path id="Path_8319" data-name="Path 8319" d="M6591.582,4282.55a77.586,77.586,0,0,0-27.672-27.783l.257-.437a78.115,78.115,0,0,1,27.853,27.964l-.437.255Z" transform="translate(-6104.314 -3956.442)" fill="#fefefe"/>
    <path id="Path_8320" data-name="Path 8320" d="M2681.61,1172.515l16.5,9.672a42.1,42.1,0,0,1,4.262-5.232l-13.71-13.3A61.459,61.459,0,0,0,2681.61,1172.515Z" transform="translate(-2493.847 -1082.176)" fill="#fefefe"/>
    <path id="Path_8321" data-name="Path 8321" d="M2874.175,895.19A60.761,60.761,0,0,0,2835,910.464l12.43,14.5a41.758,41.758,0,0,1,26.745-10.667Z" transform="translate(-2636.497 -832.504)" fill="#fefefe"/>
    <path id="Path_8322" data-name="Path 8322" d="M2338.92,808.457A72.13,72.13,0,0,1,2326.7,707.184c24.591-31.342,69.514-36.27,101.274-12.224,30.88,23.379,36.764,69.8,12.223,101.274A72.055,72.055,0,0,1,2338.92,808.457Zm95.4-121.593a82.422,82.422,0,1,0,13.968,115.723,82.422,82.422,0,0,0-13.968-115.723Z" transform="translate(-2139.906 -622.415)" fill="#afb8bd"/>
    <path id="Path_8323" data-name="Path 8323" d="M2304.286,809.6a73.588,73.588,0,0,1-12.47-103.319c25.087-31.975,70.917-37,103.319-12.471,31.5,23.852,37.508,71.213,12.47,103.319a73.512,73.512,0,0,1-103.32,12.471Zm96.3-122.74a82.422,82.422,0,1,0,13.968,115.723,82.422,82.422,0,0,0-13.968-115.723Z" transform="translate(-2108.533 -622.415)" fill="#2b3137"/>
    <path id="Path_8324" data-name="Path 8324" d="M2405.442,2696.33,2401.2,2693l24.857-31.682,4.243,3.329Z" transform="translate(-2233.071 -2474.972)" fill="#2b3137"/>
    <path id="Path_8325" data-name="Path 8325" d="M1566.808,3151.209l-7.638-5.992,58.592-74.677,7.636,5.992Z" transform="translate(-1449.999 -2855.539)" fill="#f08450"/>
    <path id="Path_8326" data-name="Path 8326" d="M1617.658,3174.5l-.6-.469,55.144-70.38.6.469Z" transform="translate(-1503.835 -2886.331)" fill="#fefefe"/>
    <path id="Path_8327" data-name="Path 8327" d="M1961.441,3345.23c-1.324,2.557-.532,5.731-1.443,8.463-.793,2.376-2.771,4.146-4.016,6.322-.822,1.436-1.365,3.1-2.637,4.164a7.7,7.7,0,0,1-4.29,1.4,13.815,13.815,0,0,0-4.485.818q8.436-10.581,16.872-21.163Z" transform="translate(-1808.414 -3110.996)" fill="#2b3137"/>
    <path id="Path_8328" data-name="Path 8328" d="M1996.289,3389.074a1.935,1.935,0,0,0-.931.422,12.212,12.212,0,0,0-1.222,1.006,8.534,8.534,0,0,1,.608-1.447,5.181,5.181,0,0,0-4.1,1.924c-1.07,1.145-1.878,2.52-2.985,3.628a4.84,4.84,0,0,1-4.2,1.637q-.128,2.22-.254,4.44a4,4,0,0,1,2.832-.2,13.385,13.385,0,0,0,2.848.539,2.547,2.547,0,0,0,2.4-1.326,5.862,5.862,0,0,0,.271-1.31,8.807,8.807,0,0,0,.842-.463,5.4,5.4,0,0,0,1.974-2.06,11.5,11.5,0,0,0,.765-2.835,4.512,4.512,0,0,1,1.294-2.587c.267-.224.611-.457.6-.806a.667.667,0,0,0-.738-.559Z" transform="translate(-1844.339 -3151.735)" fill="#f5a785"/>
    <path id="Path_8329" data-name="Path 8329" d="M1322.061,2915.047a5.5,5.5,0,0,0-3.482,3.175,13.151,13.151,0,0,0-.942,4.753,40.09,40.09,0,0,0,3.895,19.9,32.479,32.479,0,0,0,14.006,14.492c9.093,4.665,20.883,4.428,31.08,5.1.716-2.437-.043-6.191.674-8.628-8.485-.335-17.281-1.725-24.135-6.741s-9.959-12.7-11.594-21.033a30.685,30.685,0,0,0-2.293-7.819,6.987,6.987,0,0,0-7.208-3.194Z" transform="translate(-1225.319 -2710.8)" fill="#006888"/>
    <path id="Path_8330" data-name="Path 8330" d="M1343.156,2947.094c-6.852-5.016-9.959-12.7-11.594-21.033a30.677,30.677,0,0,0-2.293-7.819,6.988,6.988,0,0,0-7.208-3.194,5.5,5.5,0,0,0-3.482,3.175,13.153,13.153,0,0,0-.942,4.754,40.089,40.089,0,0,0,3.895,19.9,32.48,32.48,0,0,0,14.006,14.492,33.344,33.344,0,0,0,6.377,2.425,37.417,37.417,0,0,0,2.145-12.074c-.3-.2-.606-.4-.9-.62Z" transform="translate(-1225.319 -2710.799)" fill="#2b3137"/>
    <path id="Path_8331" data-name="Path 8331" d="M1395.545,2741.968c-3.2-3.5-4.5-9.176-5-13.892l-8-.875a85.144,85.144,0,0,1,.384,19.961c4.458-2.11,8.164-3.082,12.622-5.193Z" transform="translate(-1285.736 -2536.24)" fill="#f5a785"/>
    <path id="Path_8332" data-name="Path 8332" d="M1391.885,2734.966a38.4,38.4,0,0,1-1.343-6.89l-8-.875c.127.923.236,1.849.332,2.774a12.11,12.11,0,0,0,9.014,4.99Z" transform="translate(-1285.736 -2536.24)" fill="#2b3137"/>
    <path id="Path_8333" data-name="Path 8333" d="M1274.805,2489.079a9.83,9.83,0,0,1,.359-4.955,7.334,7.334,0,0,1,3.129-3.469,12.74,12.74,0,0,1,4.484-1.5c1.988-.319,4.336-.739,5.937.482,2.081,1.586,3.023,2,3.391,4.247a5.279,5.279,0,0,0,.531,1.392,2.276,2.276,0,0,0,.819.86c.888.549,1.228,1.432,1.637,3.11a18.3,18.3,0,0,1,.491,2.62,5.5,5.5,0,0,0,.457,1.669,2.451,2.451,0,0,1,.129,1.819,2.863,2.863,0,0,1-1.351,1.283,16.2,16.2,0,0,1-12.456,1.075,10.564,10.564,0,0,1-6.236-4.293,11.242,11.242,0,0,1-1.321-4.336Z" transform="translate(-1185.407 -2305.247)" fill="#f5a785"/>
    <path id="Path_8334" data-name="Path 8334" d="M1291.278,2481.783a14.028,14.028,0,0,0-2.564-2.157c-1.6-1.221-3.949-.8-5.937-.481a12.754,12.754,0,0,0-4.484,1.5,7.336,7.336,0,0,0-3.129,3.469,9.83,9.83,0,0,0-.359,4.955,11.243,11.243,0,0,0,1.321,4.336,10.565,10.565,0,0,0,6.236,4.293,17.273,17.273,0,0,0,8.566.37c-1.951-5.27-2.418-10.774.35-16.288Z" transform="translate(-1185.407 -2305.238)" fill="#f08450"/>
    <path id="Path_8335" data-name="Path 8335" d="M1158.722,2460.41c-1.422-4.529-3.608-9.3-2.135-13.817.88-2.7,3.009-4.978,3.261-7.8.242-2.727-1.333-5.262-2.99-7.441q-.339-.444-.683-.89c.325-.344.643-.695.933-1.069a15.679,15.679,0,0,0,3.009-12.977c-.366-1.521.073-.954-1.887-3.673-4.889,2.035-8.167,3.2-13.055,5.24a14.93,14.93,0,0,0-3.193,1.651s-.716.436-.853.749a7.49,7.49,0,0,0-1.739,5.56,27.094,27.094,0,0,0-.464,6.8c.275,4.659,1.754,9.244,1.459,13.9-.314,4.942-2.59,9.513-3.969,14.269a40.2,40.2,0,0,0-.643,19.747c.844,3.823,2.416,7.743,5.6,10.018,2.708,1.935,6.165,2.4,9.468,2.8,1.782.218,3.82.359,5.132-.868a5.77,5.77,0,0,0,1.243-2.021,43.984,43.984,0,0,0,1.5-30.177Z" transform="translate(-1055.38 -2243.797)" fill="#2b3137"/>
    <path id="Path_8336" data-name="Path 8336" d="M1257.529,2455.616a10.051,10.051,0,0,0,4.445-2.936,8.3,8.3,0,0,1,.126,6.231,9.4,9.4,0,0,0-.9-3.177,6.157,6.157,0,0,1-.564,2.373l-.524-1.555a2.969,2.969,0,0,0-1.176,1.381,1.225,1.225,0,0,0-1.528-.336,3.569,3.569,0,0,0-1.244,1.15c.209-.419-.315-.9-.779-.838a1.936,1.936,0,0,0-1.117.8,2.033,2.033,0,0,1-1.106.815,6.48,6.48,0,0,1-.834-.015c-.856.032-1.481.791-1.986,1.482.067-.216-.186-.421-.411-.4a1.043,1.043,0,0,0-.573.335q-1.178,1.089-2.355,2.178.36-1.748.722-3.495a2.986,2.986,0,0,0,2.961-1.776,3.033,3.033,0,0,0,2.382-.306l4.465-1.908Z" transform="translate(-1159.687 -2280.941)" fill="#57a7b3"/>
    <path id="Path_8337" data-name="Path 8337" d="M1705.626,5325.515a22.2,22.2,0,0,1-7.438-2.493c-3.289-2.036-4.862-6.058-5.664-9.843-2.557.222-5.466.769-8.024.99,1.328,3.408,3.018,7.114,2.982,10.67,6.018,2.116,12.861,3.477,18.144.675Z" transform="translate(-1566.553 -4941.153)" fill="#fbcfae"/>
    <path id="Path_8338" data-name="Path 8338" d="M1748.336,5481.715a4.081,4.081,0,0,0-1.61-.542c-1.351-.258-2.809-.489-4.272-.769-5.283,2.8-12.126,1.441-18.144-.674a9.841,9.841,0,0,1-.154,1.7,3.533,3.533,0,0,0,1.129,3.276c.94.768,2.3.59,3.511.476,6.411-.608,13.287,1.686,19.1-1.078a1.837,1.837,0,0,0,1.033-.91,1.351,1.351,0,0,0-.6-1.477Z" transform="translate(-1603.381 -5096.042)" fill="#f08450"/>
    <path id="Path_8339" data-name="Path 8339" d="M1258.991,3747.082h-25.868a26.567,26.567,0,0,0-1.764,5.877,43.854,43.854,0,0,0,1.479,19.881c2,6.831,9.344,13.786,15.959,34.685,1.557,4.919,2.064,10.613,3.608,17.258,3.228,13.9,9.243,25.949,10.007,40.413a35.112,35.112,0,0,1,12.484-2.211c-5.083-20.066-6.643-38.4-9.1-57.706-1.569-12.317-4.86-25.328-5.267-38.484-.2-6.556-.319-13.287-1.535-19.715Z" transform="translate(-1144.623 -3484.709)" fill="#0096af"/>
    <path id="Path_8340" data-name="Path 8340" d="M1260.526,3766.8c-.2-6.556-.319-13.287-1.535-19.715h-25.868a26.575,26.575,0,0,0-1.764,5.877,43.851,43.851,0,0,0,1.479,19.881c2,6.831,9.344,13.786,15.959,34.685,1.458,4.606,2.006,9.9,3.336,16.013.979-16.373,5.2-29.226,7.36-44.057a53.674,53.674,0,0,0,1.032-12.685Z" transform="translate(-1144.623 -3484.718)" fill="#2b3137"/>
    <path id="Path_8341" data-name="Path 8341" d="M1575.845,4682.531a483.039,483.039,0,0,0-11.856-54.365l.488-.136a483.527,483.527,0,0,1,11.867,54.421l-.5.079Z" transform="translate(-1454.481 -4303.977)" fill="#fefefe"/>
    <path id="Path_8342" data-name="Path 8342" d="M1599.726,3862.995c-5.083-20.066-6.643-38.4-9.1-57.706-1.569-12.317-4.86-25.328-5.267-38.484-.2-6.556-.319-13.287-1.535-19.715h-3.732c3.159,39.011,13.654,77.127,16.1,115.887C1598.173,3862.64,1597.947,3862.918,1599.726,3862.995Z" transform="translate(-1469.454 -3484.718)" fill="#006888"/>
    <path id="Path_8343" data-name="Path 8343" d="M1047.2,5296.667a15.15,15.15,0,0,1-3.3-8.367c-.361-4.136,2-7.979,3.329-11.912-2.423-.574-5.667-1.765-8.089-2.338a35.254,35.254,0,0,1-5.171,14.547c1.01,2.752,2.082,3.849,4.092,5.857A12.811,12.811,0,0,0,1047.2,5296.667Z" transform="translate(-961.572 -4904.762)" fill="#fbcfae"/>
    <path id="Path_8344" data-name="Path 8344" d="M1024.27,5492.065a11.183,11.183,0,0,1-2.449-2.2,12.807,12.807,0,0,1-9.142-2.213c-2.01-2.009-3.082-3.105-4.092-5.857-.205.34-.4.685-.622,1.018-.7,1.067-1.5,2.262-1.239,3.511.3,1.428,1.8,2.2,2.825,3.233,1.232,1.249,1.828,3.008,3.027,4.29a8.078,8.078,0,0,0,5.408,2.285,23.976,23.976,0,0,0,5.966-.612c.8-.151,1.755-.437,1.956-1.227.244-.96-.807-1.692-1.638-2.232Z" transform="translate(-936.19 -5097.966)" fill="#f08450"/>
    <path id="Path_8345" data-name="Path 8345" d="M1091.433,3698.889c.5,4.336-4.833,14-4.674,18.336,1.33,36.161-2.159,65.581-11.83,100.7,3.438,3.192,7.768,3.178,11.541,3.929,9.788-29.366,22.422-60.777,27.435-91.323,1.667-10.163.711-17.271-.27-29.3Z" transform="translate(-999.665 -3439.892)" fill="#0096af"/>
    <path id="Path_8346" data-name="Path 8346" d="M1110.387,3981.008l-.477-.168a297.721,297.721,0,0,0,16.791-84.074l.086-1.771c.347-7.213.7-14.671,2.873-21.655l.484.151c-2.149,6.922-2.506,14.348-2.851,21.528l-.086,1.772A298.23,298.23,0,0,1,1110.387,3981.008Z" transform="translate(-1032.195 -3602.128)" fill="#fefefe"/>
    <path id="Path_8347" data-name="Path 8347" d="M1206.271,3729.721l-1.819-.191c-2.062,40.767-13.125,82.034-29.912,120.055,1.55.293,3.1.472,4.567.763,9.788-29.366,22.422-60.778,27.435-91.324,1.667-10.163.712-17.271-.27-29.3Z" transform="translate(-1092.3 -3468.387)" fill="#006888"/>
    <path id="Path_8348" data-name="Path 8348" d="M1233.86,2942.475c8.162,4.313,19.779,8.9,30.7,4.476-.52-16.207-2.859-21.921,1.585-31.9,1.569-3.52,3.635-7.038,3.532-10.856-.186-6.884-7.236-12.008-8.59-18.775-.472-2.356-.522-5.286-2.773-6.4a6.812,6.812,0,0,0-3.6-.335l-8.219.722c-2.658.234-5.624.617-7.274,2.6-1.7,2.048-1.317,4.962-.846,7.528,1.638,8.941,3.243,17.955,3.046,27.027s-2.3,18.306-7.558,25.9Z" transform="translate(-1147.466 -2677.049)" fill="#006888"/>
    <path id="Path_8349" data-name="Path 8349" d="M1323.237,3241.743l-.457-.216c6.541-13.874,8.988-30.355,6.548-44.088l.5-.089C1332.283,3211.183,1329.82,3227.778,1323.237,3241.743Z" transform="translate(-1230.16 -2973.47)" fill="#2b3137"/>
    <path id="Path_8350" data-name="Path 8350" d="M1578.925,2905.109c-.186-6.884-7.236-12.007-8.59-18.775-.472-2.356-.522-5.286-2.773-6.4a3.911,3.911,0,0,0-1.173-.35c1.611,7.452,11.65,17.717,9.72,23.608-6.58,20.077-3.85,29.257-4.532,45.434.746-.22,1.49-.47,2.231-.77-.52-16.208-2.859-21.921,1.585-31.9C1576.963,2912.445,1579.029,2908.927,1578.925,2905.109Z" transform="translate(-1456.713 -2677.959)" fill="#0096af"/>
    <path id="Path_8351" data-name="Path 8351" d="M1336,2957.46c-.648-3.868,1.912-7.731,5.3-9.709s7.44-2.424,11.36-2.569c1.235-.047,2.656.015,3.429.98.847,1.058.452,2.617-.1,3.857a22.5,22.5,0,0,1-10.981,11.2c-1.746.812-3.765,1.4-5.579.75a5.713,5.713,0,0,1-3.434-4.506Z" transform="translate(-1242.364 -2738.948)" fill="#2b3137"/>
    <path id="Path_8352" data-name="Path 8352" d="M2361.849,2480.7l1.794-1.1c.273-.167.64-.33.886-.127a.54.54,0,0,1,.12.595,1.732,1.732,0,0,1-.365.529,11.464,11.464,0,0,0-2.557,5.083c-.464-1.409-.063-3.511.122-4.983Z" transform="translate(-2196.162 -2305.777)" fill="#f08450"/>
    <path id="Path_8353" data-name="Path 8353" d="M2333.238,2400.5a.7.7,0,0,1-.186-.283,5.056,5.056,0,0,1,.252-4.062,13.753,13.753,0,0,1,2.478-3.363,18.446,18.446,0,0,0,2.613-3.267c.7.518.132,1.524-.179,2.22a11.143,11.143,0,0,1-1.228,1.92,14.868,14.868,0,0,0-2.767,5.9,1.762,1.762,0,0,1-.26.774.541.541,0,0,1-.724.159Z" transform="translate(-2169.398 -2222.203)" fill="#f08450"/>
    <path id="Path_8354" data-name="Path 8354" d="M2053.756,2362c1.329.484-.745,3.969-1.075,6.3-.479,3.383.293,4.562-.5,8.6a3.66,3.66,0,0,1-3.14,2.806c-3.457.522-6.65,2.72-9.457,4.955-3.455,2.75-7.039,5.812-11.423,6.342.194-3.639.932-7.353,4.022-9.286s7.678-3.591,10.818-5.44c5.694-3.354,8.1-10.313,10.755-14.276Z" transform="translate(-1886.151 -2196.61)" fill="#f5a785"/>
    <path id="Path_8355" data-name="Path 8355" d="M1376.988,2590.28c.872,1.638,2.257,4.6,3.666,5.81-15.753,13.45-34.128,23.542-53.141,31.76-1.689.731-3.5,1.462-5.314,1.175a6.253,6.253,0,0,1-4.62-4.138,11.623,11.623,0,0,1-.18-6.416,10.51,10.51,0,0,1,2.346-5.031c1.762-1.892,4.394-2.65,6.881-3.354a276.4,276.4,0,0,0,50.363-19.8Z" transform="translate(-1224.82 -2408.906)" fill="#006888"/>
    <path id="Path_8356" data-name="Path 8356" d="M1397.317,2590.64c-.064-.125-.133-.256-.193-.37a276.366,276.366,0,0,1-50.363,19.8c-2.488.706-5.119,1.464-6.881,3.356a7.9,7.9,0,0,0-1.19,1.752q4.659-1.664,9.467-3.148c17.247-4.79,34.49-10.5,49.161-21.394Z" transform="translate(-1244.956 -2408.897)" fill="#0096af"/>
    <path id="Path_8357" data-name="Path 8357" d="M3651.819,5079.521c-.046-.093-.093-.188-.138-.28a32.676,32.676,0,0,1-2.737-9.208c-.307-1.561-.468-3.515-.713-5.243h-7.361c.6,2.115,1.36,4.208,1.792,6.346a12.025,12.025,0,0,1-.1,5.872c3.286,1.37,6.278,3.729,9.258,2.512Z" transform="translate(-3385.941 -4710.155)" fill="#fffef9"/>
    <path id="Path_8358" data-name="Path 8358" d="M3497,5234.56a7.046,7.046,0,0,1-1.21,2.192,6.542,6.542,0,0,1-3.853,2.346,13.548,13.548,0,0,0-4.828,1.68c-1.4.982-2.566,2.036-2.092,4.006,2.334.984,6.78.45,10.079.272a8.423,8.423,0,0,0,3.37-.644,6.786,6.786,0,0,1,1.7-.828c1.013-.2,2.106.415,3.171.7a9.769,9.769,0,0,0,5.372-.526,15.667,15.667,0,0,0-1.794-6.923c-2.98,1.217-6.628-.9-9.913-2.275Z" transform="translate(-3240.904 -4868.038)" fill="#2b3137"/>
    <path id="Path_8359" data-name="Path 8359" d="M3268.024,3522.76H3240.27c.763,17.388,2.787,39.3,5.337,52.421,2.9,14.9,6.225,29.845,11.62,44.036q3.981,10.475,7.965,20.951h13.394c-20.533-90.036-8.353-93.879-10.562-117.409Z" transform="translate(-3013.391 -3276.095)" fill="#2b3137"/>
    <path id="Path_8360" data-name="Path 8360" d="M3580.323,5114.3a15.539,15.539,0,0,1-1.111-6.278,32.311,32.311,0,0,1-15.612,2.184,38.3,38.3,0,0,0,1.824,5.986A28.912,28.912,0,0,0,3580.323,5114.3Z" transform="translate(-3314.081 -4750.358)" fill="#006888"/>
    <path id="Path_8361" data-name="Path 8361" d="M3206.96,5182.23c-.038-.093-.074-.189-.11-.28-1.284-3.253-1.4-5.718-1.617-9.208-.1-1.561.03-3.516.028-5.243h-8.249c.345,2.115.861,4.208,1.006,6.346a11.27,11.27,0,0,1-1.04,5.871c3.467,1.37,6.448,3.73,9.981,2.514Z" transform="translate(-2973.131 -4805.672)" fill="#fffef9"/>
    <path id="Path_8362" data-name="Path 8362" d="M2989.336,5337.27a8.529,8.529,0,0,1-1.7,2.191,9.059,9.059,0,0,1-4.688,2.345,18.772,18.772,0,0,0-5.676,1.682c-1.722.981-3.2,2.035-2.975,4.006,2.46.984,7.529.449,11.254.272a11.271,11.271,0,0,0,3.878-.645,9.548,9.548,0,0,1,2.032-.828c1.166-.2,2.3.416,3.444.7,2,.5,4.1-.016,6.106-.525a13.084,13.084,0,0,0-.919-6.922c-3.532,1.217-7.286-.905-10.752-2.275Z" transform="translate(-2766.018 -4963.556)" fill="#2b3137"/>
    <path id="Path_8363" data-name="Path 8363" d="M3056.693,3522.76c-4.49,40.542-1.122,85.637,3.184,124.554h14.076c-.913-24.674-1.438-46.369,2.863-70.516,3.8-21.316,6.342-29.927,9.708-43.325.964-3.84,1.935-7.243,2.521-10.713Z" transform="translate(-2840.689 -3276.095)" fill="#2b3137"/>
    <path id="Path_8364" data-name="Path 8364" d="M3356.014,3748.2l-.5-.04a113.5,113.5,0,0,1,6.847-30.989c.5-1.327,1.018-2.648,1.541-3.97,1.744-4.414,3.547-8.979,4.311-13.713l.5.081c-.772,4.789-2.585,9.379-4.34,13.817-.522,1.32-1.042,2.638-1.537,3.963A112.97,112.97,0,0,0,3356.014,3748.2Z" transform="translate(-3120.562 -3440.451)" fill="#fefefe"/>
    <path id="Path_8365" data-name="Path 8365" d="M3128.516,5212.5a32.021,32.021,0,0,1-.355-6.809,52.4,52.4,0,0,1-15.822.893,18.239,18.239,0,0,1,.4,6.76,41.416,41.416,0,0,0,15.775-.845Z" transform="translate(-2894.418 -4841.189)" fill="#006888"/>
    <path id="Path_8366" data-name="Path 8366" d="M3224.913,2741.761a26.249,26.249,0,0,1-4.5-9.824q9.718-9.883,19.436-19.767a11.761,11.761,0,0,0,3.225-4.552c.763-2.514-.227-5.191-1.2-7.631q-2.221-5.556-4.444-11.114c-1.626-4.065-3.282-8.346-2.761-12.692s4.04-8.671,8.414-8.459c2.82.136,5.293,2.107,6.782,4.508a26.341,26.341,0,0,1,2.814,7.95q2.658,11.217,5.319,22.434a19.729,19.729,0,0,1,.786,7.38c-.48,3.231-2.521,6-4.622,8.5a94.536,94.536,0,0,1-29.243,23.272Z" transform="translate(-2994.921 -2480.918)" fill="#006888"/>
    <path id="Path_8367" data-name="Path 8367" d="M3167.083,2748.982a26.229,26.229,0,0,1-4.5-9.824q9.718-9.883,19.437-19.767a11.763,11.763,0,0,0,3.225-4.552c.763-2.514-.227-5.191-1.2-7.631q-2.221-5.556-4.444-11.114c-1.625-4.065-3.282-8.346-2.76-12.693s4.04-8.671,8.414-8.459c2.821.135,5.293,2.107,6.782,4.508a26.319,26.319,0,0,1,2.814,7.95q2.658,11.217,5.319,22.434a19.722,19.722,0,0,1,.785,7.379c-.481,3.231-2.521,6-4.622,8.5a94.529,94.529,0,0,1-29.243,23.272Z" transform="translate(-2941.14 -2487.632)" fill="#2b3137"/>
    <path id="Path_8368" data-name="Path 8368" d="M3279.472,2221.865c-2.249-2.76-6.217-3.347-10.6-2.673l-3.641.943a27.275,27.275,0,0,0-1.887,4.517c-.126.5.477,2.141.2,2.629-2.427,4.315-2.478,9.433-3.2,12.568a2.859,2.859,0,0,0-.1,1.263c.2.892,1.173,1.36,2.051,1.621A15.14,15.14,0,0,0,3281.281,2232a11.613,11.613,0,0,0-1.81-10.135Z" transform="translate(-3031.937 -2063.564)" fill="#fbcfae"/>
    <path id="Path_8369" data-name="Path 8369" d="M3267.791,2479.959a3.967,3.967,0,0,0,1.559.8A15.022,15.022,0,0,0,3286,2474.97c-6.11-.474-13.6.973-18.211,4.989Z" transform="translate(-3038.984 -2301.59)" fill="#eeb286"/>
    <path id="Path_8370" data-name="Path 8370" d="M3283.434,2437.145a50.029,50.029,0,0,1-4.525,11.048l17.732,2.1a70.206,70.206,0,0,1-1.046-16.468c-2.819-7.006-5.52-3.462-9.845-.079a6.558,6.558,0,0,0-2.316,3.4Z" transform="translate(-3049.325 -2259.651)" fill="#fbcfae"/>
    <path id="Path_8371" data-name="Path 8371" d="M3323.768,2233.856a8.058,8.058,0,0,1,1.376,4.872,12.493,12.493,0,0,0,.816,5.051,10.975,10.975,0,0,0,2.492,2.981l4.719,4.441a24.834,24.834,0,0,0,3.026-10.571,12.883,12.883,0,0,0-.676-5.4,11.842,11.842,0,0,0-4.068-4.993,11.462,11.462,0,0,0-6.032-2.476,4.7,4.7,0,0,0-2.8.583,2.554,2.554,0,0,0-1.246,2.45c.211,1.3,1.56,2.046,2.4,3.066Z" transform="translate(-3088.788 -2071.755)" fill="#eeb286"/>
    <path id="Path_8372" data-name="Path 8372" d="M3314.359,2171.9a8.308,8.308,0,0,0-3.963-9.794c-3.836-2.094-8.753-.954-12.725-2.777.019.343.04.686.059,1.029a2.261,2.261,0,0,1-1.692-1.948,8.129,8.129,0,0,0-.77,3.484l-.272-1.41a5.149,5.149,0,0,0,1.113,4.734,9.86,9.86,0,0,0,4.2,2.75c.487.186.982.347,1.479.5a15.432,15.432,0,0,0-.943,3.1,8.64,8.64,0,0,1-.96,2.164,1.209,1.209,0,0,0-.226.523,1.183,1.183,0,0,0,.105.487,12.835,12.835,0,0,1,.574,2.15,16.131,16.131,0,0,1,.76-2.094,8.177,8.177,0,0,1,.975-1.542,9.687,9.687,0,0,0,.529,1.229,25.626,25.626,0,0,0,3.8,4.974,17.435,17.435,0,0,1,3.5,5.171,19.971,19.971,0,0,1,2.837-4.7,10.362,10.362,0,0,0,2.19-4.981A6.288,6.288,0,0,0,3314.359,2171.9Z" transform="translate(-3064.101 -2007.275)" fill="#2b3137"/>
    <path id="Path_8373" data-name="Path 8373" d="M3374.1,2364.1a5.174,5.174,0,0,1,.709-1.822,1.757,1.757,0,0,1,1.686-.788,2.091,2.091,0,0,1,1.393,1.69,5.05,5.05,0,0,1-2.267,5.364,1.993,1.993,0,0,1-1.331.342.936.936,0,0,1-.806-.975l.615-3.812Z" transform="translate(-3137.267 -2196.109)" fill="#fbcfae"/>
    <path id="Path_8374" data-name="Path 8374" d="M3321.4,2203.272a.5.5,0,0,0,.261,0,.194.194,0,0,0,.13-.2c-.019-.089-.115-.137-.2-.175a4.694,4.694,0,0,1-2.525-2.938,4.288,4.288,0,0,0,.6,2.082,2.7,2.7,0,0,0,1.731,1.24Z" transform="translate(-3086.673 -2045.906)" fill="#006888"/>
    <path id="Path_8375" data-name="Path 8375" d="M3354.79,2214.809c.583-.177,1.1-.675,1.7-.577.482.079.835.528,1.314.628a5.186,5.186,0,0,0,1.1-.063,2.027,2.027,0,0,1,1.422.66,5.147,5.147,0,0,1,.874,1.345.907.907,0,0,1,1.313-.127,2.73,2.73,0,0,1,.75,1.276,2.447,2.447,0,0,0,.789,1.246,10.613,10.613,0,0,0-.94-3.064,3.576,3.576,0,0,0-2.448-1.911c-.429-.066-.867-.025-1.3-.079a8.746,8.746,0,0,1-1.482-.409c-2.751-.856-5.822-.458-8.461-1.615a5.32,5.32,0,0,0,2.664,2.882q-.01-.508-.019-1.016a3.4,3.4,0,0,0,2.716.823Z" transform="translate(-3114.907 -2057.224)" fill="#006888"/>
    <path id="Path_8376" data-name="Path 8376" d="M3311.4,2577.49c5.857-.514,11.826-1.022,17.561.276a11.025,11.025,0,0,1-.793-4.9,34.8,34.8,0,0,0-8.967.438,14.416,14.416,0,0,0-7.8,4.188Z" transform="translate(-3079.54 -2392.625)" fill="#0096af"/>
    <path id="Path_8377" data-name="Path 8377" d="M3096.818,3654.93l-40.8,2.226q.1-3.845.2-7.688a396.685,396.685,0,0,1,41.929.706Q3097.482,3652.552,3096.818,3654.93Z" transform="translate(-2842.042 -3393.692)" fill="#0096af"/>
    <path id="Path_8378" data-name="Path 8378" d="M3086.76,2685.979c4.135-13.843-2.888-28.035-.9-59.505.193-3.048-2.715-12.228-5.573-13.3-6.557-2.466-13.511-1.607-20.272.25l-.113.044c-6.646,2.6-11.823,9.123-12.333,16.245-.725,10.1-2.547,38.652-4.135,52.942-.21,1.89,1.31,3.984,1.078,5.3l42.247-1.977Z" transform="translate(-2830.319 -2428.78)" fill="#006888"/>
    <path id="Path_8379" data-name="Path 8379" d="M3278.369,3069.211l-.409-.3a2.5,2.5,0,0,0-.076-2.965l-.1-.127.075-.146c.664-1.31.007-2.829-.628-4.3-.167-.386-.332-.768-.473-1.145-1.378-3.668-.447-7.637.455-11.476l.2-.852a93.775,93.775,0,0,0,2.009-29.957l.5-.046a94.273,94.273,0,0,1-2.021,30.118l-.2.852c-.884,3.766-1.8,7.66-.475,11.183.14.368.3.743.465,1.121.66,1.527,1.341,3.1.684,4.584a3.024,3.024,0,0,1-.006,3.453Z" transform="translate(-3046.669 -2806.584)" fill="#2b3137"/>
    <path id="Path_8380" data-name="Path 8380" d="M3100.811,2756.99a5.046,5.046,0,0,0,2.709-1.885,34.145,34.145,0,0,0,7.548-14.581c.637-2.671.774-5.911-1.3-7.713-1.428-1.24-3.472-1.392-5.362-1.484a57.831,57.831,0,0,0-7.926-.023c-3.344.3-6.98,1.437-8.64,4.355a8.291,8.291,0,0,0-.508,6.344,19.1,19.1,0,0,0,3.065,5.738,56.54,56.54,0,0,0,6.173,7.21c1.161,1.146,2.63,2.323,4.238,2.041Z" transform="translate(-2870.798 -2539.934)" fill="#2b3137"/>
    <path id="Path_8381" data-name="Path 8381" d="M2423.473,2342.618a5.829,5.829,0,0,1-1.327-3.078,18.973,18.973,0,0,0,.147-1.961c-.013-.928-.24-1.841-.291-2.768a7.353,7.353,0,0,1,.422-2.873.907.907,0,0,0,.045-.8.541.541,0,0,0-.527-.2,1.127,1.127,0,0,0-.529.261,2.931,2.931,0,0,0-1.007,1.692,5.723,5.723,0,0,1-.311,1.39,2.138,2.138,0,0,1-.342.484,7.815,7.815,0,0,0-1.769-2.876c-.605-.586-1.545-2.042-2.09-2.684a8.1,8.1,0,0,0-1.393-1.295c-.335-.166-.654.25-.726.617-1.638-1.129-1.836-.368-1.5.366-.567-.115-1.224-.493-1.505.013s2.294,3.209,2.692,3.631c-.21-.088-2.683-2.229-2.909-2.231s-.358.443-.452.65c-.172.377.463,1.041.763,1.327a9.292,9.292,0,0,1,2.033,2.825c1.1,3.474,1.193,3.9,1.27,4.18a8.909,8.909,0,0,0,1.553,3.7c1.615,2.3,3.361,2.55,5.293,4.585q2.45-1.356,5-2.532a17.175,17.175,0,0,1-2.539-2.423Z" transform="translate(-2241.324 -2164.872)" fill="#fbcfae"/>
    <path id="Path_8382" data-name="Path 8382" d="M2519.118,2514.76a17.192,17.192,0,0,1-2.539-2.424,6.48,6.48,0,0,1-1.079-1.967,6.11,6.11,0,0,0-5.31,3.839c1.227,1.062,2.531,1.608,3.932,3.084Q2516.573,2515.936,2519.118,2514.76Z" transform="translate(-2334.43 -2334.591)" fill="#eeb286"/>
    <path id="Path_8383" data-name="Path 8383" d="M2422.394,2340.642a4.81,4.81,0,0,1-.248-1.112,18.978,18.978,0,0,0,.147-1.961c-.013-.928-.24-1.841-.291-2.769a7.351,7.351,0,0,1,.422-2.872.907.907,0,0,0,.045-.8.54.54,0,0,0-.527-.2,1.125,1.125,0,0,0-.529.261,2.932,2.932,0,0,0-1.007,1.692,5.723,5.723,0,0,1-.311,1.39,2.133,2.133,0,0,1-.342.484,7.817,7.817,0,0,0-1.769-2.876c-.605-.586-1.545-2.042-2.09-2.684a8.113,8.113,0,0,0-1.393-1.294c-.335-.166-.653.25-.726.617-1.638-1.129-1.836-.368-1.5.366-.567-.115-1.224-.493-1.505.013s2.294,3.209,2.692,3.631c-.21-.088-2.683-2.229-2.909-2.231s-.358.443-.452.65c-.172.377.463,1.041.763,1.327a9.286,9.286,0,0,1,2.033,2.825c1.1,3.474,1.193,3.9,1.27,4.18a8.911,8.911,0,0,0,1.553,3.7,8.087,8.087,0,0,0,1.36,1.5A6.11,6.11,0,0,1,2422.394,2340.642Z" transform="translate(-2241.324 -2164.863)" fill="#fbcfae"/>
    <path id="Path_8384" data-name="Path 8384" d="M2521.75,2516.787a1.531,1.531,0,0,0-.845.014,5.75,5.75,0,0,0-4.437,5.632,19.138,19.138,0,0,1,3.615,2.785,4.666,4.666,0,0,1,.809-3.8c.731-1.121,1.715-2.056,2.513-3.13-.742-.163-.937-1.246-1.655-1.5Z" transform="translate(-2340.269 -2340.508)" fill="#0096af"/>
    <path id="Path_8385" data-name="Path 8385" d="M2601.216,2549.042c-1.363,3.1-2.938,6.426-5.95,7.968-2.661,1.365-5.85,1.011-8.792.472-18-3.3-34.856-11.625-47.438-24.9-.18-2.427,1.768-6.961,4.044-7.1s6.125,2.821,8.271,3.595a119.445,119.445,0,0,0,41.408,7.619c3.382-.013,7.376.134,9.247,2.952,1.82,2.738.536,6.389-.789,9.4Z" transform="translate(-2361.246 -2348.635)" fill="#006888"/>
    <path id="Path_8386" data-name="Path 8386" d="M2596.334,2624.67c-7.8,0-14.749-2.673-22.546-5.671q-1.073-.413-2.164-.831c-11.536-4.4-21.8-11.251-29.464-16.727l.294-.411c7.633,5.458,17.867,12.285,29.35,16.665q1.093.418,2.165.831c9.687,3.725,18.052,6.943,28.341,5.1l.089.5a34.3,34.3,0,0,1-6.066.542Z" transform="translate(-2364.161 -2418.903)" fill="#2b3137"/>
  </g>
</svg>
