<svg xmlns="http://www.w3.org/2000/svg" width="669.893" height="406.936" viewBox="0 0 669.893 406.936">
  <g id="Layer_x0020_1" transform="translate(-0.01 0.003)">
    <path id="Path_8036" data-name="Path 8036" d="M688.347.584c-108.506-6.809-147,46.709-202.142,102.064S405.565,216.43,437.612,299.6,545.322,403.929,664.08,403.929s241.057,11.587,302.993-33.653,83.037-148.623-6.7-202.718C907.516,135.7,838.346,10,688.348.584Z" transform="translate(-393.656 0)" fill="#d6e9d8"/>
    <path id="Path_8037" data-name="Path 8037" d="M1427.765,4135.965c-1.741-12.439-5.825-24.386-9.9-36.254-4.607-13.425-9.789-27.59-10.021-41.949-.1-6.2,2.728-18.8,11.565-16.436,2.987.8,4.866,4.045,6.214,6.57a71.313,71.313,0,0,1,4.4,10.427c4.634,13.438,5.467,27.82,5.431,41.921-.027,10.6-.764,21.26.1,31.849a.5.5,0,0,0,1,0,247.4,247.4,0,0,1,3.412-44.344,194.933,194.933,0,0,1,4.949-20.693c.718-2.437,2.992-6.171,5.494-6.819,3.717-.964,8.315.073,9.745,4.085,5.339,14.987.814,31.121-4.16,45.529a191.739,191.739,0,0,1-6.891,18q-3.235,7-6.349,14.052c.313.109.627.217.942.325,3.357-7.51,7.091-14.873,9.865-22.6,4.977-13.879,10.534-28.134,9.909-43.135a46.391,46.391,0,0,0-1.545-9.809c-.756-2.88-1.648-5.066-4.237-6.684a9.6,9.6,0,0,0-6.217-.971c-2.628.324-3.531,1.025-4.942,3.167-.539.817-1.8,2.037-2.067,2.914q-.761,2.506-1.469,5.03c-1,3.558-1.876,7.149-2.672,10.758a196.39,196.39,0,0,0-3.273,20.025,269.2,269.2,0,0,0-1.49,31.171h1c-1-12.183.02-24.46-.123-36.665-.161-13.806-1.688-27.675-6.636-40.65-1.814-4.757-3.964-10.5-8.29-13.541-4.473-3.145-9.45.311-11.892,4.211-3.247,5.191-3.043,12.1-2.386,17.929a121.276,121.276,0,0,0,4.251,19.876c5.016,17.429,12.582,34.224,15.216,52.226.356.162.713.325,1.07.485Z" transform="translate(-1307.555 -3754.941)" fill="#a8d4af"/>
    <path id="Path_8038" data-name="Path 8038" d="M1682.175,5356.094c-.147-.976-.32-1.948-.529-2.916a.5.5,0,0,0-.979.132c.044.729.1,1.455.176,2.18l.25.114q-.178-1.084-.408-2.161l.979-.133c.053.888.131,1.773.226,2.655l.285.129Z" transform="translate(-1562.065 -4975.116)" fill="#a8d4af"/>
    <path id="Path_8039" data-name="Path 8039" d="M1014.885,4599.645c-1.676-1.792-3.36-3.574-5-5.373a68.715,68.715,0,0,1-10.949-15.087c-2.678-5.3-6.313-13.262-2.667-18.872,3.151-4.85,10.043-.92,13.475,1.39,4.377,2.947,7.831,6.9,11.145,10.957a107.508,107.508,0,0,1,20.07,38.39q.665,2.336,1.189,4.709c.369.17.741.336,1.113.5a105.793,105.793,0,0,0-13.71-33.18c-5.634-9.063-12.665-18.805-22.24-24.033-3.106-1.694-7.152-3-10.349-.848-4.055,2.729-3.412,8.683-2.367,12.718,2.5,9.661,8.663,17.509,15.255,24.768q2.466,2.038,5.035,3.958Z" transform="translate(-923.673 -4235.521)" fill="#a8d4af"/>
    <path id="Path_8040" data-name="Path 8040" d="M1859.1,4413.238c-6.6,10.285-5.35,23.408-7.368,34.991-1.16,6.656-3.539,12.989-4.754,19.625-1.157,6.317-2.414,12.6-3.873,18.85.313.119.626.239.94.357q2.109-8.969,3.747-18.038c1.138-6.312,3.332-12.344,4.551-18.636,1.163-5.994,1.663-12.01,2.226-18.077.6-6.507,1.809-12.987,5.39-18.57.349-.542-.514-1.042-.86-.5Z" transform="translate(-1713.037 -4101.616)" fill="#a8d4af"/>
    <path id="Path_8041" data-name="Path 8041" d="M1540.9,4197.376c.449,7.513,2.995,14.628,4.725,21.9,1.931,8.113,3.5,16.329,5.138,24.507,1.59,7.964,3.018,15.962,4.728,23.9a150.075,150.075,0,0,1,2.764,16.6q.516.21,1.035.418a144.331,144.331,0,0,0-2.265-14.54q-2.479-12.354-4.917-24.713c-1.557-7.9-3.124-15.817-4.884-23.678-1.812-8.094-4.829-16.066-5.327-24.395-.038-.64-1.034-.643-1,0h0Z" transform="translate(-1432.161 -3900.755)" fill="#a8d4af"/>
    <path id="Path_8042" data-name="Path 8042" d="M1187.775,4781.322c7.507,7.146,13.681,15.5,19.326,24.159,2.858,4.384,5.448,8.979,8.033,13.531q.344.606.666,1.218.784.4,1.576.8c-.154-.3-.312-.6-.475-.9-2.662-4.877-5.468-9.755-8.471-14.43-5.777-9-12.185-17.694-19.951-25.086-.464-.443-1.17.261-.7.7h0Z" transform="translate(-1103.811 -4443.157)" fill="#a8d4af"/>
    <path id="Path_8043" data-name="Path 8043" d="M1206.28,4970.237c6.049,4.064,12.679,7.258,18.4,11.8.5.395,1.207-.306.7-.7-5.792-4.6-12.481-7.847-18.6-11.96-.536-.359-1.034.5-.5.86h0Z" transform="translate(-1120.941 -4618.648)" fill="#a8d4af"/>
    <path id="Path_8044" data-name="Path 8044" d="M1444.116,4962.332c2.214,2.919,3.538,6.68,4.785,10.081a108.752,108.752,0,0,1,3.614,12.913c.145.626,1.105.36.961-.265a113.8,113.8,0,0,0-3.841-13.534c-1.2-3.274-2.533-6.9-4.658-9.7-.384-.505-1.249-.01-.861.5h0Z" transform="translate(-1342.116 -4611.516)" fill="#a8d4af"/>
    <path id="Path_8045" data-name="Path 8045" d="M1910.4,4800.978c.342,4.21,2.377,8.049,2.513,12.289.02.642,1.016.643,1,0-.135-4.247-2.17-8.08-2.513-12.289-.052-.635-1.049-.641-1,0Z" transform="translate(-1775.589 -4461.766)" fill="#a8d4af"/>
    <path id="Path_8046" data-name="Path 8046" d="M1610.872,4306.237c-1.395,4.378-1.206,9.152-1.8,13.671-.084.635.914.628,1,0,.581-4.436.394-9.11,1.762-13.405.2-.615-.766-.875-.961-.266h0Z" transform="translate(-1495.52 -4002.057)" fill="#a8d4af"/>
    <path id="Path_8047" data-name="Path 8047" d="M1521.108,4558.749c2.188,3.087,3.976,6.417,6.231,9.456a23.229,23.229,0,0,1,4.53,8.926c.138.627,1.1.36.96-.266a21.246,21.246,0,0,0-3.577-7.669c-2.46-3.622-4.752-7.381-7.284-10.949-.368-.52-1.233-.024-.86.5h0Z" transform="translate(-1413.68 -4236.404)" fill="#a8d4af"/>
    <path id="Path_8048" data-name="Path 8048" d="M1715.009,4734.539c-1.017,6.132-2.007,12.269-2.593,18.461-.06.641.937.634,1,0,.578-6.1,1.555-12.151,2.557-18.2.1-.628-.856-.9-.961-.264h0Z" transform="translate(-1591.572 -4400.125)" fill="#a8d4af"/>
    <path id="Path_8049" data-name="Path 8049" d="M1995.039,4510.3c-2.463,6.437-6.641,12.116-9.556,18.344-.271.578.588,1.084.86.5,2.954-6.309,7.16-12.059,9.657-18.581.23-.6-.733-.858-.96-.265h0Z" transform="translate(-1845.324 -4191.729)" fill="#a8d4af"/>
    <path id="Path_8050" data-name="Path 8050" d="M6677.572,4736.874a39.27,39.27,0,0,0-5.655-7.986c-4.3-4.668-9.849-7.741-13.652-12.907a161.3,161.3,0,0,1-9.968-16.237,30.733,30.733,0,0,1-3.9-10.148,46.489,46.489,0,0,1-.179-10.879l-.75.431c2.41,1.032,4.184,2.853,6.128,4.549,1.929,1.685,4.2,2.965,6.266,4.475a60.264,60.264,0,0,1,12.652,12.967c3.261,4.458,5.551,9.715,7.76,14.75,1.92,4.376,3.48,9.371,6.325,13.252.312.423,1.111.19.911-.384a86.923,86.923,0,0,1-4.606-31.33,118.855,118.855,0,0,1,1.462-14.458c.715-4.619,1.833-9.3,4.216-13.359h-.86c1.152,2.238,1.421,4.686,1.875,7.125a47.059,47.059,0,0,0,2.457,7.94,105.194,105.194,0,0,1,4.5,17.862,54.872,54.872,0,0,1,.492,18.819c-.655,4.316-1.706,8.562-2.7,12.815.357-.085.716-.17,1.071-.256,1.01-4.366,2.052-8.726,2.725-13.162a52.494,52.494,0,0,0-.451-17.531,112.221,112.221,0,0,0-4.673-18.814,58.206,58.206,0,0,1-2.456-7.939c-.544-2.534-.771-5.025-1.977-7.363a.5.5,0,0,0-.86,0c-4.544,7.739-5.2,17.8-5.736,26.576a85.912,85.912,0,0,0,4.561,33.339l.911-.383c-3-4.092-4.647-9.431-6.68-14.064a75.117,75.117,0,0,0-8.453-15.348,61.194,61.194,0,0,0-11.294-11.4c-2.4-1.849-5.042-3.361-7.329-5.355-1.833-1.6-3.463-3.213-5.733-4.183a.506.506,0,0,0-.749.43c-.461,6.418-.209,12.541,2.586,18.422a155.428,155.428,0,0,0,10.31,17.464,37.383,37.383,0,0,0,5.359,6.583c2.246,2.167,4.914,3.872,7.242,5.956a37.7,37.7,0,0,1,7.828,9.919c.342-.063.688-.124,1.029-.188Zm15.334-3.33q1.142-2.531,2.182-5.112c1.6-4.008,2.668-8.169,4.087-12.238,2.229-6.39,6.035-12.2,12.138-15.383,7.3-3.808,23.993-7.6,25.9,4.243.245-.188.488-.375.731-.563-11.029-4.67-19.678,5.638-25.217,13.852-2.841,4.212-5.76,8.24-8.87,12.2.6-.18,1.188-.364,1.779-.549,1.4-1.7,2.783-3.425,4.078-5.213,6.225-8.594,14.459-25.042,27.729-19.424a.5.5,0,0,0,.732-.562c-1.892-11.749-17.262-9.117-25.09-5.889a25.051,25.051,0,0,0-13,12.553c-1.992,3.972-2.99,8.311-4.4,12.5a99.073,99.073,0,0,1-3.992,9.892c.407-.1.811-.2,1.216-.3Z" transform="translate(-6174.274 -4339.418)" fill="#a8d4af"/>
    <path id="Path_8051" data-name="Path 8051" d="M6347.81,5349.532c-4.7-8.434-9.332-18.078-18.625-21.666-5.758-2.222-12.715-.959-18.12,1.6-6.1,2.9-10.947,8.046-15.24,13.12a.5.5,0,0,0,.485.833c9.238-2.721,20.837-3.284,29.4,1.823a33.468,33.468,0,0,1,7.259,6.428c.366-.045.728-.094,1.094-.142-3.139-3.369-6.278-6.682-10.594-8.524-8.511-3.629-18.7-3.114-27.422-.546l.485.833c7.863-9.3,19.276-18.974,32.388-14.468,5.375,1.845,9.23,6.781,12.246,11.336,2.038,3.077,3.778,6.331,5.584,9.546.355-.058.706-.12,1.061-.178Z" transform="translate(-5851.448 -4950.854)" fill="#a8d4af"/>
    <path id="Path_8052" data-name="Path 8052" d="M6852.8,5083.3c4.035,8.466,11.2,14.718,16.347,22.436a91.338,91.338,0,0,1,6.714,12.3,16.754,16.754,0,0,1,.917,2.486c.352-.071.7-.143,1.055-.216-.037-.117-.077-.234-.117-.352-1.626-4.675-4.359-9.141-6.867-13.388-5-8.469-12.914-14.8-17.188-23.769-.276-.58-1.135-.073-.86.5h0Z" transform="translate(-6369.193 -4723.91)" fill="#a8d4af"/>
    <path id="Path_8053" data-name="Path 8053" d="M6656.477,5444.483c7.359,3.9,14.549,7.97,19.663,14.695.374-.055.753-.1,1.125-.16q-.69-.916-1.395-1.821c-4.822-6.183-12.1-9.974-18.892-13.573-.567-.3-1.07.559-.5.859Z" transform="translate(-6186.536 -5059.452)" fill="#a8d4af"/>
    <path id="Path_8054" data-name="Path 8054" d="M7245.228,5062.144c.082,4.392,1.274,8.608,1.788,12.95a60.145,60.145,0,0,1-.649,15.747c-.466,3.142-.706,6.3-.913,9.454.379-.082.763-.162,1.141-.246.181-2.737.363-5.475.649-8.194a96.852,96.852,0,0,0,.912-14.938c-.239-4.982-1.84-9.772-1.932-14.772a.5.5,0,0,0-1,0Z" transform="translate(-6733.976 -4704.5)" fill="#a8d4af"/>
    <path id="Path_8055" data-name="Path 8055" d="M7413.048,5156.863c-7.622,4.822-13.158,13.158-17.507,20.893-1.536,2.734-3,5.7-4.661,8.544.446-.116.888-.238,1.332-.356.906-1.591,1.757-3.2,2.6-4.759,4.624-8.6,10.318-18.132,18.742-23.461.542-.343.042-1.2-.5-.861Z" transform="translate(-6869.351 -4792.91)" fill="#a8d4af"/>
    <path id="Path_8056" data-name="Path 8056" d="M4510.963,2623.774a9.6,9.6,0,0,1-9.6,9.6h0a9.6,9.6,0,0,1-9.6-9.6v-6.663a9.6,9.6,0,0,1,9.6-9.6h0a9.6,9.6,0,0,1,9.6,9.6Z" transform="translate(-4174.8 -2423.52)" fill="#faba40"/>
    <path id="Path_8057" data-name="Path 8057" d="M3811.851,3481.1c5.438,0,29.686-18.224,34.684-17.637,2.5,13.374,2.792,20.429,3.086,21.311s-36.3,7.346-37.769-3.674Zm139.465-34.242c-2.646-12.933-14.108-47.908-42.03-60.549s-54.083-2.351-63.781,3.525-20.868,28.807-25.864,50.262-22.045,21.164-35.27,25.866l6.172,22.339,136.379.881.294-3.527c35.563-2.058,26.748-25.865,24.1-38.8Z" transform="translate(-3517.326 -3141.772)" fill="#a8d4af"/>
    <path id="Path_8058" data-name="Path 8058" d="M4811.417,3582.39c-1.762,8.424-9.014,59.961,3.333,93.858,9.6.783,23.9,0,23.9,0-2.743-17.831-8.23-67.212,3.135-95.427C4830.426,3581.016,4811.417,3582.39,4811.417,3582.39Z" transform="translate(-4468.445 -3328.151)" fill="#fee6be"/>
    <path id="Path_8059" data-name="Path 8059" d="M4821.451,3373.092c-9.7.592-11.952,11.073-7.542,17.538s12.734,1.174,14.2-2.057c10.484,9.895,24.1.979,27.042-13.717C4855.154,3373.684,4838.5,3370.448,4821.451,3373.092Z" transform="translate(-4472.208 -3134.139)" fill="#fee6be"/>
    <path id="Path_8060" data-name="Path 8060" d="M4589.762,2206.54c-.442-9.781-10.484-28.443-34.29-27.389-16.949,1.3-19.008,17.359-19.008,17.359-.588,1.8-3.624,5.615-3.624,5.615-.883-7.522,3.874-27.456,25.277-27.99,24.1-.6,35.61,18.26,36.055,31.805-1.912,3.16-4.41.6-4.41.6Z" transform="translate(-4212.89 -2020.712)" fill="#faba40"/>
    <path id="Path_8061" data-name="Path 8061" d="M4492.592,2371.144c-8.139,5.577-13.015,14.858-8.89,24.086s5.3,13.3,1.294,20.521c-5.629,10.159-8,19.643-3.766,28.268,25.53-3.526,36.765-6.4,36.765-6.4s-9.871-67.556-25.4-66.479Z" transform="translate(-4163.003 -2203.82)" fill="#413028"/>
    <path id="Path_8062" data-name="Path 8062" d="M4902.918,3030.07s6.314,19.026,6.913,27.067c.544,7.37-23.847,12.289-25.578,4.562-1.8-9.194-4.483-24.825-4.483-24.825l23.149-6.8Z" transform="translate(-4535.431 -2816.263)" fill="#e17136"/>
    <path id="Path_8063" data-name="Path 8063" d="M4904.946,3038.025l-2.026-7.945-23.149,6.8s.824,4.8,1.88,10.822a22.794,22.794,0,0,0,23.3-9.68Z" transform="translate(-4535.431 -2816.272)" fill="#c55a28"/>
    <path id="Path_8064" data-name="Path 8064" d="M4619.748,2263.612a22.96,22.96,0,0,0,23.96,21.915h0a22.963,22.963,0,0,0,21.917-23.965l-1.084-24.257a22.961,22.961,0,0,0-23.963-21.913h0a22.96,22.96,0,0,0-21.914,23.962l1.084,24.258Z" transform="translate(-4292.727 -2059.049)" fill="#e17136"/>
    <path id="Path_8065" data-name="Path 8065" d="M4928.986,2522.213c-2.9-1.557-6.7-2.278-9.733-.716-1.133.584-.134,2.291,1,1.707,2.359-1.218,5.5-.484,7.736.715,1.123.6,2.122-1.1,1-1.707Z" transform="translate(-4571.665 -2342.766)" fill="#413028"/>
    <path id="Path_8066" data-name="Path 8066" d="M4648.964,2542.677a5.813,5.813,0,0,1,5.155-1.4c1.244.256,1.774-1.65.526-1.906a7.894,7.894,0,0,0-7.079,1.9c-.929.879.473,2.274,1.4,1.4Z" transform="translate(-4319.329 -2360.029)" fill="#413028"/>
    <path id="Path_8067" data-name="Path 8067" d="M4796.51,2734.242a.75.75,0,0,1-.494-.186l-4.473-3.939a.75.75,0,0,1,.126-1.213l4.508-2.536a.747.747,0,0,1,.733,1.3l-3.59,2.02,3.685,3.244a.745.745,0,0,1,.064,1.054A.736.736,0,0,1,4796.51,2734.242Z" transform="translate(-4453.194 -2533.901)" fill="#413028"/>
    <path id="Path_8068" data-name="Path 8068" d="M4840.82,2845.006a5.921,5.921,0,0,1-3.314-.949.747.747,0,0,1,.843-1.235,4.994,4.994,0,0,0,4.859.1,3.544,3.544,0,0,0,1.811-3.517.747.747,0,0,1,1.493-.069,5.038,5.038,0,0,1-2.574,4.891,6.452,6.452,0,0,1-3.116.78Z" transform="translate(-4495.847 -2638.324)" fill="#413028"/>
    <path id="Path_8069" data-name="Path 8069" d="M4934.075,2672.206a2.79,2.79,0,1,0,1.624-3.6,2.79,2.79,0,0,0-1.624,3.6Z" transform="translate(-4585.737 -2480.138)" fill="#2d2b2c"/>
    <path id="Path_8070" data-name="Path 8070" d="M4697.594,2686.4a2.792,2.792,0,1,0,1.627-3.594A2.794,2.794,0,0,0,4697.594,2686.4Z" transform="translate(-4365.942 -2493.336)" fill="#2d2b2c"/>
    <path id="Path_8071" data-name="Path 8071" d="M4665.692,2687.565a.649.649,0,0,1-.34-.1l-2.722-1.668a.656.656,0,1,1,.685-1.119l2.722,1.668a.655.655,0,0,1-.344,1.215Z" transform="translate(-4333.322 -2495.156)" fill="#2d2b2c"/>
    <path id="Path_8072" data-name="Path 8072" d="M4981.757,2669.634a.657.657,0,0,1-.375-1.2l2.848-1.973a.656.656,0,0,1,.747,1.079l-2.847,1.973A.652.652,0,0,1,4981.757,2669.634Z" transform="translate(-4629.611 -2478.207)" fill="#2d2b2c"/>
    <path id="Path_8073" data-name="Path 8073" d="M4709.962,2195.077c-3.809-8.2.893-13.3-1.134-21.116-1.777-6.837-9.915-6.625-14.112-16.311-6.433-14.852-39.525-28.222-51.865,1.915,13.718-9.3,27.777-4.467,33.114,2.409,10.761,13.866-.281,19.74,3.872,27.987,3.026,6.007,5.011,10.055,1.1,19.148s1.563,17.738,1.563,17.738c12.808-1.418,27.285-2.676,40.439-4.9,0-22.19-9.175-18.659-12.979-26.865Z" transform="translate(-4315.229 -1990.369)" fill="#413028"/>
    <path id="Path_8074" data-name="Path 8074" d="M4262.792,4511.09c-11.167.979-15.478,4.312-25.472,9.6s-12.148,6.468-9.8,7.447c-5.878.392-2.451,3.525,1.665,2.153-2.742,1.177,1.078,2.452,6.564.394,1.372,2.155,8.427,1.177,12.934-1.37s15.284-4.705,25.081-1.372c1.176-6.075-2.547-16.656-2.547-16.656l-8.428-.2Z" transform="translate(-3926.286 -4192.778)" fill="#e17136"/>
    <path id="Path_8075" data-name="Path 8075" d="M4869.431,4483.583c6.025-1.321,22.877-2.7,32.872-2.105.588,7.838-3.724,23.71-3.724,23.71l-26.65-5.881s1.325-8.375-2.5-15.722Z" transform="translate(-4525.821 -4165.125)" fill="#a8d4af"/>
    <path id="Path_8076" data-name="Path 8076" d="M4854.052,4453.844c11.9-1.721,23.932-1.687,35.924-2.025,5.776-.163,11.316-.833,17.041-1.489,5.441-.622,11.885.559,17.117,2.143a.5.5,0,0,0,.265-.962,52.156,52.156,0,0,0-15.54-2.312,60.048,60.048,0,0,0-7.488.936,90.034,90.034,0,0,1-10.413.658c-12.414.4-24.848.31-37.169,2.09-.634.092-.363,1.053.265.962h0Z" transform="translate(-4510.947 -4135.247)" fill="#332825"/>
    <path id="Path_8077" data-name="Path 8077" d="M5614.409,4074.287a187.649,187.649,0,0,1,1.748,24.95.5.5,0,0,0,1,0,189.475,189.475,0,0,0-1.781-25.215c-.087-.634-1.047-.363-.962.266h0Z" transform="translate(-5218.228 -3786.216)" fill="#332825"/>
    <path id="Path_8078" data-name="Path 8078" d="M4887.395,4729.905c3.6-.043,6.94,1.555,10.359,2.482,4.061,1.1,8.038,2.481,12.1,3.594a122.591,122.591,0,0,0,25.227,4.169c13.514.781,29.862.119,40.065-10a.5.5,0,0,0-.7-.7c-10.664,10.574-28.191,10.586-42.187,9.517a122.19,122.19,0,0,1-24.812-4.7c-3.617-1.058-7.225-2.163-10.835-3.241-3.04-.909-5.984-2.153-9.207-2.114a.5.5,0,0,0,0,1h0Z" transform="translate(-4542.071 -4395.226)" fill="#332825"/>
    <path id="Path_8079" data-name="Path 8079" d="M4603.4,3932.652c-.891,2.673-.625,5.549-.585,8.327.053,3.822.334,7.636.534,11.452.2,3.769.311,7.539.613,11.3.279,3.474,1.593,6.765,1.774,10.2.033.638,1.029.642,1,0-.166-3.146-1.371-6.122-1.687-9.265-.349-3.441-.457-6.907-.609-10.361-.154-3.483-.393-6.961-.538-10.444s-.65-7.6.466-10.947c.2-.611-.759-.871-.96-.264h0Z" transform="translate(-4277.96 -3654.836)" fill="#332825"/>
    <path id="Path_8080" data-name="Path 8080" d="M4809.762,3449.337c-1.563,5.516-2.664,12.557,3.521,15.658,2.23,1.119,4.771.564,6.923-.411a18.02,18.02,0,0,0,4.08-2.915c1.264-1.083,1.818.561,2.936,1.358,9.089,6.5,21.053-2.5,24.064-11.467.2-.611-.758-.871-.962-.264-3.212,9.568-16.937,18.357-24.837,8.6a.5.5,0,0,0-.7,0c-3.277,2.946-7.537,6.434-12.007,3.673-4.871-3.008-3.312-9.521-2.05-13.967a.5.5,0,0,0-.962-.265h0Z" transform="translate(-4469.229 -3205.619)" fill="#332825"/>
    <path id="Path_8081" data-name="Path 8081" d="M4370.87,4664.081c3.141-.559,5.658-2.524,8.3-4.181,3.642-2.285,7.734-3.6,11.685-5.227.585-.241.329-1.206-.265-.961-3.262,1.347-6.6,2.483-9.753,4.083-3.426,1.738-6.35,4.635-10.233,5.324-.632.113-.363,1.073.266.962Z" transform="translate(-4061.858 -4325.299)" fill="#332825"/>
    <path id="Path_8082" data-name="Path 8082" d="M4267.976,4643.494c7.936-3.351,15.246-8.061,23.393-10.925.6-.212.343-1.175-.266-.962-8.229,2.894-15.615,7.64-23.63,11.026-.59.249-.082,1.107.5.86h0Z" transform="translate(-3966.094 -4304.763)" fill="#332825"/>
    <path id="Path_8083" data-name="Path 8083" d="M4243.288,4631.278c3.134-1.9,6.71-2.788,9.931-4.5,3.191-1.694,6.364-3.432,9.664-4.907.585-.263.077-1.121-.5-.86-3.3,1.474-6.476,3.207-9.664,4.906-3.222,1.717-6.794,2.594-9.933,4.5a.5.5,0,0,0,.5.862h0Z" transform="translate(-3943.172 -4294.899)" fill="#332825"/>
    <path id="Path_8084" data-name="Path 8084" d="M4985.346,3697.23c.334,1.769,2.837,1.708,3.647.341a1.54,1.54,0,0,0-.733-2.049,2.119,2.119,0,0,0-2.715.442c-.366.53.5,1.028.86.5.439-.635,2.271.027,1.627.74-.489.542-1.569.583-1.726-.241-.12-.631-1.081-.363-.961.265h0Z" transform="translate(-4633.547 -3434.483)" fill="#332825"/>
    <path id="Path_8085" data-name="Path 8085" d="M4966.477,3809.6c-.253,1.764,1.79,2.26,2.976,1.278a1.62,1.62,0,0,0,.411-2.146,2.057,2.057,0,0,0-2.3-.359c-.609.193-.349,1.155.266.962a1.557,1.557,0,0,1,1.219-.043c.307.181-.106.737-.272.859-.363.265-1.441.462-1.333-.286.091-.629-.87-.9-.962-.266h0Z" transform="translate(-4616 -3539.482)" fill="#332825"/>
    <path id="Path_8086" data-name="Path 8086" d="M4958.172,3933.586c.088,2,3.036,1.2,3.333-.308.36-1.844-2.855-2.853-3.168-.853-.1.629.862.9.962.265.121-.769,1.22-.242,1.233.355.011.472-1.338,1.112-1.364.542-.028-.64-1.024-.642-1,0h0Z" transform="translate(-4608.301 -3653.927)" fill="#332825"/>
    <path id="Path_8087" data-name="Path 8087" d="M4682.645,4729.717a10.088,10.088,0,0,0,.606,4.544c.234.589,1.2.333.962-.265a9.392,9.392,0,0,1-.571-4.279c.065-.638-.932-.632-1,0h0Z" transform="translate(-4352.171 -4395.536)" fill="#332825"/>
    <path id="Path_8088" data-name="Path 8088" d="M4856.726,4504.657c1.859,1.308,2.007,3.9,2.532,5.917.7,2.669,1.214,5.982.032,8.589-.264.581.6,1.087.86.5,1.334-2.942.777-6.312.068-9.358-.549-2.36-.875-5.024-2.991-6.511-.526-.371-1.023.5-.5.861Z" transform="translate(-4513.807 -4185.916)" fill="#332825"/>
    <path id="Path_8089" data-name="Path 8089" d="M4517.658,2914.663c-1.565,11.623,15.6,11.662,23.018,11.308.64-.03.642-1.026,0-1-6.543.312-23.494.626-22.057-10.047.085-.628-.875-.9-.961-.265h0Z" transform="translate(-4198.777 -2708.662)" fill="#332825"/>
    <path id="Path_8090" data-name="Path 8090" d="M4830.316,3031.191c0,1.65-1.646,2.987-3.675,2.987s-3.671-1.338-3.671-2.987,1.643-2.991,3.671-2.991S4830.316,3029.54,4830.316,3031.191Z" transform="translate(-4482.64 -2814.525)" fill="#faba40"/>
    <path id="Path_8091" data-name="Path 8091" d="M4597.153,2174.125c-12.208.306-18.995,6.92-22.413,13.945a11.275,11.275,0,0,1,3.468.965c2.531-4.383,7.331-9.2,16.3-9.894,23.807-1.054,33.849,17.608,34.291,27.389,0,0,2.5,2.56,4.409-.6-.444-13.545-11.954-32.408-36.054-31.805Z" transform="translate(-4251.925 -2020.703)" fill="#faba40"/>
    <path id="Path_8092" data-name="Path 8092" d="M5260.063,2623.774a9.6,9.6,0,0,1-9.6,9.6h0a9.6,9.6,0,0,1-9.6-9.6v-6.663a9.6,9.6,0,0,1,9.6-9.6h0a9.6,9.6,0,0,1,9.6,9.6Z" transform="translate(-4871.041 -2423.52)" fill="#faba40"/>
    <path id="Path_8093" data-name="Path 8093" d="M5312.161,2673.523a5.9,5.9,0,0,1-11.435,1.881c-.713-1.816-.307-4.389-.307-6.3,0-6.632,9.12-7.777,11.435-1.88.712,1.815.307,4.387.307,6.3a.5.5,0,0,0,1,0c0-4,.391-7.856-3.4-10.347-4.595-3.018-10.069,1.032-10.333,5.927-.211,3.933-.244,7.955,3.4,10.35,4.6,3.017,10.069-1.033,10.333-5.929.035-.642-.962-.64-1,0Z" transform="translate(-4925.4 -2474.294)" fill="#332825"/>
    <path id="Path_8094" data-name="Path 8094" d="M2137.415,3648.764h76.617c3.527,0,4.311,7.054-1.567,7.054H2036.7c-5.291-10.582-29-75.245-31.352-81.319s-.194-13.129,9.407-13.129h67.406c7.053,0,14.892,1.173,19.789,11.952S2137.415,3648.764,2137.415,3648.764Z" transform="translate(-1863.024 -3310.073)" fill="#538397"/>
    <path id="Path_8095" data-name="Path 8095" d="M3154.916,3655.528a4.494,4.494,0,0,0,.634-.284.221.221,0,0,0,.053-.026c3.009-1.685,1.978-6.465-.928-6.465h-76.617s-.024-.053-.06-.129-.083-.173-.148-.313c-.272-.575-.8-1.7-1.553-3.291-6.575-13.912-29.517-62.5-33.7-71.708-4.9-10.78-12.736-11.953-19.79-11.953h-6.271c7.055,0,14.892,1.173,19.791,11.953s35.467,75.441,35.467,75.441l2.646,6.864s3.3.079,8.576.191h70.1a6.382,6.382,0,0,0,.984-.076,4.712,4.712,0,0,0,.544-.133C3154.726,3655.573,3154.828,3655.557,3154.916,3655.528Z" transform="translate(-2803.666 -3310.063)" fill="#3d6a7f"/>
    <path id="Path_8096" data-name="Path 8096" d="M2749.833,4130.415c1.934,4.783-.358,8.659-5.118,8.659s-10.191-3.876-12.124-8.659.358-8.665,5.119-8.665S2747.9,4125.629,2749.833,4130.415Z" transform="translate(-2539.124 -3830.911)" fill="none" stroke="#332825" stroke-width="14.12"/>
    <path id="Path_8097" data-name="Path 8097" d="M2607.42,4977.39h-276.4v43.815c30.343,6.46,71.239,11.128,111.511,11.637,55.132.7,112.3.071,164.889-2.487v-52.965Z" transform="translate(-2166.528 -4626.175)" fill="#fad2bd"/>
    <path id="Path_8098" data-name="Path 8098" d="M2467.82,4899.555a4.736,4.736,0,0,1-4.735,4.734H2173.213a4.734,4.734,0,0,1-4.733-4.734h0a4.734,4.734,0,0,1,4.733-4.735h289.872a4.735,4.735,0,0,1,4.735,4.735Z" transform="translate(-2015.457 -4549.431)" fill="#e17136"/>
    <path id="Path_8099" data-name="Path 8099" d="M1479.184,2135.9c6.57,6.226,11.936,6.226,11.924,0s-.035-16.411-.046-22.635-5.39-11.319-11.948-11.319h-23.848c-6.557,0-6.546,5.093.024,11.319l23.895,22.635Z" transform="translate(-1348.005 -1953.633)" fill="#61a375"/>
    <path id="Path_8100" data-name="Path 8100" d="M1222.578,561.831a38.25,38.25,0,0,1-38.251,38.25H1043.91a38.25,38.25,0,0,1-38.25-38.25V511.438a38.25,38.25,0,0,1,38.25-38.248h140.417a38.25,38.25,0,0,1,38.251,38.248Z" transform="translate(-934.689 -439.803)" fill="#61a375"/>
    <path id="Path_8101" data-name="Path 8101" d="M2402.284,813.163v6.273h-7.038v-6.273h-3.015v15.519h3.015v-6.623h7.038v6.623h2.995V813.163Zm9.246,12.874v-4.043h6.535v-2.448h-6.535v-3.738h7.562v-2.645h-10.579v15.519h10.776v-2.645h-7.759Zm21.048,2.645v-2.645h-7.912V813.163h-3.016v15.519h10.929Zm4.853,0v-5.2h3.672a4.491,4.491,0,0,0,1.968-.437,4.726,4.726,0,0,0,1.53-1.159,5.5,5.5,0,0,0,.984-1.661,5.148,5.148,0,0,0,.35-1.9,5.239,5.239,0,0,0-.371-1.88,5.692,5.692,0,0,0-1.027-1.661,5.527,5.527,0,0,0-1.552-1.18,4.649,4.649,0,0,0-1.989-.437h-6.579v15.519h3.016Zm0-12.874h3.366a1.777,1.777,0,0,1,1.442.656,2.336,2.336,0,0,1,.459.787,3.339,3.339,0,0,1,.175,1.071,2.828,2.828,0,0,1-.546,1.836,1.737,1.737,0,0,1-1.4.677h-3.5v-5.027Zm13.813,7.038V813.01h-2.929v9.836Zm0,5.836v-3.3h-2.929v3.3Z" transform="translate(-2223.419 -755.645)" fill="#d6e9d8"/>
    <path id="Path_8102" data-name="Path 8102" d="M2401.32,1185.4h97.932v-6.369H2401.32Z" transform="translate(-2231.867 -1095.837)" fill="#fef6e4"/>
    <path id="Path_8103" data-name="Path 8103" d="M2401.32,1404.647h84.569v-6.367H2401.32Z" transform="translate(-2231.867 -1299.617)" fill="#fef6e4"/>
    <path id="Path_8104" data-name="Path 8104" d="M2401.32,1623.916h56.095v-6.366H2401.32Z" transform="translate(-2231.867 -1503.414)" fill="#fef6e4"/>
    <path id="Path_8105" data-name="Path 8105" d="M2401.32,1843.13h90.725v-6.37H2401.32Z" transform="translate(-2231.867 -1707.156)" fill="#fef6e4"/>
    <path id="Path_8106" data-name="Path 8106" d="M1417.58,1730.817c-2.918-7.247-13.015-12.425-18.173-12.356h-17.422c-5.728.539-15.256,5.109-18.174,12.356a38.477,38.477,0,0,0,53.77,0Z" transform="translate(-1267.567 -1597.204)" fill="#413028"/>
    <path id="Path_8107" data-name="Path 8107" d="M1606.486,1507.65s-1.668,13.707-2.82,21.458c-.841,5.661,19.476,7.252,20.093,1.149.539-7.238,1.159-19.506,1.159-19.506Z" transform="translate(-1490.474 -1401.269)" fill="#e17136"/>
    <path id="Path_8108" data-name="Path 8108" d="M1632.26,1513.949l.826-6.3,18.432,3.1s-.193,3.769-.449,8.5a17.638,17.638,0,0,1-18.808-5.3Z" transform="translate(-1517.074 -1401.269)" fill="#c55a28"/>
    <path id="Path_8109" data-name="Path 8109" d="M1586.607,890.16a17.786,17.786,0,0,1-16.409,19.065h0a17.787,17.787,0,0,1-19.063-16.414l-1.4-18.758a17.782,17.782,0,0,1,16.409-19.06h0a17.784,17.784,0,0,1,19.064,16.408l1.4,18.759Z" transform="translate(-1440.324 -794.619)" fill="#e17136"/>
    <path id="Path_8110" data-name="Path 8110" d="M1713.494,1085.616a9.319,9.319,0,0,0,5.992-3.728c.745-1.039-.972-2.025-1.707-1a7.371,7.371,0,0,1-4.81,2.82c-1.248.264-.719,2.169.525,1.906Z" transform="translate(-1591.426 -1004.219)" fill="#413028"/>
    <path id="Path_8111" data-name="Path 8111" d="M1952.061,1063.526a3.9,3.9,0,0,1-2.938-2.165c-.616-1.116-2.324-.119-1.707,1a5.765,5.765,0,0,0,4.12,3.072c1.247.234,1.778-1.671.525-1.906Z" transform="translate(-1809.869 -986.017)" fill="#413028"/>
    <path id="Path_8112" data-name="Path 8112" d="M1870.811,1246.489a.748.748,0,0,1-.557-1.246l2.377-2.658-2.727-1.131a.747.747,0,1,1,.572-1.381l3.7,1.535a.747.747,0,0,1,.271,1.188l-3.079,3.443a.745.745,0,0,1-.557.249Z" transform="translate(-1737.519 -1152.519)" fill="#413028"/>
    <path id="Path_8113" data-name="Path 8113" d="M1815.335,1386.8a.748.748,0,0,1-.433-1.358c2.944-2.081,5.585-2.918,7.859-2.487a.748.748,0,0,1-.28,1.469c-1.854-.351-4.117.4-6.715,2.239a.748.748,0,0,1-.432.136Z" transform="translate(-1686.535 -1285.27)" fill="#413028"/>
    <path id="Path_8114" data-name="Path 8114" d="M1768.173,1210.392a2.161,2.161,0,1,1-1.581-2.617A2.164,2.164,0,0,1,1768.173,1210.392Z" transform="translate(-1639.437 -1122.495)" fill="#2d2b2c"/>
    <path id="Path_8115" data-name="Path 8115" d="M1951.343,1199.51a2.162,2.162,0,1,1-1.583-2.612,2.163,2.163,0,0,1,1.583,2.612Z" transform="translate(-1809.681 -1112.384)" fill="#2d2b2c"/>
    <path id="Path_8116" data-name="Path 8116" d="M1444.48,1233.761a6.456,6.456,0,0,1-4.752,7.8h0a6.457,6.457,0,0,1-7.8-4.75l-.481-1.982a6.459,6.459,0,0,1,4.752-7.8h0a6.459,6.459,0,0,1,7.8,4.752l.481,1.982Z" transform="translate(-1330.259 -1140.277)" fill="#e17136"/>
    <path id="Path_8117" data-name="Path 8117" d="M1429.9,765.78c-1.518-4.324-8.919-21.915,2.086-22.447.683-6.905,10.284-10.548,22.275-12.9s19.467,3.264,18.556,8.879-8.274,7.665-14.115,5.995c-1.67,6.071-9.714,4.024-11.459,2.808-1.349,5.881-8.027,7.3-7.267,11.4s1.1,8.271,1.252,9.108-3.34,2.468-4.1.8-3.758-4.666-7.229-3.643Z" transform="translate(-1325.422 -678.384)" fill="#413028"/>
    <path id="Path_8118" data-name="Path 8118" d="M1945.536,1797.481c7.277,1.444,3.106-23.245,3.058-26.967q-.25.249-.5.5,23.491.209,46.987.043c11.2-.1,22.382-.385,33.58-.384,6.886,0,13.734-.254,20.612-.519,7.374-.285,14.724-.261,21.908-2.17,13.743-3.651,18.746-18.183,20.167-30.936.07-.639-.927-.631-1,0-1.054,9.465-3.923,19.837-11.537,26.143-5.736,4.75-14.189,5.352-21.306,5.7-7.087.345-14.206.645-21.3.746-22.445.322-44.907.542-67.355.49q-10.377-.022-20.757-.108a.5.5,0,0,0-.5.5c.039,3.139,3.287,27.015-1.8,26.007-.627-.125-.895.836-.264.961h0Z" transform="translate(-1807.911 -1614.036)" fill="#332825"/>
    <path id="Path_8119" data-name="Path 8119" d="M4006.077,1132.48c.008,12.38.539,24.826-.3,37.188-.043.642.954.636,1,0,.844-12.361.313-24.808.3-37.188a.5.5,0,0,0-1,0Z" transform="translate(-3723.103 -1052.124)" fill="#332825"/>
    <path id="Path_8120" data-name="Path 8120" d="M6531.38,2220.06a39.657,39.657,0,0,1-39.656,39.656H6346.146a39.657,39.657,0,0,1-39.656-39.656v-52.244a39.657,39.657,0,0,1,39.656-39.656h145.578a39.657,39.657,0,0,1,39.656,39.656Z" transform="translate(-5861.478 -1977.994)" fill="#61a375"/>
    <path id="Path_8121" data-name="Path 8121" d="M6779.863,3851.992c-6.812,6.452-12.376,6.452-12.363,0s.036-17.015.05-23.467,5.588-11.735,12.386-11.735h24.723c6.8,0,6.789,5.28-.024,11.735l-24.772,23.467Z" transform="translate(-6289.958 -3547.47)" fill="#61a375"/>
    <path id="Path_8122" data-name="Path 8122" d="M6736.542,2519.8H6723.15v2.742h5.144v13.347h3.1v-13.347h5.144V2519.8Zm12.418,0v6.5h-7.3v-6.5h-3.127v16.089h3.127v-6.866h7.3v6.866h3.1V2519.8Zm4.894,16.089h3.218l1.473-4.011h5.62l1.5,4.011h3.218l-6.118-16.089h-2.765l-6.142,16.089Zm5.212-6.209,2.312-6.322,2.221,6.322Zm22.977,6.209h2.539v-16.066h-3.127v10.537l-8.384-10.56h-2.425v16.089h3.127v-10.311l8.272,10.311Zm9.019,0v-4.8l2.062-2.153,5.008,6.957h3.513l-6.549-8.951,6.165-7.138h-3.444l-6.753,7.66v-7.636h-3.127v16.066h3.127Zm23-14.412a12.217,12.217,0,0,0-2.493-1.269,9.238,9.238,0,0,0-3.127-.521,8.211,8.211,0,0,0-2.289.318,5.589,5.589,0,0,0-1.858.974,4.33,4.33,0,0,0-1.269,1.586,5.113,5.113,0,0,0-.453,2.176,3.747,3.747,0,0,0,.294,1.586,3.058,3.058,0,0,0,.838,1.178,5.472,5.472,0,0,0,1.427.883,13.444,13.444,0,0,0,1.994.7c.635.181,1.2.34,1.722.5a8.523,8.523,0,0,1,1.315.5,2.481,2.481,0,0,1,.838.635,1.341,1.341,0,0,1,.294.883c0,1.111-.861,1.654-2.583,1.654a6.974,6.974,0,0,1-1.813-.227,9.579,9.579,0,0,1-1.608-.566,7.925,7.925,0,0,1-1.247-.657,3.665,3.665,0,0,1-.748-.521l-1.383,2.7a11.161,11.161,0,0,0,3.172,1.541,12.14,12.14,0,0,0,3.581.544,9.273,9.273,0,0,0,2.267-.272,5.507,5.507,0,0,0,1.9-.816,4.435,4.435,0,0,0,1.315-1.5,4.7,4.7,0,0,0,.475-2.2,4.273,4.273,0,0,0-.363-1.881,4,4,0,0,0-1.02-1.291,6.221,6.221,0,0,0-1.631-.907,20.136,20.136,0,0,0-2.153-.679c-.612-.159-1.133-.3-1.586-.43a5.836,5.836,0,0,1-1.156-.454,1.95,1.95,0,0,1-.68-.589,1.3,1.3,0,0,1-.249-.816,1.564,1.564,0,0,1,.635-1.337,3.212,3.212,0,0,1,1.926-.476,6.149,6.149,0,0,1,1.427.181,10.112,10.112,0,0,1,1.314.431,10.384,10.384,0,0,1,1.02.544,3.95,3.95,0,0,1,.567.43l1.382-2.538Zm6.255,8.362v-10.2h-3.036v10.2Zm0,6.05v-3.421h-3.036v3.421Z" transform="translate(-6248.738 -2341.85)" fill="#d6e9d8"/>
    <path id="Path_8123" data-name="Path 8123" d="M6680.56,2905.741h101.533v-6.6H6680.56Z" transform="translate(-6209.152 -2694.572)" fill="#fef6e4"/>
    <path id="Path_8124" data-name="Path 8124" d="M6680.56,3133.025h87.679v-6.605H6680.56Z" transform="translate(-6209.152 -2905.814)" fill="#fef6e4"/>
    <path id="Path_8125" data-name="Path 8125" d="M6680.56,3360.333h58.156v-6.6H6680.56Z" transform="translate(-6209.152 -3117.085)" fill="#fef6e4"/>
    <path id="Path_8126" data-name="Path 8126" d="M8449.66,3466.724c3.025-7.514,13.491-12.882,18.841-12.812h18.063c5.937.56,15.817,5.3,18.84,12.813a39.9,39.9,0,0,1-55.744,0Z" transform="translate(-7853.42 -3210.196)" fill="#413028"/>
    <path id="Path_8127" data-name="Path 8127" d="M8697.539,3235.38s1.729,14.21,2.924,22.247c.873,5.868-20.191,7.519-20.83,1.191-.56-7.5-1.2-20.221-1.2-20.221l19.109-3.216Z" transform="translate(-8066.048 -3007.086)" fill="#e17136"/>
    <path id="Path_8128" data-name="Path 8128" d="M8698.374,3241.911l-.854-6.531-19.109,3.216s.2,3.908.467,8.808a18.292,18.292,0,0,0,19.5-5.494Z" transform="translate(-8066.03 -3007.086)" fill="#c55a28"/>
    <path id="Path_8129" data-name="Path 8129" d="M8503.744,2595.2a18.445,18.445,0,0,0,17.014,19.765h0a18.441,18.441,0,0,0,19.762-17.016l1.457-19.448a18.439,18.439,0,0,0-17.014-19.761h0a18.434,18.434,0,0,0-19.764,17.011Z" transform="translate(-7903.64 -2378.143)" fill="#e17136"/>
    <path id="Path_8130" data-name="Path 8130" d="M8778.421,2802.746a5.616,5.616,0,0,0-5.42-3.007c-1.251.146-1.264,2.125,0,1.977a3.7,3.7,0,0,1,3.714,2.028c.587,1.131,2.294.131,1.706-1Z" transform="translate(-8153.069 -2602.156)" fill="#413028"/>
    <path id="Path_8131" data-name="Path 8131" d="M8556.257,2791.974a4.232,4.232,0,0,1,3.687-1.229c1.239.3,1.767-1.607.527-1.907a6.216,6.216,0,0,0-5.611,1.738c-.881.922.515,2.323,1.4,1.4h0Z" transform="translate(-7950.936 -2591.928)" fill="#413028"/>
    <path id="Path_8132" data-name="Path 8132" d="M8643.454,2964.964a.745.745,0,0,1-.558-.249l-3.191-3.571a.747.747,0,0,1,.271-1.188l3.837-1.593a.748.748,0,0,1,.571,1.382l-2.861,1.188,2.489,2.785a.747.747,0,0,1-.559,1.245Z" transform="translate(-8029.879 -2749.564)" fill="#413028"/>
    <path id="Path_8133" data-name="Path 8133" d="M8632.678,3092.883c.624,2.806,1.542,4.39,2.563,4.39.657,0,2.063-.578,4.394-4.206A39.075,39.075,0,0,1,8632.678,3092.883Zm2.564,5.884h0c-2.048,0-3.434-2.168-4.238-6.633a.751.751,0,0,1,.2-.652.764.764,0,0,1,.646-.22,33.5,33.5,0,0,0,5.17.377c1.19,0,2.483-.049,3.953-.149a.74.74,0,0,1,.687.353.751.751,0,0,1,.008.773c-2.442,4.14-4.545,6.152-6.425,6.152Z" transform="translate(-8021.955 -2873.131)" fill="#413028"/>
    <path id="Path_8134" data-name="Path 8134" d="M8761.412,2927.174a2.241,2.241,0,1,0,1.641-2.715,2.242,2.242,0,0,0-1.641,2.715Z" transform="translate(-8143.114 -2718.043)" fill="#2d2b2c"/>
    <path id="Path_8135" data-name="Path 8135" d="M8571.478,2915.908a2.243,2.243,0,1,0,1.644-2.712,2.247,2.247,0,0,0-1.644,2.712Z" transform="translate(-7966.581 -2707.575)" fill="#2d2b2c"/>
    <path id="Path_8136" data-name="Path 8136" d="M8973.036,2951.42a6.7,6.7,0,0,0,4.926,8.088h0a6.693,6.693,0,0,0,8.088-4.927l.5-2.054a6.692,6.692,0,0,0-4.926-8.088h0a6.7,6.7,0,0,0-8.088,4.927Z" transform="translate(-8339.688 -2736.497)" fill="#e17136"/>
    <path id="Path_8137" data-name="Path 8137" d="M8531.605,2466.254c1.573-4.486,9.243-22.723-2.163-23.271-.71-7.162-10.662-10.937-23.093-13.376s-20.183,3.384-19.239,9.206,8.577,7.945,14.635,6.215c1.73,6.294,10.069,4.169,11.882,2.911,1.4,6.1,8.319,7.573,7.534,11.822s-1.142,8.575-1.3,9.443,3.461,2.556,4.251.825,3.895-4.839,7.5-3.775Z" transform="translate(-7888.156 -2257.64)" fill="#413028"/>
    <path id="Path_8138" data-name="Path 8138" d="M8918.624,3613.058c14.638-.58,30.325-9.894,33.444-25.023.129-.627-.832-.894-.962-.264-3.026,14.691-18.266,23.726-32.482,24.291-.641.025-.644,1.022,0,1Z" transform="translate(-8288.846 -3334.277)" fill="#332825"/>
    <path id="Path_8139" data-name="Path 8139" d="M8747.006,3938.861c2.671.095,5.342.147,8.014.207a.5.5,0,0,0,0-1c-2.672-.06-5.344-.113-8.014-.208-.644-.023-.64.974,0,1h0Z" transform="translate(-8129.337 -3660)" fill="#332825"/>
    <path id="Path_8140" data-name="Path 8140" d="M6928.146,3952.147c5.018-4.516,10.056-9.008,14.772-13.841,2.183-2.236,4.13-5.155,6.765-6.925a10.41,10.41,0,0,1,5.32-1.321c3.59-.207,7.205-.115,10.8-.163,6.52-.089,13.03-.437,19.552-.425,6.985.013,13.967.329,20.944.646,13.591.62,27.215,1.263,40.778-.135.633-.064.639-1.062,0-1-13.878,1.43-27.817.727-41.72.092-7.309-.333-14.618-.617-21.937-.6-6.528.012-13.053.377-19.581.449-4.449.048-10.648-.938-14.658,1.6-2.484,1.572-4.349,4.33-6.321,6.412-4.857,5.124-10.173,9.794-15.418,14.512-.478.43.229,1.132.705.7h0Z" transform="translate(-6438.466 -3651.274)" fill="#332825"/>
    <path id="Path_8141" data-name="Path 8141" d="M5236.987,878.751a20.758,20.758,0,0,1-20.757,20.757H5022.958a20.758,20.758,0,0,1-20.757-20.757V859.429a20.759,20.759,0,0,1,20.757-20.759h193.272a20.759,20.759,0,0,1,20.757,20.759Z" transform="translate(-4649.222 -779.494)" fill="#a8d4af"/>
    <path id="Path_8142" data-name="Path 8142" d="M5284.578,1030c.728-1.474,1.918-1.474,2.646,0l2.323,4.709a6.384,6.384,0,0,0,4.282,3.111l5.2.756c1.626.236,2,1.369.816,2.516l-3.759,3.664a6.388,6.388,0,0,0-1.636,5.033l.888,5.174c.278,1.62-.686,2.321-2.141,1.557l-4.648-2.445a6.38,6.38,0,0,0-5.293,0l-4.646,2.442c-1.455.766-2.419.065-2.14-1.555l.886-5.174a6.379,6.379,0,0,0-1.634-5.033l-3.759-3.664c-1.177-1.147-.81-2.28.817-2.516l5.2-.757a6.386,6.386,0,0,0,4.28-3.111l2.324-4.707Z" transform="translate(-4899.307 -956.294)" fill="#e17136"/>
    <path id="Path_8143" data-name="Path 8143" d="M5873.05,1030c.728-1.474,1.918-1.474,2.646,0l2.321,4.709a6.382,6.382,0,0,0,4.281,3.111l5.2.756c1.626.236,2,1.369.817,2.516l-3.758,3.664a6.378,6.378,0,0,0-1.634,5.033l.886,5.174c.28,1.62-.684,2.321-2.139,1.555l-4.647-2.442a6.385,6.385,0,0,0-5.293,0l-4.65,2.445c-1.455.764-2.417.063-2.139-1.557l.887-5.174a6.388,6.388,0,0,0-1.635-5.033l-3.758-3.664c-1.177-1.147-.809-2.28.818-2.516l5.2-.757a6.387,6.387,0,0,0,4.281-3.111l2.322-4.707Z" transform="translate(-5446.254 -956.294)" fill="#e17136"/>
    <path id="Path_8144" data-name="Path 8144" d="M6461.517,1030c.728-1.474,1.919-1.474,2.647,0l2.322,4.709a6.382,6.382,0,0,0,4.282,3.111l5.2.756c1.627.236,2,1.369.817,2.516l-3.758,3.664a6.387,6.387,0,0,0-1.635,5.033l.887,5.174c.278,1.62-.686,2.321-2.14,1.555l-4.648-2.442a6.379,6.379,0,0,0-5.293,0l-4.646,2.442c-1.456.766-2.418.065-2.14-1.555l.885-5.174a6.383,6.383,0,0,0-1.636-5.033l-3.758-3.664c-1.176-1.147-.809-2.28.818-2.517l5.192-.756a6.392,6.392,0,0,0,4.281-3.113l2.324-4.706Z" transform="translate(-5993.199 -956.294)" fill="#e17136"/>
    <path id="Path_8145" data-name="Path 8145" d="M7049.959,1030c.729-1.474,1.919-1.474,2.647,0l2.322,4.709a6.38,6.38,0,0,0,4.282,3.111l5.195.756c1.627.236,2,1.369.817,2.516l-3.759,3.664a6.382,6.382,0,0,0-1.634,5.033l.887,5.174c.278,1.62-.685,2.321-2.141,1.555l-4.647-2.442a6.379,6.379,0,0,0-5.293,0l-4.648,2.442c-1.455.766-2.418.065-2.141-1.555l.887-5.174a6.389,6.389,0,0,0-1.636-5.033l-3.758-3.664c-1.177-1.147-.809-2.28.818-2.516l5.194-.757a6.389,6.389,0,0,0,4.281-3.111l2.323-4.707Z" transform="translate(-6540.117 -956.294)" fill="#e17136"/>
    <path id="Path_8146" data-name="Path 8146" d="M7638.465,1030c.729-1.474,1.92-1.474,2.648,0l2.323,4.709a6.388,6.388,0,0,0,4.283,3.111l5.2.756c1.626.236,1.994,1.369.817,2.516l-3.761,3.664a6.377,6.377,0,0,0-1.635,5.033l.888,5.174c.279,1.62-.685,2.321-2.14,1.557l-4.649-2.445a6.378,6.378,0,0,0-5.292,0l-4.646,2.442c-1.455.766-2.419.065-2.141-1.555l.888-5.174a6.387,6.387,0,0,0-1.636-5.033l-3.759-3.664c-1.177-1.147-.809-2.28.817-2.517l5.194-.756a6.39,6.39,0,0,0,4.28-3.113Z" transform="translate(-7087.101 -956.294)" fill="#e17136"/>
    <path id="Path_8147" data-name="Path 8147" d="M6467.867,1639.721c3.279-.039,6.552-.327,9.831-.365a.5.5,0,0,0,0-1c-3.278.038-6.552.326-9.831.365a.5.5,0,0,0,0,1Z" transform="translate(-6011.019 -1522.756)" fill="#332825"/>
    <path id="Path_8148" data-name="Path 8148" d="M6671.9,1462.064c11.717-.263,23.435.26,35.151.069,5.847-.1,11.646-.642,17.479-.929,6.131-.3,12.276-.2,18.41-.039,5.859.15,11.715.379,17.576.466,4.042.06,8.15.254,12.128-.606,6.508-1.407,9.277-6.677,9.709-12.938.045-.642-.953-.638-1,0-.24,3.475-1.045,6.891-3.632,9.379-2.354,2.265-5.9,2.874-9.019,3.12a135.854,135.854,0,0,1-14.059-.072c-5.523-.142-11.045-.354-16.57-.451-11.029-.193-21.962.961-32.979,1.1-11.068.143-22.132-.346-33.2-.1a.5.5,0,0,0,0,1Z" transform="translate(-6200.659 -1345.463)" fill="#332825"/>
    <path id="Path_8149" data-name="Path 8149" d="M123.532,2929.355a20.757,20.757,0,0,1-20.756,20.757H20.767A20.757,20.757,0,0,1,.01,2929.355v-24.149a20.757,20.757,0,0,1,20.757-20.757h82.009a20.756,20.756,0,0,1,20.756,20.757Z" transform="translate(0 -2680.918)" fill="#a8d4af"/>
    <path id="Path_8150" data-name="Path 8150" d="M363,3183.608v-3.872h-9.7a4.573,4.573,0,0,1,.928-1.055c.416-.352.864-.672,1.344-1.024.48-.321.96-.608,1.44-.9s.928-.511,1.312-.736a15.3,15.3,0,0,0,1.472-.9,7.758,7.758,0,0,0,1.376-1.152,6.539,6.539,0,0,0,1.056-1.536,4.406,4.406,0,0,0,.416-1.984,5.556,5.556,0,0,0-.448-2.208,5.046,5.046,0,0,0-1.344-1.728,6.977,6.977,0,0,0-2.175-1.12,10.187,10.187,0,0,0-2.912-.384,11.93,11.93,0,0,0-2.688.288,16.089,16.089,0,0,0-2.3.768,12.026,12.026,0,0,0-1.824.992,8.328,8.328,0,0,0-1.184.992l2.752,3.168a7.817,7.817,0,0,1,.864-.928,5.037,5.037,0,0,1,1.024-.768,6.762,6.762,0,0,1,1.184-.576,4.831,4.831,0,0,1,1.408-.192,3.253,3.253,0,0,1,2.208.672,2.2,2.2,0,0,1,.768,1.664,1.676,1.676,0,0,1-.352,1.056,3.657,3.657,0,0,1-1.024.928c-.448.288-.992.608-1.664.96s-1.472.768-2.336,1.248a13.16,13.16,0,0,0-2.463,1.7,6.342,6.342,0,0,0-1.536,1.856,7.216,7.216,0,0,0-.8,2.144,13.352,13.352,0,0,0-.224,2.624H363Zm15.679,4.064V3182.9H381.5v-3.839h-2.816v-13.727H375.77L365.051,3179.1v3.807h9.343v4.768Zm-3.808-15.839v7.231h-5.536Zm24.51-10.943-15.839,22.718h4.735l15.871-22.718h-4.768Zm7.487,26.782h4.864L423,3164.954H405.911v3.9h10.335l-9.375,18.814Z" transform="translate(-323.045 -2937.852)" fill="#e17136"/>
    <path id="Path_8151" data-name="Path 8151" d="M1000.568,3682.9c14.211-3.48,30.053,3.511,43-5.239.529-.357.032-1.221-.5-.86-12.792,8.645-28.68,1.69-42.762,5.138-.624.152-.36,1.114.264.962h0Z" transform="translate(-929.379 -3417.281)" fill="#332825"/>
    <path id="Path_8152" data-name="Path 8152" d="M1655.872,3236.482c.22,2.142.112,4.285.4,6.425a50.287,50.287,0,0,1,.679,7.375c-.046,4.742-.447,9.788-3.2,13.808-.364.531.5,1.03.861.5,2.419-3.533,3.029-7.783,3.266-11.971a33.963,33.963,0,0,0-.126-6.526c-.445-3.217-.558-6.4-.888-9.613-.065-.633-1.063-.64-1,0Z" transform="translate(-1536.971 -3007.667)" fill="#332825"/>
  </g>
</svg>
