<svg xmlns="http://www.w3.org/2000/svg" width="658" height="490.355" viewBox="0 0 658 490.355">
  <g id="Layer_x0020_1" transform="translate(0 0.01)">
    <path id="Path_8542" data-name="Path 8542" d="M0,4548.189H658v-.329H0Z" transform="translate(0 -4116.95)" fill="#ebecec"/>
    <path id="Path_8543" data-name="Path 8543" d="M728.6,4680.45h21.135v-.33H728.6Z" transform="translate(-659.564 -4236.678)" fill="#ebecec"/>
    <path id="Path_8544" data-name="Path 8544" d="M2376.94,4642.769h70.442v-.329H2376.94Z" transform="translate(-2151.72 -4202.568)" fill="#ebecec"/>
    <path id="Path_8545" data-name="Path 8545" d="M965.56,4809.429h47.709v-.329H965.56Z" transform="translate(-874.071 -4353.437)" fill="#ebecec"/>
    <path id="Path_8546" data-name="Path 8546" d="M5265.831,4641.029h56.842v-.329h-56.842Z" transform="translate(-4766.882 -4200.994)" fill="#ebecec"/>
    <path id="Path_8547" data-name="Path 8547" d="M5989.4,4641.029h8.334v-.329H5989.4Z" transform="translate(-5421.893 -4200.994)" fill="#ebecec"/>
    <path id="Path_8548" data-name="Path 8548" d="M4402.78,4727.45H4473.7v-.33H4402.78Z" transform="translate(-3985.607 -4279.225)" fill="#ebecec"/>
    <path id="Path_8549" data-name="Path 8549" d="M3542.31.32a7.19,7.19,0,0,0-7.181,7.181v357.2a7.19,7.19,0,0,0,7.181,7.182h254.118a7.192,7.192,0,0,0,7.184-7.182V7.5A7.191,7.191,0,0,0,3796.428.32H3542.31Zm254.118,371.9H3542.31a7.519,7.519,0,0,1-7.51-7.512V7.5a7.519,7.519,0,0,1,7.51-7.51h254.118a7.521,7.521,0,0,1,7.512,7.51V364.7A7.521,7.521,0,0,1,3796.428,372.217Z" transform="translate(-3199.871)" fill="#ebecec"/>
    <path id="Path_8550" data-name="Path 8550" d="M5412.641,3496.849h8.738V3386.84h-8.738Z" transform="translate(-4899.782 -3065.939)" fill="#f4f4f4"/>
    <path id="Path_8551" data-name="Path 8551" d="M5464.73,3496.849h7.6V3386.84h-7.6Z" transform="translate(-4946.936 -3065.939)" fill="#efefef"/>
    <path id="Path_8552" data-name="Path 8552" d="M3261.57,3496.849h8.74V3386.84h-8.74Z" transform="translate(-2952.53 -3065.939)" fill="#f4f4f4"/>
    <path id="Path_8553" data-name="Path 8553" d="M3313.68,3496.849h7.6V3386.84h-7.6Z" transform="translate(-2999.702 -3065.939)" fill="#efefef"/>
    <path id="Path_8554" data-name="Path 8554" d="M5762.17,3496.849h8.739V3386.84h-8.739Z" transform="translate(-5216.192 -3065.939)" fill="#f4f4f4"/>
    <path id="Path_8555" data-name="Path 8555" d="M5814.28,3496.849h7.6V3386.84h-7.6Z" transform="translate(-5263.365 -3065.939)" fill="#efefef"/>
    <path id="Path_8556" data-name="Path 8556" d="M3611.111,3496.849h8.74V3386.84h-8.74Z" transform="translate(-3268.95 -3065.939)" fill="#f4f4f4"/>
    <path id="Path_8557" data-name="Path 8557" d="M3261.57,3369.026h249.479v-4.166H3261.57Z" transform="translate(-2952.53 -3046.042)" fill="#efefef"/>
    <path id="Path_8558" data-name="Path 8558" d="M3261.57,3369.026h38.057v-4.166H3261.57Z" transform="translate(-2952.53 -3046.042)" fill="#e7e7e6"/>
    <path id="Path_8559" data-name="Path 8559" d="M3663.21,3496.849h7.6V3386.84h-7.6Z" transform="translate(-3316.113 -3065.939)" fill="#efefef"/>
    <path id="Path_8560" data-name="Path 8560" d="M4329.3,2599.419h23.6V2519.3h-23.6Z" transform="translate(-3919.09 -2280.6)" fill="#ebecec"/>
    <path id="Path_8561" data-name="Path 8561" d="M4392.238,2468.982H4313.91l-11.83-93.771h78.329Z" transform="translate(-3894.449 -2150.164)" fill="#e0e0e0"/>
    <path id="Path_8562" data-name="Path 8562" d="M4416.208,2468.982H4335.3l-11.831-93.771h80.908Z" transform="translate(-3913.813 -2150.164)" fill="#efefef"/>
    <path id="Path_8563" data-name="Path 8563" d="M4673.189,2468.982h-15.7l4.422-93.771h15.7Z" transform="translate(-4216.184 -2150.164)" fill="#fafafa"/>
    <path id="Path_8564" data-name="Path 8564" d="M4865.424,2468.982H4849.97l4.423-93.771h15.453Z" transform="translate(-4390.426 -2150.164)" fill="#fafafa"/>
    <path id="Path_8565" data-name="Path 8565" d="M5053.5,476.213l13.688-142.123h23.681l-13.687,142.123Z" transform="translate(-4574.67 -302.443)" fill="#fefefe"/>
    <path id="Path_8566" data-name="Path 8566" d="M4422.67,476.213l13.688-142.123h23.682l-13.688,142.123Z" transform="translate(-4003.613 -302.443)" fill="#fefefe"/>
    <path id="Path_8567" data-name="Path 8567" d="M5357.12,476.213l13.688-142.123h9.232l-13.686,142.123Z" transform="translate(-4849.522 -302.443)" fill="#fefefe"/>
    <path id="Path_8568" data-name="Path 8568" d="M1317.3,855.256h27.627a6.34,6.34,0,0,0,6.339-6.339V838.3a6.339,6.339,0,0,0-6.339-6.338H1317.3a6.338,6.338,0,0,0-6.34,6.338v10.619A6.34,6.34,0,0,0,1317.3,855.256Z" transform="translate(-1186.744 -753.139)" fill="#f4f4f4"/>
    <path id="Path_8569" data-name="Path 8569" d="M1317.3,609.387h27.627a6.34,6.34,0,0,0,6.339-6.339V592.429a6.34,6.34,0,0,0-6.339-6.339H1317.3a6.339,6.339,0,0,0-6.34,6.339v10.619A6.339,6.339,0,0,0,1317.3,609.387Z" transform="translate(-1186.744 -530.566)" fill="#f4f4f4"/>
    <path id="Path_8570" data-name="Path 8570" d="M1452.146,508.962h9.574a2.2,2.2,0,0,0,2.2-2.2v-3.679a2.2,2.2,0,0,0-2.2-2.2h-9.574a2.2,2.2,0,0,0-2.2,2.2v3.679A2.2,2.2,0,0,0,1452.146,508.962Z" transform="translate(-1312.564 -453.439)" fill="#e0e0e0"/>
    <path id="Path_8571" data-name="Path 8571" d="M1317.3,1101.116h27.627a6.338,6.338,0,0,0,6.339-6.338v-10.619a6.339,6.339,0,0,0-6.339-6.339H1317.3a6.338,6.338,0,0,0-6.34,6.339v10.619A6.339,6.339,0,0,0,1317.3,1101.116Z" transform="translate(-1186.744 -975.703)" fill="#f4f4f4"/>
    <path id="Path_8572" data-name="Path 8572" d="M1920.7,1152.93s-1.334,16.18-52.5,16.18-52.5-16.18-52.5-16.18Z" transform="translate(-1643.65 -1043.697)" fill="#efefef"/>
    <path id="Path_8573" data-name="Path 8573" d="M839.13,1645.442h40.555V1358.25H839.13Z" transform="translate(-759.621 -1229.562)" fill="#efefef"/>
    <path id="Path_8574" data-name="Path 8574" d="M921.32,4404.26h200v-15.03h-200Z" transform="translate(-834.023 -3973.351)" fill="#efefef"/>
    <path id="Path_8575" data-name="Path 8575" d="M1267.14,1645.442H1442.16V1358.25H1267.14Z" transform="translate(-1147.076 -1229.562)" fill="#f4f4f4"/>
    <path id="Path_8576" data-name="Path 8576" d="M1435.42,2503.093h143.13V2435.32H1435.42Z" transform="translate(-1299.411 -2204.578)" fill="#efefef"/>
    <path id="Path_8577" data-name="Path 8577" d="M1435.42,3377.912h143.13V3310.14H1435.42Z" transform="translate(-1299.411 -2996.506)" fill="#efefef"/>
    <path id="Path_8578" data-name="Path 8578" d="M1435.42,4184.671h143.13V4174.34H1435.42Z" transform="translate(-1299.411 -3778.822)" fill="#efefef"/>
    <path id="Path_8579" data-name="Path 8579" d="M1825.213,2383.358h-72.759a5.684,5.684,0,1,1,0-11.368h72.759a5.684,5.684,0,0,1,0,11.368Z" transform="translate(-1581.26 -2147.248)" fill="#f4f4f4"/>
    <path id="Path_8580" data-name="Path 8580" d="M1435.42,1628.272h143.13V1560.5H1435.42Z" transform="translate(-1299.411 -1412.649)" fill="#efefef"/>
    <path id="Path_8581" data-name="Path 8581" d="M1825.213,1508.538h-72.759a5.684,5.684,0,1,1,0-11.367h72.759a5.684,5.684,0,0,1,0,11.367Z" transform="translate(-1581.26 -1355.319)" fill="#f4f4f4"/>
    <path id="Path_8582" data-name="Path 8582" d="M1825.213,3258.167h-72.759a5.684,5.684,0,1,1,0-11.367h72.759a5.684,5.684,0,0,1,0,11.367Z" transform="translate(-1581.26 -2939.168)" fill="#f4f4f4"/>
    <path id="Path_8583" data-name="Path 8583" d="M1267.14,1326.974h180.421V1323.7H1267.14Z" transform="translate(-1147.076 -1198.286)" fill="#efefef"/>
    <path id="Path_8584" data-name="Path 8584" d="M779.32,1326.974h46.222V1323.7H779.32Z" transform="translate(-705.478 -1198.286)" fill="#e7e7e6"/>
    <path id="Path_8585" data-name="Path 8585" d="M1289.636,4875.482c0,8.23-114.237,14.9-255.158,14.9s-255.158-6.672-255.158-14.9,114.238-14.9,255.158-14.9S1289.636,4867.253,1289.636,4875.482Z" transform="translate(-705.478 -4400.039)" fill="#f4f4f4"/>
    <path id="Path_8586" data-name="Path 8586" d="M1221.16,3556.793H715.667l-9.327-8.822h524.147Z" transform="translate(-639.413 -3211.802)" fill="#3a72b7"/>
    <path id="Path_8587" data-name="Path 8587" d="M715.667,3556.793H1221.16l9.326-8.822H706.34Z" transform="translate(-639.413 -3211.802)" fill="#5ca595"/>
    <path id="Path_8588" data-name="Path 8588" d="M1607.177,3645.834H1188.366l-7.726-4.754H1614.9Z" transform="translate(-1068.772 -3296.089)" fill="#3a72b7"/>
    <path id="Path_8589" data-name="Path 8589" d="M1607.177,3645.834H1188.366l-7.726-4.754H1614.9l-.154.1Z" transform="translate(-1068.772 -3296.089)" fill="#5ca595"/>
    <path id="Path_8590" data-name="Path 8590" d="M1169.779,3816.948h-6.009l18.652-125.7h13.4Z" transform="translate(-1053.5 -3341.506)" fill="#3a72b7"/>
    <path id="Path_8591" data-name="Path 8591" d="M1169.779,3816.948h-6.009l18.652-125.7h13.4l-6.317,30.486-7.387,35.649-3.115,15.03-.067.329-5.061,24.424-.069.329Z" transform="translate(-1053.5 -3341.506)" fill="#5ca595"/>
    <path id="Path_8592" data-name="Path 8592" d="M1513.47,3816.948h-6.01l18.652-125.7h13.4Z" transform="translate(-1364.625 -3341.506)" fill="#3a72b7"/>
    <path id="Path_8593" data-name="Path 8593" d="M1513.47,3816.948h-6.01l18.652-125.7h13.4l-6.561,31.661-2.924,14.113-2.14,10.331-2.079,10.031-3.115,15.03-.068.329Z" transform="translate(-1364.625 -3341.506)" fill="#5ca595"/>
    <path id="Path_8594" data-name="Path 8594" d="M5468.407,3816.948h6.01l-18.651-125.7H5442.36Z" transform="translate(-4926.686 -3341.506)" fill="#3a72b7"/>
    <path id="Path_8595" data-name="Path 8595" d="M5474.417,3816.948h-6.01l-16.322-78.768-7.6-36.693-2.12-10.236h13.405Z" transform="translate(-4926.686 -3341.506)" fill="#5ca595"/>
    <path id="Path_8596" data-name="Path 8596" d="M5124.717,3816.948h6.009l-18.651-125.7h-13.4Z" transform="translate(-4615.561 -3341.506)" fill="#3a72b7"/>
    <path id="Path_8597" data-name="Path 8597" d="M5130.726,3816.948h-6.009l-26.046-125.7h13.4Z" transform="translate(-4615.561 -3341.506)" fill="#5ca595"/>
    <path id="Path_8598" data-name="Path 8598" d="M3346.6,1819.08l7.241-12.54a3.087,3.087,0,0,0-2.673-4.629h-14.481a3.086,3.086,0,0,0-2.672,4.629l7.24,12.54a3.086,3.086,0,0,0,5.345,0Z" transform="translate(-3017.731 -1631.185)" fill="#3a72b7"/>
    <path id="Path_8599" data-name="Path 8599" d="M881.493,2191.238h177.4a4.525,4.525,0,0,0,4.539-4.7l-4.2-126.827a4.9,4.9,0,0,0-4.849-4.7h-177.4a4.525,4.525,0,0,0-4.54,4.7l4.2,126.827a4.9,4.9,0,0,0,4.85,4.7Z" transform="translate(-789.777 -1860.311)" fill="#3a72b7"/>
    <path id="Path_8600" data-name="Path 8600" d="M896.774,2191.238h177.4a4.525,4.525,0,0,0,4.539-4.7l-4.2-126.827a4.9,4.9,0,0,0-4.851-4.7h-177.4a4.526,4.526,0,0,0-4.54,4.7l4.2,126.827a4.9,4.9,0,0,0,4.85,4.7Z" transform="translate(-803.609 -1860.311)" fill="#3a72b7"/>
    <path id="Path_8601" data-name="Path 8601" d="M897.462,2191.238h-.681a4.9,4.9,0,0,1-4.85-4.7l-4.2-126.827c0-.051,0-.1,0-.152a4.524,4.524,0,0,1,4.542-4.544H945.58c-1.15,2.48-2.224,5.009-3.2,7.452h-48.64a1.762,1.762,0,0,0-1.768,1.828l3.894,117.655a1.911,1.911,0,0,0,1.889,1.83h8.416v0H930.3v0h6.688v0h8.68v0h80.052v0h8.68l0,0h38.317a1.763,1.763,0,0,0,1.767-1.83L1072.3,2115.9c.842.366,1.67.677,2.5.97.552.188,1.1.362,1.639.524l2.288,69.146c0,.051,0,.1,0,.151a4.523,4.523,0,0,1-3.1,4.313H899.068a5.667,5.667,0,0,0-1.6.231Zm178.335-93.015c-1.42-1.221-2.826-2.566-4.218-3.983l-.991-29.938a1.908,1.908,0,0,0-1.888-1.829h-15.811c-1.491-2.3-3.188-4.845-5.011-7.452h21.8a4.9,4.9,0,0,1,4.851,4.7l1.273,38.508Z" transform="translate(-803.616 -1860.311)" fill="#24538d"/>
    <path id="Path_8602" data-name="Path 8602" d="M957.476,3490.21h214.252a5.615,5.615,0,0,1,5.063,3.165,1.616,1.616,0,0,1-1.482,2.308H953.894a1.616,1.616,0,0,1-1.481-2.308A5.614,5.614,0,0,1,957.476,3490.21Z" transform="translate(-862.025 -3159.515)" fill="#3a72b7"/>
    <path id="Path_8603" data-name="Path 8603" d="M1588.821,3495.683h-59.308a2,2,0,0,0-1.991-1.994h-44.481a2,2,0,0,0-1.992,1.994h-70.362a1.616,1.616,0,0,1-1.481-2.308,5.612,5.612,0,0,1,5.062-3.165h170.972a5.615,5.615,0,0,1,5.063,3.165,1.6,1.6,0,0,1-.788,2.158,1.647,1.647,0,0,1-.694.15Z" transform="translate(-1275.537 -3159.515)" fill="#24538d"/>
    <path id="Path_8604" data-name="Path 8604" d="M2217.413,3528.924H2168.95a2,2,0,0,1,1.992-1.993h44.48A2,2,0,0,1,2217.413,3528.924Z" transform="translate(-1963.438 -3192.755)" fill="#6787af"/>
    <path id="Path_8605" data-name="Path 8605" d="M1113.215,2254.993H1074.9l19.022-83q.745.785,1.5,1.563a90.877,90.877,0,0,0,11.706,10.257l1.7,1.188c.735.446,1.5.93,2.214,1.273.593.316,1.174.591,1.747.841l2.186,66.052a1.762,1.762,0,0,1-1.767,1.83Zm-47,0H986.164l10.7-46.7c1.719,1.973,3.493,3.9,5.391,5.8l5.833-4.559c-.027,2.371-.01,4.219.088,5.469h65.785a289.244,289.244,0,0,0,4.023-55.242l1.033,1.073,3.129-2.566q2.371,3.024,4.864,5.986l-20.8,90.739Zm-88.732,0H970.8l14.272-62.272c.265.419.532.834.8,1.249q2.052,3.071,4.231,5.973Zm-30.813,0h-8.416a1.911,1.911,0,0,1-1.889-1.829l-3.894-117.655a1.762,1.762,0,0,1,1.768-1.829h40.234l-27.8,121.313Zm61.48-49.038c-2.6-4.609-5.192-9.278-7.553-13.941l7.222-31.513q.209,3.838.34,7.523a.159.159,0,0,0,.006-.017c.567,15.78.162,29.189-.014,37.948Zm-13.29-26.784q-.489-1.359-.9-2.678a23.119,23.119,0,0,1-.974-4.612,6.992,6.992,0,0,1,0-1.541c.034-.152.061-.283.094-.3l.028-.075.1-.337.2-.673.787-2.687.927-2.7c.288-.847.6-1.7.916-2.55l2.657,1.461-3.825,16.687Zm117.219-13.723c-1.265-1.288-2.517-2.635-3.756-4-3.224-3.638-6.332-7.495-9.356-11.479l3.733-16.287h-8.682l-.165.722c-.154-.238-.309-.479-.467-.722H1109.2a1.909,1.909,0,0,1,1.888,1.829l.991,29.938Z" transform="translate(-844.116 -1931.518)" fill="#e9edf3"/>
    <path id="Path_8606" data-name="Path 8606" d="M1106.456,2255H1082.33l27.8-121.317h24.126Z" transform="translate(-979.777 -1931.518)" fill="#fefefe"/>
    <path id="Path_8607" data-name="Path 8607" d="M1416.21,2255h-8.68l27.8-121.317h8.681Z" transform="translate(-1274.164 -1931.518)" fill="#fefefe"/>
    <path id="Path_8608" data-name="Path 8608" d="M2352.69,2255h-8.68l27.8-121.317h8.682Z" transform="translate(-2121.91 -1931.518)" fill="#fefefe"/>
    <path id="Path_8609" data-name="Path 8609" d="M2301.431,1959.79c2.339,3.74,4.849,7.708,7.357,11.516,2.545,3.818,5.1,7.63,7.726,11.37a240.475,240.475,0,0,0,16.537,21.357,84.687,84.687,0,0,0,9.018,8.855l1.134.9c.257.183.45.387.782.585a20.935,20.935,0,0,0,2.115,1.23,39.374,39.374,0,0,0,5.5,2.183c1.984.674,4.077,1.269,6.216,1.8,2.138.558,4.325,1.053,6.538,1.516,4.4.94,9.009,1.793,13.445,2.556l-.007,9.234c-2.529.372-4.9.551-7.364.727-2.444.187-4.893.233-7.36.25a91.75,91.75,0,0,1-15.084-1.2,54.96,54.96,0,0,1-7.962-2.008,30.573,30.573,0,0,1-4.245-1.81c-.715-.344-1.479-.828-2.214-1.274l-1.7-1.188a90.908,90.908,0,0,1-11.706-10.257,208.478,208.478,0,0,1-18.811-22.6q-4.288-5.857-8.241-11.9c-2.656-4.056-5.208-8.021-7.711-12.348Z" transform="translate(-2068.845 -1774.104)" fill="#f7bebf"/>
    <path id="Path_8610" data-name="Path 8610" d="M2220.618,1877.38c-1.293,11.558,26.217,39.168,26.217,39.168l18.621-15.533a251.548,251.548,0,0,0-18.083-26.6C2236.79,1861.3,2222.077,1864.333,2220.618,1877.38Z" transform="translate(-2010.17 -1689.164)" fill="#61a375"/>
    <path id="Path_8611" data-name="Path 8611" d="M2452.622,2200.285c-.3-5.787-.795-11.036-1.392-15.745a33.983,33.983,0,0,1,4.525,13.222Z" transform="translate(-2218.971 -1977.559)" fill="#61a375"/>
    <path id="Path_8612" data-name="Path 8612" d="M2458.657,2179.66l1.959,5.691-20.844,17.105-4.122-4.283Z" transform="translate(-2204.867 -1973.142)" fill="#3a72b7"/>
    <path id="Path_8613" data-name="Path 8613" d="M2467.174,2202.466l-1.033-1.073q-.081-2.834-.22-5.517l20.138-16.206,1.959,5.691-3.444,2.827L2470.3,2199.9l-3.129,2.566Z" transform="translate(-2232.269 -1973.151)" fill="#4d897c"/>
    <path id="Path_8614" data-name="Path 8614" d="M3190.616,2631.84l14.459,2.488-7.961,12.648c-1.886.309-9.448-3.787-12.784-8.862l6.285-6.273Z" transform="translate(-2882.608 -2382.477)" fill="#f7bebf"/>
    <path id="Path_8615" data-name="Path 8615" d="M3336.118,2666.681l-5.779,6.554-11.089-2.5,7.961-12.649Z" transform="translate(-3004.745 -2406.24)" fill="#f7bebf"/>
    <path id="Path_8616" data-name="Path 8616" d="M1720.675,1833.443s15.806,37.142,4.417,106.308h-65.785c-.8-10.1,3.834-59.359-7.557-106.941a169.1,169.1,0,0,1,21.925-2.781c8.392-.406,20.552-.674,27.964,0A125.754,125.754,0,0,1,1720.675,1833.443Z" transform="translate(-1495.243 -1656.267)" fill="#61a375"/>
    <path id="Path_8617" data-name="Path 8617" d="M1728.04,2424.037q-.132-3.679-.34-7.523l.006-.024c.139,2.561.251,5.076.339,7.53a.1.1,0,0,1-.006.017Z" transform="translate(-1563.997 -2187.532)" fill="#a4a9ae"/>
    <path id="Path_8618" data-name="Path 8618" d="M1723.247,2346.981q-.2-3.587-.467-7.291l.006-.01c.183,2.462.337,4.893.467,7.277Z" transform="translate(-1559.543 -2118)" fill="#b5b6b5"/>
    <path id="Path_8619" data-name="Path 8619" d="M1723.646,2183.776c-.088-2.454-.2-4.969-.339-7.53-.131-2.385-.284-4.815-.467-7.277,2.51-5.248,5.462-11.747,7.821-17.869A177.393,177.393,0,0,1,1723.646,2183.776Z" transform="translate(-1559.598 -1947.288)" fill="#61a375"/>
    <path id="Path_8620" data-name="Path 8620" d="M1884.818,1501.64c2.077,9,4.408,25.483-1.678,31.488,0,0,2.626,7.454,19.346,7.454,18.383,0,8.617-7.452,8.617-7.452-10.116-2.4-10.115-9.841-8.611-16.832l-17.675-14.657Z" transform="translate(-1704.709 -1359.366)" fill="#f7bebf"/>
    <path id="Path_8621" data-name="Path 8621" d="M2049.233,1917.39l3.925,4.18a.846.846,0,0,1,.146.94l-1.969,4.128a.84.84,0,0,1-.72.479l-2.989.144a.845.845,0,0,1-.734-.361l-2.754-3.963a.844.844,0,0,1,.047-1.025l3.788-4.488a.843.843,0,0,1,1.259-.033Z" transform="translate(-1850.315 -1735.482)" fill="#fefefe"/>
    <path id="Path_8622" data-name="Path 8622" d="M1866.862,1807.285a21.4,21.4,0,0,0-3.2,10.131s-21.354-7.3-20.388-18a42.046,42.046,0,0,0,5.464-3.161S1849.443,1803,1866.862,1807.285Z" transform="translate(-1668.593 -1626.07)" fill="#29383e"/>
    <path id="Path_8623" data-name="Path 8623" d="M2092.51,1825.553a29.009,29.009,0,0,1,4.035,9.488s9.9-6.778,7.088-17.353c0,0-3.173-.672-5.824-1.249C2097.809,1816.44,2099.039,1823.265,2092.51,1825.553Z" transform="translate(-1894.24 -1644.338)" fill="#29383e"/>
    <path id="Path_8624" data-name="Path 8624" d="M2080.692,2013.267c1.343,4.367,11.237,36.765,11.487,44.52l-.019.194c-.912,4.176-5.046,11.489-6.734,14.361a.7.7,0,0,1-1.251-.085c-1.158-2.823-3.961-9.6-5.79-13.56l-.061-.243c-.877-14.147-1.106-36.141-1.544-44.944a.694.694,0,0,1,.7-.729h2.541a.694.694,0,0,1,.669.488Z" transform="translate(-1880.001 -1822.074)" fill="#fefefe"/>
    <path id="Path_8625" data-name="Path 8625" d="M2064.089,1642.528h0c.006-.128.013-.258.021-.387C2064.1,1642.27,2064.094,1642.4,2064.089,1642.528Zm.69-4.961-2.359-1.957,2.361,1.956s0,0,0,0Z" transform="translate(-1867.002 -1480.642)" fill="#c3c2c2"/>
    <path id="Path_8626" data-name="Path 8626" d="M1984.453,1578.382c-3.852-.555-9.26-4.762-9.807-8.773a13.43,13.43,0,0,1,.038-4.859l8.1,6.714,2.358,1.957a29.325,29.325,0,0,0-.671,4.575C1984.466,1578.124,1984.458,1578.255,1984.453,1578.382Z" transform="translate(-1787.369 -1416.496)" fill="#dc9e9a"/>
    <path id="Path_8627" data-name="Path 8627" d="M2136.837,1212.3c2.49,1.859,6.737,9.708,1.3,11.753S2130.75,1207.752,2136.837,1212.3Z" transform="translate(-1930.967 -1096.781)" fill="#29383e"/>
    <path id="Path_8628" data-name="Path 8628" d="M1863.084,1200.32c2.495,11.982,3.347,19.1,10.362,24.621,10.553,8.3,24.7,1.134,25.841-11.225,1.026-11.126-3.225-28.852-15.778-32.35a16.1,16.1,0,0,0-20.426,18.954Z" transform="translate(-1686.219 -1068.833)" fill="#f7bebf"/>
    <path id="Path_8629" data-name="Path 8629" d="M1711.183,1113.2l5.038-3.363.319-2.915a21.762,21.762,0,0,0-2.27-12.309s24.432.914,27.469-6.738-5.588-13.391-5.588-13.391-8.647,4.951-14.492,5.356-23.7-6.9-23.7,8.2c-7.874,2.434-7.625,15.422,13.226,25.161Z" transform="translate(-1532.751 -972.68)" fill="#29383e"/>
    <path id="Path_8630" data-name="Path 8630" d="M1719.939,1124.229s-3.235-2.578-.822-10.419C1716.156,1115.291,1714.73,1123.3,1719.939,1124.229Z" transform="translate(-1553.822 -1008.283)" fill="#29383e"/>
    <path id="Path_8631" data-name="Path 8631" d="M1815.6,1452.088a12.155,12.155,0,0,0,7.924,4.284c4.074.43,5.3-3.336,3.5-6.789-1.628-3.11-5.71-7.08-9.475-5.909C1813.836,1444.828,1813.175,1449.133,1815.6,1452.088Z" transform="translate(-1642.273 -1306.702)" fill="#f7bebf"/>
    <path id="Path_8632" data-name="Path 8632" d="M2017.648,3031.9h-42.04c-3.782-22.829-6.818-40-6.818-40h43.3s2.439,16.889,5.557,40Z" transform="translate(-1782.243 -2708.42)" fill="#29383e"/>
    <path id="Path_8633" data-name="Path 8633" d="M1732.508,3031.9c-.945-22.829-1.658-40-1.658-40H1773.3s.216,17.386.3,40Z" transform="translate(-1566.848 -2708.42)" fill="#29383e"/>
    <path id="Path_8634" data-name="Path 8634" d="M2065.38,1383.81c.142.981.781,1.722,1.425,1.651s1.052-.925.909-1.907-.781-1.722-1.427-1.65S2065.237,1382.828,2065.38,1383.81Z" transform="translate(-1869.655 -1250.97)" fill="#29383e"/>
    <path id="Path_8635" data-name="Path 8635" d="M2183.013,1370.873c.142.981.781,1.722,1.425,1.65s1.052-.925.908-1.907-.781-1.722-1.425-1.65S2182.869,1369.889,2183.013,1370.873Z" transform="translate(-1976.142 -1239.257)" fill="#29383e"/>
    <path id="Path_8636" data-name="Path 8636" d="M2146.64,1398.4s3.065,5.421,5.929,7.884c-1.509,1.814-4.582,1.4-4.582,1.4Z" transform="translate(-1943.241 -1265.908)" fill="#f08382"/>
    <path id="Path_8637" data-name="Path 8637" d="M2061.889,1499.44a9.519,9.519,0,0,0,2.044-.007.292.292,0,0,0-.063-.58,8.186,8.186,0,0,1-6.819-2.346.291.291,0,1,0-.44.38,8.454,8.454,0,0,0,5.28,2.554Z" transform="translate(-1861.677 -1354.628)" fill="#29383e"/>
    <path id="Path_8638" data-name="Path 8638" d="M2018.216,1332.09a.589.589,0,0,0,.57-.294,4.428,4.428,0,0,1,3.418-2.321.584.584,0,0,0,.554-.609.576.576,0,0,0-.6-.556,5.6,5.6,0,0,0-4.383,2.913.581.581,0,0,0,.22.793l.225.074Z" transform="translate(-1826.516 -1202.458)" fill="#29383e"/>
    <path id="Path_8639" data-name="Path 8639" d="M2182.9,1308.072a.583.583,0,0,0,.547-.9,6.009,6.009,0,0,0-4.613-2.779.583.583,0,0,0-.02,1.166,4.84,4.84,0,0,1,3.664,2.261.584.584,0,0,0,.423.255Z" transform="translate(-1971.847 -1180.805)" fill="#29383e"/>
    <path id="Path_8640" data-name="Path 8640" d="M1432.09,1962.855l-2.917,5.033q-1.481,2.587-2.884,5.231c-1.887,3.512-3.713,7.049-5.449,10.606-1.7,3.564-3.333,7.151-4.792,10.745-.711,1.8-1.409,3.606-2.021,5.4l-.927,2.7-.788,2.687-.2.673-.1.337-.028.075c-.033.016-.06.148-.094.3a7,7,0,0,0,0,1.541,23.145,23.145,0,0,0,.974,4.612,80.456,80.456,0,0,0,4.205,10.521c3.327,7.141,7.388,14.352,11.371,21.39l-7.276,5.688c-3.11-3.116-5.889-6.294-8.632-9.64-2.725-3.337-5.3-6.816-7.757-10.482a79.1,79.1,0,0,1-6.626-11.968,39.494,39.494,0,0,1-2.423-7.392,23.59,23.59,0,0,1-.5-4.676,18.6,18.6,0,0,1,.209-2.807l.116-.693.086-.422.169-.845a98.906,98.906,0,0,1,3.473-13.117c1.383-4.236,3.023-8.315,4.751-12.34,1.747-4.01,3.654-7.922,5.688-11.76q1.538-2.874,3.163-5.7c1.086-1.922,2.174-3.693,3.474-5.7l15.733,10Z" transform="translate(-1263.029 -1767.822)" fill="#f7bebf"/>
    <path id="Path_8641" data-name="Path 8641" d="M1427.176,1861.145c-11.578,1.692-23.506,42.015-23.506,42.015l24.918,13.805s10.1-19.179,14.913-33.42C1448.546,1868.625,1439.593,1859.329,1427.176,1861.145Z" transform="translate(-1270.67 -1684.602)" fill="#61a375"/>
    <path id="Path_8642" data-name="Path 8642" d="M1398.956,2246.79l-1.055,5.925,25.609,14.082,3.409-4.871Z" transform="translate(-1265.446 -2033.911)" fill="#3a72b7"/>
    <path id="Path_8643" data-name="Path 8643" d="M1423.509,2266.8l-6.15-3.382-15.761-8.668-3.7-2.032,1.055-5.925,27.962,15.137Z" transform="translate(-1265.446 -2033.911)" fill="#4d897c"/>
    <path id="Path_8644" data-name="Path 8644" d="M1665.99,2873.175l12.247-2.135-6.284,14.175s-11.179-.064-10.666-5.825Z" transform="translate(-1503.861 -2599.012)" fill="#f7bebf"/>
    <path id="Path_8645" data-name="Path 8645" d="M1789.43,2878.163l-5.752,11.453-9.668-4.4,6.284-14.175Z" transform="translate(-1605.919 -2599.012)" fill="#f7bebf"/>
    <path id="Path_8646" data-name="Path 8646" d="M4238.234,2191.238h-177.4a4.525,4.525,0,0,1-4.539-4.7l4.2-126.827a4.9,4.9,0,0,1,4.849-4.7h177.4a4.526,4.526,0,0,1,4.54,4.7l-4.2,126.827A4.9,4.9,0,0,1,4238.234,2191.238Z" transform="translate(-3671.95 -1860.311)" fill="#3a72b7"/>
    <path id="Path_8647" data-name="Path 8647" d="M5412.493,2191.238h-1.449a4.9,4.9,0,0,0,4.85-4.7l4.2-126.827a4.527,4.527,0,0,0-4.541-4.7H5417a4.525,4.525,0,0,1,4.542,4.544c0,.051,0,.1,0,.152l-4.2,126.827a4.9,4.9,0,0,1-4.851,4.7Z" transform="translate(-4846.208 -1860.311)" fill="#24538d"/>
    <path id="Path_8648" data-name="Path 8648" d="M4222.944,2191.238h-177.4a4.525,4.525,0,0,1-4.54-4.7l4.2-126.827a4.9,4.9,0,0,1,4.852-4.7h177.4a4.526,4.526,0,0,1,4.541,4.7l-4.2,126.827a4.9,4.9,0,0,1-4.851,4.7Z" transform="translate(-3658.109 -1860.311)" fill="#3a72b7"/>
    <path id="Path_8649" data-name="Path 8649" d="M3840.24,3490.21H3625.986a5.614,5.614,0,0,0-5.062,3.165,1.616,1.616,0,0,0,1.481,2.308h221.415a1.615,1.615,0,0,0,1.481-2.308A5.612,5.612,0,0,0,3840.24,3490.21Z" transform="translate(-3277.689 -3159.515)" fill="#3a72b7"/>
    <path id="Path_8650" data-name="Path 8650" d="M5577.045,3495.683h-40a1.616,1.616,0,0,1-1.481-2.308,5.612,5.612,0,0,1,5.062-3.165h32.837a5.613,5.613,0,0,1,5.062,3.165,1.61,1.61,0,0,1,.16.7,1.628,1.628,0,0,1-1.642,1.608Z" transform="translate(-5010.915 -3159.515)" fill="#24538d"/>
    <path id="Path_8651" data-name="Path 8651" d="M4312.493,3528.924H4264.03a2,2,0,0,1,1.991-1.993h44.48A2,2,0,0,1,4312.493,3528.924Z" transform="translate(-3860.004 -3192.755)" fill="#2e65ad"/>
    <path id="Path_8652" data-name="Path 8652" d="M4262.477,2254.993h-52.3l27.8-121.313h-24.128l-1.814,7.918c-.837-2.375-1.84-5.087-2.972-7.918h57.426a1.762,1.762,0,0,1,1.768,1.829l-3.895,117.655a1.912,1.912,0,0,1-1.889,1.83Zm-150.05,0h-7l11.209-48.912q.6,4.368,1.347,8.92h0c-.041.29-2.464,17.083-5.556,39.99Zm-15.68,0h-9.23a1.762,1.762,0,0,1-1.767-1.829l2.378-71.893a99.262,99.262,0,0,0,8.393-7.72,187.551,187.551,0,0,0,13.276-15.284l3.127,2.566,1.033-1.073c-.006.189-.011.378-.017.568-.152,5.787-.109,12.047.2,18.764l-17.4,75.9Zm90.7-6.092c0-.119,0-.237,0-.356a155.9,155.9,0,0,0-3.116-31.352c2.424-.52,5.058-1.551,5.851-3.6,2.559-2.6,4.9-5.239,7.188-7.99l-9.925,43.3Zm-3.339-43.5-.324-.057c-.237-11.461-.8-30.437.8-52.147q.173.361.344.714c.771,1.6,1.491,3.08,2.131,4.378,0-.005,0-.01,0-.016.118.237.231.466.344.69l-1.049.566,3.41,4.872,6.15-3.383c.319.85.626,1.7.915,2.55l.928,2.7.786,2.687.2.672.1.338.029.074c.034.016.06.148.095.3a6.919,6.919,0,0,1-.005,1.541,22.946,22.946,0,0,1-.974,4.611,80.472,80.472,0,0,1-4.2,10.521c-2.856,6.13-6.251,12.31-9.675,18.39ZM4089,2155.071l.647-19.561a1.908,1.908,0,0,1,1.888-1.829h7.028c-1.292,1.991-2.428,3.8-3.356,5.293l-1.164-.935-1.959,5.69,3.445,2.827c-2.133,2.9-4.305,5.75-6.529,8.516Z" transform="translate(-3698.616 -1931.519)" fill="#e9f1fa"/>
    <path id="Path_8653" data-name="Path 8653" d="M5168.446,2255H5144.32l27.8-121.317h24.128Z" transform="translate(-4656.885 -1931.518)" fill="#fefefe"/>
    <path id="Path_8654" data-name="Path 8654" d="M4210.48,2255H4201.8l27.806-121.317h8.679Z" transform="translate(-3803.671 -1931.518)" fill="#fefefe"/>
    <path id="Path_8655" data-name="Path 8655" d="M5524.721,2255h-8.681l27.8-121.317h8.681Z" transform="translate(-4993.384 -1931.518)" fill="#fefefe"/>
    <path id="Path_8656" data-name="Path 8656" d="M4674.987,1501.64c-2.077,9-4.409,25.483,1.678,31.488,0,0-2.626,7.454-19.345,7.454-18.385,0-8.619-7.452-8.619-7.452,10.116-2.4,10.116-9.841,8.61-16.832l17.675-14.657Z" transform="translate(-4205.881 -1359.366)" fill="#ce5f56"/>
    <path id="Path_8657" data-name="Path 8657" d="M5083.232,1952.87c1.3,2.008,2.389,3.78,3.476,5.7q1.63,2.833,3.163,5.7c2.035,3.838,3.94,7.75,5.686,11.76,1.729,4.024,3.368,8.1,4.752,12.341a98.634,98.634,0,0,1,3.472,13.118l.169.845.086.422.115.693a18.86,18.86,0,0,1,.21,2.806,23.662,23.662,0,0,1-.5,4.676,39.518,39.518,0,0,1-2.422,7.391,79.106,79.106,0,0,1-6.627,11.968c-2.451,3.666-5.033,7.144-7.758,10.482-2.742,3.345-5.52,6.524-8.631,9.64l-7.277-5.688c3.986-7.038,8.046-14.248,11.373-21.39a80.411,80.411,0,0,0,4.2-10.521,22.887,22.887,0,0,0,.974-4.611,7.045,7.045,0,0,0,.006-1.541c-.035-.152-.061-.283-.095-.3l-.029-.075-.1-.337-.2-.673-.785-2.687-.928-2.7c-.61-1.8-1.311-3.607-2.021-5.4-1.458-3.594-3.093-7.181-4.792-10.745-1.736-3.557-3.563-7.095-5.448-10.606q-1.4-2.639-2.886-5.231l-2.917-5.033,15.733-10Z" transform="translate(-4587.345 -1767.841)" fill="#d15e56"/>
    <path id="Path_8658" data-name="Path 8658" d="M5030.338,1861.145c11.576,1.692,23.5,42.015,23.5,42.015l-24.919,13.805s-10.1-19.179-14.911-33.42C5008.967,1868.625,5017.918,1859.329,5030.338,1861.145Z" transform="translate(-4537.627 -1684.602)" fill="#61a375"/>
    <path id="Path_8659" data-name="Path 8659" d="M5134.642,2351.609c-.64-1.3-1.361-2.774-2.131-4.379.768,1.6,1.489,3.07,2.132,4.363C5134.643,2351.6,5134.642,2351.6,5134.642,2351.609Z" transform="translate(-4646.194 -2124.834)" fill="#a5abb3"/>
    <path id="Path_8660" data-name="Path 8660" d="M5131.374,2200.461c-.643-1.292-1.363-2.764-2.132-4.363l-.342-.716c.363-4.911.839-9.966,1.456-15.1a75.883,75.883,0,0,1,1.018,20.18Z" transform="translate(-4642.926 -1973.703)" fill="#61a375"/>
    <path id="Path_8661" data-name="Path 8661" d="M5175.534,2246.79l1.055,5.925L5150.98,2266.8l-3.41-4.871Z" transform="translate(-4659.828 -2033.911)" fill="#3a72b7"/>
    <path id="Path_8662" data-name="Path 8662" d="M5150.98,2266.8l-3.41-4.871,27.963-15.137,1.055,5.925-3.7,2.032-15.758,8.668Z" transform="translate(-4659.828 -2033.911)" fill="#4d897c"/>
    <path id="Path_8663" data-name="Path 8663" d="M5023.637,2873.175l-12.247-2.135,6.286,14.175s11.178-.064,10.666-5.825Z" transform="translate(-4536.551 -2599.012)" fill="#ce5f56"/>
    <path id="Path_8664" data-name="Path 8664" d="M4914.97,2878.163l5.753,11.453,9.667-4.4-6.285-14.175Z" transform="translate(-4449.267 -2599.012)" fill="#ce5f56"/>
    <path id="Path_8665" data-name="Path 8665" d="M4390.944,1833.443s-15.8,37.142-4.415,106.308h65.784c.8-10.1-3.832-59.359,7.558-106.941a169.122,169.122,0,0,0-21.926-2.781c-8.392-.406-20.551-.674-27.964,0a125.778,125.778,0,0,0-19.038,3.412Z" transform="translate(-3967.162 -1656.267)" fill="#61a375"/>
    <path id="Path_8666" data-name="Path 8666" d="M4383.3,2409.49c.006-.19.011-.379.016-.568h0C4383.311,2409.111,4383.306,2409.3,4383.3,2409.49Z" transform="translate(-3967.973 -2180.679)" fill="#a5abb3"/>
    <path id="Path_8667" data-name="Path 8667" d="M4382.5,2255.9q.012-2.661.076-5.2c.006-.19.011-.379.017-.569l3.089-3.21-.975-.784c2.579-2.992,6.4-7.584,10.1-12.626-1.77,8.48-5.242,17.787-12.308,22.392Z" transform="translate(-3967.249 -2021.89)" fill="#61a375"/>
    <path id="Path_8668" data-name="Path 8668" d="M3683.487,1969.29c-2.5,4.328-5.053,8.292-7.709,12.348q-3.955,6.049-8.241,11.9a208.471,208.471,0,0,1-18.811,22.6,90.782,90.782,0,0,1-11.706,10.257l-1.7,1.188c-.735.446-1.5.931-2.214,1.273a30.547,30.547,0,0,1-4.246,1.811,54.929,54.929,0,0,1-7.962,2.008,91.836,91.836,0,0,1-15.083,1.2c-2.469-.017-4.917-.063-7.361-.25-2.46-.177-4.835-.355-7.363-.727l-.007-9.235c4.435-.763,9.039-1.616,13.444-2.555,2.213-.464,4.4-.958,6.538-1.516,2.139-.531,4.232-1.124,6.216-1.8a39.412,39.412,0,0,0,5.5-2.183,20.856,20.856,0,0,0,2.116-1.23c.331-.2.524-.4.782-.584l1.134-.9a84.6,84.6,0,0,0,9.016-8.855,240.125,240.125,0,0,0,16.537-21.357c2.626-3.74,5.181-7.552,7.728-11.37,2.509-3.807,5.018-7.775,7.357-11.515l16.041,9.5Z" transform="translate(-3250.818 -1774.105)" fill="#d15e56"/>
    <path id="Path_8669" data-name="Path 8669" d="M4202.318,1877.38c1.292,11.558-24.448,39.579-24.448,39.579l-20.389-15.945a251.433,251.433,0,0,1,18.083-26.6C4186.146,1861.3,4200.859,1864.332,4202.318,1877.38Z" transform="translate(-3763.551 -1689.164)" fill="#61a375"/>
    <path id="Path_8670" data-name="Path 8670" d="M4154.541,2179.66l-1.96,5.691,20.845,17.105,4.122-4.283Z" transform="translate(-3759.115 -1973.142)" fill="#3a72b7"/>
    <path id="Path_8671" data-name="Path 8671" d="M4173.425,2202.456l-3.127-2.567-14.274-11.712-3.444-2.826,1.96-5.691,23.006,18.513-3.088,3.21h0Z" transform="translate(-3759.115 -1973.142)" fill="#4d897c"/>
    <path id="Path_8672" data-name="Path 8672" d="M3450.949,2634.322l-14.669.224,5.909,13.726c1.818.6,9.92-2.281,14-6.78l-5.242-7.169Z" transform="translate(-3110.686 -2384.723)" fill="#ce5f56"/>
    <path id="Path_8673" data-name="Path 8673" d="M3329.39,2643.8l8.02,10.061,8.018-3.445-5.91-13.728Z" transform="translate(-3013.923 -2386.867)" fill="#ce5f56"/>
    <path id="Path_8674" data-name="Path 8674" d="M4607.271,1370.873c-.145.981-.782,1.722-1.425,1.65s-1.053-.925-.91-1.907.78-1.722,1.425-1.65S4607.413,1369.889,4607.271,1370.873Z" transform="translate(-4168.583 -1239.257)" fill="#29383e"/>
    <path id="Path_8675" data-name="Path 8675" d="M4576.13,1398.4s-3.065,5.421-5.93,7.884c1.508,1.814,4.582,1.4,4.582,1.4Z" transform="translate(-4137.164 -1265.908)" fill="#bb302d"/>
    <path id="Path_8676" data-name="Path 8676" d="M4622.177,1308.072a.582.582,0,0,0,.546-.9,6.008,6.008,0,0,0-4.613-2.779.583.583,0,0,0-.02,1.166,4.843,4.843,0,0,1,3.665,2.261.58.58,0,0,0,.421.255Z" transform="translate(-4179.999 -1180.805)" fill="#29383e"/>
    <path id="Path_8677" data-name="Path 8677" d="M4637.82,1200.32c-2.5,11.982-3.347,19.1-10.361,24.621-10.553,8.3-24.7,1.134-25.843-11.225-1.026-11.126,3.227-28.852,15.779-32.35a16.1,16.1,0,0,1,20.424,18.954Z" transform="translate(-4165.471 -1068.833)" fill="#ce5f56"/>
    <path id="Path_8678" data-name="Path 8678" d="M4718.779,3031.9a151.7,151.7,0,0,0-3.486-40H4672.84a160.155,160.155,0,0,1,4.845,40h41.095Z" transform="translate(-4230.079 -2708.42)" fill="#3a72b7"/>
    <path id="Path_8679" data-name="Path 8679" d="M4718.778,3031.9h-27.706a168.906,168.906,0,0,0,2.261-27.362,115.02,115.02,0,0,0-.585-12.636h22.544a148.152,148.152,0,0,1,3.618,33.546c0,.12,0,.237,0,.356q-.005,2.969-.132,6.1h0Z" transform="translate(-4230.079 -2708.42)" fill="#729ed3"/>
    <path id="Path_8680" data-name="Path 8680" d="M4666.739,1193.219c-2.34-1.168-5.265-12.867-4.46-17.034s10.235-8.626,19.52-6.946,13.269,4.94,15.062,13.38c1.864,8.774-4.9,23.369-8.243,24.492a14.776,14.776,0,0,1-12.155-1.024c-2.983-1.882-4.533-15.28-9.724-12.868Z" transform="translate(-4220.396 -1058.131)" fill="#29383e"/>
    <path id="Path_8681" data-name="Path 8681" d="M4623.89,1113.167c-4.534.255-8.846-6.947-4.68-13.38a11.355,11.355,0,0,1,11.259-5.045s-1.9,3.692,4.423,2.923,18.078.988,22.193,5.41c5.066,5.447,2.007,16.159-5.632,13.527S4623.89,1113.167,4623.89,1113.167Z" transform="translate(-4180.003 -990.909)" fill="#29383e"/>
    <path id="Path_8682" data-name="Path 8682" d="M4603.134,1167.644a6.7,6.7,0,0,1-4.891-2.5,9.927,9.927,0,0,1-1.5-10.332.329.329,0,1,1,.609.246,9.266,9.266,0,0,0,1.384,9.652,5.568,5.568,0,0,0,5.353,2.159.329.329,0,0,1,.162.639,4.635,4.635,0,0,1-1.123.136Z" transform="translate(-4160.464 -1045.213)" fill="#29383e"/>
    <path id="Path_8683" data-name="Path 8683" d="M4688.826,1359.27a12.152,12.152,0,0,1-2.8,8.561c-2.66,3.117-6.143,1.232-7.21-2.517-.959-3.377-.729-9.068,2.808-10.808C4685.109,1352.789,4688.55,1355.457,4688.826,1359.27Z" transform="translate(-4235.047 -1225.691)" fill="#ce5f56"/>
    <path id="Path_8684" data-name="Path 8684" d="M4367.3,3031.9h47.183c3.782-22.829,1.675-40,1.675-40h-43.3s-2.44,16.889-5.557,40Z" transform="translate(-3953.489 -2708.42)" fill="#3a72b7"/>
    <path id="Path_8685" data-name="Path 8685" d="M4414.482,3031.9H4367.3c3.118-23.11,5.557-40,5.557-40h43.3a115.02,115.02,0,0,1,.585,12.636,168.8,168.8,0,0,1-2.26,27.362h0Z" transform="translate(-3953.489 -2708.42)" fill="#729ed3"/>
  </g>
</svg>
