<svg id="Layer_x0020_1" xmlns="http://www.w3.org/2000/svg" width="609" height="453.533" viewBox="0 0 609 453.533">
  <g id="_2016333186896" transform="translate(0)">
    <path id="Path_7961" data-name="Path 7961" d="M631.548,3133.865l-1.347-2.022,3.906-2.6,1.348,2.023Zm-7.81,5.206-1.348-2.022,3.906-2.6,1.346,2.022-3.9,2.6Zm-7.811,5.2-1.347-2.022,3.905-2.6,1.348,2.022Zm-7.812,5.2-1.347-2.023,3.905-2.6,1.347,2.022-3.906,2.6Zm-7.81,5.2-1.348-2.023,3.905-2.6,1.348,2.022-3.9,2.6Zm-7.811,5.2-1.347-2.022,3.9-2.6,1.348,2.022-3.9,2.6Zm-7.811,5.2-1.348-2.023,3.906-2.6,1.348,2.021Zm-7.811,5.2-1.347-2.023,3.906-2.6,1.348,2.022Zm-7.81,5.2-1.347-2.022,3.905-2.6,1.348,2.022Zm-7.811,5.2-1.348-2.022,3.905-2.6,1.347,2.022-3.9,2.6Zm-89.959,2.156-2.982-3.623,1.876-1.545,2.983,3.623Zm-9.132,1.444-1.346-2.023,3.908-2.6,1.346,2.023Zm91.281,1.606-1.348-2.022,3.905-2.6,1.348,2.022Zm-99.1,3.592L453,3187.479l3.908-2.6,1.346,2.023-3.908,2.6Zm22.914.6-2.983-3.622,1.877-1.546,2.982,3.624Zm68.372,1.008-1.349-2.022,3.906-2.6,1.348,2.023Zm-99.1,3.585-1.346-2.023,3.908-2.6,1.346,2.024Zm91.291,1.621-1.348-2.022,3.9-2.6,1.349,2.022Zm-54.6,1.033-2.983-3.623,1.876-1.544,2.984,3.624-1.877,1.544Zm-44.509,2.545-1.346-2.023,3.908-2.6,1.346,2.023Zm91.3,1.627-1.348-2.022,3.9-2.6,1.347,2.022Zm-40.82,3.075-2.983-3.624,1.876-1.545,2.984,3.624-1.877,1.544Zm-58.291.5-1.346-2.023,3.908-2.6,1.346,2.023Zm91.3,1.635-1.347-2.022,3.906-2.6,1.347,2.021Zm-99.115,3.563-1.347-2.025,3.908-2.6,1.346,2.024-3.908,2.6Zm72.071,1.553-2.982-3.624,1.876-1.545,2.983,3.623Zm19.233.088-1.348-2.023,3.905-2.6,1.348,2.022Zm-99.12,3.556-1.346-2.023,3.908-2.6,1.346,2.023Zm-89.914,1.565-2.9-3.526.841-.693-.7-1.005,1.023-.713,3.616,4.392-1.876,1.545Zm181.223.084-1.348-2.022,3.906-2.6,1.348,2.022Zm-5.456,1.953-2.983-3.623,1.876-1.545,2.983,3.623Zm-184.843.1-1.39-1.993,3.851-2.683,1.39,1.995Zm91.174,1.5-1.346-2.023,3.908-2.6,1.346,2.024ZM331.32,3224.3l-2.983-3.623,1.876-1.545,2.983,3.624-1.876,1.544Zm-22.743.253-1.389-1.994,3.851-2.682,1.39,1.994-3.851,2.681Zm91.061,1.332-1.346-2.024,3.908-2.6,1.346,2.024Zm-98.763,4.033-1.388-1.995,3.85-2.682,1.39,1.994-3.85,2.683Zm90.947,1.164-1.346-2.023,3.908-2.6,1.346,2.024Zm-54.536.464-2.983-3.624,1.876-1.544,2.983,3.623-1.877,1.546Zm-44.113,3.734-1.388-1.994,3.851-2.683,1.389,1.995Zm90.834,1-1.346-2.023,3.908-2.6,1.346,2.023Zm-40.756,2.513-2.983-3.623,1.876-1.545,2.982,3.624-1.876,1.544Zm-57.78,1.854-1.39-2,3.851-2.681,1.388,1.993Zm90.72.831-1.345-2.023,3.906-2.6,1.346,2.025Zm-98.422,4.533-1.39-1.995,3.851-2.682,1.388,1.994-3.851,2.683Zm71.448.028-2.983-3.623,1.876-1.544,2.983,3.623Zm19.159.637-1.345-2.025,3.908-2.6,1.346,2.023-3.908,2.6Zm-98.308,4.7-1.39-1.995,3.851-2.682,1.389,1.994Zm90.494.5-1.346-2.023,3.908-2.6,1.345,2.024-3.908,2.6Zm-5.378,1.412-2.983-3.623,1.877-1.545,2.983,3.624-1.877,1.544Zm-92.818,3.454-1.39-1.994,3.85-2.683,1.39,1.994-3.851,2.683Zm-7.7,5.365-1.389-1.995,3.851-2.682,1.388,1.993-3.851,2.683Zm-7.7,5.364-1.39-1.993,3.851-2.683,1.389,1.994-3.851,2.682Zm-7.7,5.364-1.389-1.994,3.851-2.682,1.39,1.995-3.851,2.681Zm-7.7,5.364-1.389-1.993,3.851-2.682,1.389,1.994-3.851,2.682Zm-7.7,5.364-1.39-1.994,3.851-2.682,1.388,1.995Zm-7.7,5.364-1.39-1.994,3.851-2.683,1.39,1.995Zm-7.7,5.364-1.388-1.994,3.851-2.683,1.388,2Zm-7.7,5.364-1.388-1.993,3.85-2.682,1.388,1.994-3.85,2.682Zm-7.7,5.364-1.388-1.994,3.851-2.681,1.388,1.994-3.851,2.681Zm-7.7,5.365-1.389-1.995,3.85-2.681,1.39,1.994-3.851,2.683Zm-7.7,5.364-1.39-1.994,3.851-2.681,1.39,1.994-3.851,2.681Zm-7.7,5.365-1.39-1.995,3.851-2.682,1.39,1.993-3.851,2.683Zm-7.7,5.364-1.389-1.995,3.851-2.683,1.39,2-3.851,2.682Zm-7.7,5.364-1.388-1.995,3.851-2.682,1.388,1.994-3.851,2.683Zm-7.7,5.364-1.39-1.994,3.851-2.683,1.39,1.994-3.851,2.682Zm-7.7,5.364-1.388-1.994,3.851-2.681,1.389,1.993Zm-7.7,5.365-1.39-1.994,3.851-2.681,1.39,1.993Zm-7.7,5.364-1.39-1.994,3.851-2.682,1.39,1.993-3.851,2.683Zm-7.7,5.364-1.388-1.994,3.85-2.683,1.39,1.994-3.851,2.682Zm-7.7,5.365-1.39-2,3.851-2.681,1.388,1.995-3.851,2.681Zm-7.7,5.364-1.388-1.994,3.85-2.683,1.39,1.994-3.851,2.682Zm-7.7,5.364-1.39-1.994,3.851-2.682,1.388,1.995-3.851,2.681Zm-7.7,5.364-1.39-1.993,3.851-2.683,1.388,1.995-3.85,2.681Zm-7.7,5.364-1.388-1.994,3.851-2.682,1.39,1.995-3.851,2.681Zm-7.7,5.365-1.39-1.994,3.851-2.683,1.389,1.994-3.851,2.682Zm-7.7,5.364-1.388-1.994,3.851-2.682,1.389,1.994-3.851,2.682Zm-7.7,5.365-1.389-1.994,3.851-2.682,1.389,1.994Zm-7.7,5.363-1.389-1.994,3.851-2.683,1.389,2Z" transform="translate(-42.773 -2953.403)" fill="#4d897c"/>
    <path id="Path_7962" data-name="Path 7962" d="M68.563,2471.512l-1.346-2.025,3.471-2.307,1.346,2.024-3.47,2.308ZM0,2514.189v2.918l2.629-1.749-1.345-2.024L0,2514.189Zm61.623-38.062-1.346-2.023,3.47-2.308,1.346,2.023Zm-6.941,4.616-1.346-2.025,3.471-2.307,1.346,2.023Zm-6.94,4.615-1.346-2.023,3.47-2.308,1.346,2.023Zm-6.94,4.615-1.346-2.024,3.47-2.308,1.346,2.024Zm-6.94,4.616-1.346-2.024,3.47-2.308,1.346,2.023ZM26.92,2499.2l-1.346-2.024,3.47-2.309,1.346,2.024-3.47,2.309Zm-6.94,4.616-1.346-2.025,3.47-2.308,1.346,2.025Zm-6.94,4.615-1.346-2.025,3.471-2.307,1.346,2.023-3.47,2.308ZM6.1,2513.05l-1.346-2.023,3.47-2.308,1.346,2.025L6.1,2513.05Z" transform="translate(0 -2328.545)" fill="#4d897c"/>
    <path id="Path_7963" data-name="Path 7963" d="M1322.5,2398.78l-.627-.761-.821.547-1.346-2.025,2.648-1.761,2.022,2.455Z" transform="translate(-1245.553 -2260.213)" fill="#4d897c"/>
    <path id="Path_7964" data-name="Path 7964" d="M1421.606,2503.4l-2.776-3.372,1.875-1.544,2.777,3.372Zm5.552,6.744-2.776-3.372,1.876-1.545,2.776,3.372-1.877,1.545Zm5.552,6.744-2.776-3.372,1.876-1.544,2.776,3.371-1.877,1.545Zm5.552,6.744-2.775-3.372,1.876-1.545,2.776,3.372Zm5.552,6.744-2.776-3.373,1.877-1.544,2.776,3.372-1.876,1.545Z" transform="translate(-1339.104 -2358.086)" fill="#4d897c"/>
    <path id="Path_7965" data-name="Path 7965" d="M1914.892,3102.57l-2.022-2.455,1.876-1.545.627.76.82-.545,1.346,2.024Z" transform="translate(-1805.383 -2924.456)" fill="#4d897c"/>
    <path id="Path_7966" data-name="Path 7966" d="M2134.444,1858.013l-1.346-2.024,3.517-2.339,1.346,2.025-3.517,2.339Zm-7.034,4.677-1.346-2.024,3.517-2.339,1.347,2.024-3.517,2.339Zm-7.036,4.678-1.344-2.024,3.517-2.339,1.346,2.025-3.519,2.339Zm-7.033,4.678-1.346-2.024,3.517-2.339,1.346,2.024Zm-7.034,4.678-1.345-2.023,3.517-2.34,1.346,2.025-3.517,2.339Zm-7.034,4.679-1.346-2.024,3.517-2.339,1.346,2.024Zm-7.034,4.677-1.346-2.024,3.517-2.339,1.346,2.024Zm-7.034,4.678-1.346-2.024,3.517-2.338,1.346,2.024-3.517,2.339Zm-7.034,4.678-1.345-2.024,3.517-2.338,1.346,2.023-3.517,2.339Zm-7.034,4.679-1.346-2.024,3.518-2.339,1.345,2.024Zm-7.033,4.677-1.347-2.023,3.517-2.339,1.346,2.023Zm-7.034,4.678-1.346-2.024,3.517-2.339,1.345,2.024Zm-7.034,4.679-1.346-2.025,3.517-2.338,1.346,2.024Zm-7.034,4.677-1.346-2.024,3.517-2.339,1.346,2.023-3.517,2.339Zm-7.034,4.678-1.346-2.025,3.517-2.339,1.346,2.024-3.517,2.339Z" transform="translate(-1920.292 -1749.491)" fill="#4d897c"/>
    <path id="Path_7967" data-name="Path 7967" d="M3915.113,1784.69l-.626-.761-.821.547-1.345-2.023,2.647-1.762,2.022,2.455Z" transform="translate(-3692.481 -1680.63)" fill="#4d897c"/>
    <path id="Path_7968" data-name="Path 7968" d="M4014.206,1889.307l-2.776-3.373,1.876-1.545,2.776,3.373Zm5.552,6.744-2.776-3.372,1.877-1.544,2.776,3.371Zm5.552,6.744-2.776-3.371,1.876-1.545,2.777,3.373-1.877,1.544Zm5.552,6.745-2.776-3.372,1.876-1.545,2.776,3.372Zm5.552,6.744-2.776-3.372,1.877-1.545,2.777,3.372Z" transform="translate(-3786.021 -1778.503)" fill="#4d897c"/>
    <path id="Path_7969" data-name="Path 7969" d="M4507.5,2488.493l-2.023-2.459,1.875-1.544.625.758.817-.546,1.352,2.02Z" transform="translate(-4252.311 -2344.883)" fill="#4d897c"/>
    <path id="Path_7970" data-name="Path 7970" d="M4804.284,315.163l-1.352-2.02,3.517-2.353,1.353,2.02Zm-7.034,4.706-1.351-2.02,3.517-2.353,1.35,2.02Zm-7.033,4.706-1.351-2.02,3.516-2.353,1.353,2.02Zm-7.034,4.706-1.352-2.02,3.517-2.352,1.351,2.019Zm-7.034,4.706-1.351-2.02,3.516-2.353,1.353,2.02Zm-7.034,4.7-1.352-2.019,3.517-2.353,1.35,2.02-3.516,2.353Zm-7.034,4.707-1.353-2.02,3.518-2.353,1.352,2.021Zm-7.034,4.706-1.352-2.02,3.517-2.353,1.351,2.02Zm-7.034,4.706-1.351-2.02,3.517-2.352,1.352,2.019Zm-7.034,4.706-1.352-2.02,3.518-2.353,1.351,2.02Zm-7.034,4.706-1.351-2.02,3.516-2.353,1.352,2.02Zm-7.033,4.706-1.353-2.02,3.517-2.353,1.353,2.02Zm-7.035,4.706-1.351-2.02,3.517-2.353,1.352,2.02-3.516,2.353Zm-7.034,4.706-1.351-2.02,3.517-2.352,1.351,2.02-3.518,2.353Zm-7.033,4.706-1.352-2.019,3.517-2.353,1.352,2.02Zm-7.034,4.706-1.351-2.02,3.516-2.353,1.353,2.02-3.517,2.353Zm-7.034,4.706-1.351-2.02,3.517-2.353,1.352,2.02Zm-7.034,4.706-1.351-2.02,3.517-2.353,1.351,2.02Zm-7.034,4.706-1.352-2.02,3.517-2.352,1.352,2.019Zm-7.033,4.707-1.352-2.021,3.517-2.353,1.351,2.02Zm-7.034,4.706-1.352-2.021,3.517-2.353,1.352,2.019Zm-7.034,4.706-1.351-2.02,3.517-2.353,1.351,2.02Zm-7.034,4.706-1.352-2.02,3.517-2.353,1.352,2.02Zm-7.033,4.706-1.353-2.02,3.518-2.353,1.352,2.02-3.517,2.353Zm-7.034,4.706-1.351-2.02,3.516-2.353,1.353,2.02Zm-7.034,4.706-1.352-2.02,3.516-2.353,1.352,2.02-3.516,2.353Z" transform="translate(-4367.084 -293.326)" fill="#61a375"/>
    <path id="Path_7971" data-name="Path 7971" d="M7882.98,251.478l-1.351-2.019,1.732-1.159,1.351,2.02Z" transform="translate(-7438.748 -234.348)" fill="#4d897c"/>
    <path id="Path_7972" data-name="Path 7972" d="M7803.769,108.494l-5.749-8.9,10.579-.53,10.579-.529-4.832,9.425-4.831,9.426Z" transform="translate(-7359.838 -93.003)" fill="#4d897c"/>
    <path id="Path_7973" data-name="Path 7973" d="M119.349,5837.672l-1.352-2.02,3.517-2.353,1.352,2.02ZM0,5914.6v2.923l3.292-2.2L1.94,5913.3Zm112.315-72.222-1.352-2.021L114.48,5838l1.352,2.02-3.517,2.353Zm-7.034,4.706-1.352-2.02,3.517-2.353,1.352,2.021Zm-7.034,4.706L96.9,5849.77l3.516-2.352,1.352,2.019Zm-7.034,4.706-1.35-2.02,3.517-2.353,1.35,2.021-3.517,2.352Zm-7.032,4.706-1.352-2.02,3.517-2.353,1.351,2.02Zm-7.034,4.706-1.352-2.02,3.517-2.353,1.352,2.021Zm-7.034,4.707-1.352-2.021,3.517-2.353,1.351,2.021Zm-7.034,4.706-1.352-2.02,3.517-2.353,1.352,2.021Zm-7.033,4.706-1.352-2.02,3.516-2.353,1.351,2.02Zm-7.034,4.707-1.351-2.02,3.517-2.354,1.352,2.021-3.517,2.353Zm-7.034,4.7-1.351-2.019,3.516-2.354,1.351,2.021-3.517,2.353Zm-7.034,4.707-1.351-2.02,3.516-2.354,1.351,2.021-3.516,2.353Zm-7.034,4.706-1.351-2.02,3.517-2.353,1.351,2.02Zm-7.034,4.706-1.351-2.02,3.517-2.353,1.351,2.02Zm-7.034,4.706-1.351-2.02,3.517-2.353,1.351,2.021-3.518,2.352ZM6.81,5912.97l-1.353-2.021,3.517-2.353,1.351,2.02-3.516,2.354Z" transform="translate(0 -5505.517)" fill="#4d897c"/>
    <path id="Path_7974" data-name="Path 7974" d="M2226.442,5773.978l-1.352-2.02,1.731-1.159,1.352,2.02Z" transform="translate(-2100.059 -5446.529)" fill="#c62727"/>
    <path id="Path_7975" data-name="Path 7975" d="M2147.218,5631l-5.748-8.9,10.579-.529,10.578-.529-4.831,9.425-4.83,9.427Z" transform="translate(-2021.137 -5305.185)" fill="#4d897c"/>
    <path id="Path_7976" data-name="Path 7976" d="M9695.968,1347.046l-5.748-8.9,10.578-.529,10.577-.53-4.829,9.426-4.83,9.425Z" transform="translate(-9145.71 -1261.957)" fill="#292d48"/>
    <path id="Path_7977" data-name="Path 7977" d="M10467.148,2975.926l-5.748-8.9,10.577-.53,10.58-.53-4.832,9.426-4.834,9.425Z" transform="translate(-9873.558 -2799.307)" fill="#292d48"/>
    <path id="Path_7978" data-name="Path 7978" d="M0,1734.456l215.85-144.738,33.188,40.312,112.5-74.814,33.184,40.306L550.243,1491.75l1.349,2.021L394.239,1598.763l-33.186-40.309-112.5,74.814-33.183-40.305L0,1737.382Z" transform="translate(0 -1407.926)" fill="#292d48"/>
    <path id="Path_7979" data-name="Path 7979" d="M3705.926,1216.534s-44.706-38.375-128-18.518c0,0-74.588,17.627-81.178,105.978,0,0-1.412,29.227,29.648,78.982,0,0,11.293,33.689,8.47,90.807l94.871-39.9,76.19-135.869v-81.484Z" transform="translate(-3300.249 -1125.315)" fill="#dbdadc"/>
    <path id="Path_7980" data-name="Path 7980" d="M3557.7,4288.537a20.389,20.389,0,1,1,20.385-20.387A20.391,20.391,0,0,1,3557.7,4288.537Zm47.127-28.618h-6.1a43.374,43.374,0,0,0-1.772-6.246l5.1-2.939a2.576,2.576,0,0,0,.939-3.5l-5.111-8.847a2.564,2.564,0,0,0-3.491-.934l-5.3,3.055a41.466,41.466,0,0,0-4.637-4.516l2.949-5.105a2.564,2.564,0,0,0-.939-3.5l-8.847-5.109a2.563,2.563,0,0,0-3.488.94l-3.052,5.291a41.136,41.136,0,0,0-6.288-1.592v-5.9a2.558,2.558,0,0,0-2.556-2.559h-10.209a2.562,2.562,0,0,0-2.567,2.559v6.1a42.542,42.542,0,0,0-6.24,1.763l-2.93-5.1a2.575,2.575,0,0,0-3.51-.94l-8.847,5.118a2.554,2.554,0,0,0-.931,3.486l3.059,5.3a40.974,40.974,0,0,0-4.516,4.633l-5.1-2.946a2.568,2.568,0,0,0-3.5.942l-5.117,8.848a2.551,2.551,0,0,0,.939,3.488l5.289,3.053a41.385,41.385,0,0,0-1.585,6.278h-5.895a2.564,2.564,0,0,0-2.561,2.562v10.215a2.551,2.551,0,0,0,2.561,2.551h6.1a41.116,41.116,0,0,0,1.757,6.25l-5.1,2.943a2.565,2.565,0,0,0-.935,3.489l5.107,8.844a2.568,2.568,0,0,0,3.5.945l5.3-3.061a41.4,41.4,0,0,0,4.635,4.523l-2.945,5.109a2.546,2.546,0,0,0,.929,3.487l8.859,5.114a2.552,2.552,0,0,0,3.481-.936l3.062-5.293a40.847,40.847,0,0,0,6.28,1.582v5.908a2.546,2.546,0,0,0,2.547,2.549l10.229.008a2.556,2.556,0,0,0,2.554-2.557v-6.1a43.746,43.746,0,0,0,6.237-1.761l2.95,5.089a2.536,2.536,0,0,0,3.483.938l8.857-5.112a2.562,2.562,0,0,0,.929-3.5l-3.06-5.292a41.032,41.032,0,0,0,4.528-4.637l5.108,2.952a2.556,2.556,0,0,0,3.491-.936l5.107-8.853a2.554,2.554,0,0,0-.93-3.485l-5.294-3.061a41.648,41.648,0,0,0,1.589-6.271h5.9a2.557,2.557,0,0,0,2.548-2.564v-10.219a2.543,2.543,0,0,0-2.548-2.55Z" transform="translate(-3310.899 -3981.419)" fill="#61a375"/>
    <path id="Path_7981" data-name="Path 7981" d="M3849.993,4587.076a26.511,26.511,0,1,1,26.505-26.507A26.512,26.512,0,0,1,3849.993,4587.076Zm0-58.786a32.28,32.28,0,1,0,32.284,32.282A32.278,32.278,0,0,0,3849.989,4528.29Z" transform="translate(-3603.187 -4273.838)" fill="#2c4865"/>
    <path id="Path_7982" data-name="Path 7982" d="M4377.257,4528.29c-.3,0-.593.006-.887.018v5.776c.294-.016.583-.03.891-.03a26.511,26.511,0,0,1,0,53.022c-.308,0-.6-.012-.891-.025v5.778c.294.005.583.021.887.021a32.28,32.28,0,1,0,0-64.56Z" transform="translate(-4130.455 -4273.838)" fill="#2c4865"/>
    <path id="Path_7983" data-name="Path 7983" d="M5143.115,2549.34l-.513-15.281-36.937-16.251-6.024-22.889c.159-.081-24.679-12.242-24.514-12.318-13.14,2.927-9.413-7.38-9.413-7.38l28.951,59.531,48.449,14.589Z" transform="translate(-4780.604 -2336.133)" fill="#292d48"/>
    <path id="Path_7984" data-name="Path 7984" d="M5443.57,3068.426l-48-11.9,3.658-6.561-7.978-7.754-5.3,4.192v13.247s4.7,6.711,7.079,7.406,29.393,9.721,29.6,9.837,16.517,5.567,16.517,5.567l4.426-14.033Z" transform="translate(-5083.305 -2871.263)" fill="#282b38"/>
    <path id="Path_7985" data-name="Path 7985" d="M6415.042,3542.627c-.583,1.6-.331,3.992-1.151,5.76,2.15,1.144,7.8,2.339,11.983,3.854,4.773,1.732,8.038-6.6,7.481-11.46-.291-2.542-1.131-2.442-1.963-2.343-.772.092-1.538.186-1.851-1.834-.544-3.516-9.359-2.227-11.985-1.6a30.029,30.029,0,0,1-2.512,7.622Z" transform="translate(-6053.484 -3335.654)" fill="#fddaa1"/>
    <path id="Path_7986" data-name="Path 7986" d="M6342.672,3497.643l-4.639,15.7-5.433-1.644,4.637-15.7Z" transform="translate(-5976.761 -3299.554)" fill="#eeedec"/>
    <path id="Path_7987" data-name="Path 7987" d="M5963.24,5715.056c.373.958.7,1.49.977,1.513,3.327.273,2.716,6.613,3.84,7.239,5.52,3.077,26.771,12.986,28.646,7.929s-17.922-16.519-17.922-16.519l-.031-.3c-5.186.549-10.678.216-15.508.135Z" transform="translate(-5628.156 -5393.791)" fill="#262523"/>
    <path id="Path_7988" data-name="Path 7988" d="M4719.37,3858.466l.2-.571c17.062-18.457,6.964-12.827,15.213-16.024-.3.534,102.018,4.427,102.018,4.427l-30.974,98.646c-3.291,6.176-15.754,7.033-17.281,4.049-1.266-9.067,17.223-75.541,17.223-75.541l-50.21,5.054-36.187-20.04Z" transform="translate(-4454.181 -3625.99)" fill="#292d48"/>
    <path id="Path_7989" data-name="Path 7989" d="M4719.37,3866.432l.2-.571c17.062-18.457,15.485-12.352,23.732-15.551l14.8.78,64.752,10.411s-26.263,78.843-25,87.909c.811,1.585,4.7,2.086,8.666,1.286l-.695,2.212c-3.291,6.176-15.754,7.032-17.281,4.048-1.266-9.068,17.223-75.541,17.223-75.541l-50.21,5.054-36.187-20.04Z" transform="translate(-4454.181 -3633.955)" fill="#282b38"/>
    <path id="Path_7990" data-name="Path 7990" d="M4633.376,2411.24l-18.1-4.57c3.717,16.208-2.718,35.712-6.288,52.122-2.118,9.268-4.827,18.013-7.625,27.1-2.093,7.314,1.867,10.017,1.867,10.017l17.741,13.957c2.21-.666,2.263-10.411,13.35-20.1,0,0-1.548-5.6,11.638-24.159,1.62-2.282.431-3.655,1.921-6.055C4653.783,2420.5,4650.9,2424.341,4633.376,2411.24Z" transform="translate(-4342.227 -2271.435)" fill="#e9e9e9"/>
    <path id="Path_7991" data-name="Path 7991" d="M4910.111,2176.976l-7.878-1.706s-9.213,8.915-11.174,10.7,23.325,18.084,23.325,18.084.692-1.49,5.584-3.508c0,0-.941-5.513-.427-6.089,3.116-3.491-9.431-17.48-9.431-17.48Z" transform="translate(-4616.12 -2053.038)" fill="#fbc46b"/>
    <path id="Path_7992" data-name="Path 7992" d="M5636,5922.676c.371.957.7,1.49.976,1.512,3.328.274,2.717,6.613,3.84,7.24,5.521,3.076,26.772,12.986,28.646,7.928s-17.923-16.518-17.923-16.518l-.031-.3C5646.324,5923.089,5640.83,5922.754,5636,5922.676Z" transform="translate(-5319.304 -5589.743)" fill="#262523"/>
    <path id="Path_7993" data-name="Path 7993" d="M4428.308,4086.1l50.209-5.055s-18.488,66.474-17.223,75.542c1.527,2.984,13.99,2.128,17.281-4.049l30.974-98.646s-102.322-3.893-102.019-4.427c-8.247,3.2,1.849-2.433-15.211,16.025l-.2.571,36.187,20.04Z" transform="translate(-4145.32 -3821.914)" fill="#292d48"/>
    <path id="Path_7994" data-name="Path 7994" d="M4489.076,4092.422c-1.4,4-18.151,10.753-22.115,11.9a7.029,7.029,0,0,1-3.072.2,14.653,14.653,0,0,0-1.91-.052c-8.217.2-15.42,1.4-23.227,1.667-4.522.3-34.326-6.72-29.244-31.656.476-2.338-2.069,2.158-5.386,6.654-2.741,3.715-6.009,7.432-8.533,7.289,1.254,2.2-1.594,16.9,15.3,21.682l20.689-1,50.734-4.895L4477,4121.53s9.08-20.56,12.08-29.108Z" transform="translate(-4148.594 -3844.933)" fill="#282b38"/>
    <path id="Path_7995" data-name="Path 7995" d="M4888.24,2438.341l14.751,23.279,2.8-6s-4.167,40.722-3.956,40.587,7.712-37.253,7.712-37.253l1.283-1.838,3.25,2.725,5.036-9.273-1.582-2.8-7.9,4.6s-6.272.037-6.543-.068-14.852-13.966-14.852-13.966Z" transform="translate(-4613.562 -2301.326)" fill="#d2d0d0"/>
    <path id="Path_7996" data-name="Path 7996" d="M4144.775,2380.044c5.6-17.168,1.2-32.008-13.272-51.185l-22.632,8.224s-2.774,58.632-6.965,67.652c-6.489,13.963-11.644,14.754-11.644,14.754-2.258,11.908,7.434,31.633,15.344,33.387C4108.455,2448.359,4133.515,2414.55,4144.775,2380.044Z" transform="translate(-3860.109 -2197.997)" fill="#292d48"/>
    <path id="Path_7997" data-name="Path 7997" d="M4771.642,2326.2l-2.793,2.214c7.194,14.446-.678,20.715-.678,20.715l10.218,7.747-9.2,2.725s9.973,22.253,4.567,44.221c0,0,8.4-18,11.157-26.438C4790.516,2360.216,4786.114,2345.376,4771.642,2326.2Z" transform="translate(-4500.239 -2195.487)" fill="#2e335b"/>
    <path id="Path_7998" data-name="Path 7998" d="M4462.9,2518.171a217.627,217.627,0,0,1-16.18,36.269L4427,2475.21s22.68,20.462,38.024,33.249A47.2,47.2,0,0,1,4462.9,2518.171Z" transform="translate(-4178.24 -2336.124)" fill="#282b38"/>
    <path id="Path_7999" data-name="Path 7999" d="M5072.2,2603.93l-3.122,2.927c1.032,23.642-6.294,56.559-17.8,78.91,22.613-19.518,35.2-69.373,35.2-69.373Z" transform="translate(-4767.441 -2457.611)" fill="#292d48"/>
    <path id="Path_8000" data-name="Path 8000" d="M5197.792,2925.939c1.616-2.3,3.232-10.275,3.232-10.275s-.585-2.161-2.009-5.953c3.719-.4,2.892-2.564,6.481-3.7-2.211-.552-3.746-6.351-4.875-8.2-3.978.23-3.011,3.873-7.1,4.112-.148,17,1.123,26.967-10.874,44.981,3.944-3.1,10.115-14.358,15.143-20.965Z" transform="translate(-4891.428 -2734.978)" fill="#282b38"/>
    <path id="Path_8001" data-name="Path 8001" d="M5177.78,2667.938c7.722-10.7,10.025-18.8,19.273-28-3.443-.912-5.711-5.465-7.048-8.767,4.007-.2,4.4-1.253,8.235-2.431-6.352-4.86-10.036-14.74-9.255-22.192l-3.722,2.781c.953,21.8-3.968,41.9-10.884,63.559.627-1.963,2.422-3.3,3.4-4.951Z" transform="translate(-4883.623 -2460.084)" fill="#2e335b"/>
    <path id="Path_8002" data-name="Path 8002" d="M5120.444,1726.789s7.659-4.9,15.136-.124,8.379,7.547,5.852,13.379-5.488,9.42-2.316,11.258a10.237,10.237,0,0,0,5.674,1.574s-1.237,5.153-5.744,6.111a17.91,17.91,0,0,1-5.973-.03s-1.053,6.181.482,9.857c1.188,2.842-6.077,6.227-16.933-1.153-8.083-5.5-8.94-11.242-8.306-12.9a24.784,24.784,0,0,1,2.3-4.572c.943-1.681,9.826-23.4,9.826-23.4Z" transform="translate(-4821.115 -1627.665)" fill="#fddaa1"/>
    <path id="Path_8003" data-name="Path 8003" d="M5029.252,1561.047s.214,13.232-3.5,15.816-9.292,6.507-9.292,6.507-2.71,2.236-3.731-11c-1.05-13.6-2.1-13.012.519-15.274a9.84,9.84,0,0,1,4.806-2.5s-1-5.529,2.163-7.547,15.081-1.863,24.73,1.962,16.8,10.241,14.472,15.312c-1.917,4.175-14.664,8.458-30.167-3.271Z" transform="translate(-4729.999 -1458.901)" fill="#453427"/>
    <path id="Path_8004" data-name="Path 8004" d="M5089.847,1623.6c-1.952,4.716-13.055-6.958-24.521-9.124-4.873-.921-9.532-.245-12.459,2.441s2.488,5.512,2.488,5.512a30.4,30.4,0,0,0-5.71-1.956c-1.647-.158-3.944,6.342-4.543,9.431-.52,2.681-2.427,12.209,3.017,17.425,1.646-1.156,5.658-3.97,8.54-5.978,3.712-2.584,3.5-15.816,3.5-15.816,15.5,11.729,28.25,7.446,30.167,3.271A5.592,5.592,0,0,0,5089.847,1623.6Z" transform="translate(-4760.904 -1523.39)" fill="#382f26"/>
    <path id="Path_8005" data-name="Path 8005" d="M5062,1939.634a6.819,6.819,0,1,1-4.887-8.312,6.819,6.819,0,0,1,4.887,8.313Z" transform="translate(-4764.892 -1822.589)" fill="#fddaa1"/>
    <path id="Path_8006" data-name="Path 8006" d="M5125.245,2026.565a1.854,1.854,0,0,1-.139-3.182c1.023-.914,2.762-.034,2.762-.034s-.448-3.37-2.583-3.138a2.875,2.875,0,0,0-2.529,2.168s-.085-3.384,3.067-3.136,2.366,4.654,2.366,4.654-2.875-1.318-3.216,1.1a2.109,2.109,0,0,0,.271,1.571Z" transform="translate(-4834.9 -1905.766)" fill="#fbc46b"/>
    <path id="Path_8007" data-name="Path 8007" d="M5513.987,2261.153s-2.339-1.407-1.091-2.952a8.273,8.273,0,0,1,1.585-1.481s-5.363,2.307-.493,4.433Z" transform="translate(-5202.22 -2129.911)" fill="#fbc46b"/>
    <path id="Path_8008" data-name="Path 8008" d="M5147.635,2659.343l5.577,3.85s-18.479,58.756.981,73.99c5.324,1.645,7.943,1.144,7.943,1.144l.885-6.852s-12.228-7.166-13.185-22.019c-1.337-20.728,5.4-46.358,5.4-46.358l4.545-3.259-5.625-2.471-6.525,1.973Z" transform="translate(-4856.16 -2508.048)" fill="#61a375"/>
    <path id="Path_8009" data-name="Path 8009" d="M4868.187,2333.28l22.882,18.148,4.792-3.921,1.882,2.643-4.931,9.274-1.943-7.394-9.9,4.886-15.567-20.739Z" transform="translate(-4592.005 -2202.169)" fill="#e9e9e9"/>
    <path id="Path_8010" data-name="Path 8010" d="M5052.8,2490.517l-16.04-9.867c.092,3.882.792,4.377.584,8.157l5.353,7.2,9.9-4.886,1.944,7.395,4.136-7.538c.172-.463-1.031-3.193-1.031-3.193Z" transform="translate(-4753.737 -2341.258)" fill="#fefefe"/>
    <path id="Path_8011" data-name="Path 8011" d="M4181.78,1848.548l168.441-259.278c6.182,3.968,17.746,13.91,23.562,20.167,18.694,20.108,35.047,43.362,33.221,84.668-.383,8.918-12.562,19.912-2.736,36.661,0,0,20.946,32.847,20.6,38.5,0,0,.815,10.309-15.052,11.424,0,0-4.361,1.423-2.764,10.089l2.219,10.452s.44,5.785-8.1,8.163c0,0-1.283,1.385.846,3.829,0,0,4.369,3.83-1.966,13.044-2.274,3.308-5.766,7.582-2.986,15.8,0,0,3.79,15.887-2.3,20.028,0,0-6.715,8.889-35.776,6.823-9.69-.67-27.5-4.339-38.041,8.213-.345.632-5.624,10.546-2.269,19.772,1.454,4,1.9,8.2-3.021,9.5-4.562,1.207-9.052-.338-13.483-1.231a204.324,204.324,0,0,1-24.48-6.623c-71.241-26.728-95.91-50-95.91-50Z" transform="translate(-3946.799 -1499.966)" fill="#61a375"/>
    <path id="Path_8012" data-name="Path 8012" d="M4181.78,6197.259a2.678,2.678,0,0,1,.231-.365l.007,0Z" transform="translate(-3946.799 -5848.678)" fill="#d0cccc"/>
    <path id="Path_8013" data-name="Path 8013" d="M4185.891,6195.95c.015-.021.03-.039.045-.059l-.037.056Z" transform="translate(-3950.679 -5847.733)" fill="#acaaaa"/>
    <path id="Path_8014" data-name="Path 8014" d="M4181.78,1848.548h0l.239-.369.037-.056h0Zm.276-.425,168.165-258.853s69.543,63.317,16.013,150.132c0,0-22.665,35.985-72.568,53.139C4245.158,1809.216,4187.354,1841.226,4182.056,1848.123Z" transform="translate(-3946.799 -1499.966)" fill="#2b313c"/>
    <path id="Path_8015" data-name="Path 8015" d="M4347.92,1587.24s58.171,51.66,7.642,144.607c0,0-20.274,37.741-70.177,54.895-49.6,17.049-102.937,53.9-105.915,59.776Z" transform="translate(-3944.619 -1498.05)" fill="#f6f7f7"/>
    <path id="Path_8016" data-name="Path 8016" d="M6229.1,721.017a22.364,22.364,0,1,1,22.36-22.362A22.368,22.368,0,0,1,6229.1,721.017Zm51.693-31.39H6274.1a47.413,47.413,0,0,0-1.945-6.852l5.593-3.225a2.826,2.826,0,0,0,1.029-3.84l-5.6-9.7a2.814,2.814,0,0,0-3.83-1.025l-5.813,3.352a45.393,45.393,0,0,0-5.087-4.954l3.235-5.6a2.814,2.814,0,0,0-1.03-3.835l-9.7-5.606a2.813,2.813,0,0,0-3.827,1.032l-3.348,5.8a45.328,45.328,0,0,0-6.9-1.746v-6.472a2.8,2.8,0,0,0-2.8-2.805h-11.2a2.811,2.811,0,0,0-2.816,2.805v6.7a46.627,46.627,0,0,0-6.845,1.935L6210,649.991a2.826,2.826,0,0,0-3.85-1.031l-9.7,5.614a2.8,2.8,0,0,0-1.02,3.824l3.354,5.811a44.91,44.91,0,0,0-4.953,5.082l-5.6-3.232a2.816,2.816,0,0,0-3.835,1.033l-5.613,9.7a2.8,2.8,0,0,0,1.031,3.826l5.8,3.35a45.178,45.178,0,0,0-1.738,6.885h-6.466a2.813,2.813,0,0,0-2.809,2.812v11.2a2.8,2.8,0,0,0,2.809,2.8h6.694a45.072,45.072,0,0,0,1.925,6.855l-5.6,3.23a2.812,2.812,0,0,0-1.024,3.827l5.6,9.7a2.818,2.818,0,0,0,3.835,1.036l5.812-3.357a45.294,45.294,0,0,0,5.085,4.961l-3.232,5.6a2.8,2.8,0,0,0,1.02,3.825l9.719,5.61a2.8,2.8,0,0,0,3.818-1.026l3.359-5.805a44.956,44.956,0,0,0,6.89,1.735v6.481a2.791,2.791,0,0,0,2.792,2.8l11.219.008a2.8,2.8,0,0,0,2.8-2.8v-6.692a48.038,48.038,0,0,0,6.84-1.931l3.237,5.581a2.781,2.781,0,0,0,3.82,1.029l9.717-5.608a2.81,2.81,0,0,0,1.018-3.833l-3.357-5.805A45.115,45.115,0,0,0,6264.37,728l5.6,3.237a2.8,2.8,0,0,0,3.828-1.027l5.6-9.711a2.8,2.8,0,0,0-1.021-3.823l-5.808-3.357a45.405,45.405,0,0,0,1.743-6.88h6.473a2.8,2.8,0,0,0,2.8-2.812V692.423a2.789,2.789,0,0,0-2.8-2.8Z" transform="translate(-5827.639 -607.954)" fill="#61a375"/>
    <path id="Path_8017" data-name="Path 8017" d="M6549.7,1048.512a29.08,29.08,0,1,1,29.074-29.075A29.081,29.081,0,0,1,6549.7,1048.512Zm0-64.482a35.407,35.407,0,1,0,35.413,35.41A35.4,35.4,0,0,0,6549.7,984.03Z" transform="translate(-6148.242 -928.736)" fill="#2c4865"/>
    <path id="Path_8018" data-name="Path 8018" d="M7128.083,984.021c-.334,0-.65.007-.973.018v6.336c.322-.017.639-.033.977-.033a29.08,29.08,0,0,1,0,58.161c-.338,0-.655-.014-.977-.027v6.338c.322,0,.639.021.973.021a35.407,35.407,0,1,0,0-70.814Z" transform="translate(-6726.626 -928.727)" fill="#2c4865"/>
    <path id="Path_8019" data-name="Path 8019" d="M5029.974,218.787a13.9,13.9,0,1,1,13.9-13.9A13.907,13.907,0,0,1,5029.974,218.787Zm32.137-19.516h-4.157a29.665,29.665,0,0,0-1.209-4.259l3.477-2a1.756,1.756,0,0,0,.638-2.388l-3.483-6.033a1.75,1.75,0,0,0-2.381-.637l-3.614,2.084a28.329,28.329,0,0,0-3.163-3.08l2.011-3.481a1.75,1.75,0,0,0-.64-2.384l-6.034-3.485a1.746,1.746,0,0,0-2.376.641l-2.082,3.608a28.19,28.19,0,0,0-4.288-1.086v-4.024a1.744,1.744,0,0,0-1.742-1.744h-6.962a1.746,1.746,0,0,0-1.75,1.744v4.163a28.927,28.927,0,0,0-4.255,1.2l-2-3.479a1.757,1.757,0,0,0-2.394-.641l-6.032,3.49a1.741,1.741,0,0,0-.635,2.377l2.086,3.613a27.92,27.92,0,0,0-3.08,3.159l-3.48-2.009a1.751,1.751,0,0,0-2.384.642l-3.49,6.033a1.742,1.742,0,0,0,.641,2.38l3.606,2.082a28.184,28.184,0,0,0-1.081,4.28h-4.02a1.749,1.749,0,0,0-1.748,1.748v6.964a1.74,1.74,0,0,0,1.748,1.74H5002a27.969,27.969,0,0,0,1.2,4.262l-3.48,2.008a1.752,1.752,0,0,0-.637,2.38l3.482,6.031a1.752,1.752,0,0,0,2.384.644l3.615-2.087a28.089,28.089,0,0,0,3.161,3.085l-2.009,3.483a1.738,1.738,0,0,0,.634,2.379l6.042,3.487a1.74,1.74,0,0,0,2.374-.638l2.089-3.609a27.832,27.832,0,0,0,4.282,1.078v4.03a1.736,1.736,0,0,0,1.737,1.739l6.976.005a1.743,1.743,0,0,0,1.742-1.744v-4.16a29.807,29.807,0,0,0,4.252-1.2l2.011,3.47a1.73,1.73,0,0,0,2.375.64l6.04-3.486a1.746,1.746,0,0,0,.634-2.384l-2.087-3.609a28.1,28.1,0,0,0,3.088-3.162l3.482,2.012a1.743,1.743,0,0,0,2.38-.638l3.482-6.037a1.741,1.741,0,0,0-.634-2.376L5057,214a28.431,28.431,0,0,0,1.083-4.277h4.025a1.743,1.743,0,0,0,1.738-1.749v-6.969a1.733,1.733,0,0,0-1.738-1.739Z" transform="translate(-4715.354 -161.391)" fill="#61a375"/>
    <path id="Path_8020" data-name="Path 8020" d="M5229.313,422.368a18.079,18.079,0,1,1,18.075-18.076A18.078,18.078,0,0,1,5229.313,422.368Zm0-40.088a22.012,22.012,0,1,0,22.018,22.014A22.009,22.009,0,0,0,5229.31,382.28Z" transform="translate(-4914.694 -360.799)" fill="#2c4865"/>
    <path id="Path_8021" data-name="Path 8021" d="M5588.874,382.27c-.206,0-.4,0-.6.011v3.94c.2-.011.4-.02.606-.02a18.079,18.079,0,0,1,0,36.158c-.209,0-.407-.009-.606-.017v3.941c.2,0,.4.012.6.012a22.012,22.012,0,1,0,0-44.024Z" transform="translate(-5274.256 -360.79)" fill="#2c4865"/>
    <path id="Path_8022" data-name="Path 8022" d="M4514.154,2411.193l-.514-15.281-44.757-19.974-19.26-47.089c.161-.081-7.1,3.921-6.935,3.845-13.14,2.926-15.7,4.379-15.7,4.379l28.951,59.531,58.213,14.589Z" transform="translate(-4178.23 -2197.987)" fill="#292d48"/>
    <path id="Path_8023" data-name="Path 8023" d="M5941.893,3542.635c-.585,1.6-.331,3.993-1.152,5.761,2.15,1.144,7.8,2.339,11.982,3.854,4.774,1.732,8.04-6.6,7.482-11.46-.562-4.9-3.164.019-3.814-4.176-.544-3.516-9.36-2.227-11.985-1.6A30,30,0,0,1,5941.893,3542.635Z" transform="translate(-5606.921 -3335.662)" fill="#fddaa1"/>
    <path id="Path_8024" data-name="Path 8024" d="M5869.511,3497.643l-4.638,15.7-5.433-1.644,4.637-15.7Z" transform="translate(-5530.189 -3299.554)" fill="#eeedec"/>
    <path id="Path_8025" data-name="Path 8025" d="M1277.1,3298h-27.475v-35.142H1236.56l26.788-26.788,26.787,26.788H1277.1Z" transform="translate(-1167.076 -3054.23)" fill="#4d897c"/>
    <path id="Path_8026" data-name="Path 8026" d="M2461.37,4205.175l-30.9-30.9-30.895,30.9h15.069v40.53h31.689v-40.53Z" transform="translate(-2264.744 -3939.72)" fill="#292d48"/>
    <path id="Path_8027" data-name="Path 8027" d="M9151.7,1929.1v-30.863H9140.25l23.528-23.526,23.525,23.526h-11.476V1929.1Z" transform="translate(-8626.646 -1769.367)" fill="#4d897c"/>
    <path id="Path_8028" data-name="Path 8028" d="M8463.97,1218.191l15.161-15.161,15.16,15.161h-7.4v19.888h-15.549v-19.888Z" transform="translate(-7988.366 -1135.43)" fill="#4d897c"/>
    <path id="Path_8029" data-name="Path 8029" d="M1232.669,737.216h105.424c7.227,0,13.26-4.371,13.26-9.608s-6.033-9.608-13.26-9.608H1232.669c-7.228,0-13.26,4.372-13.26,9.608S1225.441,737.216,1232.669,737.216Z" transform="translate(-1150.889 -677.654)" fill="#4d897c"/>
    <path id="Path_8030" data-name="Path 8030" d="M3502.148,19.216h34.306a9.7,9.7,0,0,0,9.608-9.608A9.7,9.7,0,0,0,3536.454,0h-34.306a9.7,9.7,0,0,0-9.608,9.608A9.7,9.7,0,0,0,3502.148,19.216Z" transform="translate(-3296.289)" fill="#4d897c"/>
    <path id="Path_8031" data-name="Path 8031" d="M8892.077,492.4h34.307a9.608,9.608,0,0,0,0-19.216h-34.307a9.608,9.608,0,0,0,0,19.216Z" transform="translate(-8383.349 -446.591)" fill="#edebed"/>
    <path id="Path_8032" data-name="Path 8032" d="M9615.459,5525.426h34.3a9.608,9.608,0,1,0,0-19.216h-34.3a9.608,9.608,0,1,0,0,19.216Z" transform="translate(-9066.082 -5196.807)" fill="#61a375"/>
    <path id="Path_8033" data-name="Path 8033" d="M3100.888,6918.187h34.3a9.608,9.608,0,1,0,0-19.217h-34.3a9.608,9.608,0,0,0,0,19.217Z" transform="translate(-2917.576 -6511.306)" fill="#edebed"/>
    <path id="Path_8034" data-name="Path 8034" d="M1853.358,1572.436h34.305a9.608,9.608,0,0,0,0-19.216h-34.305a9.608,9.608,0,1,0,0,19.216Z" transform="translate(-1740.147 -1465.942)" fill="#4d897c"/>
    <path id="Path_8035" data-name="Path 8035" d="M8517.569,6106.155h76.392a9.608,9.608,0,0,0,0-19.215h-76.392a9.608,9.608,0,1,0,0,19.215Z" transform="translate(-8029.885 -5744.905)" fill="#61a375"/>
  </g>
</svg>
