<svg xmlns="http://www.w3.org/2000/svg" width="694" height="408.906" viewBox="0 0 694 408.906">
  <g id="Layer_x0020_1" transform="translate(0 -0.025)">
    <path id="Path_8387" data-name="Path 8387" d="M6374.4,2927.917c-.643,8.794-8.486,91.886-12.915,138.646h48.823l13.34-114.324,10.964,114.324h55.756c-3.993-39.431-10.443-102.428-12.069-114.023-2.4-17.116-5.707-47.345-20.12-71.968-9.91-1.5-89.483,17.018-89.483,17.018,1.8,5.4,6.606,18.016,5.7,30.328Z" transform="translate(-5871.894 -2658.773)" fill="#4d897c"/>
    <path id="Path_8388" data-name="Path 8388" d="M6359.138,3009.666q-2.364,25.1-4.749,50.195h1.078q3.3-34.813,6.58-69.629c2.16-22.99,4.646-45.987,6.344-69.017.635-10.382-2.291-20.213-5.544-29.933q16.474-3.827,33.011-7.362c16.458-3.537,33.093-7.459,49.848-9.3,1.4-.155,5.145-1.019,5.917.315a118.738,118.738,0,0,1,9.479,21.479c4.354,12.853,6.826,26.255,8.753,39.659,1.985,13.806,3.465,27.667,4.941,41.537q4.374,41.111,8.486,82.247h1.081q-3.959-39.205-8.077-78.395c-1.407-13.3-2.766-26.6-4.579-39.853-1.743-12.749-3.77-25.444-7.22-37.859a142.7,142.7,0,0,0-7.345-20.385,108.1,108.1,0,0,0-5.045-9.773c-.289-.5-1.485-.351-1.965-.353-5.792-.022-11.719,1.251-17.4,2.233-8.91,1.544-17.776,3.335-26.629,5.175q-21.31,4.429-42.518,9.349l-1.585.366a.543.543,0,0,0-.377.667c3.294,9.8,6.326,19.7,5.685,30.184-2.177,29.517-5.4,58.987-8.173,88.451Z" transform="translate(-5865.341 -2652.072)" fill="#432c5c"/>
    <path id="Path_8389" data-name="Path 8389" d="M7003.271,3806.525a.541.541,0,0,0-1.081,0q-4.184,35.85-8.366,71.7l-4.973,42.623h1.081q2.552-21.847,5.1-43.695,3.827-32.771,7.648-65.543,3.207,33.443,6.414,66.886,2.031,21.176,4.062,42.352h1.083q-2.109-21.983-4.217-43.965-3.375-35.181-6.749-70.36Z" transform="translate(-6450.971 -3513.061)" fill="#432c5c"/>
    <path id="Path_8390" data-name="Path 8390" d="M4286.147,724.237c-1.2-3.6-6.2-17.818-6.2-17.818s-14.615-9.206-21.02-12.809-9.209-16.014,1.2-19.018c2.8-5.2,7.085-5.661,9.487-4.26,1.6-11.811,7.576-13.234,14.183-11.031s10.627,7.876,14.63,16.882,4.941,13.821,8.342,22.829,6.005,15.817,6.005,15.817S4304.964,731.244,4286.147,724.237Z" transform="translate(-3925.867 -607.736)" fill="#f9d7dd"/>
    <path id="Path_8391" data-name="Path 8391" d="M4359.549,931.232a16.014,16.014,0,1,1-16.014-16.012A16.015,16.015,0,0,1,4359.549,931.232Z" transform="translate(-3994.464 -844.759)" fill="#e7316c"/>
    <path id="Path_8392" data-name="Path 8392" d="M4290.259,775.862c2.253,2.552,6.006,1.2,5.406-4.352,3.752-.3,4.5-5.556,7.958-10.211,1.5,6.007,4.2,6.757,6.155,5.855s3.6-2.1,3.751-7.656,1.8-7.056,4.206-6.306,4.5,6.306,7.506,13.212,3.3,12.312-1.051,13.361-8.257,2.7-10.809,7.358.449,9.158,8.409,5.705,10.358-9.009,10.358-9.009-.151-13.962-4.8-25.371-15.167-9.012-15.167-9.012l-12.459,9.311-9.909,10.659.45,6.456Z" transform="translate(-3959.656 -691.54)" fill="#f9d7dd"/>
    <path id="Path_8393" data-name="Path 8393" d="M6627.455,774.951c5.8.5,11.913-6.006,10.51-13.812s-13.715,4.1-13.715,4.1l3.2,9.71Z" transform="translate(-6114.432 -700.088)" fill="#535ea6"/>
    <path id="Path_8394" data-name="Path 8394" d="M6620.956,768.366c4.423.192,8-2.691,9.962-6.473,1.246-2.4,2.68-8.837-.417-10.6-4.13-2.354-10.427,3.842-13.131,6.444a.536.536,0,0,0-.14.526q1.6,4.855,3.2,9.71c.217.659,1.262.376,1.042-.288q-1.365-4.143-2.733-8.285-.214-.647-.427-1.292c.037.112-.38.573.192.041.921-.856,1.886-1.664,2.87-2.446,1.81-1.437,7.392-5.937,9.236-2.656,1.557,2.769.136,7.1-1.337,9.567a9.418,9.418,0,0,1-8.322,4.674c-.7-.03-.7,1.051,0,1.081Z" transform="translate(-6107.933 -692.962)" fill="#535ea6"/>
    <path id="Path_8395" data-name="Path 8395" d="M5881.364,310.19c-1.2,7.605-2.6,14.164,4.2,26.374s9.209,27.576,31.628,24.471A77.746,77.746,0,0,1,5920,371.246l29.426-6.4-9.41-28.63c12.512-3.7,12.308-11.564,10.1-16.768s-21.714-25.867-28.723-27.669-32.828-.4-40.034,18.416Z" transform="translate(-5427.796 -268.757)" fill="#f9d7dd"/>
    <path id="Path_8396" data-name="Path 8396" d="M6287.625,770.637c1.847-2.063-1.524-6.5-3.476-4.632S6286.111,772.331,6287.625,770.637Z" transform="translate(-5800.011 -706.612)" fill="#252422"/>
    <path id="Path_8397" data-name="Path 8397" d="M6020.369,805.767c1.845-2.066-1.527-6.5-3.479-4.632S6018.855,807.462,6020.369,805.767Z" transform="translate(-5553.322 -739.039)" fill="#252422"/>
    <path id="Path_8398" data-name="Path 8398" d="M6010.4,724.294a11.679,11.679,0,0,1-5.666-1.568c-2.613-1.743-2.356-4.248-1.764-6.471,1.272-5.5-1.306-10.31-7.075-13.188a.541.541,0,0,1,.485-.967c6.161,3.074,9.016,8.464,7.641,14.417-.621,2.33-.622,4.02,1.273,5.286a10.6,10.6,0,0,0,5.106,1.41.541.541,0,0,1,0,1.082Z" transform="translate(-5534.162 -647.988)" fill="#252422"/>
    <path id="Path_8399" data-name="Path 8399" d="M6196.4,943.862a.54.54,0,0,1-.125-1.066,19.71,19.71,0,0,0,11.123-7.131.541.541,0,0,1,.828.7,20.715,20.715,0,0,1-11.7,7.485.551.551,0,0,1-.125.015Z" transform="translate(-5719.011 -863.453)" fill="#252422"/>
    <path id="Path_8400" data-name="Path 8400" d="M6356.366,921.253a.54.54,0,0,1-.2-1.044,26.169,26.169,0,0,0,9.314-6.376l.454-.517a23.775,23.775,0,0,0,3.36-4.464,43.828,43.828,0,0,0,2.372-5.34,15.88,15.88,0,0,0,1.271-5.22.541.541,0,1,1,1.082,0,16.719,16.719,0,0,1-1.339,5.6,44.246,44.246,0,0,1-2.43,5.467,24.547,24.547,0,0,1-3.5,4.676l-.47.533a27.276,27.276,0,0,1-9.72,6.652.541.541,0,0,1-.195.037Z" transform="translate(-5866.665 -828.634)" fill="#252422"/>
    <path id="Path_8401" data-name="Path 8401" d="M6223.5,660.33c-.8-2.6,2.3-4.306,6.706-2.5s5.27,3.815,3.9,3.5C6226.2,659.529,6224,661.431,6223.5,660.33Z" transform="translate(-5744.406 -606.486)" fill="#535ea6"/>
    <path id="Path_8402" data-name="Path 8402" d="M6218.055,653.687c-.886-3.78,4.912-2.322,6.613-1.591a10.988,10.988,0,0,1,3.078,1.919l.227.24q.245.68.313.054c-.76-.114-1.516-.315-2.274-.448a25.812,25.812,0,0,0-5.423-.366c-.365.014-2.384.426-2.587.062a.542.542,0,0,0-.935.546c.7,1.237,3.243.473,4.325.451a40.157,40.157,0,0,1,6.815.828.86.86,0,0,0,1.071-.777c0-.821-.9-1.546-1.49-1.967a14.184,14.184,0,0,0-5.988-2.531c-2.549-.4-5.478.908-4.785,3.865.158.68,1.2.392,1.043-.286Z" transform="translate(-5738.441 -599.986)" fill="#535ea6"/>
    <path id="Path_8403" data-name="Path 8403" d="M5923.182,692.736c-2.805-1.6-6.508-2.5-7.707-.9s-.2,3.5,1,3.4,5.807-.9,7.609-.7C5925.083,694.538,5924.084,693.438,5923.182,692.736Z" transform="translate(-5459.705 -637.792)" fill="#535ea6"/>
    <path id="Path_8404" data-name="Path 8404" d="M5916.938,684.769c-1.941-1.063-5.232-2.646-7.46-1.5-1.628.837-2.451,3.971-.343,4.829a5.271,5.271,0,0,0,2.686-.056c1.479-.2,2.961-.4,4.455-.481.75-.041,1.721.264,2.175-.484.474-.781-.964-1.859-1.4-2.223-.532-.443-1.3.318-.765.764.264.219,1.37.867.7.847a16.7,16.7,0,0,0-1.921.1c-1.3.113-2.6.3-3.892.483-.4.055-.806.109-1.21.149q-1.239-.2-.951-1.739c.15-1.067,1.019-1.332,1.858-1.415,1.874-.187,3.94.791,5.527,1.66.611.334,1.157-.6.545-.934Z" transform="translate(-5453.188 -630.292)" fill="#535ea6"/>
    <path id="Path_8405" data-name="Path 8405" d="M5693.077,36.319c-1.4,7.208.4,21.519,7.4,29.027s6.007-5.905,5.207-8.107c4-4.6,11.587-5.464,14.493,1.943.9,3-.656,8.566-.656,8.566,5.228-1.983,7.785-9.507,5.881-13.712s-2.6-12.413-2.1-18.82S5717.4,14.3,5699.681,18.9c-5.017-8.719-10.174-10.37-19.244-9.012-8.237,1.234-17.457-4.348-24.363-2.046-4.566,1.522-7.242,6.456-.334,13.363-10.71-3-20.318-2.6-24.522,8.006s1.2,24.322,17.917,24.623a35.2,35.2,0,0,1,1.449-6.73c1.3,7.806,7.856,7.931,13.963,3.227a59.459,59.459,0,0,0,10.911-11.711c-2.4,6.507-.3,7.307,4.4,6.807s10.111-7.809,13.214-9.11Z" transform="translate(-5196.568 -6.698)" fill="#535ea6"/>
    <path id="Path_8406" data-name="Path 8406" d="M5686.375,29.477c-1.278,7.075-.018,14.806,2.589,21.44.8,2.042,6.489,13.585,10.169,10.024,1.338-1.295,1.428-3.471,1.476-5.214a22.661,22.661,0,0,0-.182-3.3c-.141-1.19-.536-1.553.308-2.373,3.115-3.028,8-3.433,11.079-.224,2.841,2.962,1.986,7.5,1.008,11.076a.547.547,0,0,0,.795.61c4.432-1.9,6.852-6.769,6.765-11.447-.042-2.3-1.313-4.472-1.836-6.687a48.907,48.907,0,0,1-1.03-11.535c.028-3.951.2-7.031-1.42-10.735a17.664,17.664,0,0,0-7.882-8.45,16.241,16.241,0,0,0-5.911-1.749,24.724,24.724,0,0,0-4.114-.061c-.835.054-4.24,1.048-4.651.35-2.522-4.279-6.039-7.734-11.036-8.7a23.908,23.908,0,0,0-7.477.045,33.152,33.152,0,0,1-11.618-.912c-5.08-1.134-11.295-3.055-16.008.182-5.143,3.532-1.435,9.733,1.779,13.077q.263-.451.525-.9c-5.485-1.5-12.063-2.779-17.462-.255-5.11,2.387-8.2,7.662-8.909,13.153a18.447,18.447,0,0,0,3.742,14.032c3.789,4.793,10.016,6.576,15.882,6.761a.551.551,0,0,0,.541-.541,34.527,34.527,0,0,1,1.43-6.588h-1.043c1.29,6.572,6.588,8.106,12.221,5.214,5.521-2.835,10.158-8.528,13.642-13.568l-.988-.417c-.668,1.9-1.645,4.4-.51,6.319.911,1.535,3.368,1.335,4.837,1.231,6.1-.435,9.021-6.82,14.084-9.241.63-.3.08-1.234-.545-.934-3.754,1.795-6.377,5.6-9.881,7.834a9.008,9.008,0,0,1-6.435,1.193c-2.721-.519-1.063-4.536-.507-6.113.216-.612-.659-.892-.988-.417a56.765,56.765,0,0,1-9.443,10.48c-2.378,2.066-5.194,3.874-8.409,4.12-3.647.279-5.422-2.866-6.034-5.987-.11-.56-.886-.472-1.044,0a35.985,35.985,0,0,0-1.467,6.874c.181-.179.36-.36.541-.541-5.572-.176-10.906-1.8-14.747-6.008A16.845,16.845,0,0,1,5624.288,28c.373-5.281,3.19-10.576,7.945-13.077,5.188-2.729,11.852-1.354,17.186.1a.545.545,0,0,0,.526-.9c-3.633-3.78-6.465-10.059.1-12.459,5.369-1.963,11.992.952,17.339,1.858,5,.848,9.866-.744,14.836.016,5.086.779,8.352,4.749,10.82,8.935a.548.548,0,0,0,.611.248c5.929-1.455,12.128-1.17,17,2.847a17.222,17.222,0,0,1,5.894,10.955c.317,2.592-.143,5.3-.086,7.915a47.92,47.92,0,0,0,1.22,9.944c.731,3.1,2.031,5.309,1.351,8.628a10.492,10.492,0,0,1-5.951,7.568l.794.61c1.269-4.639,1.737-9.506-2.178-12.984-3.835-3.407-9.491-1.389-12.563,1.949a.547.547,0,0,0-.14.526,16.417,16.417,0,0,1,.395,7.014c-.761,5.517-5.212.195-6.757-2.059-4.825-7.037-6.716-17.511-5.2-25.875.122-.681-.919-.972-1.044-.288Z" transform="translate(-5190.389)" fill="#535ea6"/>
    <path id="Path_8407" data-name="Path 8407" d="M5891.586,373.07a.541.541,0,0,1-.535-.47l-.095-.69a15.09,15.09,0,0,1-.2-4.055,14.491,14.491,0,0,1,3.326-6.984,13.269,13.269,0,0,1,2.709-2.7.541.541,0,0,1,.619.887,12.33,12.33,0,0,0-2.492,2.5,13.414,13.414,0,0,0-3.091,6.454,14.245,14.245,0,0,0,.2,3.747l.1.7a.54.54,0,0,1-.466.606.554.554,0,0,1-.071.005Z" transform="translate(-5437.321 -330.495)" fill="#252422"/>
    <path id="Path_8408" data-name="Path 8408" d="M6591.577,613.646a.508.508,0,0,1-.083-.007.524.524,0,0,1-.448-.6,10.723,10.723,0,0,0,.192-1.712,7.213,7.213,0,0,0-.187-1.48c-.184-.824-.39-1.755-.687-2.655a18.666,18.666,0,0,0-1.655-3.8.541.541,0,0,1,.934-.545,19.694,19.694,0,0,1,1.75,4.016,28.165,28.165,0,0,1,.713,2.746,8.248,8.248,0,0,1,.213,1.718,11.381,11.381,0,0,1-.2,1.852A.562.562,0,0,1,6591.577,613.646Z" transform="translate(-6081.559 -556.177)" fill="#252422"/>
    <path id="Path_8409" data-name="Path 8409" d="M4668.222,1222.124c6.307,1.8,20.12-1.5,27.026-11.11,4.806,10.809,21.02,47.143,22.219,48.945s15.915-9.009,32.731-22.522,27.023-17.415,37.233-16.212,15.016-.3,14.113-6.006-2.1-10.512-2.1-10.512,11.709,4.8,30.027-6.006c3.9,11.412,3.6,13.515,5.106,15.315s15.015-3.9,27.926-2.1,39.537,30.249,52.146,42.038c15.414,14.413,33.28,30.027,24.623,47.446-6.044,12.155-27.823,3.6-27.823,3.6s-1.8-5.405-11.412-15.014-25.824-26.126-25.824-26.126,19.017,57.255,22.619,65.964c-19.218,16.214-75.556,24.431-90.827,17.488-5-14.994-21.876-66.934-29.383-81.048-22.82,15.915-38.735,31.229-52.247,36.033s-25.525,9.608-37.536-23.123c-6.877-18.74-18.619-57.052-18.619-57.052Z" transform="translate(-4308.943 -1106.422)" fill="#a8d4af"/>
    <path id="Path_8410" data-name="Path 8410" d="M4661.543,1216.179c9.866,2.584,21.85-3.582,27.637-11.358h-.933c7.045,15.848,13.882,31.839,21.446,47.45.679,1.4,1.066,2.3,2.8,1.737,3.995-1.308,7.7-4.465,11.062-6.871,12.438-8.917,23.682-19.931,37.181-27.255a38.029,38.029,0,0,1,13.986-4.655c4.872-.521,9.693.8,14.575.316,2.942-.293,5.86-1.544,6.316-4.755.314-2.223-.5-4.726-.913-6.881-.374-1.944-.79-3.886-1.266-5.809l-.665.665a21.545,21.545,0,0,0,8.288,1.071c7.868-.163,15.438-3.238,22.156-7.13l-.793-.323c1.528,4.5,2.57,9.191,4.18,13.654.87,2.41,2.237,2.564,4.65,2.235,6.721-.915,13.144-2.66,19.995-2.629,5.24.024,9.322,1.558,13.721,4.268,9.844,6.068,18.379,14.43,26.689,22.391,8.469,8.112,17,16.185,25.393,24.369,9.706,9.463,21.9,22.7,15.582,37.249-4.1,9.431-16.677,7.421-24.6,5.088q-1.393-.409-2.758-.912c-.512-.19.24.481.134.2-.117-.315-.258-.618-.4-.922-1.855-3.948-4.832-7.432-7.712-10.656-7.979-8.931-16.884-17.153-25.283-25.689q-1.973-2-3.942-4.009a.544.544,0,0,0-.9.526q6.409,19.3,12.953,38.544c2.622,7.709,5.24,15.422,8.021,23.077.392,1.079.79,2.156,1.2,3.227.165.427.36.773.225.887a37.17,37.17,0,0,1-3.043,2.227,69.306,69.306,0,0,1-13.1,6.6,156.03,156.03,0,0,1-32.52,8.558c-10.119,1.653-20.557,2.651-30.809,1.877a48.347,48.347,0,0,1-5.675-.758c-.678-.133-4.271-.642-4.517-1.381q-1.71-5.127-3.4-10.261-5.033-15.177-10.249-30.291c-2.757-7.931-5.577-15.841-8.579-23.685a151.6,151.6,0,0,0-7.109-16.639.54.54,0,0,0-.74-.195c-12.461,8.719-24.124,18.509-36.559,27.254-7.542,5.307-15.7,9.592-24.753,11.6-8.8,1.954-15.294-2.434-20.073-9.631-6.735-10.142-10.062-22.681-13.858-34.151q-6.412-19.37-12.363-38.892c-.2-.665-1.249-.382-1.042.286,5.174,16.882,10.479,33.741,16.26,50.425,3.547,10.24,7.227,22.127,15.671,29.487,5.228,4.555,11.664,4.7,18.051,2.925,8.794-2.451,16.46-6.717,23.878-11.983,11.989-8.51,23.281-17.957,35.333-26.389l-.738-.195c4.023,7.635,6.894,15.946,9.864,24.028,3.914,10.653,7.6,21.39,11.225,32.143,2.746,8.137,5.429,16.3,8.139,24.445.65,1.952,6.1,2.32,7.81,2.564a78.3,78.3,0,0,0,12.619.583,169.741,169.741,0,0,0,39.413-5.831c11.091-2.911,23.037-6.82,31.99-14.263a.523.523,0,0,0,.139-.526c-4.849-11.808-8.577-24.162-12.662-36.249q-5.017-14.844-9.958-29.714l-.9.526q9.178,9.35,18.4,18.659c4.585,4.629,9.37,9.111,13.5,14.157,1.94,2.372,4.143,5.134,5.2,8.073.387,1.084,3.951,1.563,4.839,1.8a38.984,38.984,0,0,0,12.183,1.481c4-.213,7.926-1.589,10.525-4.746,3.255-3.956,4.012-9.89,3.353-14.792-.807-5.99-4.287-11.388-7.9-16.063-4.571-5.91-10.117-11.045-15.558-16.133-8.154-7.624-16.011-15.555-24.163-23.18-7.75-7.248-15.909-14.947-25.386-19.906-10.189-5.331-21.458-1-32.079.192-2.262.253-2.557-1.389-3.086-3.245-1.151-4.021-2.311-8.02-3.654-11.981a.547.547,0,0,0-.793-.323c-6.626,3.84-13.886,6.7-21.612,6.983a20.054,20.054,0,0,1-8-1.032c-.4-.162-.755.3-.666.665.477,1.924.881,3.866,1.268,5.809.533,2.68,2,6.575-.291,8.8-1.787,1.739-5.161,1.619-7.435,1.6-2.885-.028-5.73-.571-8.615-.583-11.172-.047-21.3,6.874-29.853,13.311-11.021,8.3-21.371,18.2-33.545,24.844-.428.235-2.336,1.386-2.646.832-.459-.817-.844-1.684-1.246-2.531-1.628-3.432-3.2-6.894-4.768-10.352q-8.128-17.88-16.076-35.841c-.183-.413-.721-.286-.933,0-5.488,7.374-17.058,13.311-26.417,10.862a.541.541,0,0,0-.288,1.042Z" transform="translate(-4302.409 -1099.957)" fill="#97a59a"/>
    <path id="Path_8411" data-name="Path 8411" d="M4315.714,841.368a4.919,4.919,0,0,1-3.789-1.446c-1.364-1.5-1.4-3.9-.1-6.279,2.736-4.99,6.979-6.611,11.155-7.622a3.353,3.353,0,0,0,2.376-1.795c1.037-2.082.435-5.927-1.695-10.826-2.681-6.172-5-11.5-7.213-12.192a2.338,2.338,0,0,0-2.112.051c-.82.585-1.274,2.279-1.349,5.033-.155,5.849-2.012,7.185-4.066,8.132a3.564,3.564,0,0,1-3.119.018c-1.484-.711-2.651-2.429-3.478-5.114a40.787,40.787,0,0,0-2.195,3.891c-1.386,2.7-2.6,5.047-4.965,5.534.168,2.69-.68,4.694-2.315,5.416a3.52,3.52,0,0,1-4.079-1.168.541.541,0,0,1,.811-.716,2.477,2.477,0,0,0,2.831.9c.994-.439,1.944-1.938,1.632-4.833a.541.541,0,0,1,.494-.6c2.132-.172,3.234-2.314,4.629-5.026a34.87,34.87,0,0,1,2.937-4.969.533.533,0,0,1,.54-.208.541.541,0,0,1,.418.4c.936,3.74,2.259,5.066,3.207,5.52a2.53,2.53,0,0,0,2.2-.025c1.862-.86,3.3-1.933,3.438-7.179.088-3.2.66-5.07,1.8-5.885a3.416,3.416,0,0,1,3.064-.2c2.563.8,4.565,5.158,7.883,12.794,1.6,3.677,3.185,8.7,1.668,11.738a4.421,4.421,0,0,1-3.089,2.363c-3.935.953-7.926,2.47-10.461,7.092-1.074,1.959-1.1,3.888-.053,5.031,1.344,1.477,4.252,1.445,7.771-.08,7.643-3.318,10.053-8.674,10.077-8.729a.541.541,0,0,1,.992.43c-.1.235-2.579,5.792-10.639,9.29a13.445,13.445,0,0,1-5.212,1.263Z" transform="translate(-3958.577 -738.321)" fill="#252422"/>
    <path id="Path_8412" data-name="Path 8412" d="M4729.124,1588.5a13.482,13.482,0,0,1-5.154-.959.541.541,0,0,1,.409-1c2.755,1.127,6.03,1.168,10.019.13,3.35-.84,7.645-2.216,11.184-5.433.206-.206.446-.431.7-.662a9.783,9.783,0,0,0,2.047-2.354.541.541,0,0,1,.945.526,10.789,10.789,0,0,1-2.258,2.622c-.239.22-.472.435-.686.65a26.325,26.325,0,0,1-11.662,5.7,21.99,21.99,0,0,1-5.543.783Z" transform="translate(-4360.091 -1456.48)" fill="#252422"/>
    <path id="Path_8413" data-name="Path 8413" d="M4729.494,1519.72a.541.541,0,0,1-.508-.356c-.333-.908-.646-1.835-.964-2.771-.448-1.317-.909-2.679-1.435-4.023-.559-1.4-1.2-2.982-1.712-4.53-.134-.4-.3-.8-.472-1.185a7.905,7.905,0,0,1-.755-2.443.541.541,0,0,1,1.079-.092,6.972,6.972,0,0,0,.669,2.1c.181.417.362.84.506,1.273.506,1.518,1.135,3.088,1.691,4.474.537,1.371,1,2.745,1.454,4.074.316.929.627,1.847.956,2.748a.542.542,0,0,1-.321.693.55.55,0,0,1-.186.034Z" transform="translate(-4360.102 -1388.064)" fill="#252422"/>
    <path id="Path_8414" data-name="Path 8414" d="M4795.036,1509.423a.54.54,0,0,1-.459-.254,10.9,10.9,0,0,1-.9-2.07c-.112-.307-.222-.617-.343-.917-.211-.631-.436-1.231-.661-1.832s-.451-1.2-.651-1.8c-.43-1.208-.981-2.536-1.679-4.049-.312-.728-.569-1.471-.815-2.19s-.5-1.441-.791-2.126a.541.541,0,0,1,.993-.428c.313.722.571,1.475.821,2.2.242.7.491,1.424.782,2.1.705,1.529,1.268,2.886,1.712,4.135.2.6.422,1.186.641,1.775.23.613.459,1.225.664,1.839.113.281.229.6.344.922a10.124,10.124,0,0,0,.8,1.863.539.539,0,0,1-.172.745.53.53,0,0,1-.286.082Z" transform="translate(-4420.14 -1378.469)" fill="#252422"/>
    <path id="Path_8415" data-name="Path 8415" d="M4879.85,1480.8a.542.542,0,0,1-.525-.41,12.376,12.376,0,0,0-.606-1.628c-.136-.319-.269-.63-.375-.917-.249-.595-.478-1.208-.708-1.821-.221-.589-.441-1.177-.686-1.766l-.059-.139c-1.161-2.805-2.36-5.7-3.64-8.554a.541.541,0,0,1,.987-.443c1.285,2.864,2.49,5.771,3.652,8.584l.059.139c.249.6.473,1.2.7,1.8s.45,1.2.7,1.8c.108.291.234.588.365.892a13.092,13.092,0,0,1,.662,1.787.54.54,0,0,1-.524.673Z" transform="translate(-4498.148 -1352.043)" fill="#252422"/>
    <path id="Path_8416" data-name="Path 8416" d="M4941.972,1441.673a.539.539,0,0,1-.482-.3,9.627,9.627,0,0,1-.431-1.068,8.92,8.92,0,0,0-.371-.936l-1.533-3.718a27.393,27.393,0,0,1-1.2-2.858c-.071-.165-.186-.388-.307-.622a6.048,6.048,0,0,1-.717-1.884.541.541,0,0,1,1.073-.136,5.363,5.363,0,0,0,.606,1.526c.133.259.26.506.356.734a27.523,27.523,0,0,0,1.169,2.784l.327.706,1.211,3.025a9.32,9.32,0,0,1,.4,1.014,8.486,8.486,0,0,0,.377.947.54.54,0,0,1-.483.783Z" transform="translate(-4556.968 -1319.626)" fill="#252422"/>
    <path id="Path_8417" data-name="Path 8417" d="M6427.683,1300.556a.539.539,0,0,1-.537-.486,15.225,15.225,0,0,0-.675-2.985c-.11-.464-.2-.879-.281-1.291a21.667,21.667,0,0,0-.621-2.51c-.49-1.274-.894-2.584-1.284-3.85-.178-.641-.3-1.2-.431-1.752s-.247-1.089-.4-1.633a.541.541,0,1,1,1.043-.285c.152.559.279,1.118.408,1.677.123.541.244,1.083.393,1.625.4,1.3.8,2.591,1.284,3.853a23.119,23.119,0,0,1,.663,2.657c.083.4.166.811.261,1.218a15.5,15.5,0,0,1,.71,3.171.542.542,0,0,1-.483.592l-.056,0Z" transform="translate(-5929.077 -1186.417)" fill="#252422"/>
    <path id="Path_8418" data-name="Path 8418" d="M6497.935,1301.535a.541.541,0,0,1-.541-.541,3.357,3.357,0,0,0-.185-.909c-.037-.126-.073-.248-.1-.361a12.9,12.9,0,0,0-.487-1.862c-.334-1.546-.766-3.009-1.106-4.117-.21-.783-.388-1.548-.566-2.311-.171-.737-.342-1.475-.54-2.213-.074-.369-.178-.718-.283-1.074a8.026,8.026,0,0,1-.436-2.266.541.541,0,1,1,1.082,0,7.206,7.206,0,0,0,.392,1.959c.115.389.226.768.3,1.135.191.716.365,1.465.541,2.212s.35,1.506.553,2.26c.339,1.108.779,2.6,1.108,4.13a13.394,13.394,0,0,1,.5,1.928c.016.056.048.162.08.272a4.27,4.27,0,0,1,.229,1.217.541.541,0,0,1-.541.541Z" transform="translate(-5993.92 -1186.394)" fill="#252422"/>
    <path id="Path_8419" data-name="Path 8419" d="M6574.837,1288.334a.542.542,0,0,1-.514-.371c-.051-.154-.1-.333-.154-.514s-.1-.341-.146-.486a7.641,7.641,0,0,1-.419-1.468,23.11,23.11,0,0,0-.569-2.363c-.112-.406-.225-.81-.325-1.214l-.371-1.383c-.689-2.565-1.338-4.988-1.933-7.533a.541.541,0,0,1,1.053-.246c.59,2.526,1.238,4.942,1.925,7.5l.373,1.392c.1.4.211.8.32,1.2a23.873,23.873,0,0,1,.59,2.459,6.628,6.628,0,0,0,.37,1.288c.066.19.118.378.17.563.048.165.094.329.14.469a.54.54,0,0,1-.342.683.55.55,0,0,1-.17.029Z" transform="translate(-6064.718 -1174.394)" fill="#252422"/>
    <path id="Path_8420" data-name="Path 8420" d="M6646.8,1264.309a.541.541,0,0,1-.515-.377c-.732-2.3-1.351-4.6-1.909-6.733l-.282-.928c-.31-1.02-.629-2.077-1.007-3.129-.171-.474-.309-.983-.445-1.5a12.989,12.989,0,0,0-.637-1.965.541.541,0,1,1,.986-.446,13.739,13.739,0,0,1,.695,2.131c.13.486.256.964.417,1.411.389,1.081.711,2.15,1.025,3.183l.287.944c.563,2.143,1.174,4.421,1.9,6.7a.541.541,0,0,1-.351.68A.547.547,0,0,1,6646.8,1264.309Z" transform="translate(-6130.777 -1152.771)" fill="#252422"/>
    <path id="Path_8421" data-name="Path 8421" d="M6418.748,1392.15a11.052,11.052,0,0,1-2.045-.176,22.66,22.66,0,0,1-2.717-.633,18.052,18.052,0,0,0-3.046-.66.541.541,0,0,1,.107-1.076,19.188,19.188,0,0,1,3.228.694,21.96,21.96,0,0,0,2.605.61,12.115,12.115,0,0,0,3.276.1,12.743,12.743,0,0,1,1.515-.021,10.4,10.4,0,0,0,1.944-.075,30.315,30.315,0,0,0,6.881-2.364,44.764,44.764,0,0,0,5.729-2.965c1.092-.694,2.2-1.4,3.276-2.182.566-.473,1.188-1.1,1.736-1.645a.54.54,0,1,1,.765.763c-.563.566-1.2,1.207-1.837,1.736-1.134.826-2.252,1.538-3.335,2.227a46.2,46.2,0,0,1-5.9,3.056,31.182,31.182,0,0,1-7.139,2.441,11.253,11.253,0,0,1-2.149.09,12.034,12.034,0,0,0-1.394.016c-.542.045-1.039.068-1.5.068Z" transform="translate(-5917.089 -1275.241)" fill="#252422"/>
    <path id="Path_8422" data-name="Path 8422" d="M6027.636,1980.734a.539.539,0,0,1-.483-.3c-.236-.473-.433-.983-.622-1.475s-.366-.95-.581-1.379a21.548,21.548,0,0,0-1.18-2.664c-.224-.5-.451-.92-.679-1.343a10.346,10.346,0,0,1-1.187-2.883.541.541,0,0,1,1.061-.212,9.322,9.322,0,0,0,1.079,2.582c.24.448.48.894.686,1.358a21.217,21.217,0,0,1,1.219,2.751,14.95,14.95,0,0,1,.592,1.4c.189.49.368.953.581,1.38a.54.54,0,0,1-.483.783Z" transform="translate(-5559.356 -1818.401)" fill="#252422"/>
    <path id="Path_8423" data-name="Path 8423" d="M7154.753,1898.9a.6.6,0,0,1-.278-.068,12.147,12.147,0,0,1-2.787-2.205c-.321-.309-.643-.622-.979-.919a21.741,21.741,0,0,0-3.194-2.253l-4.18-2.689a.654.654,0,0,1-.2-.887.615.615,0,0,1,.859-.206l4.16,2.678a22.994,22.994,0,0,1,3.359,2.375c.356.316.694.639,1.026.961a11.08,11.08,0,0,0,2.491,1.994.653.653,0,0,1,.28.862.624.624,0,0,1-.559.357Z" transform="translate(-6593.295 -1744.123)" fill="#252422"/>
    <path id="Path_8424" data-name="Path 8424" d="M7555.922,2680.473a.541.541,0,0,1-.507-.351l-6.983-18.768a.541.541,0,1,1,1.013-.379l6.983,18.769a.54.54,0,0,1-.318.695.519.519,0,0,1-.188.033Z" transform="translate(-6967.455 -2455.832)" fill="#252422"/>
    <path id="Path_8425" data-name="Path 8425" d="M6571.639,3082.451a144.155,144.155,0,0,1-15.045-.773.539.539,0,0,1-.481-.595.531.531,0,0,1,.6-.48c29.184,3.072,61.974-3.236,83.544-16.068a.541.541,0,0,1,.554.93c-18.106,10.771-44.034,16.986-69.166,16.986Z" transform="translate(-6051.536 -2828.587)" fill="#252422"/>
    <path id="Path_8426" data-name="Path 8426" d="M7387.129,3236.989a13.361,13.361,0,0,1-5.219-1.1c-8-3.383-14.343-14.026-16.858-22.482a.541.541,0,0,1,1.038-.308c2.521,8.483,8.911,18.691,16.244,21.793a11.944,11.944,0,0,0,10.614-.5.54.54,0,1,1,.5.958,13.546,13.546,0,0,1-6.317,1.636Z" transform="translate(-6798.199 -2965.431)" fill="#252422"/>
    <path id="Path_8427" data-name="Path 8427" d="M7609.274,3153.5a.54.54,0,0,1-.538-.49c-2.067-21.859-13.344-44.623-13.459-44.85a.541.541,0,0,1,.968-.483c.113.229,11.481,23.166,13.568,45.231a.542.542,0,0,1-.488.59l-.052,0Z" transform="translate(-7010.674 -2868.207)" fill="#252422"/>
    <path id="Path_8428" data-name="Path 8428" d="M4314.755,874.681a3.547,3.547,0,0,1-2.707-1.3,8.389,8.389,0,0,1-1.626-4.4c-.164-2.91,1.339-6.087,2.628-8.235a.541.541,0,0,1,.928.556c-1.211,2.018-2.625,4.983-2.475,7.648a7.294,7.294,0,0,0,1.4,3.77,2.372,2.372,0,0,0,2.49.787.541.541,0,1,1,.317,1.034,3.258,3.258,0,0,1-.956.143Z" transform="translate(-3978.671 -794.232)" fill="#252422"/>
    <path id="Path_8429" data-name="Path 8429" d="M4460.981,807.52a.54.54,0,0,1-.537-.483,54.686,54.686,0,0,1-.173-6.237c.006-.579.011-1.145.011-1.689a.541.541,0,0,1,1.082,0c0,.547,0,1.117-.011,1.7a53.838,53.838,0,0,0,.167,6.11.54.54,0,0,1-.479.6.526.526,0,0,1-.06,0Z" transform="translate(-4116.987 -737.087)" fill="#252422"/>
    <path id="Path_8430" data-name="Path 8430" d="M6917.23,3199.511a23.218,23.218,0,0,1-5.945-.89.538.538,0,0,1-.361-.358l-13.037-42.084a.541.541,0,0,1,1.033-.319l12.949,41.8c1.078.288,5.109,1.252,7.975.459-2.652-9.2-8.863-33.14-8.928-33.386a.541.541,0,0,1,1.047-.272c.064.251,6.507,25.085,9.065,33.862a.541.541,0,0,1-.333.657,10.152,10.152,0,0,1-3.465.529Z" transform="translate(-6366.986 -2912.602)" fill="#252422"/>
    <path id="Path_8431" data-name="Path 8431" d="M1590.339,1519.725a33.156,33.156,0,0,1-8.292,3.045c-.713.109-3.318-19.861-3.318-19.861,12.085-4.431,18.016-8.61,21.218-17.818s-5.63-10.806-6.13-20.091c-.4-7.422,1.127-31.356-26.5-27.753s-49.848,42.64-38.638,54.453,21.421,13.411,21.222,16.415-10.811,19.418-11.41,20.218,7.606,17.015,16.014,20.419,55.05,1.8,35.832-29.026Z" transform="translate(-1408.291 -1326.272)" fill="#f9d7dd"/>
    <path id="Path_8432" data-name="Path 8432" d="M751.119,4009.478c-1.2-17.416-1.2-74.169,32.13-98.792,2.7-2.1,4.906-8.406,4.906-8.406,14.912,3.9,53.15,14.114,70.064,13.213-2,5.7-7.606,14.413-7.606,14.413l5.3,79.271-43.54.9-8.706-13.814,1.2,13.213H751.12Z" transform="translate(-692.985 -3601.928)" fill="#a8d4af"/>
    <path id="Path_8433" data-name="Path 8433" d="M744.661,4002.977a170.3,170.3,0,0,1,4.491-52.624,96.757,96.757,0,0,1,13.339-30.963,63.094,63.094,0,0,1,11.484-12.733c1.914-1.617,3.636-2.805,4.994-4.942a29.794,29.794,0,0,0,2.644-5.614c.022-.059.043-.118.064-.178l-.665.377c11.384,2.981,22.781,5.91,34.282,8.407,11.613,2.522,23.961,5.384,35.926,4.826l-.521-.684a75.349,75.349,0,0,1-7.383,14.017c-.43.684-.172,1.6-.121,2.37q.568,8.5,1.138,16.991,1.662,24.866,3.326,49.733.359,5.358.717,10.717l.541-.541-33.355.69-7.583.158-2.057.042c-.925.018,0,.4-.266-.017l-8.519-13.518c-.267-.422-1.059-.292-1.008.272q.6,6.6,1.2,13.213l.541-.541H744.121a.541.541,0,0,0,0,1.081h53.748a.543.543,0,0,0,.541-.541q-.6-6.606-1.2-13.213l-1.008.272,8.521,13.518c.491.78,1.206.552,2.053.534l7.422-.154,34.719-.719a.544.544,0,0,0,.541-.541q-2.584-38.631-5.168-77.26-.055-.814-.109-1.628c-.043-.635-.154-.019.354-.827a75.092,75.092,0,0,0,7.208-13.825.541.541,0,0,0-.521-.684c-11.89.555-24.092-2.3-35.64-4.786-11.5-2.479-22.9-5.427-34.281-8.408a.551.551,0,0,0-.665.377,33.369,33.369,0,0,1-2.27,4.977c-1.479,2.674-3.923,4.2-6.177,6.153a64.2,64.2,0,0,0-10.629,12.079c-6.239,9-10.3,19.408-13.117,29.941a168.9,168.9,0,0,0-4.938,52.995q.036.6.077,1.2c.048.692,1.129.7,1.081,0Z" transform="translate(-685.987 -3595.427)" fill="#98a27f"/>
    <path id="Path_8434" data-name="Path 8434" d="M1222.285,4014.987a.544.544,0,0,1-.093-.008c-12.3-2.117-23.647-6.891-28.919-12.162a.54.54,0,0,1,.764-.764c5.123,5.124,16.247,9.779,28.338,11.861a.541.541,0,0,1-.091,1.073Z" transform="translate(-1101.29 -3693.876)" fill="#252422"/>
    <path id="Path_8435" data-name="Path 8435" d="M882.258,4147.274a.54.54,0,0,1-.539-.517c-.512-11.474-1.515-69.994,29.023-95.329a.54.54,0,1,1,.691.831c-30.144,25.01-29.142,83.065-28.633,94.449a.541.541,0,0,1-.516.564h-.025Z" transform="translate(-813.715 -3739.482)" fill="#252422"/>
    <path id="Path_8436" data-name="Path 8436" d="M2215.523,2245.841c8.921-2.163,12.75-5.142,18.656-5.743,2-6.407-4.7-17.416-9.407-19.418a38.152,38.152,0,0,1-12.813,5.707c1.4,9.452,3.563,19.455,3.563,19.455Z" transform="translate(-2041.722 -2049.748)" fill="#432c5c"/>
    <path id="Path_8437" data-name="Path 8437" d="M2209.315,2239.535c6.22-1.561,12.122-4.97,18.512-5.724a.555.555,0,0,0,.521-.4c1.555-5.758-1.863-12.146-5.392-16.483-.542-.666-3.647-4.3-4.81-3.546a36.734,36.734,0,0,1-12.683,5.651.549.549,0,0,0-.377.665q1.471,9.777,3.563,19.455c.147.683,1.189.392,1.042-.288q-2.083-9.666-3.563-19.455l-.377.665a26.661,26.661,0,0,0,5.429-1.729c1.1-.475,2.185-.983,3.259-1.525.559-.282,3.651-2.534,4.1-2.32,3.913,1.85,6.575,6.98,8.03,10.808a15.2,15.2,0,0,1,1.039,6.267c-.11,1.923-3.249,1.752-4.818,2.247-4.64,1.465-9.024,3.475-13.767,4.666a.541.541,0,0,0,.288,1.043Z" transform="translate(-2035.37 -2042.921)" fill="#432c5c"/>
    <path id="Path_8438" data-name="Path 8438" d="M1929.8,2247.992a35.69,35.69,0,0,1-16.562-4.069.541.541,0,0,1,.511-.954,34.281,34.281,0,0,0,21.994,3.386.54.54,0,1,1,.205,1.061,32.382,32.382,0,0,1-6.147.576Z" transform="translate(-1765.723 -2070.262)" fill="#252422"/>
    <path id="Path_8439" data-name="Path 8439" d="M771.314,1168.625c2.656,8.364,8.07,10.585,6.682-1.911,23.571-14.113,24.4-33.521,21.094-40.278,14.563,1.953,24.324,8.558,22.071,25.072,15.463-4.052,14.414-30.177,1.049-34.98-.3-18.918-20.926-23.7-41.286-12.162-9.126,5.171-12.37,11.479-24.807,16.345-14.587,5.708-19.645,24.332-19.645,40.011,0,23.857-.139,35.528-18.906,50.09s-36.382,33.054-25.523,56c6.6,13.961,21.019,13.062,21.019,13.062-4.053,18.766,7.506,29.876,18.616,29.127,0,0,3.153-39.036,7.208-56.153s12.009-24.172,25.373-30.928,16.788-9.138,15.464-22.071a144.6,144.6,0,0,0-2.851-17.567c-11.862,4.955-17.751-1.919-19.068-6.906-2.1-7.958,8.858-14.113,13.512-6.757Z" transform="translate(-635.711 -1013.608)" fill="#432c5c"/>
    <path id="Path_8440" data-name="Path 8440" d="M764.494,1162.312c.622,1.871,4.15,10.32,7.09,6.219a6.234,6.234,0,0,0,.788-2.811,18.322,18.322,0,0,0,.072-2.773c-.047-2.107.139-2.571,1.938-3.735a54.629,54.629,0,0,0,10.8-9.178c6.727-7.434,12.787-20.327,8.076-30.326-.2.266-.407.53-.61.8,5.971.836,12.133,2.415,16.711,6.559,5.06,4.583,5.768,11.591,4.963,17.992a.541.541,0,0,0,.683.521c8.434-2.38,12.059-10.882,11.7-19.077a22.255,22.255,0,0,0-3.815-11.6,15.71,15.71,0,0,0-3.652-3.69,12.845,12.845,0,0,0-2.582-1.418c-.5-.213-.423-2.666-.521-3.319-1.527-10.245-10.8-15.261-20.429-15.313-12.547-.068-23.036,6.834-32.352,14.445a55.525,55.525,0,0,1-7.909,5.447c-3.118,1.755-6.565,2.781-9.64,4.61-4.662,2.773-8.08,7.237-10.537,11.988-5.7,11.03-5.5,23.252-5.678,35.307-.161,10.689-1.191,21.245-7.637,30.149-3.751,5.179-8.823,9.055-13.767,13.01A111.569,111.569,0,0,0,692.8,1220.7a46.2,46.2,0,0,0-10.076,18.516c-1.815,7.264-.532,14.7,2.552,21.415,3.69,8.035,12.5,13.836,21.486,13.33q-.261-.34-.521-.683c-1.565,7.669-1.047,15.795,3.677,22.3a18.151,18.151,0,0,0,15.46,7.512.554.554,0,0,0,.541-.541c1.4-17.328,3.008-34.831,6.31-51.91,2.254-11.652,6.737-22.031,16.575-29.15,4.83-3.493,10.318-5.853,15.5-8.747,3.473-1.94,6.979-4.264,8.71-7.983,2.17-4.659,1.1-10.518.484-15.376a125.407,125.407,0,0,0-2.407-13.695.539.539,0,0,0-.664-.379c-6.786,2.7-14.894,2.227-18.017-5.351-3.068-7.441,7.19-14.712,12.138-7.518.393.57,1.33.03.933-.546-4.706-6.843-15.886-2.274-14.726,5.935a12.3,12.3,0,0,0,5.358,8.326c4.355,2.992,10.021,2.019,14.6.2-.222-.125-.443-.251-.664-.378a131.655,131.655,0,0,1,2.49,14.38c.633,5.011,1.535,10.875-1.3,15.4-2.7,4.314-8.467,6.654-12.8,8.86a66.894,66.894,0,0,0-13.761,8.762c-8.3,7.2-11.728,17.614-13.713,28.091-2.023,10.675-3.222,21.522-4.361,32.32-.66,6.246-1.266,12.5-1.774,18.759.181-.181.362-.36.541-.541a17.234,17.234,0,0,1-14.241-6.607c-4.976-6.036-5.35-14.5-3.854-21.836a.547.547,0,0,0-.521-.684c-8.142.458-15.863-4.458-19.816-11.355-7.7-13.445-3.043-28.181,6.094-39.43a103.981,103.981,0,0,1,15.235-14.683c4.88-3.98,9.81-7.71,13.767-12.669,6.18-7.746,8.006-17.146,8.476-26.818.583-11.989-.393-23.7,3.731-35.234a33.13,33.13,0,0,1,9.431-14.2,30.392,30.392,0,0,1,8.254-4.531,46.918,46.918,0,0,0,8.694-4.919c4.436-3.129,8.3-6.963,12.91-9.864a45.492,45.492,0,0,1,19.357-6.809c5.373-.548,10.976.321,15.516,3.36,4.789,3.2,6.794,8.794,6.96,14.34a.56.56,0,0,0,.4.521c13.674,5.225,13.272,29.9-1.049,33.937l.684.521c.813-6.466.027-13.016-4.509-17.99-4.492-4.925-11.619-6.715-17.958-7.6a.547.547,0,0,0-.61.794c2.415,5.126,1.358,11.574-.429,16.7-3.469,9.96-11.679,17.489-20.472,22.837a.532.532,0,0,0-.267.467c.133,1.331,1.1,8.077-1.284,8.237-2.215.149-3.867-5.06-4.337-6.469-.219-.659-1.263-.376-1.043.286Z" transform="translate(-629.411 -1007.152)" fill="#432c5c"/>
    <path id="Path_8441" data-name="Path 8441" d="M2071.626,1899.646c-2.744.365-3.08,5.929-.376,5.78S2073.876,1899.343,2071.626,1899.646Z" transform="translate(-1910.121 -1753.411)" fill="#252422"/>
    <path id="Path_8442" data-name="Path 8442" d="M2088.09,1878.222a.541.541,0,0,1-.307-.986l.116-.081a6.887,6.887,0,0,0,1.97-1.688.541.541,0,1,1,.945.526,7.281,7.281,0,0,1-2.3,2.053l-.117.08a.539.539,0,0,1-.305.095Z" transform="translate(-1926.886 -1730.847)" fill="#252422"/>
    <path id="Path_8443" data-name="Path 8443" d="M2328.695,1816.746c-2.728.466-2.858,6.038-.163,5.788S2330.938,1816.363,2328.695,1816.746Z" transform="translate(-2147.519 -1676.886)" fill="#252422"/>
    <path id="Path_8444" data-name="Path 8444" d="M2343.986,1794.568a.54.54,0,0,1-.325-.974l.14-.1a6.819,6.819,0,0,0,1.882-1.741.541.541,0,0,1,.965.49,7.183,7.183,0,0,1-2.2,2.119l-.137.1a.541.541,0,0,1-.323.107Z" transform="translate(-2163.088 -1653.555)" fill="#252422"/>
    <path id="Path_8445" data-name="Path 8445" d="M2263.934,1791.489a.541.541,0,0,1-.391-.916c.33-.342.644-.66.938-.96,3.1-3.155,3.933-4,.877-8.651l-.157-.239c-3.582-5.448-4.084-6.523-.843-12.553a.541.541,0,1,1,.953.513c-3.029,5.633-2.667,6.183.794,11.447l.157.239c3.536,5.375,2.2,6.729-1.009,10-.293.3-.6.614-.93.954a.54.54,0,0,1-.389.165Z" transform="translate(-2088.092 -1631.802)" fill="#252422"/>
    <path id="Path_8446" data-name="Path 8446" d="M1984.223,1778c-1.917,3.469-1.577,5.253.9,3.078a37.9,37.9,0,0,1,8.033-5.333c2.026-.9.069-3.439-3.154-2.851-1.652.3-4.2,2.25-5.78,5.106Z" transform="translate(-1830.376 -1636.345)" fill="#252422"/>
    <path id="Path_8447" data-name="Path 8447" d="M1984.464,1766.881a4.784,4.784,0,0,0-.846.078c-1.493.272-3.922,2.153-5.4,4.835a6.811,6.811,0,0,0-1.159,3.216,3.268,3.268,0,0,0,1.231-.806,38.614,38.614,0,0,1,8.171-5.42c.383-.17.547-.388.492-.651C1986.838,1767.609,1985.913,1766.881,1984.464,1766.881Zm-7.478,8.139.005.541v-.541Zm.005,1.081h0a.955.955,0,0,1-.846-.472c-.548-.93.309-2.885,1.124-4.359,1.716-3.108,4.4-5.056,6.158-5.375a5.849,5.849,0,0,1,1.038-.1c2.011,0,3.326,1.087,3.543,2.109a1.64,1.64,0,0,1-1.111,1.863,37.338,37.338,0,0,0-7.9,5.244A3.469,3.469,0,0,1,1976.992,1776.1Z" transform="translate(-1823.896 -1629.877)" fill="#252422"/>
    <path id="Path_8448" data-name="Path 8448" d="M2290.386,1700.091c1.949-3.526,5.177-7.056,6.83-6.606s2.4,2.7,1.426,3.379-1.728-1.2-4.955.975c-2.83,1.908-3.454,2.851-3.3,2.251Z" transform="translate(-2114.093 -1563.091)" fill="#252422"/>
    <path id="Path_8449" data-name="Path 8449" d="M2290.424,1687.567c-1.057,0-3.021,1.824-4.724,4.245.347-.254.744-.535,1.2-.84a5.754,5.754,0,0,1,3.142-1.182,4.352,4.352,0,0,1,1.169.179c.28.074.429.174.637.03a.762.762,0,0,0,.179-.766,2.136,2.136,0,0,0-1.439-1.649.625.625,0,0,0-.163-.019Zm-6.512,6.825h-.264l-.189-.22a.706.706,0,0,1-.086-.633l.051-.129c2-3.609,5.43-7.419,7.447-6.866a3.222,3.222,0,0,1,2.221,2.507,1.592,1.592,0,0,1-2.157,1.963,3.316,3.316,0,0,0-.894-.144,4.755,4.755,0,0,0-2.537,1c-1.332.9-2.165,1.575-2.663,1.981s-.665.542-.928.542Z" transform="translate(-2107.604 -1556.671)" fill="#252422"/>
    <path id="Path_8450" data-name="Path 8450" d="M2119.8,2083.831a6.831,6.831,0,0,1-4.466-1.8,15.527,15.527,0,0,1-3.347-4.121.541.541,0,0,1,.937-.541,14.458,14.458,0,0,0,3.1,3.833,5.513,5.513,0,0,0,4.735,1.461,5,5,0,0,0,2.144-1,.54.54,0,1,1,.718.807,6.014,6.014,0,0,1-2.629,1.247,6.292,6.292,0,0,1-1.2.117Z" transform="translate(-1949.377 -1917.213)" fill="#252422"/>
    <path id="Path_8451" data-name="Path 8451" d="M2125.858,2075.554c-.275,0-.55-.019-.826-.04-.867-.062-1.743-.088-2.574-.2-.382-.053-.763-.106-1.144-.135-1.055-.173-1.9-.319-2.859-.539-.286-.077-.552-.142-.817-.205a15.67,15.67,0,0,1-1.722-.489,7.533,7.533,0,0,1-.979-.388c-.217-.1-.443-.2-.679-.289a.54.54,0,1,1,.384-1.01c.258.1.5.206.74.313a6.641,6.641,0,0,0,.867.346,15.052,15.052,0,0,0,1.644.466c.276.067.552.133.827.208.905.206,1.736.349,2.725.514.357.025.76.08,1.165.136.876.121,1.684.137,2.5.2a8.248,8.248,0,0,0,1.989-.1l.2,1.062a8.713,8.713,0,0,1-1.441.159Z" transform="translate(-1951.217 -1912.714)" fill="#252422"/>
    <path id="Path_8452" data-name="Path 8452" d="M2226.346,1840.062a5.432,5.432,0,0,1,2.488-2.048c1.1-.438,1.977.109,2.9.654a.541.541,0,0,0,.545-.934,4.253,4.253,0,0,0-3.729-.763,6.181,6.181,0,0,0-3.135,2.544c-.4.576.541,1.116.934.546Z" transform="translate(-2054.051 -1695.412)" fill="#535ea6"/>
    <path id="Path_8453" data-name="Path 8453" d="M1978.391,1707.787c-13.375-8.323-22.353,15.2-11.72,23,5.582,4.09,12.312.706,15.054-4.956,2.75-5.681,2.087-14.123-3.334-18.041-.566-.409-1.105.53-.546.934,4.766,3.444,5.133,10.482,3.349,15.581-2.056,5.881-9.018,9.722-14.34,5.234-8.8-7.42-1.012-28.286,10.992-20.815.593.369,1.135-.566.546-.934Z" transform="translate(-1810.985 -1574.707)" fill="#535ea6"/>
    <path id="Path_8454" data-name="Path 8454" d="M1843.6,1964.128q5.217-1.539,10.435-3.078a.54.54,0,0,0-.288-1.041l-10.435,3.078a.541.541,0,0,0,.288,1.043h0Z" transform="translate(-1701.096 -1809.115)" fill="#535ea6"/>
    <path id="Path_8455" data-name="Path 8455" d="M2321.043,1650.958c.743-4.541.673-12.178-4.031-14.738-2.074-1.13-4.53-.044-6.159,1.321-2.68,2.244-3.769,6.242-4.372,9.513-.817,4.433-1.287,13.8,5.107,14.548,5.892.689,8.537-5.9,9.453-10.644.132-.681-.91-.972-1.043-.288-.76,3.929-2.534,9.426-7.2,9.9-5.985.609-5.838-7.8-5.493-11.644.359-4,3.446-14.885,9.576-11.548,3.9,2.123,3.716,9.62,3.115,13.29-.113.683.93.974,1.043.288Z" transform="translate(-2128.54 -1509.834)" fill="#535ea6"/>
    <path id="Path_8456" data-name="Path 8456" d="M1766.484,4783.624c1.228-1.967-.877-5.015-1.951-6.156-3.174-3.362-6.456-6.307-12.66-6.606-2.274-.109-7.37.908-9.609.4-3.632-.821-5.106-26.223-5.106-26.223-14.413,1.95-29.828,4.2-29.828,4.2s8.12,32.624,10.31,34.832c2.724,2.743,5.667,3.84,9.108,3a97.844,97.844,0,0,1,12.211-2.2,23.623,23.623,0,0,1,10.211,1.2c1.45.49,1.642,1.719,4.405.7,1.113-.413,3.854,1.151,5,.8a11.473,11.473,0,0,0,2.2-1.5c.3-.451,3.6.895,5.7-2.453Z" transform="translate(-1575.93 -4379.827)" fill="#f9d7dd"/>
    <path id="Path_8457" data-name="Path 8457" d="M1237.751,2568.223l-1.2,7.207s7.606,5.8,21.618,7.406c2.8,13.612,14.615,61.658,14.615,61.658,10.211,2.4,25.525-.2,30.328-3.4-.2-15.014-5.9-50.046-7.506-53.05,7.005,1.6,11.01.6,11.01.6,4.4-13.415,9.809-28.028,11.81-33.634s4-8.006,8.81-10.008,20.82-9.007,17.615-34.833c10.209,1.4,25.225,3.8,25.225,3.8l-.4-42.838s-25.826-12.813-47.845-2c6.807,6.406,4.6,17.618-7.808,23.623s-29.228.8-39.036-11.21c-11.209,3.2-26.625,12.813-30.628,33.431s-6.606,53.249-6.606,53.249Z" transform="translate(-1141.382 -2275.077)" fill="#61a375"/>
    <path id="Path_8458" data-name="Path 8458" d="M1230.842,2561.053q-.6,3.6-1.2,7.207a.575.575,0,0,0,.249.611,30.428,30.428,0,0,0,5.812,3.217,51.2,51.2,0,0,0,6.459,2.357c.9.269,9.129,1.66,9.161,1.81,1.548,7.477,3.353,14.9,5.114,22.331q4.633,19.536,9.438,39.026a.538.538,0,0,0,.377.379,51.981,51.981,0,0,0,27.047-1.745,17.271,17.271,0,0,0,3.7-1.715c.7-.445.205-2.705.173-3.406-.174-3.817-.546-7.628-.955-11.426-.889-8.284-2.079-16.541-3.462-24.757-.539-3.2-1.115-6.4-1.791-9.57a19.739,19.739,0,0,0-1.278-4.631l-.61.8c3.582.77,7.654,1.458,11.3.6.478-.112.6-1.039.68-1.294.609-1.848,1.233-3.693,1.859-5.536q1.689-4.97,3.445-9.914c1.831-5.184,3.71-10.35,5.578-15.523,1.888-5.229,3.877-9.208,9.233-11.447a29.886,29.886,0,0,0,12.023-8.735c5.978-7.437,6.88-17.39,5.815-26.546l-.684.523c8.423,1.162,16.829,2.46,25.226,3.8a.549.549,0,0,0,.684-.521q-.2-21.419-.4-42.838a.536.536,0,0,0-.269-.467c-14.591-7.188-33.51-9.1-48.392-2a.544.544,0,0,0-.109.849,11.592,11.592,0,0,1,2.235,13.794c-2.661,5.518-8.758,9.089-14.47,10.617-12.467,3.338-25.937-3.292-33.844-12.765a.531.531,0,0,0-.526-.139,45.586,45.586,0,0,0-20.138,12.2c-7.264,7.587-10.169,17.113-11.88,27.231-2.67,15.794-4.337,31.809-5.614,47.771-.056.7,1.025.691,1.081,0,.58-7.259,1.313-14.509,2.113-21.748.73-6.6,1.551-13.181,2.518-19.745.933-6.329,1.795-12.793,3.961-18.837,4-11.164,13.017-19.836,23.875-24.318.967-.4,1.955-.749,2.948-1.076,1.521-.5,2.011.75,3.021,1.813a38.843,38.843,0,0,0,7.462,5.991,36.166,36.166,0,0,0,16.617,5.44c8.05.59,17.121-2.611,22.087-9.2,4.187-5.558,4.445-12.745-.683-17.79-.037.282-.072.566-.109.849,12.162-5.8,26.022-5.04,38.66-1.259a60.56,60.56,0,0,1,8.45,3.169c.062.03-.082-.678-.072.323q.015,1.577.029,3.153.181,19.494.365,38.988l.684-.521c-8.4-1.342-16.8-2.641-25.225-3.8-.309-.042-.73.134-.684.521,1.081,9.291.1,19.092-6.095,26.51-3.425,4.1-7.846,6.235-12.552,8.441-3.607,1.691-5.685,4.645-7.185,8.229-1.772,4.236-3.165,8.676-4.716,13q-3.306,9.207-6.446,18.474c-.122.362-.943,3.325-.964,3.329a12.611,12.611,0,0,1-1.6.2,30.786,30.786,0,0,1-9.009-.833.545.545,0,0,0-.609.793c1.151,2.331,1.4,5.406,1.882,7.923.954,4.97,1.749,9.97,2.491,14.975.864,5.808,1.615,11.635,2.215,17.477q.376,3.641.624,7.294c.072,1.065.125,2.13.169,3.195.059,1.455.089,1.661-1.24,2.3-5.553,2.68-12.451,3.276-18.513,3.408-1.6.033-3.193-.035-4.786-.148-.512-.037-4.7-.508-4.677-.393q-.172-.7-.342-1.391-2.619-10.683-5.2-21.377c-3.123-12.93-6.374-25.855-9.071-38.884a.551.551,0,0,0-.521-.4,50.487,50.487,0,0,1-19.872-6.361c-.435-.261-.86-.539-1.277-.83s.133-.015.06.421c.054-.328.109-.656.163-.983q.514-3.088,1.029-6.176c.114-.683-.929-.974-1.042-.288Z" transform="translate(-1134.994 -2268.051)" fill="#4d897c"/>
    <path id="Path_8459" data-name="Path 8459" d="M1405.359,3531.579a.542.542,0,0,1-.53-.433c-3.322-16.414-6.937-32.2-8.793-38.39a.541.541,0,0,1,1.036-.31c1.863,6.217,5.489,22.043,8.818,38.485a.542.542,0,0,1-.423.638.515.515,0,0,1-.109.011Z" transform="translate(-1288.573 -3223.279)" fill="#252422"/>
    <path id="Path_8460" data-name="Path 8460" d="M1906.741,3432.132a.54.54,0,0,1-.531-.44,26.515,26.515,0,0,0-1.951-5.222,75.481,75.481,0,0,1-3.644-9.537c-1.376-4.634-1.671-15.189-1.93-24.5-.159-5.708-.309-11.1-.691-14.223a.542.542,0,0,1,.472-.6.533.533,0,0,1,.6.472c.387,3.175.539,8.591.7,14.324.258,9.245.55,19.725,1.886,24.223a74.1,74.1,0,0,0,3.6,9.406,27.145,27.145,0,0,1,2.023,5.46.539.539,0,0,1-.43.631.57.57,0,0,1-.1.01Z" transform="translate(-1751.916 -3117.628)" fill="#252422"/>
    <path id="Path_8461" data-name="Path 8461" d="M2625.434,2941.148a.543.543,0,0,1-.538-.486c-.006-.057-.606-5.84-1.2-9.785a.541.541,0,0,1,1.071-.161c.595,3.97,1.2,9.776,1.2,9.834a.541.541,0,0,1-.483.593.422.422,0,0,1-.055,0Z" transform="translate(-2421.765 -2704.715)" fill="#252422"/>
    <path id="Path_8462" data-name="Path 8462" d="M1421.942,4964.722a.54.54,0,0,1-.54-.513l-.7-13.712a.541.541,0,0,1,1.081-.056l.7,13.712a.54.54,0,0,1-.513.567h-.028Z" transform="translate(-1311.36 -4568.944)" fill="#252422"/>
    <path id="Path_8463" data-name="Path 8463" d="M1425.123,4990.761a.541.541,0,0,1-.115-1.07l9.111-2a.541.541,0,1,1,.233,1.056l-9.111,2a.571.571,0,0,1-.117.012Z" transform="translate(-1314.943 -4603.789)" fill="#252422"/>
    <path id="Path_8464" data-name="Path 8464" d="M2114.747,5176.693a.541.541,0,0,1-.159-1.057c.131-.04.16-.095.179-.149a3.8,3.8,0,0,0-.771-2.239,12.873,12.873,0,0,0-8.041-4.768,14.3,14.3,0,0,0-4.082-.094,15.287,15.287,0,0,0-1.919.365c-.339.079-.677.159-1.015.225a.54.54,0,1,1-.211-1.059c.326-.066.654-.142.981-.217a16.167,16.167,0,0,1,2.073-.39,15.391,15.391,0,0,1,4.371.109,13.994,13.994,0,0,1,8.732,5.213c.149.224,1.321,2.044.9,3.22a1.291,1.291,0,0,1-.879.817.505.505,0,0,1-.159.025Z" transform="translate(-1936.803 -4769.503)" fill="#252422"/>
    <path id="Path_8465" data-name="Path 8465" d="M2179.344,5131.613a.541.541,0,0,1-.242-1.025c.8-.4,1.14-.787,1.205-1.379a3.822,3.822,0,0,0-.069-2.25c-.485-1.737-2.092-3.218-3.264-4.3a15,15,0,0,0-4.834-2.7,9.155,9.155,0,0,0-5.021-.469c-.78.053-1.531.179-2.258.3-.75.124-1.524.252-2.3.3a.534.534,0,0,1-.576-.5.541.541,0,0,1,.5-.575c.722-.049,1.471-.171,2.194-.292a23.2,23.2,0,0,1,2.31-.307,10.114,10.114,0,0,1,5.538.536,15.9,15.9,0,0,1,5.176,2.911c1.266,1.167,3,2.768,3.556,4.756a4.761,4.761,0,0,1,.1,2.778,2.8,2.8,0,0,1-1.784,2.155A.541.541,0,0,1,2179.344,5131.613Z" transform="translate(-1995.593 -4724.321)" fill="#252422"/>
    <path id="Path_8466" data-name="Path 8466" d="M3259.914,1330.156l-2.7-10.812s7-18.214,10.808-18.817,8.21-3,6.809-9.809-4.807-5.205-4.807-5.205c-3.4-5.805-6.406-5.4-8.406-4.4-5.405-7.207-17.017-8.208-23.423,3.6s-4.2,34.431.2,60.856c6.807-4.6,21.52-15.412,21.52-15.412Z" transform="translate(-2985.281 -1177.539)" fill="#f9d7dd"/>
    <path id="Path_8467" data-name="Path 8467" d="M1744.092,2658.525a43.817,43.817,0,0,1-29.54-11.4.54.54,0,1,1,.721-.8,42.8,42.8,0,0,0,31.555,11.031c7.686-.512,14.647-3.174,17.734-6.783a26.549,26.549,0,0,0,5.5-15.221.563.563,0,0,1,.559-.521.542.542,0,0,1,.521.56,27.13,27.13,0,0,1-5.755,15.878c-3.273,3.826-10.528,6.636-18.49,7.165-.843.056-1.784.092-2.808.092Z" transform="translate(-1582.43 -2432.023)" fill="#252422"/>
    <path id="Path_8468" data-name="Path 8468" d="M3325.464,1496.481c-3.9-1.434-4.483-4.786-1.29-7.447l17.25-14.375c3.193-2.663,6.383-1.489,7.09,2.609l3.828,22.122c.708,4.1-1.9,6.273-5.805,4.839l-21.073-7.749Z" transform="translate(-3066.435 -1359.826)" fill="#6cb8e1"/>
    <path id="Path_8469" data-name="Path 8469" d="M3594.506,1445.92c.2,3.583,2.289,4.378,3.781,3.484-.6,3.98,2.987,4.774,3.983,3.879s-.3-12.538-7.266-11.642a7.191,7.191,0,0,0-.5,4.279Z" transform="translate(-3317.749 -1330.62)" fill="#f9d7dd"/>
    <path id="Path_8470" data-name="Path 8470" d="M3252.937,1275.176c-9.108-2.536-17.615,4.629-20.3,18.213-1.225,6.193-.9,14.561-.08,22.722a34.5,34.5,0,0,1,4.45.721l.556-10.606c2.539.747,13.735,2.24,15.377-3.88s-5.674-8.062-12.242-5.673c.747-3.284,2.387-8.808,6.569-10.3s6.716,9.255,11.494,6.568S3262.041,1277.715,3252.937,1275.176Z" transform="translate(-2983.095 -1176.546)" fill="#f9d7dd"/>
    <path id="Path_8471" data-name="Path 8471" d="M3305.892,1361.629a24.819,24.819,0,0,1-6.192-.743.54.54,0,1,1,.3-1.037c1.893.556,8.605,1.49,12.34-.6a4.666,4.666,0,0,0,2.363-2.9,4.072,4.072,0,0,0-1.009-4.358c-2.067-1.9-6.4-2.169-10.526-.667a.541.541,0,0,1-.712-.628c1.368-6.02,3.629-9.517,6.913-10.689,2.324-.832,4.085,1.367,5.794,3.489,2.1,2.611,3.625,4.237,5.618,3.118a4.837,4.837,0,0,0,2.14-3.271,12.219,12.219,0,0,0-1.9-9.169.541.541,0,1,1,.9-.606,13.353,13.353,0,0,1,2.056,10.024,5.879,5.879,0,0,1-2.663,3.964c-2.936,1.655-5.092-1.02-6.991-3.382-1.539-1.911-2.992-3.716-4.587-3.149-2.741.98-4.709,3.919-6,8.972,4.207-1.263,8.5-.809,10.689,1.2a5.09,5.09,0,0,1,1.323,5.434,5.706,5.706,0,0,1-2.88,3.561,14.736,14.736,0,0,1-6.98,1.441Z" transform="translate(-3045.388 -1230.689)" fill="#252422"/>
    <path id="Path_8472" data-name="Path 8472" d="M3591.112,1401a2.756,2.756,0,0,1-.475-.04c-.794-.139-2.15-.777-2.3-3.491a.541.541,0,1,1,1.08-.058c.055,1.031.344,2.3,1.4,2.483,1.554.267,4.287-1.767,5.617-4.9a7.544,7.544,0,0,0-.5-6.007.541.541,0,0,1,.976-.466,8.507,8.507,0,0,1,.515,6.9c-1.341,3.166-4.134,5.587-6.324,5.587Z" transform="translate(-3312.173 -1281.35)" fill="#252422"/>
    <path id="Path_8473" data-name="Path 8473" d="M3642.317,1539.5a3.046,3.046,0,0,1-2.007-.7c-1.02-.864-1.387-2.367-1.033-4.231a.534.534,0,0,1,.631-.43.541.541,0,0,1,.431.631c-.277,1.465-.039,2.6.671,3.206a2.412,2.412,0,0,0,2.431.232.54.54,0,1,1,.373,1.014,4.337,4.337,0,0,1-1.5.282Z" transform="translate(-3359.067 -1416.035)" fill="#252422"/>
    <path id="Path_8474" data-name="Path 8474" d="M3136.989,1630.626l-80.4-46.418c-8.009-4.624-21.115-4.624-29.123,0l-80.4,46.418c-8.009,4.625-14.562,15.976-14.562,25.222v92.84c0,9.249,6.553,20.6,14.562,25.224l80.4,46.417c8.008,4.625,21.115,4.625,29.123,0l80.4-46.417c8.009-4.625,14.56-15.976,14.56-25.224v-92.84C3151.549,1646.6,3145,1635.251,3136.989,1630.626Z" transform="translate(-2706.808 -1459.059)" fill="#a8d4af"/>
    <path id="Path_8475" data-name="Path 8475" d="M3770.461,2268.51a54.85,54.85,0,1,0-78.349,49.571c5.995,3.641,6.009,8.369,5.748,16.812-.219,7.107-.7,12.833,2.576,15.841,2.614,2.865,8.419,4.859,15.174,4.859s12.56-1.994,15.176-4.859c3.275-3.008,2.794-8.734,2.575-15.841-.26-8.442-.246-13.17,5.747-16.812A54.854,54.854,0,0,0,3770.461,2268.51Z" transform="translate(-3379.019 -2043.268)" fill="#f8ae1d"/>
    <path id="Path_8476" data-name="Path 8476" d="M3766,2261.966a56.063,56.063,0,0,0-37.774-52.529c-22.6-7.759-47.971.71-62.183,19.635-14.91,19.852-13.98,47.914,1.165,67.3a55.7,55.7,0,0,0,13.6,12.285c2.622,1.7,5.688,2.8,8.073,4.834s3.176,4.991,3.428,7.989c.539,6.356-1.084,12.939.488,19.2,1.269,5.049,6.74,7.255,11.311,8.267,7.72,1.707,21.446.891,24.312-8.267,2.835-9.065-4.314-23.708,6.65-29.011,18.887-9.132,30.777-28.882,30.929-49.7a.541.541,0,0,0-1.081,0,54.371,54.371,0,0,1-30.393,48.77c-4.378,2.193-6.3,6.014-6.7,10.747-.555,6.54,1.809,14.394-1.072,20.531-3.065,6.532-13.921,6.878-19.888,6.285a19.776,19.776,0,0,1-10.219-3.7c-2.859-2.26-3.294-5.7-3.4-9.111-.184-6,1.213-12.467-.648-18.307-1.65-5.18-7.077-6.827-11.248-9.456a54.32,54.32,0,0,1-24.729-51.786c2.648-25.852,24.527-46.23,50.2-48.155a54.316,54.316,0,0,1,58.1,54.182A.541.541,0,0,0,3766,2261.966Z" transform="translate(-3374.013 -2036.723)" fill="#f8ae1d"/>
    <path id="Path_8477" data-name="Path 8477" d="M4176.477,3689.26a82.9,82.9,0,0,1-35.67,0,59.291,59.291,0,0,1,.085,7.667c-.219,7.107-.7,12.833,2.576,15.841,2.615,2.865,8.419,4.859,15.174,4.859s12.56-1.994,15.176-4.859c3.276-3.008,2.794-8.734,2.575-15.841a59.291,59.291,0,0,1,.085-7.667Z" transform="translate(-3822.052 -3405.302)" fill="#432c5c"/>
    <path id="Path_8478" data-name="Path 8478" d="M4167,3682.294a83.625,83.625,0,0,1-35.382,0,.546.546,0,0,0-.685.522c.627,6.994-1.789,15.306,1.3,21.877,2.728,5.816,11.542,6.951,17.079,7.029,5.91.084,13.886-1.409,17.082-7.029,1.445-2.54,1.377-5.913,1.366-8.731-.015-4.383-.462-8.769-.071-13.147.063-.695-1.02-.689-1.082,0-.582,6.493,1.076,13.335-.524,19.709-1.691,6.735-11.08,8.036-16.77,8.115-5.987.085-14.707-1.531-16.768-8.115-.905-2.894-.625-6.228-.535-9.216a87.8,87.8,0,0,0,.009-10.494l-.685.521a85.015,85.015,0,0,0,35.958,0c.681-.147.393-1.189-.288-1.043Z" transform="translate(-3812.719 -3398.859)" fill="#432c5c"/>
    <path id="Path_8479" data-name="Path 8479" d="M3951.07,2727.606a8.33,8.33,0,0,0-1.257.094c-3.777.572-7.712,3.881-7.438,11.45a31.171,31.171,0,0,0,9.044,20.243q.434-.5.818-.988c6.58-8.341,8.151-19.915,6.757-25.061a8,8,0,0,0-7.926-5.739Zm11.507,37.7a18.75,18.75,0,0,0,12.2-2.641c5.961-3.438,9.349-7.523,9.3-11.21a4.993,4.993,0,0,0-2.683-4.435,6.814,6.814,0,0,0-6.924.565C3972.076,2749.107,3966.506,2753.725,3962.577,2765.306Zm-40.646-14.1a3.973,3.973,0,0,0-3.043,1.095c-1.029,1.121-1.108,3.061-.209,5.19,1.714,4.063,7.094,8.907,16.61,9.186a21.034,21.034,0,0,0,2.64-.085c-2.924-7.3-7.028-12.971-12.45-14.736a11.65,11.65,0,0,0-3.547-.649ZM3944.7,2803.3a.28.28,0,0,1-.038,0,1.081,1.081,0,0,1-1.044-1.117c.341-9.88-1.17-23.032-4.9-33.492a23.522,23.522,0,0,1-3.493.157c-10.542-.308-16.577-5.852-18.54-10.508-1.236-2.931-1.008-5.733.611-7.494,1.036-1.127,3.563-2.76,8.851-1.04,6.415,2.089,10.921,8.529,13.988,16.458a20.071,20.071,0,0,0,9.8-5.307,33.49,33.49,0,0,1-9.722-21.724c-.327-8.988,4.576-12.953,9.274-13.667a10.258,10.258,0,0,1,11.594,7.218c1.745,6.437-.711,18.809-7.144,26.967q-.448.568-.913,1.1a22,22,0,0,0,3.407,2.345,18.718,18.718,0,0,0,3.951,1.645c3.942-11.872,9.684-17.015,12.927-19.076a8.935,8.935,0,0,1,9.112-.642,7.193,7.193,0,0,1,3.819,6.307c.037,2.642-1.263,7.857-10.38,13.114a20.577,20.577,0,0,1-13.951,2.86c-2.347,7.821-3.929,18.5-3.536,33a1.083,1.083,0,0,1-1.052,1.111,1.1,1.1,0,0,1-1.11-1.052c-.4-14.634,1.15-25.5,3.525-33.56a21.1,21.1,0,0,1-4.351-1.819,24.067,24.067,0,0,1-3.844-2.667,22.116,22.116,0,0,1-10.654,5.9c3.99,11.527,5.184,25.535,4.895,33.94a1.082,1.082,0,0,1-1.081,1.044Z" transform="translate(-3614.521 -2515.656)" fill="#432c5c"/>
    <path id="Path_8480" data-name="Path 8480" d="M4189.217,3771.233a50.714,50.714,0,0,1-14.363-1.883.54.54,0,0,1,.3-1.037c9.423,2.771,19.34,1.863,27.9.793a.549.549,0,0,1,.6.469.54.54,0,0,1-.47.6,112.442,112.442,0,0,1-13.972,1.054Z" transform="translate(-3853.189 -3478.252)" fill="#252422"/>
    <path id="Path_8481" data-name="Path 8481" d="M3170.431,3232.793c-3.262,2.554-6.406,1.289-6.987-2.813l-3.136-22.155c-.58-4.1,2.085-6.192,5.928-4.643l20.755,8.356c3.843,1.549,4.319,4.9,1.057,7.458l-17.617,13.8Z" transform="translate(-2917.01 -2956.163)" fill="#e7316c"/>
    <path id="Path_8482" data-name="Path 8482" d="M4064.125,4255.308a14.644,14.644,0,0,0-1.992.86c-1.957,1.034-4.306,2.934-4.375,6.124-.041,1.869.553,3.145,1.719,3.687,1.407.657,3.482.15,5.048-1.225a5.515,5.515,0,0,0,1.7-5.974,9.3,9.3,0,0,0-2.1-3.474Zm-3.257,12.04a4.361,4.361,0,0,1-1.847-.388c-.905-.421-2.413-1.591-2.344-4.69.063-2.9,1.822-5.4,4.952-7.055a15.032,15.032,0,0,1,1.637-.741,13.633,13.633,0,0,0-7.776-3.295,8.552,8.552,0,0,0-8.777,4.754.541.541,0,1,1-.967-.485,9.608,9.608,0,0,1,9.829-5.347,14.713,14.713,0,0,1,8.843,3.979c5.443-1.653,12.339-.9,16.9,2.072a.541.541,0,0,1-.591.906c-4.168-2.721-10.414-3.473-15.474-2.1a10.1,10.1,0,0,1,2,3.495,6.591,6.591,0,0,1-2.013,7.112,6.8,6.8,0,0,1-4.371,1.781Z" transform="translate(-3734.323 -3922.942)" fill="#535ea6"/>
    <path id="Path_8483" data-name="Path 8483" d="M5054.274,3588.193a13.012,13.012,0,1,1-13.013-13.013A13.012,13.012,0,0,1,5054.274,3588.193Z" transform="translate(-4641.264 -3300.002)" fill="#6cb8e1"/>
    <path id="Path_8484" data-name="Path 8484" d="M5126.5,2285.766a6.305,6.305,0,0,1-8.835,1.2l-9.8-7.45a6.308,6.308,0,0,1-1.2-8.837h0a6.305,6.305,0,0,1,8.837-1.2l9.8,7.451a6.307,6.307,0,0,1,1.2,8.837h0Z" transform="translate(-4712.45 -2093.603)" fill="#f7c7ce"/>
    <path id="Path_8485" data-name="Path 8485" d="M3562.536,3829.012a6.3,6.3,0,0,1,7.936,4.067l3.777,11.718a6.3,6.3,0,0,1-4.068,7.934h0a6.3,6.3,0,0,1-7.937-4.066l-3.777-11.718a6.306,6.306,0,0,1,4.068-7.936Z" transform="translate(-3284.318 -3534.016)" fill="#f7c7ce"/>
    <path id="Path_8486" data-name="Path 8486" d="M3281.74,2424.131a8.017,8.017,0,1,0,8.017,8.017A8.028,8.028,0,0,0,3281.74,2424.131Zm0,17.116a9.1,9.1,0,1,1,9.1-9.1A9.11,9.11,0,0,1,3281.74,2441.248Z" transform="translate(-3020.77 -2236.543)" fill="#535ea6"/>
    <path id="Path_8487" data-name="Path 8487" d="M3953.035,1825.436a5.374,5.374,0,0,0-.665.041,4.146,4.146,0,0,0-2.892,2.6,8.6,8.6,0,0,0,.708,7.174,9.816,9.816,0,0,0,4.481,3.972c2.889-3.225,5.166-7.319,3.457-10.735-.752-1.995-3.083-3.048-5.089-3.048Zm-10.25,21.381a21.781,21.781,0,0,1-5.945-.937.541.541,0,0,1,.3-1.04c5.692,1.621,9.576,1.1,13.4-1.809a30.557,30.557,0,0,0,3.347-2.972,10.952,10.952,0,0,1-4.621-4.245,9.755,9.755,0,0,1-.787-8.148,5.256,5.256,0,0,1,3.694-3.249c2.651-.339,5.929.939,6.941,3.636,2.01,4.013-.588,8.4-3.352,11.557a9.6,9.6,0,0,0,4.038.252,11.085,11.085,0,0,0,9.1-8.153.54.54,0,1,1,1.044.279,12.164,12.164,0,0,1-9.985,8.945,10.688,10.688,0,0,1-5-.437,33.349,33.349,0,0,1-3.761,3.4,13.33,13.33,0,0,1-8.408,2.926Z" transform="translate(-3633.489 -1683.933)" fill="#f8ae1d"/>
    <path id="Path_8488" data-name="Path 8488" d="M5418.782,2860.483a89.416,89.416,0,0,0-4.259-16.288c-1.2-3.11-.33-5.054-4.984-7.757s-10.36-7.508-11.412-7.958-2.7-6.9-8.857-1.2-12.91,6.156-14.562.749c-3.153-.6-4.955-3.151-4.055-4.953s8.109-6.756,8.109-6.756c-3.6,1.949-9.91,2.4-10.81-.3s2.1-4.807,7.207-6.307,25.524-10.66,31.077-7.207,14.415,10.96,20.72,15.165,8.558,10.958,11.562,18.916,5.4,16.366,5.4,16.366-7.875,13.836-25.14,7.529Z" transform="translate(-4954.674 -2586.083)" fill="#f9d7dd"/>
    <path id="Path_8489" data-name="Path 8489" d="M5406.689,3072.683a4.181,4.181,0,0,1-3.618-1.966.541.541,0,0,1,.892-.613c1.965,2.853,5.327,1.155,8.889-1l.716-.432c.271-.142.522-.266.772-.389a9.655,9.655,0,0,0,2.416-1.495.541.541,0,0,1,.742.789,10.6,10.6,0,0,1-2.679,1.675c-.244.121-.487.241-.726.366l-.681.411c-1.808,1.1-4.387,2.656-6.722,2.656Z" transform="translate(-4987.15 -2830.601)" fill="#252422"/>
    <path id="Path_8490" data-name="Path 8490" d="M5394.353,2962.147a7.126,7.126,0,0,1-1.839-.232.54.54,0,1,1,.274-1.045,9.537,9.537,0,0,0,4.229-.128c.345-.064.694-.125,1.051-.182a22.553,22.553,0,0,0,3.582-1.165c.271-.138.553-.266.835-.393s.539-.245.832-.393c.2-.1.4-.225.606-.352a5.672,5.672,0,0,1,1.389-.687.54.54,0,1,1,.3,1.039,4.819,4.819,0,0,0-1.119.568c-.232.143-.461.283-.688.4-.3.154-.587.282-.868.41s-.539.245-.833.392a23.334,23.334,0,0,1-3.826,1.243c-.385.063-.727.125-1.064.185a16,16,0,0,1-2.857.344Z" transform="translate(-4977.12 -2729.904)" fill="#252422"/>
    <path id="Path_8491" data-name="Path 8491" d="M5476.424,2682.51a4.645,4.645,0,0,1,1.3,6.409l-12.459,18.759a4.634,4.634,0,0,1-6.406,1.294l-18.759-12.456a4.641,4.641,0,0,1-1.3-6.409l12.458-18.758a4.637,4.637,0,0,1,6.409-1.3l18.759,12.455Z" transform="translate(-5019.51 -2463.831)" fill="#535ea6"/>
    <path id="Path_8492" data-name="Path 8492" d="M6939.6,2138.476c-27.821,1.476-23.024,24.416-20.8,31.916,2.033,6.861-7.414,12.586-2.592,21.06s13.329,13.064,26.542,13.667c0,0-.654,14.716-1.254,19.516l27.629-1.8c-1.158-8.51-3.654-26.16-.251-32.731,1.384-2.673,9.736,8.548,18.614-5.1s-20.065-48-47.885-46.523Z" transform="translate(-6382.637 -1973.829)" fill="#f9d7dd"/>
    <path id="Path_8493" data-name="Path 8493" d="M7270.928,2908.708a.541.541,0,0,1-.033-1.081,34.81,34.81,0,0,0,18.949-7.275.54.54,0,0,1,.674.844,35.914,35.914,0,0,1-19.56,7.509A.2.2,0,0,1,7270.928,2908.708Z" transform="translate(-6710.841 -2677.003)" fill="#252422"/>
    <path id="Path_8494" data-name="Path 8494" d="M7273.35,2595.318c2.764-.139,4.1,5.273,1.419,5.617S7271.082,2595.433,7273.35,2595.318Z" transform="translate(-6712.417 -2395.551)" fill="#252422"/>
    <path id="Path_8495" data-name="Path 8495" d="M7256.366,2578.263a.52.52,0,0,1-.222-.047l-.167-.075a7.165,7.165,0,0,1-2.6-1.584.541.541,0,1,1,.835-.687,6.823,6.823,0,0,0,2.208,1.286l.167.075a.54.54,0,0,1-.222,1.034Z" transform="translate(-6695.026 -2377.418)" fill="#252422"/>
    <path id="Path_8496" data-name="Path 8496" d="M7006.057,2560.367c2.766-.04,3.907,5.417,1.212,5.662S7003.783,2560.4,7006.057,2560.367Z" transform="translate(-6465.625 -2363.292)" fill="#252422"/>
    <path id="Path_8497" data-name="Path 8497" d="M6990.392,2542.334a.546.546,0,0,1-.24-.056l-.182-.091a7.071,7.071,0,0,1-2.52-1.668.539.539,0,0,1,.1-.757.534.534,0,0,1,.756.1,6.773,6.773,0,0,0,2.142,1.356l.184.091a.541.541,0,0,1-.241,1.025Z" transform="translate(-6449.576 -2344.168)" fill="#252422"/>
    <path id="Path_8498" data-name="Path 8498" d="M7062.938,2521.039a7.033,7.033,0,0,1-5.049-1.563c-1.913-1.709-.784-3.786-.038-5.16a14.371,14.371,0,0,0,2.154-6.849c-.041-2.05-.823-3-2.007-4.441l-.494-.6a.541.541,0,0,1,.844-.677l.486.593c1.231,1.5,2.2,2.681,2.253,5.109a15.326,15.326,0,0,1-2.285,7.385c-.886,1.63-1.377,2.778-.192,3.838,1.524,1.367,3.427,1.321,5.439,1.27.309-.008.616-.015.924-.017h0a.541.541,0,0,1,0,1.081c-.3,0-.6.009-.9.018-.378.008-.76.018-1.14.018Z" transform="translate(-6513.724 -2308.995)" fill="#252422"/>
    <path id="Path_8499" data-name="Path 8499" d="M7120.024,2753.635c.984,1.867,2.029,2.847,3.046,2.847,1.815,0,3.507-2.911,4.375-5.638a19,19,0,0,1-7.421,2.79Zm3.046,3.929c-1.622,0-3.1-1.422-4.4-4.229a.543.543,0,0,1,.051-.544.555.555,0,0,1,.5-.22c1.743.213,7.007-1.639,8.77-3.583a.54.54,0,0,1,.93.469c-.673,3.366-2.934,8.107-5.852,8.107Z" transform="translate(-6570.754 -2537.232)" fill="#252422"/>
    <path id="Path_8500" data-name="Path 8500" d="M7232.059,2469.043c-.748-1.876,1.083-3.993,4.461-2.568a13.708,13.708,0,0,1,6.182,5.726c1.2,2.25-.228.94-1.653-.184a9.828,9.828,0,0,0-6.894-2.366c-1.238.025-1.943.142-2.095-.608Z" transform="translate(-6675.309 -2276.195)" fill="#e7316c"/>
    <path id="Path_8501" data-name="Path 8501" d="M7227.85,2462.837a10.339,10.339,0,0,1,6.943,2.484l.481.384c.054.045.11.089.167.135a13.258,13.258,0,0,0-5.723-5.139c-1.6-.675-3.02-.508-3.615.366a1.6,1.6,0,0,0-.133,1.5c.052.215.068.289.667.289.155,0,.326,0,.511-.009l.7-.014Zm8.609,4.865c-.409,0-.867-.355-1.862-1.154l-.474-.377a9.23,9.23,0,0,0-6.273-2.253l-.667.013c-.2.006-.379.011-.545.011-.482,0-1.483,0-1.7-1.063a2.58,2.58,0,0,1,.271-2.418c.886-1.305,2.841-1.637,4.93-.756a14.167,14.167,0,0,1,6.449,5.971c.518.968.619,1.386.419,1.721a.737.737,0,0,1-.549.306h0Z" transform="translate(-6668.719 -2269.923)" fill="#e7316c"/>
    <path id="Path_8502" data-name="Path 8502" d="M6775.395,1656.567c2.4-4.1,12.011-14.414,25.423-20.12,0,12.612,6.7,32.23,22.219,32.728-.5,5.206-1.1,9.009.2,9.51s5.605-2.3,6.307-8.507c3.708-4,12.609-2.7,14.613,3.6s-4.1,16.114-15.312,11.611c-1.8-.3-4,3-3.6,10.208,9.107,1,19.119-2.2,24.625-11.609s4.5-20.916-1.206-30.128-6.8-12.913-5.7-17.617c16.615,3.4,26.935-8.217,24.686-22.929s-16.392-23.79-32.307-19.735-20.411,22.844-4.325,33.793c-2.253,2.551-9.172.062-17.881-3.99s-34.641-9.976-47.444,10.061c-13.112,20.518,6.307,33.929,11.259,32.579A27.562,27.562,0,0,1,6775.395,1656.567Z" transform="translate(-6240.855 -1470.02)" fill="#e7316c"/>
    <path id="Path_8503" data-name="Path 8503" d="M6156.176,3274.95l2.6-28.425,7.207,27.626-9.808.8Zm48.844-26.826c-10.209-23.62-13.612-37.634-23.42-62.055s-27.824-24.422-38.635-25.625-14.3-6.125-14.9-14.13c-22.218,8.208-26.542-2.284-26.94-1.483-1.9,11.812-5.605,11.812-18.419,10.008s-29.225,19.017-42.437,36.034c0,0-8.008-22.522-10.011-25.926-10.51,9.159-19.114,8.177-25.571,6.079,0,0,2.8,9.938,4.444,16.844-12.9,4.354,2.588,38.871,9.416,52.146,12.51,24.324,34.313,17.088,50.932-8.135,4.025,4.165,8.543,8.41,8.747,10.413a111.055,111.055,0,0,1-.921,18.443c-1,6-6,23.22-6,23.82s6.4,16.215,6.4,16.215,62.858,1.2,62.659,10.21c9.608-1.4,41.638.6,60.656-8.609s14.212-30.628,4-54.251Z" transform="translate(-5542.064 -2902.734)" fill="#61a375"/>
    <path id="Path_8504" data-name="Path 8504" d="M6198.548,3241.481c-5.644-13.1-10.342-26.533-15.109-39.967-2.5-7.039-5.1-14.036-7.862-20.975a48.411,48.411,0,0,0-9.532-15.723c-6.028-6.367-14.267-9.389-22.792-10.5-4.34-.566-8.79-.64-12.98-2.01-5.715-1.869-8.12-6.695-8.606-12.362a.545.545,0,0,0-.683-.521c-7.477,2.7-18.463,5.809-25.2-.328-.459-.419-1.417-1.818-2.067-.906-.5.7-.494,2.51-.7,3.387a17.435,17.435,0,0,1-1.128,3.313,6.326,6.326,0,0,1-4.237,3.6c-4.562,1.251-9.41-.752-13.994-.654-4.672.1-9.071,2.83-12.707,5.505-11.121,8.176-19.62,19.99-28,30.786l.9.238q-2.134-5.995-4.355-11.957c-1.736-4.666-3.242-9.748-5.709-14.1a.549.549,0,0,0-.849-.109c-7.364,6.265-15.7,8.906-25.046,5.938a.546.546,0,0,0-.665.665c1.576,5.588,3.093,11.2,4.445,16.845l.377-.666c-7.151,2.628-5.568,12.461-4.367,18.246,2.117,10.194,6.383,20.023,10.834,29.389,4.212,8.865,9.622,18.637,20.25,20.331,10.894,1.737,20.835-6.656,27.5-14.215a83.358,83.358,0,0,0,6.745-8.946l-.849.109c1.746,1.8,3.52,3.571,5.237,5.4,1.294,1.375,3.268,3.132,3.386,5.142a92.549,92.549,0,0,1-.228,10.928c-.454,7.557-2.452,14.738-4.412,22.015-.72,2.672-1.48,5.334-2.16,8.017-.313,1.239.3,2.269.746,3.433,1.77,4.6,3.646,9.159,5.517,13.719a.56.56,0,0,0,.521.4c9.855.192,19.722.731,29.543,1.563a179.428,179.428,0,0,1,21.733,2.891c2.338.489,10.781,1.735,10.841,5.216a.551.551,0,0,0,.684.522c8.892-1.234,18.08-.747,27.029-1.384,11-.785,22.328-2.245,32.512-6.7,23.171-10.139,12.922-38.17,5.44-55.568-.275-.64-1.206-.088-.933.544,4.482,10.425,8.972,21.727,8.882,33.253a23.391,23.391,0,0,1-3.833,13.056c-3.1,4.573-8.2,7.166-13.23,9.044-10.314,3.85-21.628,4.886-32.537,5.531-7.829.464-15.84.1-23.617,1.182q.344.261.684.521c-.07-4.05-7.589-5.328-10.4-5.986-7.95-1.857-16.191-2.615-24.313-3.29-7.568-.63-15.155-1.033-22.744-1.306q-2.683-.095-5.365-.159c-.776-.018.306.776-.056-.1q-.952-2.326-1.9-4.658-1.573-3.876-3.107-7.769c-.451-1.151-1.3-2.661-1.058-3.659,1.375-5.592,3.035-11.112,4.429-16.7a87.7,87.7,0,0,0,2.424-19.428c.046-1.905.563-4.856-.344-6.647-1.918-3.786-5.7-6.778-8.61-9.775a.546.546,0,0,0-.849.11c-6.444,9.673-15.484,20.363-27.561,22.565-11.636,2.122-19.109-7.7-23.686-16.906a161.656,161.656,0,0,1-10.892-27.125c-1.614-5.621-5.44-18.874,2.4-21.753a.553.553,0,0,0,.377-.665c-1.353-5.647-2.869-11.256-4.444-16.844l-.665.665c9.731,3.091,18.437.3,26.1-6.217q-.425-.053-.85-.11c2.515,4.432,4.034,9.626,5.8,14.38q2.116,5.694,4.153,11.417c.121.337.633.588.9.239,8.5-10.948,17.1-22.761,28.373-31.049,4.565-3.358,9.356-5.419,15.062-4.635,3.785.518,8.2,1.394,11.895-.037,3.039-1.177,4.269-4.391,5.021-7.3.267-1.034.843-2.238,0-2.945.171.144.323.315.479.475a14.443,14.443,0,0,0,1.8,1.535c7.066,5.136,17.582,2.193,24.928-.463l-.684-.521c.348,4.057,1.431,7.924,4.547,10.724,3.464,3.108,8.439,3.713,12.872,4.152,9.048.9,17.754,2.549,24.935,8.56,5.169,4.324,8.67,10.3,11.2,16.463,2.969,7.232,5.638,14.594,8.258,21.959,4.809,13.522,9.537,27.036,15.219,40.225.275.639,1.205.088.933-.544Z" transform="translate(-5535.125 -2896.362)" fill="#61a375"/>
    <path id="Path_8505" data-name="Path 8505" d="M7973.409,4488.738q1.3-14.213,2.6-28.425l-1.063.144q3.6,13.811,7.207,27.625c.176-.228.348-.457.522-.685l-9.808.8c-.69.056-.7,1.139,0,1.081l9.808-.8a.55.55,0,0,0,.521-.685q-3.6-13.814-7.207-27.625a.543.543,0,0,0-1.062.144q-1.3,14.213-2.6,28.425C7972.264,4489.433,7973.346,4489.427,7973.409,4488.738Z" transform="translate(-7358.756 -4116.521)" fill="#6cb8e1"/>
    <path id="Path_8506" data-name="Path 8506" d="M6410.911,4876.314c4.405-4.2,15.012-11.611,17.617-7.808,3.6-2.8,6.805-2.2,6.805-2.2,3-3.2,6.609-4.006,10.209.2s14.411,13.211,16.215,15.014,15.815,1.4,47.246-5.406c6.4,2.6,6.75,20.729,6.75,20.729-11.667.737-97.609.329-97.609.329l-7.233-20.856Z" transform="translate(-5917.511 -4489.282)" fill="#f9d7dd"/>
    <path id="Path_8507" data-name="Path 8507" d="M6623.9,4910.155a.535.535,0,0,1-.385-.163l-.148-.151a.543.543,0,0,1-.131-.22,9.532,9.532,0,0,1-1.035-2.354c-.282-.561-.542-1.12-.8-1.677s-.529-1.134-.833-1.74c-.659-1.02-1.274-2.173-1.87-3.291-.468-.879-.95-1.783-1.465-2.638-.772.905-1.6,1.778-2.413,2.627a47.454,47.454,0,0,0-3.4,3.838l-.192.259c-1.339,1.8-3.829,5.148-6.964,3.334a3.307,3.307,0,0,1-1.707-2.057c-.549-1.92.559-4.129,1.061-4.988.768-1.23,1.613-2.421,2.431-3.573.807-1.137,1.639-2.312,2.383-3.5.4-.6.763-1.229,1.125-1.851a17.161,17.161,0,0,1,2.554-3.649.541.541,0,0,1,.764.766,16.2,16.2,0,0,0-2.383,3.425c-.374.642-.745,1.285-1.151,1.9-.75,1.2-1.594,2.389-2.41,3.539s-1.644,2.316-2.388,3.5c-.329.564-1.391,2.57-.946,4.133a2.244,2.244,0,0,0,1.193,1.409c2.146,1.241,3.857-.729,5.57-3.033l.2-.267a48.461,48.461,0,0,1,3.478-3.93c1.01-1.061,1.965-2.062,2.842-3.144a.537.537,0,0,1,.448-.2.547.547,0,0,1,.427.247c.688,1.07,1.3,2.224,1.9,3.342.585,1.1,1.19,2.234,1.855,3.265.336.665.6,1.24.874,1.817.257.549.514,1.1.806,1.687a.8.8,0,0,1,.04.1,7.466,7.466,0,0,0,1.1,2.351.54.54,0,0,1-.064.743.533.533,0,0,1-.358.136Z" transform="translate(-6094.274 -4511.974)" fill="#252422"/>
    <path id="Path_8508" data-name="Path 8508" d="M6473.624,4934.9a4.348,4.348,0,0,1-3.47-1.55c-1.981-2.766.892-5.638,1.836-6.581,3.217-3.062,7.061-5.213,10.777-7.3a.541.541,0,0,1,.529.944c-3.658,2.049-7.442,4.167-10.551,7.125-2.151,2.151-2.706,3.792-1.733,5.151,1.2,1.46,3.372,1.329,4.874.58a22.872,22.872,0,0,0,4.522-3.061l.711.815a23.763,23.763,0,0,1-4.768,3.222,6.214,6.214,0,0,1-2.728.65Z" transform="translate(-5971.566 -4540.776)" fill="#252422"/>
    <path id="Path_8509" data-name="Path 8509" d="M6430.438,5087.809a.541.541,0,0,1-.075-1.077,6.191,6.191,0,0,0,3-1.349.541.541,0,0,1,.765.764,7.206,7.206,0,0,1-3.61,1.655.561.561,0,0,1-.077.005Z" transform="translate(-5935.039 -4693.831)" fill="#252422"/>
    <path id="Path_8510" data-name="Path 8510" d="M6800.139,3785.4a.535.535,0,0,1-.368-.145,21.3,21.3,0,0,1-4.827-7.725c-3.176-9.933-.63-20.264,2.593-29.95.175-.526-.686-1.49-1.254-2.128-.222-.249-.43-.484-.6-.695-.569-.964-1.1-1.872-1.625-2.781a.541.541,0,0,1,.937-.542q.789,1.362,1.583,2.718c.111.136.3.351.508.58.822.922,1.846,2.07,1.473,3.19-3.166,9.512-5.67,19.642-2.589,29.28a20.408,20.408,0,0,0,4.533,7.262.54.54,0,0,1-.369.935Z" transform="translate(-6270.645 -3453.209)" fill="#252422"/>
    <path id="Path_8511" data-name="Path 8511" d="M6054.617,3629.21a10.2,10.2,0,0,1-5.3-1.092.541.541,0,0,1,.6-.9c3.246,2.14,14.675.793,23.817-5.446a.541.541,0,1,1,.611.894,37.173,37.173,0,0,1-19.725,6.549Z" transform="translate(-5583.524 -3342.92)" fill="#252422"/>
    <path id="Path_8512" data-name="Path 8512" d="M6468.476,3730.554a.542.542,0,0,1-.53-.439c-.981-5.123-1.81-7.778-4.669-14.955a.541.541,0,0,1,1.006-.4c2.891,7.255,3.729,9.947,4.726,15.152a.541.541,0,0,1-.43.633.53.53,0,0,1-.1.01Z" transform="translate(-5965.813 -3428.526)" fill="#252422"/>
    <path id="Path_8513" data-name="Path 8513" d="M7887.983,4065.911a.543.543,0,0,1-.52-.39c-.844-2.93-1.746-6.292-2.7-9.853-1.909-7.116-4.071-15.181-6.359-21.909-3.3-9.7-5.942-19.578-8.812-30.559a.54.54,0,1,1,1.044-.272c2.864,10.96,5.5,20.819,8.791,30.483,2.3,6.762,4.467,14.847,6.38,21.979.954,3.554,1.853,6.911,2.694,9.831a.54.54,0,0,1-.37.669.505.505,0,0,1-.149.022Z" transform="translate(-7263.912 -3694.454)" fill="#252422"/>
    <path id="Path_8514" data-name="Path 8514" d="M7672.749,4830.307a.535.535,0,0,1-.378-.155.658.658,0,0,1-.158-.651.7.7,0,0,1,.6-.349.4.4,0,0,0,.151-.018.709.709,0,0,1,.11-.042c.239-.06.478-.146.727-.235a8.835,8.835,0,0,1,1.248-.372,16.728,16.728,0,0,0,2.39-.574l.573-.166c.508-.089.955-.128,1.385-.166.186-.016.369-.032.546-.051-.029-.069-.06-.136-.09-.206a7,7,0,0,1-.874-4.11c.4-2.572,2.825-4.366,3.849-5.014,2.733-1.694,5.958-2.18,9.078-2.65.6-.091,1.193-.181,1.781-.279a72.1,72.1,0,0,1,7.595-.676c1.238-.066,2.475-.131,3.713-.229,2.952-.15,5.99-.3,9.048-.3h6.607a.541.541,0,0,1,0,1.082h-6.607c-3.032,0-6.054.152-8.978.3-1.233.1-2.48.164-3.727.23a70.934,70.934,0,0,0-7.478.665c-.589.1-1.19.189-1.794.28-3.011.455-6.123.925-8.665,2.5-.895.569-3.022,2.128-3.355,4.278a6.1,6.1,0,0,0,.8,3.5c.128.292.255.583.372.875a.541.541,0,0,1-.4.73,12.165,12.165,0,0,1-1.329.163c-.4.035-.822.07-1.241.142l-.506.151a17.288,17.288,0,0,1-2.51.6,7.908,7.908,0,0,0-1.068.326c-.266.094-.52.186-.775.251a1.258,1.258,0,0,1-.343.093.54.54,0,0,1-.293.087Z" transform="translate(-7081.71 -4443.536)" fill="#252422"/>
    <path id="Path_8515" data-name="Path 8515" d="M7779.973,5006.189a.541.541,0,0,1-.541-.541,31.892,31.892,0,0,0-1.916-11.221l-.262-.74a20.469,20.469,0,0,0-2.38-5.147,12.5,12.5,0,0,0-4.467-3.737.54.54,0,1,1,.517-.948,13.494,13.494,0,0,1,4.851,4.087,21.268,21.268,0,0,1,2.5,5.386l.258.728a32.768,32.768,0,0,1,1.981,11.251c0,.013,0,.027,0,.04v.3a.54.54,0,0,1-.541.541Z" transform="translate(-7172.118 -4600.201)" fill="#252422"/>
    <path id="Path_8516" data-name="Path 8516" d="M7105.438,3583.036h-.032a.54.54,0,0,1-.508-.571,57.323,57.323,0,0,1,2.754-10.15,43.983,43.983,0,0,0,1.86-5.688c.231-.833.462-1.669.72-2.517,2.037-6.693,3.771-12.75,4.376-19.1a30.517,30.517,0,0,0,.6-5.952,17,17,0,0,0-1.17-5.433c-.363-1.151-.742-2.291-1.123-3.438-.879-2.651-1.79-5.4-2.5-8.214a56.959,56.959,0,0,1-2.016-11.69,20.838,20.838,0,0,1,.227-4.625c.063-.5.125-.991.174-1.488l.05-.5c.19-1.914.388-3.892.759-5.752.309-1.036.553-2.023.8-3.011s.508-2.027.814-3.045a43.8,43.8,0,0,1,1.5-4.358c.232-.6.47-1.222.709-1.876.667-2.114,1.266-4.267,1.9-6.546.483-1.735.969-3.484,1.493-5.234.189-.958.445-1.977.691-2.961s.5-2,.7-3c.128-.457.227-.851.326-1.239a17.994,17.994,0,0,1,.907-2.872.541.541,0,0,1,.993.427,17.245,17.245,0,0,0-.852,2.71c-.1.4-.2.8-.325,1.228-.192.979-.451,2.01-.7,3.005-.243.972-.494,1.979-.692,2.961-.534,1.792-1.019,3.535-1.5,5.261-.609,2.189-1.237,4.452-1.918,6.606-.249.683-.488,1.306-.723,1.915a42.711,42.711,0,0,0-1.472,4.269c-.3,1.008-.558,2.024-.805,3.009-.251,1-.5,2.007-.8,3.009-.347,1.76-.542,3.71-.729,5.6l-.051.5c-.05.5-.113,1.01-.176,1.515a19.62,19.62,0,0,0-.225,4.384,56.161,56.161,0,0,0,1.98,11.5c.7,2.812,1.608,5.534,2.482,8.169.382,1.151.763,2.3,1.124,3.442a18.041,18.041,0,0,1,1.224,5.768,31.251,31.251,0,0,1-.61,6.11c-.607,6.4-2.357,12.509-4.41,19.258-.254.837-.484,1.666-.712,2.49a45.68,45.68,0,0,1-1.908,5.826,56.876,56.876,0,0,0-2.67,9.787.539.539,0,0,1-.54.508Z" transform="translate(-6558.087 -3196.866)" fill="#252422"/>
    <path id="Path_8517" data-name="Path 8517" d="M7218.736,3257.431a5.222,5.222,0,0,1-4.281-2.538c-2.046-2.613-2.517-5.748-2.971-8.781-.093-.619-.188-1.25-.3-1.879-.829,1.412-1.671,2.811-2.6,4.2l-.254.385c-1.3,1.966-3.71,5.625-6.436,5.966a3.45,3.45,0,0,1-2.83-1c-2.167-2.01-2.01-4.562-1.857-7.027l.027-.461a.54.54,0,1,1,1.079.064l-.027.463c-.143,2.317-.278,4.505,1.508,6.166a2.387,2.387,0,0,0,1.966.718c2.23-.278,4.551-3.8,5.666-5.488l.257-.39c1.177-1.764,2.228-3.563,3.243-5.3a.6.6,0,0,1,.572-.3.531.531,0,0,1,.467.381c.246,1.106.416,2.244.58,3.343.454,3.028.884,5.887,2.773,8.3.771,1.115,2.411,2.792,4.929,1.783a36.094,36.094,0,0,0,6.374-2.961,20.923,20.923,0,0,0,5.12-4.389.541.541,0,1,1,.831.693,22.031,22.031,0,0,1-5.384,4.616,36.889,36.889,0,0,1-6.559,3.052,5.094,5.094,0,0,1-1.9.384Z" transform="translate(-6643.226 -2992.67)" fill="#252422"/>
    <path id="Path_8518" data-name="Path 8518" d="M7328.9,3391.285a1.42,1.42,0,0,0-.864.289,1.639,1.639,0,0,0-.535,1.736.736.736,0,0,0,.615.653,1.448,1.448,0,0,0,1.4-.667,1.635,1.635,0,0,0,.216-1.251.723.723,0,0,0-.422-.518.547.547,0,0,1-.259-.234,1.49,1.49,0,0,0-.154-.008Zm-.584,3.777a2.187,2.187,0,0,1-.395-.035,1.814,1.814,0,0,1-1.479-1.489,2.722,2.722,0,0,1,.939-2.825,2.6,2.6,0,0,1,2.854-.157.54.54,0,0,1,.267.6,1.984,1.984,0,0,1,.277.608,2.7,2.7,0,0,1-.37,2.142,2.521,2.521,0,0,1-2.093,1.156Z" transform="translate(-6762.504 -3129.263)" fill="#252422"/>
    <path id="Path_8519" data-name="Path 8519" d="M7259.627,3750.248a.622.622,0,0,0-.378.175,2.446,2.446,0,0,0-.967,1.722,1.519,1.519,0,0,0,.426,1.215c.644.565,1.028.355,1.153.282a2.888,2.888,0,0,0,.995-2.552c-.016-.091-.076-.39-.225-.419a.544.544,0,0,1-.342-.216l-.008,0a2.139,2.139,0,0,0-.652-.206Zm-.118,4.572a2.319,2.319,0,0,1-1.541-.672,2.61,2.61,0,0,1-.766-2.078,3.512,3.512,0,0,1,1.4-2.514,1.8,1.8,0,0,1,2.08-.108.6.6,0,0,1,.244.182,1.455,1.455,0,0,1,1,1.285,3.913,3.913,0,0,1-1.539,3.673,1.81,1.81,0,0,1-.875.229Z" transform="translate(-6698.665 -3460.599)" fill="#252422"/>
    <path id="Path_8520" data-name="Path 8520" d="M7234.868,4138.136a.539.539,0,0,1-.239.4,1.083,1.083,0,0,0-.368.75,2.594,2.594,0,0,0,.341,1.766c.292.355.557.486.787.376a2.362,2.362,0,0,0,.766-2.28,1.079,1.079,0,0,0-1.1-.974.565.565,0,0,1-.187-.042Zm.352,4.414a1.885,1.885,0,0,1-1.457-.814,3.649,3.649,0,0,1-.57-2.613,2.091,2.091,0,0,1,.837-1.484.54.54,0,0,1,.512-.048.517.517,0,0,1,.566-.493,2.165,2.165,0,0,1,2.106,1.841,3.323,3.323,0,0,1-1.362,3.468A1.476,1.476,0,0,1,7235.22,4142.55Z" transform="translate(-6676.471 -3818.671)" fill="#252422"/>
    <path id="Path_8521" data-name="Path 8521" d="M7261.15,4699.148a.459.459,0,0,1-.012.081c-.168.761.027,1.987.489,2.28.248.163.632-.061.907-.272a1.788,1.788,0,0,0,.213-2.379.957.957,0,0,0-.911-.346c-.012.016-.024.034-.038.05a1.913,1.913,0,0,1-.641.584Zm.667,3.5a1.41,1.41,0,0,1-.771-.227c-.986-.626-1.194-2.391-.964-3.425a5.852,5.852,0,0,0,.585-.815.965.965,0,0,0,.274-.278,2.282,2.282,0,0,1,.189-.224.532.532,0,0,1,.139-.1,1.926,1.926,0,0,1,2.277.55,2.862,2.862,0,0,1-.336,3.952A2.31,2.31,0,0,1,7261.817,4702.648Z" transform="translate(-6701.25 -4335.854)" fill="#252422"/>
    <path id="Path_8522" data-name="Path 8522" d="M5869.983,2952.661c-2.1-2.3-7.406-5.1-12.11-7.407-3.989-1.953-9.31,1.7-3.606,7.808s16.418,9.108,16.418,9.108l-.7-9.507Z" transform="translate(-5401.406 -2718.069)" fill="#f9d7dd"/>
    <path id="Path_8523" data-name="Path 8523" d="M5864.138,2956.213a.508.508,0,0,1-.146-.021c-.443-.125-10.922-3.115-16.666-9.259-3.783-4.049-2.6-6.632-1.919-7.555a4.976,4.976,0,0,1,6.156-1.106c4.547,2.226,10.051,5.094,12.273,7.53a.541.541,0,0,1-.8.728c-2.123-2.327-7.837-5.273-11.949-7.286a3.942,3.942,0,0,0-4.812.779c-1.088,1.469-.4,3.777,1.839,6.174,5.54,5.926,16.063,8.927,16.169,8.956a.541.541,0,0,1-.146,1.061Z" transform="translate(-5394.859 -2711.572)" fill="#252422"/>
    <path id="Path_8524" data-name="Path 8524" d="M5284.533,4465.385h-42.688l-17.178-50.171a12.616,12.616,0,0,0-11.133-7.954h-72.9c-4.623,0-7.181,3.58-5.684,7.954l17.7,51.684c1.938,5.017,2.163,9.147,7.194,9.147h124.69a5.33,5.33,0,0,0,0-10.659Z" transform="translate(-4739.359 -4068.043)" fill="#f8ae1d"/>
    <path id="Path_8525" data-name="Path 8525" d="M5278.829,4456.213h-42.262c-.835,0,.213.737-.016.071q-.976-2.848-1.951-5.7-3.956-11.558-7.913-23.114-3.322-9.7-6.643-19.4c-1.94-5.667-6.41-9.984-12.726-9.984h-63.957c-3.667,0-8.6-.758-12.033.843-5.515,2.571-1.957,9.676-.577,13.7q3.936,11.494,7.87,22.988,3.483,10.17,6.964,20.338c1.591,4.65,2.525,11.994,8.63,11.994H5278.8c7.646,0,7.525-11.236.028-11.741-.7-.046-.692,1.035,0,1.082,6.6.445,5.812,9.578-.516,9.578H5154.335c-4.8,0-5.619-5.1-6.878-8.777q-.732-2.144-1.467-4.287-7.471-21.817-14.941-43.636-.637-1.866-1.277-3.734c-1.615-4.715,1.936-7.269,6.154-7.269h64.867c6.179,0,11.988-.606,16.327,5.054,1.2,1.564,1.718,3.657,2.349,5.5q1.534,4.485,3.072,8.97,6.539,19.1,13.08,38.2a.554.554,0,0,0,.522.4h42.688A.541.541,0,0,0,5278.829,4456.213Z" transform="translate(-4733.656 -4059.412)" fill="#98a27f"/>
    <path id="Path_8526" data-name="Path 8526" d="M5456.771,5180.282H5371.99a.541.541,0,0,1,0-1.082h84.781a.541.541,0,0,1,0,1.082Z" transform="translate(-4958.05 -4780.573)" fill="#252422"/>
    <path id="Path_8527" data-name="Path 8527" d="M5700.671,4745.38a3.563,3.563,0,0,0-2.966,1.421,6.469,6.469,0,0,0-.569,5.673c1.177,4.081,4.781,7.4,8.035,7.4a3.561,3.561,0,0,0,2.962-1.421,6.472,6.472,0,0,0,.571-5.674c-1.175-4.081-4.778-7.4-8.032-7.4Zm4.5,15.574c-3.7,0-7.772-3.668-9.074-8.178-.747-2.584-.476-5,.745-6.623a4.663,4.663,0,0,1,3.831-1.854c3.7,0,7.771,3.668,9.071,8.179a7.517,7.517,0,0,1-.746,6.624,4.656,4.656,0,0,1-3.826,1.853Z" transform="translate(-5257.328 -4379.144)" fill="#252422"/>
    <path id="Path_8528" data-name="Path 8528" d="M6959.777,2445.651c-2.56-3.115-6.37-5.819-7.912-5.075s-1.874,3.094-.79,3.58,1.48-1.5,5.051.059c3.127,1.362,3.909,2,3.652,1.435Z" transform="translate(-6415.519 -2252.605)" fill="#e7316c"/>
    <path id="Path_8529" data-name="Path 8529" d="M6947.227,2436.577a6.676,6.676,0,0,1,2.631.653c.629.274,1.164.519,1.615.731-2.009-2.006-4.251-3.459-5.483-3.459a.877.877,0,0,0-.373.07,2.134,2.134,0,0,0-1.118,1.884c0,.136.029.588.314.717a.3.3,0,0,0,.129.031,1.478,1.478,0,0,0,.492-.177,3.9,3.9,0,0,1,1.793-.45Zm6.047,3.329h0a3.608,3.608,0,0,1-1.294-.5c-.576-.279-1.407-.68-2.553-1.18a5.742,5.742,0,0,0-2.2-.563,2.838,2.838,0,0,0-1.332.347,1.592,1.592,0,0,1-2.478-1.536,3.219,3.219,0,0,1,1.73-2.871,1.926,1.926,0,0,1,.843-.178c2.135,0,5.57,2.781,7.722,5.4a.609.609,0,0,1,.074.119.72.72,0,0,1,0,.7.666.666,0,0,1-.512.271Z" transform="translate(-6409.035 -2246.115)" fill="#e7316c"/>
    <path id="Path_8530" data-name="Path 8530" d="M7700.4,1924.721a1.184,1.184,0,0,0-.546.13,2.415,2.415,0,0,0-1.039,2.2,17.161,17.161,0,0,0,1.185,5.766,27.376,27.376,0,0,0,2.256,5.2c1.175-2.858,3.407-9.714-.661-12.833a2.119,2.119,0,0,0-1.2-.464Zm1.524,14.363a.541.541,0,0,1-.477-.285,29.068,29.068,0,0,1-2.476-5.65,18.078,18.078,0,0,1-1.237-6.1,3.433,3.433,0,0,1,1.629-3.168,2.642,2.642,0,0,1,2.88.433c4.694,3.6,2.256,11.1.991,14.16a.542.542,0,0,1-.708.293.483.483,0,0,1-.094-.051.54.54,0,0,1-.509.362Z" transform="translate(-7105.294 -1775.567)" fill="#252422"/>
    <path id="Path_8531" data-name="Path 8531" d="M7745.121,2077.893c1.68.673,3.382,1.361,4.967,2.04l.737.3c1.833.749,3.727,1.53,5.5,1.415a2.437,2.437,0,0,0,2.125-3.8c-1.359-2.468-4.682-2.778-7.122-2.292a29.2,29.2,0,0,0-5.542,2.042l-.669.3Zm10.868,4.848a15.427,15.427,0,0,1-5.573-1.506l-.743-.3c-1.9-.813-3.957-1.636-5.948-2.433a.54.54,0,0,1,.2-1.042h.016a.54.54,0,0,1,.307-.36l1.1-.488a29.985,29.985,0,0,1,5.76-2.113c2.809-.56,6.653-.152,8.3,2.835a3.512,3.512,0,0,1-3.013,5.4c-.134.008-.269.013-.4.013Z" transform="translate(-7147.436 -1914.617)" fill="#252422"/>
    <path id="Path_8532" data-name="Path 8532" d="M7675.852,2051.775a.539.539,0,0,1-.325-.109c-.488-.366-.951-.786-1.4-1.193a15.946,15.946,0,0,0-1.821-1.493,26.185,26.185,0,0,1-2.373-1.663c-.455-.344-.92-.7-1.423-1.047a69.8,69.8,0,0,1-5.749-5.333.54.54,0,0,1,.764-.764,68.828,68.828,0,0,0,5.633,5.232c.485.339.961.7,1.426,1.051a25.8,25.8,0,0,0,2.3,1.611,16.691,16.691,0,0,1,1.97,1.607c.294.267.579.524.867.766a.557.557,0,0,1,.672.524v.27a.542.542,0,0,1-.541.54Z" transform="translate(-7072.872 -1882.987)" fill="#252422"/>
    <path id="Path_8533" data-name="Path 8533" d="M2577.336,4476.652h27.894l39.687-35.939c1.333-1.207,1.926-2.531,1.67-3.727s-1.344-2.162-3.057-2.713l-74.674-24.022c-1.882-.605-3.486-.339-4.338.713a4.394,4.394,0,0,0-.542,3.709l13.361,61.979Zm28.1,1.082H2576.9a.54.54,0,0,1-.529-.427l-13.454-62.407a5.425,5.425,0,0,1,.758-4.615c1.138-1.414,3.175-1.815,5.511-1.062l74.673,24.021c2.1.676,3.44,1.924,3.781,3.514s-.369,3.279-2,4.757l-39.84,36.079a.542.542,0,0,1-.363.139Z" transform="translate(-2365.501 -4069.51)" fill="#f9d7dd"/>
    <path id="Path_8534" data-name="Path 8534" d="M2547.971,129.644c-3.128,6.149-3.494,13.289-.606,18.586,2.128,3.9,5.055,6.082,8.241,6.138a7.34,7.34,0,0,0,6.355-3.753c2.1-3.543,1.736-8.31-.99-13.082-2.624-4.592-7.611-7.119-13-7.89Zm7.755,25.806h-.139c-3.539-.062-6.882-2.5-9.171-6.7-3-5.5-2.7-12.857.418-19.241a25.963,25.963,0,0,0-11.318,1.4c-8.173,3.027-12.114,9.716-10.54,17.893a.541.541,0,1,1-1.062.2c-1.682-8.741,2.515-15.885,11.227-19.111a27.074,27.074,0,0,1,12.219-1.4,25.215,25.215,0,0,1,3.346-4.752c6.515-7.29,15.806-9.209,25.486-5.263a.541.541,0,0,1-.408,1c-9.235-3.761-18.081-1.947-24.271,4.982a24.169,24.169,0,0,0-3,4.188c5.553.884,10.669,3.567,13.4,8.35,2.926,5.118,3.283,10.283.981,14.17a8.347,8.347,0,0,1-7.165,4.283Z" transform="translate(-2329.33 -107.478)" fill="#f8ae1d"/>
    <path id="Path_8535" data-name="Path 8535" d="M149.861,2264.092a4.426,4.426,0,0,0-3.582,2.087c-1.478,2.115-2.225,6.123.106,11.029a11.381,11.381,0,0,0,8.425,6.194c2.073-4.738,2.409-10.315.515-14.493-1.32-2.915-3.14-4.618-5.122-4.8-.114-.011-.228-.015-.342-.015Zm-7.433,29.854a15.333,15.333,0,0,1-6.748-1.684.541.541,0,0,1,.475-.972c5.39,2.644,10.605,1.917,14.686-2.044a18.045,18.045,0,0,0,3.5-4.84,12.383,12.383,0,0,1-8.931-6.733c-2.53-5.326-1.667-9.75-.016-12.114a5.382,5.382,0,0,1,4.909-2.528c2.386.219,4.52,2.149,6.008,5.432,1.976,4.361,1.677,10.146-.408,15.107a15.025,15.025,0,0,0,6.045-.539c4.943-1.519,9.771-6.105,8.5-14.428a.54.54,0,0,1,1.068-.164c1.381,9-3.871,13.974-9.246,15.625a16.126,16.126,0,0,1-6.825.532,19.123,19.123,0,0,1-3.845,5.425,12.962,12.962,0,0,1-9.166,3.924Z" transform="translate(-124.958 -2088.82)" fill="#f9d7dd"/>
    <path id="Path_8536" data-name="Path 8536" d="M7704.036,726.353a4.947,4.947,0,0,0-2.785.853l-15.959,10.842a5,5,0,0,0-1.323,6.924l10.84,15.957a5,5,0,0,0,6.925,1.321l15.954-10.836a4.994,4.994,0,0,0,1.325-6.926l-10.84-15.956a4.987,4.987,0,0,0-4.138-2.18Zm-5.09,37.835a6.068,6.068,0,0,1-5.032-2.653l-10.84-15.957a6.086,6.086,0,0,1,1.61-8.427l15.958-10.841a6.083,6.083,0,0,1,8.426,1.613l10.84,15.956a6.081,6.081,0,0,1-1.611,8.429l-15.955,10.837a6.037,6.037,0,0,1-3.4,1.043Z" transform="translate(-7090.803 -669.428)" fill="#f9d7dd"/>
    <path id="Path_8537" data-name="Path 8537" d="M7061.659,393.151a6.178,6.178,0,1,0,6.178,6.179A6.185,6.185,0,0,0,7061.659,393.151Zm0,13.436a7.259,7.259,0,1,1,7.259-7.258A7.267,7.267,0,0,1,7061.659,406.587Z" transform="translate(-6511.477 -361.872)" fill="#6cb8e1"/>
    <path id="Path_8538" data-name="Path 8538" d="M4909.97,4932.981a4.653,4.653,0,0,0-4.214,6.608,4.65,4.65,0,0,0,6.175,2.262,4.651,4.651,0,0,0-1.959-8.871Zm.009,10.384a5.752,5.752,0,0,1-5.2-3.32,5.729,5.729,0,1,1,5.2,3.32Z" transform="translate(-4526.798 -4552.306)" fill="#6cb8e1"/>
    <path id="Path_8539" data-name="Path 8539" d="M4722.741,4850.661a4.61,4.61,0,0,0-1.951.432,4.651,4.651,0,0,0,1.961,8.871,4.6,4.6,0,0,0,1.95-.433,4.651,4.651,0,0,0-1.961-8.87Zm.011,10.385a5.733,5.733,0,0,1-2.416-10.934,5.664,5.664,0,0,1,2.405-.532,5.732,5.732,0,0,1,2.414,10.932A5.652,5.652,0,0,1,4722.752,4861.045Z" transform="translate(-4353.983 -4476.322)" fill="#6cb8e1"/>
    <path id="Path_8540" data-name="Path 8540" d="M4891.151,4743.881a4.654,4.654,0,0,0-4.214,6.608,4.643,4.643,0,0,0,6.172,2.261,4.648,4.648,0,0,0,2.263-6.174,4.67,4.67,0,0,0-4.222-2.695Zm0,10.383a5.731,5.731,0,0,1-2.41-10.93,5.667,5.667,0,0,1,2.407-.534,5.733,5.733,0,0,1,5.386,7.7,5.742,5.742,0,0,1-5.382,3.761Z" transform="translate(-4509.431 -4377.76)" fill="#6cb8e1"/>
    <path id="Path_8541" data-name="Path 8541" d="M692.919,5287.153H1.081a1.081,1.081,0,1,1,0-2.163H692.919a1.081,1.081,0,1,1,0,2.163Z" transform="translate(0 -4878.222)" fill="#432c5c"/>
  </g>
</svg>
