<svg xmlns="http://www.w3.org/2000/svg" width="734.216" height="400.292" viewBox="0 0 734.216 400.292">
  <g id="Layer_x0020_1" transform="translate(0 0.01)">
    <path id="Path_7742" data-name="Path 7742" d="M472.99,1549.248H643.7V1434.21H472.99Z" transform="translate(-435.094 -1319.309)" fill="#fefefe"/>
    <path id="Path_7743" data-name="Path 7743" d="M467.154,1542.3h169.6V1428.374h-169.6Zm170.712,1.114H466.04V1427.26H637.866Z" transform="translate(-428.7 -1312.916)" fill="#ebecec"/>
    <path id="Path_7744" data-name="Path 7744" d="M588.6,1497.722a3.932,3.932,0,1,1-3.932-3.932A3.931,3.931,0,0,1,588.6,1497.722Z" transform="translate(-534.211 -1374.115)" fill="#354a53"/>
    <path id="Path_7745" data-name="Path 7745" d="M788.973,1497.722a3.932,3.932,0,1,1-3.931-3.932A3.931,3.931,0,0,1,788.973,1497.722Z" transform="translate(-718.527 -1374.115)" fill="#ebecec"/>
    <path id="Path_7746" data-name="Path 7746" d="M989.333,1497.722a3.931,3.931,0,1,1-3.931-3.932A3.931,3.931,0,0,1,989.333,1497.722Z" transform="translate(-902.834 -1374.115)" fill="#fcc32a"/>
    <path id="Path_7747" data-name="Path 7747" d="M472.99,1644.684H643.7v-1.114H472.99Z" transform="translate(-435.094 -1511.895)" fill="#ebecec"/>
    <path id="Path_7748" data-name="Path 7748" d="M6893.45,2550.979h170.712V2435.94H6893.45Z" transform="translate(-6341.141 -2240.779)" fill="#fefefe"/>
    <path id="Path_7749" data-name="Path 7749" d="M6887.623,2544.039h169.6V2430.114h-169.6Zm170.712,1.114H6886.51V2429h171.825Z" transform="translate(-6334.757 -2234.396)" fill="#ebecec"/>
    <path id="Path_7750" data-name="Path 7750" d="M7009.064,2499.441a3.932,3.932,0,1,1-3.931-3.931A3.932,3.932,0,0,1,7009.064,2499.441Z" transform="translate(-6440.257 -2295.576)" fill="#354a53"/>
    <path id="Path_7751" data-name="Path 7751" d="M7209.432,2499.441a3.931,3.931,0,1,1-3.931-3.931A3.931,3.931,0,0,1,7209.432,2499.441Z" transform="translate(-6624.574 -2295.576)" fill="#ebecec"/>
    <path id="Path_7752" data-name="Path 7752" d="M7409.782,2499.441a3.931,3.931,0,1,1-3.931-3.931A3.93,3.93,0,0,1,7409.782,2499.441Z" transform="translate(-6808.872 -2295.576)" fill="#fcc32a"/>
    <path id="Path_7753" data-name="Path 7753" d="M6893.45,2646.4h170.712v-1.114H6893.45Z" transform="translate(-6341.141 -2433.356)" fill="#ebecec"/>
    <path id="Path_7754" data-name="Path 7754" d="M1175.522,2635.785a18.063,18.063,0,0,1-18.076,18.076c-.321,0-.623,0-.923-.022,0,0-31.642.065-32.157.065a18.076,18.076,0,0,1,0-36.152h31.857c.409-.021.816-.043,1.223-.043A18.077,18.077,0,0,1,1175.522,2635.785Z" transform="translate(-1017.653 -2407.986)" fill="#a7a8a8"/>
    <path id="Path_7755" data-name="Path 7755" d="M1334.441,2764a3.621,3.621,0,0,1,.626-1.884c.158-.255.335-.5.5-.748l1.09-1.092c.422-.306.835-.624,1.269-.911a15.753,15.753,0,0,1,5.727-2.227,36.4,36.4,0,0,1,14.229.017,15.492,15.492,0,0,1,5.652,2.194c.448.3.875.625,1.313.939l1.053,1.052a12.634,12.634,0,0,1,.774,1.259,11.07,11.07,0,0,1,.449,1.356c-.168.014-.245.025-.321.025q-4.5.008-8.987.015a.35.35,0,0,1-.36-.214,3.115,3.115,0,0,0-2.658-1.694,62.778,62.778,0,0,0-8.124,0,3.117,3.117,0,0,0-2.652,1.705c-.071.123-.129.213-.305.214-3.042-.006-6.083,0-9.124,0l-.151-.012Z" transform="translate(-1227.523 -2535.609)" fill="#fefefe"/>
    <path id="Path_7756" data-name="Path 7756" d="M1334.3,2877.291q0-1.584,0-3.17l.009-.219,9.208-.011c-.01.206-.03.44-.03.675,0,.9,0,1.8,0,2.7a1.035,1.035,0,0,1-1.171,1.171q-3.43,0-6.86.005a1.022,1.022,0,0,1-1.154-1.152Z" transform="translate(-1227.396 -2643.64)" fill="#fefefe"/>
    <path id="Path_7757" data-name="Path 7757" d="M1626.929,2877.09c.012-1.155.055-2.309.086-3.458,2.949-.005,6.005-.009,9.077-.012l.012.2q0,1.611,0,3.222a1.013,1.013,0,0,1-1.123,1.128q-3.471.008-6.941.005a1,1,0,0,1-1.117-1.08Z" transform="translate(-1496.578 -2643.392)" fill="#fefefe"/>
    <path id="Path_7758" data-name="Path 7758" d="M8154.437,1809.182a17.241,17.241,0,1,1,20.1-6.08,17.262,17.262,0,0,1-20.1,6.08Zm31.165,4.335a5.012,5.012,0,0,1,.036-5.249q.4-.661.767-1.349c.25-.463.484-.93.705-1.4a5,5,0,0,1,4.337-2.922l6.456-.2-.652-21.032-6.5.2a4.973,4.973,0,0,1-4.5-2.654,28.781,28.781,0,0,0-1.608-2.608,5.053,5.053,0,0,1-.369-5.269l3.046-5.679-18.55-9.948-3.045,5.677a5.046,5.046,0,0,1-4.591,2.61,29.357,29.357,0,0,0-3.066.1,4.975,4.975,0,0,1-4.7-2.279l-3.428-5.523-17.88,11.091,3.417,5.516a4.919,4.919,0,0,1,.006,5.151q-.424.695-.812,1.42t-.734,1.462a4.935,4.935,0,0,1-4.317,2.855l-6.462.194.654,21.032,6.439-.2a4.921,4.921,0,0,1,4.49,2.546,28.929,28.929,0,0,0,1.764,2.849,4.916,4.916,0,0,1,.278,5.142l-3.044,5.676,18.549,9.948,3.046-5.676a5.045,5.045,0,0,1,4.6-2.609,29.47,29.47,0,0,0,3.07-.1,4.984,4.984,0,0,1,4.7,2.288l3.413,5.508L8189,1819Z" transform="translate(-7472.325 -1614.774)" fill="#ebecec"/>
    <path id="Path_7759" data-name="Path 7759" d="M7396.025,1364.155a12.075,12.075,0,1,1,12.068-12.081A12.086,12.086,0,0,1,7396.025,1364.155Zm22.25-7.742a3.508,3.508,0,0,1-1.715-3.254c.017-.36.026-.723.026-1.086s-.011-.732-.026-1.094a3.5,3.5,0,0,1,1.709-3.243l3.919-2.262-7.368-12.768-3.919,2.259a3.5,3.5,0,0,1-3.674-.128,20.449,20.449,0,0,0-1.9-1.1,3.5,3.5,0,0,1-1.936-3.114v-4.514h-14.746v4.514a3.5,3.5,0,0,1-1.934,3.114,20.447,20.447,0,0,0-1.9,1.1,3.5,3.5,0,0,1-3.675.128l-3.918-2.259-7.368,12.768,3.938,2.274a3.5,3.5,0,0,1,1.705,3.239c-.017.36-.028.722-.028,1.085s.011.726.028,1.086a3.511,3.511,0,0,1-1.716,3.253l-3.926,2.26,7.368,12.768,3.907-2.258a3.505,3.505,0,0,1,3.675.125,20.414,20.414,0,0,0,1.909,1.1,3.5,3.5,0,0,1,1.939,3.114v4.513h14.746v-4.513a3.5,3.5,0,0,1,1.938-3.114,20.469,20.469,0,0,0,1.909-1.1,3.5,3.5,0,0,1,3.674-.125l3.909,2.258,7.367-12.768-3.914-2.259Z" transform="translate(-6779.371 -1219.87)" fill="#ebecec"/>
    <path id="Path_7760" data-name="Path 7760" d="M1314.394,897.092a12.075,12.075,0,1,1,12.069,12.082A12.066,12.066,0,0,1,1314.394,897.092Zm-14.094,6.6,7.367,12.768,3.908-2.257a3.505,3.505,0,0,1,3.675.125,20.468,20.468,0,0,0,1.908,1.1,3.5,3.5,0,0,1,1.939,3.115v4.512h14.745v-4.512a3.5,3.5,0,0,1,1.939-3.115,20.5,20.5,0,0,0,1.909-1.1,3.506,3.506,0,0,1,3.674-.125l3.907,2.257,7.368-12.768-3.926-2.259a3.508,3.508,0,0,1-1.715-3.253q.026-.54.026-1.086t-.026-1.083a3.5,3.5,0,0,1,1.706-3.239l3.936-2.274-7.368-12.768-3.918,2.259a3.5,3.5,0,0,1-3.676-.129,20.427,20.427,0,0,0-1.9-1.1,3.5,3.5,0,0,1-1.937-3.114V871.13H1319.1v4.513a3.5,3.5,0,0,1-1.935,3.114,20.771,20.771,0,0,0-1.9,1.1,3.5,3.5,0,0,1-3.675.129l-3.919-2.259L1300.3,890.5l3.92,2.26a3.5,3.5,0,0,1,1.71,3.243c-.018.361-.028.726-.028,1.092s.009.726.028,1.086a3.513,3.513,0,0,1-1.715,3.254l-3.914,2.257Z" transform="translate(-1196.119 -801.343)" fill="#ebecec"/>
    <path id="Path_7761" data-name="Path 7761" d="M3491.371,473.764a65.485,65.485,0,1,1-65.485-65.485,65.486,65.486,0,0,1,65.485,65.485Z" transform="translate(-3091.161 -375.577)" fill="#ebecec"/>
    <path id="Path_7762" data-name="Path 7762" d="M3653.848,651.733a49.984,49.984,0,1,1-49.984-49.983A49.984,49.984,0,0,1,3653.848,651.733Z" transform="translate(-3269.14 -553.546)" fill="#fefefe"/>
    <path id="Path_7763" data-name="Path 7763" d="M3803.357,815.509a35.719,35.719,0,1,1-35.719-35.719,35.718,35.718,0,0,1,35.719,35.719Z" transform="translate(-3432.915 -717.322)" fill="#ebecec"/>
    <path id="Path_7764" data-name="Path 7764" d="M3970.764,998.878a19.747,19.747,0,1,1-19.747-19.747A19.747,19.747,0,0,1,3970.764,998.878Z" transform="translate(-3616.293 -900.69)" fill="#fefefe"/>
    <path id="Path_7765" data-name="Path 7765" d="M4084.173,1123.107a8.927,8.927,0,1,1-8.927-8.927A8.927,8.927,0,0,1,4084.173,1123.107Z" transform="translate(-3740.522 -1024.92)" fill="#ebecec"/>
    <path id="Path_7766" data-name="Path 7766" d="M4232.77,290.49l-1.8-1.8,75.009-75.011,1.8,1.8Z" transform="translate(-3891.981 -196.569)" fill="#c8c8c9"/>
    <path id="Path_7767" data-name="Path 7767" d="M4187.536,1110.4l-9.805,2.626,2.626-9.805Z" transform="translate(-3843.007 -1014.838)" fill="#a7a8a8"/>
    <path id="Path_7768" data-name="Path 7768" d="M5046.885,75.958l-14.063,14.064-11.032,3.366,3.365-11.032L5039.22,68.29l-3.366,11.033Z" transform="translate(-4619.439 -62.828)" fill="#a7a8a8"/>
    <path id="Path_7769" data-name="Path 7769" d="M0,4565.727l91.777-.271,91.776-.1,183.555-.187,183.554.185,91.777.1,91.777.273-91.777.271-91.777.1-183.554.186-183.555-.187-91.776-.1Z" transform="translate(0 -4199.413)" fill="#29383e"/>
    <path id="Path_7770" data-name="Path 7770" d="M1000.53,3457.488H847.08L835.2,3353.27H988.651Z" transform="translate(-768.283 -3084.612)" fill="#354a53"/>
    <path id="Path_7771" data-name="Path 7771" d="M1088.168,3530.749H949.847L939.56,3440.51h138.322Z" transform="translate(-864.282 -3164.862)" fill="#fefefe"/>
    <path id="Path_7772" data-name="Path 7772" d="M2015.51,4573.779H2173v-7H2015.51Z" transform="translate(-1854.026 -4200.895)" fill="#354a53"/>
    <path id="Path_7773" data-name="Path 7773" d="M2991.86,4573.779h79.268v-7H2991.86Z" transform="translate(-2752.149 -4200.895)" fill="#29383e"/>
    <path id="Path_7774" data-name="Path 7774" d="M1125.876,3440.55l-89.534,89.534-2.672-23.415,66.106-66.119Z" transform="translate(-950.852 -3164.899)" fill="#ebecec"/>
    <path id="Path_7775" data-name="Path 7775" d="M2229.484,4041.268l-20.555,20.556h-26.1l43.981-43.983Z" transform="translate(-2007.94 -3695.936)" fill="#ebecec"/>
    <path id="Path_7776" data-name="Path 7776" d="M966.43,3440.55l-15.377,15.377-.913-7.983,7.393-7.394Z" transform="translate(-874.014 -3164.899)" fill="#ebecec"/>
    <path id="Path_7777" data-name="Path 7777" d="M1930.3,3738.173l-59.035,59.037h-8.908l67.031-67.03Z" transform="translate(-1713.146 -3431.324)" fill="#ebecec"/>
    <path id="Path_7778" data-name="Path 7778" d="M999.512,3440.55l-25.8,25.8-.223-2,23.8-23.794Z" transform="translate(-895.493 -3164.899)" fill="#ebecec"/>
    <path id="Path_7779" data-name="Path 7779" d="M1282.612,3440.55l-90.235,90.235h-2.227l90.235-90.235Z" transform="translate(-1094.794 -3164.899)" fill="#ebecec"/>
    <path id="Path_7780" data-name="Path 7780" d="M1836.757,3642.254l-72.23,72.232H1762.3l74.234-74.236Z" transform="translate(-1621.103 -3348.599)" fill="#ebecec"/>
    <path id="Path_7781" data-name="Path 7781" d="M6253.791,3457.488h153.449l11.88-104.218h-153.45Z" transform="translate(-5752.731 -3084.612)" fill="#354a53"/>
    <path id="Path_7782" data-name="Path 7782" d="M6358.14,3530.749h138.322l10.286-90.239H6368.427Z" transform="translate(-5848.72 -3164.862)" fill="#fefefe"/>
    <path id="Path_7783" data-name="Path 7783" d="M5171.26,4573.779h157.495v-7H5171.26Z" transform="translate(-4756.934 -4200.895)" fill="#354a53"/>
    <path id="Path_7784" data-name="Path 7784" d="M5171.26,4573.779h79.272v-7H5171.26Z" transform="translate(-4756.934 -4200.895)" fill="#29383e"/>
    <path id="Path_7785" data-name="Path 7785" d="M7528.533,3876.78l-3.363,29.462-25.821,25.822h-26.1Z" transform="translate(-6874.487 -3566.178)" fill="#ebecec"/>
    <path id="Path_7786" data-name="Path 7786" d="M6453.709,3440.55l-90.224,90.235h-5.355l2.671-23.415,66.82-66.82Z" transform="translate(-5848.711 -3164.899)" fill="#ebecec"/>
    <path id="Path_7787" data-name="Path 7787" d="M6473.938,3440.55l-29.917,29.919,1.147-10.054,19.864-19.865Z" transform="translate(-5927.719 -3164.899)" fill="#ebecec"/>
    <path id="Path_7788" data-name="Path 7788" d="M6907.543,3440.55l-90.235,90.235H6808.4l90.235-90.235Z" transform="translate(-6262.905 -3164.899)" fill="#ebecec"/>
    <path id="Path_7789" data-name="Path 7789" d="M7415.528,3736.42l-.279,2.517-64.012,64.013h-2.228Z" transform="translate(-6760.2 -3437.063)" fill="#ebecec"/>
    <path id="Path_7790" data-name="Path 7790" d="M7100.972,3440.55l-90.223,90.235h-2.228l90.235-90.235Z" transform="translate(-6446.991 -3164.899)" fill="#ebecec"/>
    <path id="Path_7791" data-name="Path 7791" d="M6462.5,3440.55l-56.7,56.7.289-2.517,54.181-54.181Z" transform="translate(-5892.561 -3164.899)" fill="#ebecec"/>
    <path id="Path_7792" data-name="Path 7792" d="M2741.867,2505.224c19.036,38.425,47.215,76.769,54.769,84.02,20.285,19.471,74.443,33.465,90.408,33.909,6.89.192,16.421-45.6,11.343-50.937s-71.958-19.876-75.539-22.621c-2.489-1.908-34.387-32.227-55.532-50.226-26.281-22.368-30.447-4.235-25.448,5.854Z" transform="translate(-2520.495 -2289.298)" fill="#f4a5a2"/>
    <path id="Path_7793" data-name="Path 7793" d="M2877.45,2545.486l-17.261,54.5s-56.594-14.95-71.736-29.458-46.509-66.691-52.636-83.879-2.134-30.773,25.558-8.467,51.273,45.124,56.19,48.8S2877.45,2545.486,2877.45,2545.486Z" transform="translate(-2514.333 -2268.918)" fill="#3f5e69"/>
    <path id="Path_7794" data-name="Path 7794" d="M4313,3442.431a2.784,2.784,0,1,0,2.333-3.17A2.784,2.784,0,0,0,4313,3442.431Z" transform="translate(-3967.41 -3163.684)" fill="#29383e"/>
    <path id="Path_7795" data-name="Path 7795" d="M4139.964,3392.582a2.784,2.784,0,1,0,2.334-3.17,2.785,2.785,0,0,0-2.334,3.17Z" transform="translate(-3808.237 -3117.828)" fill="#29383e"/>
    <path id="Path_7796" data-name="Path 7796" d="M2818.439,2586.43c-12.393-4.81-24.207-10.411-29.986-15.945-15.143-14.519-46.509-66.7-52.633-83.888-3.919-10.99-3.708-20.5,4.2-20.109Z" transform="translate(-2514.331 -2268.868)" fill="#29383e"/>
    <path id="Path_7797" data-name="Path 7797" d="M1636.3,2576.613l142.862.029c.572-5.222-28.824-150.789-42.815-169.037-2.995-3.9-12.868-4.985-21.262-3.94a37.351,37.351,0,0,0-6.463,1.32l-.217.059a15.461,15.461,0,0,0-4.749,2.325c-23.351,18.642-68.478,167.964-67.354,169.245Z" transform="translate(-1505.183 -2210.745)" fill="#3f5e69"/>
    <path id="Path_7798" data-name="Path 7798" d="M2740.17,2732.078l6.074-11.827,7.834,8.555-1.916,8.512-7.739.994Z" transform="translate(-2520.625 -2502.31)" fill="#29383e"/>
    <path id="Path_7799" data-name="Path 7799" d="M2750.752,2934.264l-3.7,86.994,16.305,28.768,8.463-32.378-13.327-84.378Z" transform="translate(-2526.954 -2698.263)" fill="#29383e"/>
    <path id="Path_7800" data-name="Path 7800" d="M2540.074,2114.246c-2.25-.088-17.171-11.762-21.759-20.853-.312-.625.843-7.045,1.875-14.912.609-4.777,1.175-10.11,1.337-15.015.029-1.006,3.4.958,3.4.958l6.3,1.746,20.817,5.8s-3.367,10.179-3.6,18.731a11.041,11.041,0,0,0,.144,2.019c.007.094.03.206.033.335.5,3.843-4.859,21.341-8.538,21.2Z" transform="translate(-2316.498 -1897.884)" fill="#f4a5a2"/>
    <path id="Path_7801" data-name="Path 7801" d="M2603.465,2119.807c.007.094.03.206.033.335a19.324,19.324,0,0,1-3.168.061c-20.694-1.153-22.4-27.573-22.4-27.573l8.174.629,20.817,5.8s-3.367,10.179-3.6,18.731a11.062,11.062,0,0,0,.144,2.019Z" transform="translate(-2371.384 -1924.976)" fill="#29383e"/>
    <path id="Path_7802" data-name="Path 7802" d="M2701.322,2332.372l0-.012Z" transform="translate(-2484.887 -2145.499)" fill="#f4a29f"/>
    <path id="Path_7803" data-name="Path 7803" d="M2489.351,1408.552c-3.121,10.974,3.242,42.381,11.134,49.261,11.445,9.972,29.882,10.594,38.278-3.092,8.14-13.268-.874-54.053-9.665-60.273-12.945-9.163-35.136-2.106-39.747,14.1Z" transform="translate(-2289.157 -1279)" fill="#f4a5a2"/>
    <path id="Path_7804" data-name="Path 7804" d="M2872.916,1845.22l-.126.22c.486,2.1.687,4.595-1.09,5.677l.041.115c2.274-.791,1.972-4.1,1.175-6.011Z" transform="translate(-2641.616 -1697.388)" fill="#29383e"/>
    <path id="Path_7805" data-name="Path 7805" d="M2833.326,1822.144c-3.457.414-2.374,7.3.828,6.914C2837.308,1828.681,2836.225,1821.8,2833.326,1822.144Z" transform="translate(-2604.355 -1676.15)" fill="#29383e"/>
    <path id="Path_7806" data-name="Path 7806" d="M3041.557,1825.37l.194.161c.268,2.142.935,4.552,2.974,4.957l0,.122C3042.322,1830.648,3041.468,1827.442,3041.557,1825.37Z" transform="translate(-2797.859 -1679.129)" fill="#29383e"/>
    <path id="Path_7807" data-name="Path 7807" d="M3043.145,1793.084c3.387-.8,4.737,6.036,1.6,6.777C3041.654,1800.59,3040.3,1793.754,3043.145,1793.084Z" transform="translate(-2797.893 -1649.37)" fill="#29383e"/>
    <path id="Path_7808" data-name="Path 7808" d="M2792.421,1726.527a27.03,27.03,0,0,0,2.517-1.359,4.627,4.627,0,0,0,2.305-1.874,1.476,1.476,0,0,0-.511-1.726,3.655,3.655,0,0,0-3.7.2,5.36,5.36,0,0,0-2.694,2.774A1.572,1.572,0,0,0,2792.421,1726.527Z" transform="translate(-2566.659 -1583.253)" fill="#29383e"/>
    <path id="Path_7809" data-name="Path 7809" d="M3017.324,1697.459a27.091,27.091,0,0,1-2.847-.28,4.62,4.62,0,0,1-2.849-.839,1.473,1.473,0,0,1-.195-1.788,3.654,3.654,0,0,1,3.486-1.244,5.372,5.372,0,0,1,3.557,1.517A1.571,1.571,0,0,1,3017.324,1697.459Z" transform="translate(-2769.957 -1557.63)" fill="#29383e"/>
    <path id="Path_7810" data-name="Path 7810" d="M2898.811,2095.843c.589.419,1.207,1.026,1.992.969a5.712,5.712,0,0,0,2.208-.9l.109.094a2.907,2.907,0,0,1-2.525,1.583,2.3,2.3,0,0,1-1.973-1.623c-.052-.12.1-.189.189-.128Z" transform="translate(-2666.371 -1927.91)" fill="#29383e"/>
    <path id="Path_7811" data-name="Path 7811" d="M2918.264,2012.857a8.726,8.726,0,0,1-3.029,3.214,3.918,3.918,0,0,1-2.33.516c-1.774-.18-2.061-1.735-1.96-3.122a9.384,9.384,0,0,1,.442-2.166,11.294,11.294,0,0,0,6.877,1.557Z" transform="translate(-2677.701 -1850.162)" fill="#fefefe"/>
    <path id="Path_7812" data-name="Path 7812" d="M2915.811,1729.561a7.348,7.348,0,0,0,5.354,2.469,9.277,9.277,0,0,0,2.631-.292,2.5,2.5,0,0,0,.489-.136c.153-.043.291-.083.457-.144a.537.537,0,0,0,.352-.545l0-.017-.053-.214,0-.016-.035-.186c-.213-1.648-.765-4.121-.765-4.121.648.206,3.922,1.1,3.739.251-1.54-7.033-3.254-14.854-6.271-21.529a.2.2,0,0,0-.381.116c1.212,6.819,3.616,13.378,4.943,20.207a12.841,12.841,0,0,0-3.591-.5c-.222.1,1.152,4.758,1.188,5.506v.08c-2.7.786-4.912.28-7.883-1.151-.177-.1-.323.074-.168.224Z" transform="translate(-2682.133 -1568.365)" fill="#29383e"/>
    <path id="Path_7813" data-name="Path 7813" d="M2403.136,1360.579c7.5-1.122,6.966-14.951,6.966-14.951s12.572-3.991,13.03-13.961c0,0,13.364,6.02,22.468,1.13s5.5-15.466,4.094-17.636-6.1,2.927-6.1,2.927-1.507-6.064-3.243-6.451-2.977,3.6-2.977,3.6-12.99-2.348-24.181-.386-15.1,14.1-15.1,14.1-5.822,2.153-7.155,6.645S2398.357,1361.294,2403.136,1360.579Z" transform="translate(-2199.244 -1206.533)" fill="#29383e"/>
    <path id="Path_7814" data-name="Path 7814" d="M2591.682,1541.165c10.155-.132,15.8-7.717,15.851-17.471a.1.1,0,0,1,.188-.014c1.011,8.932-5.843,20.053-16.071,17.939A.231.231,0,0,1,2591.682,1541.165Z" transform="translate(-2383.843 -1401.534)" fill="#29383e"/>
    <path id="Path_7815" data-name="Path 7815" d="M2384.142,1525.153a.106.106,0,0,1,.094.188c-2.6,1.7-5.651,3.135-7.24,5.963-1.92,3.414-.823,7.367.57,10.727,2.158,5.206,5.97,11.82,11.265,14.294.305.143.075.588-.231.464-6.3-2.572-11-11.191-12.725-17.438C2373.94,1532.355,2377.781,1527.651,2384.142,1525.153Z" transform="translate(-2185.056 -1402.959)" fill="#29383e"/>
    <path id="Path_7816" data-name="Path 7816" d="M2929.469,1371.455c4.774,2,11.305,1.166,15.165-2.468,4.7-4.427,2.709-10.305-.3-15.008-.148-.232.17-.549.376-.333,3.749,3.976,4.984,10.664,1.253,15.1-3.855,4.582-11.565,5.574-16.829,3.374-.44-.184-.108-.849.331-.663Z" transform="translate(-2694.263 -1245.134)" fill="#29383e"/>
    <path id="Path_7817" data-name="Path 7817" d="M2754.007,1771.876a8,8,0,1,0,7.979,5.731A8.063,8.063,0,0,0,2754.007,1771.876Zm.653,17.23a9.238,9.238,0,1,1,8.51-11.85v0a9.243,9.243,0,0,1-8.51,11.848Z" transform="translate(-2525.134 -1628.779)" fill="#3f5e69"/>
    <path id="Path_7818" data-name="Path 7818" d="M3035.2,1730.89a3.832,3.832,0,0,0-.467.045,4.927,4.927,0,0,0-3.532,2.848,9.815,9.815,0,0,0-.812,5.928c.682,4.36,3.726,7.522,6.81,7.037s5.019-4.417,4.341-8.776a9.806,9.806,0,0,0-2.578-5.4A5.091,5.091,0,0,0,3035.2,1730.89Zm1.588,17.137c-3.532.132-6.873-3.364-7.617-8.126a11.039,11.039,0,0,1,.932-6.682,5.757,5.757,0,0,1,9.736-1.519,11.039,11.039,0,0,1,2.923,6.08c.783,5.031-1.625,9.6-5.37,10.188a5.725,5.725,0,0,1-.6.058Z" transform="translate(-2786.335 -1591.077)" fill="#3f5e69"/>
    <path id="Path_7819" data-name="Path 7819" d="M2958.5,1831.8l-.931-.812c1.2-1.378,4.16-3.442,6.762-1.4l-.762.972C2961.243,1828.73,2958.612,1831.677,2958.5,1831.8Z" transform="translate(-2720.606 -1682.22)" fill="#3f5e69"/>
    <path id="Path_7820" data-name="Path 7820" d="M2452.731,1878.136l-1.171-.391c.183-.547,1.859-5.362,4.517-6.23,2.482-.8,19.079-1.823,19.783-1.865l.074,1.234c-4.759.286-17.558,1.179-19.476,1.806-1.754.572-3.285,4.125-3.728,5.446Z" transform="translate(-2255.139 -1719.861)" fill="#3f5e69"/>
    <path id="Path_7821" data-name="Path 7821" d="M2447.677,1852.285s-7.522-9.906-12.044-7.185,1.411,17.275,6.917,19.083a5.521,5.521,0,0,0,7.277-3.255l-2.151-8.643Z" transform="translate(-2239.015 -1696.842)" fill="#f4a5a2"/>
    <path id="Path_7822" data-name="Path 7822" d="M2476.283,1902.08l-.023.146c3.866,1.393,6.006,4.842,7.553,8.446-1.188-1.365-2.757-2.076-4.591-.655-.1.074,0,.226.111.2a3.394,3.394,0,0,1,3.782,1.038,16.51,16.51,0,0,1,1.908,2.951c.191.333.8.127.652-.259l-.034-.087C2485.548,1909,2481.511,1902.363,2476.283,1902.08Z" transform="translate(-2277.86 -1749.693)" fill="#29383e"/>
    <path id="Path_7823" data-name="Path 7823" d="M2480.114,2385.988l-7.439,18.25-22.539-23.048-6.416,7.367s22.017,36.589,22.159,34.937l7.526-15.652,10.792,10.924-.82-27.368-3.263-5.408Z" transform="translate(-2247.927 -2190.416)" fill="#3f5e69"/>
    <path id="Path_7824" data-name="Path 7824" d="M2495,2509.257c-.287-4.514-.449-9.069-.946-13.565-.017-.159-.268-.23-.308-.043-.913,4.357.275,21.614.247,25.752l-.048-.048c-.449-.471-10-9.613-10.1-9.468-1.63,2.485-7.152,13.884-7.531,14.92-3.482-5.812-16.83-26.941-20.953-32.438a.157.157,0,0,0-.271.156c3.073,6.136,20.736,34.589,21.008,34.509a176.5,176.5,0,0,0,7.869-16.548c1.616,1.991,11.254,12.3,11.289,11.633a141.9,141.9,0,0,0-.26-14.858Z" transform="translate(-2258.367 -2294.458)" fill="#29383e"/>
    <path id="Path_7825" data-name="Path 7825" d="M2199.5,3827.045l-111.247,11.013-.354-86.245,111.247-11.014Z" transform="translate(-1920.615 -3441.093)" fill="#fcc32a"/>
    <path id="Path_7826" data-name="Path 7826" d="M2123.109,3714.31l-36.409,3.6.1,9.533,38.963-3.858Z" transform="translate(-1919.511 -3416.725)" fill="#fcc32a"/>
    <path id="Path_7827" data-name="Path 7827" d="M2088.254,3838.059l-.354-86.245,111.247-11.014.354,86.246Z" transform="translate(-1920.615 -3441.093)" fill="#009846"/>
    <path id="Path_7828" data-name="Path 7828" d="M2086.8,3727.446l-.1-9.533,36.409-3.6,2.651,9.278Z" transform="translate(-1919.511 -3416.725)" fill="#009846"/>
    <path id="Path_7829" data-name="Path 7829" d="M2071.822,3836.142l-107.293,10.621-15.349-86.479,114.364-9.6Z" transform="translate(-1793.01 -3450.181)" fill="#ebecec"/>
    <path id="Path_7830" data-name="Path 7830" d="M2027.852,3856.637l-110.025,10.892-16.446-83.12,115.652-11.448Z" transform="translate(-1749.04 -3470.676)" fill="#fefefe"/>
    <path id="Path_7831" data-name="Path 7831" d="M2010.615,3883.867,1899.128,3894.9l-16.268-81.326,111.487-11.037Z" transform="translate(-1732.004 -3497.886)" fill="#009846"/>
    <path id="Path_7832" data-name="Path 7832" d="M1548.325,2543.086c-38.025,34.5-65.463,93.974-64.622,110,1.112,21.171,39.465,57.365,64.436,67.843,6.32,2.653,30.75-49.055,21.507-51.748-9.753-2.842-32.307-23.291-33.405-24.219-2.345-1.979,15.828-47.221,23.434-74.682,8.588-31.009,4.655-41.71-11.35-27.189Z" transform="translate(-1364.811 -2333.461)" fill="#f4a5a2"/>
    <path id="Path_7833" data-name="Path 7833" d="M2111.9,4212.7c22.669,16.372,52.99,20.721,61.367,20.727.559,0,1.019-.018,1.374-.054,4.837-.476,7.323-.768,7.323-.768,8.692-.683,11.815-4.8,11.815-4.8s10.283,2.166,12.625-3.832c2.647-6.718-12.313-8.448-19.958-14.428-17.516-13.7-38.581-38.086-43.24-42.541l-31.308,45.7Z" transform="translate(-1942.692 -3833.145)" fill="#f4a5a2"/>
    <path id="Path_7834" data-name="Path 7834" d="M2682.27,4679.1c5.236,3.93,10.276,7.928,16.016,11.129,6.3,3.512,12.948,5.836,19.659,8.371a.173.173,0,0,1-.1.331,75.807,75.807,0,0,1-35.934-19.394C2681.687,4679.314,2682.007,4678.9,2682.27,4679.1Z" transform="translate(-2466.964 -4304.166)" fill="#29383e"/>
    <path id="Path_7835" data-name="Path 7835" d="M2559.443,4795.97c5.306,3.542,14.672,9.707,33.835,14.952l-.018.12a68.01,68.01,0,0,1-34.156-14.526c-.314-.25-.014-.781.338-.544Z" transform="translate(-2353.946 -4411.668)" fill="#29383e"/>
    <path id="Path_7836" data-name="Path 7836" d="M2525.859,4191.7c-1.575-2.689-.174-3.532,4.979-1.505,5.218,2.039,23.831,14.424,27.6,7.544,3.8-6.9-22.828-23.993-31.67-26.711-8.835-2.739-24.093-4.017-24.093-4.017,4.511,4.368,14.44,16.005,23.179,24.689Z" transform="translate(-2302.163 -3833.155)" fill="#f4a5a2"/>
    <path id="Path_7837" data-name="Path 7837" d="M1496.669,2678.471l30.291-50.856s-28.35-19.879-28.485-21.87,19.924-56.782,25.985-83.749,3.057-39.833-23.484-9.766-60.583,80.646-58.777,102.323,54.469,63.918,54.469,63.918Z" transform="translate(-1326.585 -2295.025)" fill="#3f5e69"/>
    <path id="Path_7838" data-name="Path 7838" d="M2167.132,3045.855c-1.1,1.932-2.277,3.818-3.277,5.806q-.488.969-.974,1.941c.248-.778.5-1.554.75-2.333,1.556-4.888,3.06-9.8,4.371-14.758.032-.121-.158-.2-.208-.083-3.5,8.416-6.392,17.094-9.265,25.742q-4.339,13.064-8.2,26.284c-1.443,4.918-2.94,9.857-4.072,14.858a.087.087,0,0,0,.169.042c1.666-4.285,3.085-8.682,4.532-13.043s2.909-8.717,4.329-13.088q3.392-10.449,6.724-20.917a23.4,23.4,0,0,0,2.431-4.194c1.028-2.023,1.86-4.134,2.772-6.209l-.083-.046Z" transform="translate(-1974.295 -2793.102)" fill="#29383e"/>
    <path id="Path_7839" data-name="Path 7839" d="M2054.12,4604.554a2.784,2.784,0,1,0,3.51-1.784A2.784,2.784,0,0,0,2054.12,4604.554Z" transform="translate(-1889.416 -4233.875)" fill="#29383e"/>
    <path id="Path_7840" data-name="Path 7840" d="M1921.936,4482.275a2.784,2.784,0,1,0,3.511-1.783A2.785,2.785,0,0,0,1921.936,4482.275Z" transform="translate(-1767.822 -4121.393)" fill="#29383e"/>
    <path id="Path_7841" data-name="Path 7841" d="M1685.84,4379.141c3.513,2.991,6.806,6.192,10.071,9.416,1.62,1.627,3.238,3.253,4.828,4.908s3.163,3.328,4.734,5.017a97.194,97.194,0,0,1-10.345-9.136A126.992,126.992,0,0,1,1685.84,4379.141Z" transform="translate(-1550.769 -4028.289)" fill="#29383e"/>
    <path id="Path_7842" data-name="Path 7842" d="M6526.811,1280.182c2.384-7.655,12.8-24.516,29.629-19.43,24.01,7.261,23.09,54.769,33.878,70.622,19.552,28.725,17.778,55.159-.713,57.663-20.724,2.8-38.4-20.821-33.195-67.829,3.251-29.393-3.817-43.228-9.771-42.906s-9.86,7.441-9.86,7.441l-9.967-5.56Z" transform="translate(-6003.876 -1158.884)" fill="#29383e"/>
    <path id="Path_7843" data-name="Path 7843" d="M6540.521,1249.714a47.45,47.45,0,0,1,5.885-9.9,28.163,28.163,0,0,1,8.8-7.653,19.2,19.2,0,0,1,11.622-2.208,24.861,24.861,0,0,1,11.075,4.228,27.96,27.96,0,0,1,7.843,8.834,51.3,51.3,0,0,1,4.52,10.748,103.064,103.064,0,0,1,3.563,22.736,151.883,151.883,0,0,0-5.171-22.224,54.8,54.8,0,0,0-4.668-10.208,26.28,26.28,0,0,0-7.336-8.123,23.164,23.164,0,0,0-10.1-3.969,17.938,17.938,0,0,0-10.585,1.683,28.739,28.739,0,0,0-8.763,6.836,46.156,46.156,0,0,0-3.578,4.415q-1.633,2.34-3.109,4.8Z" transform="translate(-6016.488 -1131.273)" fill="#29383e"/>
    <path id="Path_7844" data-name="Path 7844" d="M6846.886,1823.45c-.191,4.7-.9,9.349-1.431,14.005-.6,4.647-1.177,9.291-1.62,13.938-.417,4.648-.745,9.3-.711,13.938a70.687,70.687,0,0,0,1.22,13.773,36.153,36.153,0,0,0,4.808,12.7,39.375,39.375,0,0,0,9.414,9.852,29.332,29.332,0,0,0,12.511,5.355,26.535,26.535,0,0,0,6.9.282,23.575,23.575,0,0,0,3.435-.559,12.271,12.271,0,0,0,3.288-1.166,17.311,17.311,0,0,1-6.651,2.293,27.365,27.365,0,0,1-7.118.2,29.17,29.17,0,0,1-6.969-1.68,31.569,31.569,0,0,1-6.365-3.343,37.042,37.042,0,0,1-5.534-4.585l-1.247-1.295-1.184-1.347a26.977,26.977,0,0,1-2.2-2.891,37.7,37.7,0,0,1-5.213-13.394c-1.787-9.429-1.239-19-.061-28.316.592-4.672,1.4-9.3,2.25-13.916.883-4.609,1.8-9.2,2.473-13.842Z" transform="translate(-6292.958 -1677.363)" fill="#29383e"/>
    <path id="Path_7845" data-name="Path 7845" d="M6509.16,1451.47c-.064-2.2,1.524-5.034,2.947-5.427s11.988,4.143,12.894,6.852-3.79,5.1-3.79,5.1Z" transform="translate(-5987.638 -1330.172)" fill="#3f5e69"/>
    <path id="Path_7846" data-name="Path 7846" d="M4688.786,2523.763c-6.273,13.652-52.952,77.828-76.127,79.579-24.251,1.832-82.425-37.8-88-41.1-15.288-9.046,27.338-50.779,34.713-43.368,12.319,12.388,41.763,35.73,48.964,34.153,15.133-3.316,46.659-29.795,69.023-43.573C4690.852,2501.141,4695.728,2508.66,4688.786,2523.763Z" transform="translate(-4159.116 -2305.238)" fill="#c5665d"/>
    <path id="Path_7847" data-name="Path 7847" d="M4113.338,2379.938c-2.637-1.751-23.853-13.539-31.813-24.905-4.214-6.02-13.938-23.875-10.6-26.9,3.051-2.759,6.918,1.479,6.918,1.479s-4.218-8.023.066-11.81,10.439,3.7,10.439,3.7-3.731-8.556.813-12.027,9.471,5.095,9.471,5.095-3.775-7.664,1.171-8.948c5.949-1.546,11.315,13.371,17.083,19.108,1.312,1.3,28.435,24.51,28.435,24.51l-31.987,30.692Z" transform="translate(-3744.13 -2120.806)" fill="#c5665d"/>
    <path id="Path_7848" data-name="Path 7848" d="M4422.36,2414.672c3.972,10.96,7.6,15.067,16.669,22.1.176.138.013.432-.185.307-9.5-6.083-14.8-10.578-17.023-22.243-.109-.57.352-.686.541-.165Z" transform="translate(-4067.525 -2220.909)" fill="#29383e"/>
    <path id="Path_7849" data-name="Path 7849" d="M4294.094,2501.557c5.12,11.022,9.02,15.513,17.971,23.58.126.115-.054.341-.19.236-9.445-7.18-14.629-11.785-18.3-23.47-.165-.528.283-.849.517-.346Z" transform="translate(-3949.538 -2300.906)" fill="#29383e"/>
    <path id="Path_7850" data-name="Path 7850" d="M4165.9,2606.312c5.727,10.313,9.792,15.422,19.488,22.137a.217.217,0,0,1-.226.371c-10.555-5.886-15.674-12.222-19.556-22.3-.266-.687-.066-.856.294-.209Z" transform="translate(-3831.743 -2397.126)" fill="#29383e"/>
    <path id="Path_7851" data-name="Path 7851" d="M4661.8,2414.728s-6.02-13.31-9.954-18.571-25.813-19.477-29.153-14.927c-4.311,5.876,6.7,16.571,12.783,21.1,0,0-9.985,13.584-3.742,22.969s30.064-10.576,30.064-10.576Z" transform="translate(-4251.419 -2189.638)" fill="#c5665d"/>
    <path id="Path_7852" data-name="Path 7852" d="M4622.412,2416.344c-.066,8.194,8.3,13.63,13.867,18.468a.675.675,0,0,1-.069,1.107c-3.805,5.974-7.432,15.506-4.553,22.405a.171.171,0,0,1-.3.157c-4.093-6.978-1.292-16.636,3.294-22.911-5.789-4.873-13.936-10.691-12.314-19.23l.079,0Z" transform="translate(-4251.794 -2222.75)" fill="#29383e"/>
    <path id="Path_7853" data-name="Path 7853" d="M4956.78,2515.986c-7.268,14.488-49.644,76.286-72.535,77.269s-70.845-18.56-70.845-18.56l35.527-54.1s24.593,17.748,28.451,17.888,55.507-33.979,67.573-41.476,23.646-4.581,11.828,18.979Z" transform="translate(-4427.746 -2293.582)" fill="#009846"/>
    <path id="Path_7854" data-name="Path 7854" d="M5216.989,3402.047a21.936,21.936,0,1,1,1.228-4.786A19.5,19.5,0,0,1,5216.989,3402.047Z" transform="translate(-4798.899 -3120.534)" fill="#fefefe"/>
    <path id="Path_7855" data-name="Path 7855" d="M6099.682,3266.819a19.482,19.482,0,0,1,.126-4.942,2.487,2.487,0,1,1,1.1.154A19.536,19.536,0,0,1,6099.682,3266.819Z" transform="translate(-5610.87 -2996.138)" fill="#fefefe"/>
    <path id="Path_7856" data-name="Path 7856" d="M6038.136,2847.967a19.639,19.639,0,0,1-4.94-.126,19.294,19.294,0,0,1-4.787-1.229,21.94,21.94,0,0,1,9.727,1.355Z" transform="translate(-5545.407 -2618.448)" fill="#fefefe"/>
    <path id="Path_7857" data-name="Path 7857" d="M5326.75,3081.005a19.533,19.533,0,0,1-4.941-.127,19.29,19.29,0,0,1-4.788-1.228,19.355,19.355,0,0,1,4.941.126A19.63,19.63,0,0,1,5326.75,3081.005Z" transform="translate(-4891.016 -2832.815)" fill="#fefefe"/>
    <path id="Path_7858" data-name="Path 7858" d="M5536.472,3725.161l-.213.256-.289-.045c.168-.067.335-.144.5-.211Z" transform="translate(-5092.423 -3426.706)" fill="#fefefe"/>
    <path id="Path_7859" data-name="Path 7859" d="M5040.641,3203.332a19.52,19.52,0,0,1,3.583-3.405,2.487,2.487,0,1,1,.671.888A19.512,19.512,0,0,1,5040.641,3203.332Z" transform="translate(-4636.78 -2941.24)" fill="#fefefe"/>
    <path id="Path_7860" data-name="Path 7860" d="M5780.34,3049.862a19.616,19.616,0,0,1,3.583-3.405,2.487,2.487,0,1,1,.671.888A19.566,19.566,0,0,1,5780.34,3049.862Z" transform="translate(-5317.214 -2800.065)" fill="#fefefe"/>
    <path id="Path_7861" data-name="Path 7861" d="M5534.84,3329.61a21.935,21.935,0,0,1,5.922,7.837,19.333,19.333,0,0,1-3.4-3.583A19.61,19.61,0,0,1,5534.84,3329.61Z" transform="translate(-5091.383 -3062.847)" fill="#fefefe"/>
    <path id="Path_7862" data-name="Path 7862" d="M6237.15,3012.89a19.536,19.536,0,0,1,3.4,3.583,2.487,2.487,0,1,1-.888.671A19.605,19.605,0,0,1,6237.15,3012.89Z" transform="translate(-5737.423 -2771.504)" fill="#fefefe"/>
    <path id="Path_7863" data-name="Path 7863" d="M5018.45,2938.892c-4.476,8.087-8.785,16.259-13.614,24.145a261.026,261.026,0,0,1-15.229,22.831c-.106.137-.341-.009-.259-.162,4.279-8.073,9.162-15.862,13.916-23.662,4.793-7.861,9.9-15.517,14.682-23.385C5018.129,2938.359,5018.625,2938.574,5018.45,2938.892Z" transform="translate(-4589.582 -2703.088)" fill="#29383e"/>
    <path id="Path_7864" data-name="Path 7864" d="M5539.9,2516.058c-7.271,14.488-49.648,76.284-72.542,77.264-5.556.234-12.593-.735-20.053-2.349,17.792-19.03,67.554-72.7,90.591-97.539C5544.883,2493.01,5548.28,2499.333,5539.9,2516.058Z" transform="translate(-5010.857 -2293.648)" fill="#29383e"/>
    <path id="Path_7865" data-name="Path 7865" d="M5955.985,2688.3h134.369s-52.246-132.27-80.068-158.88c-7.564-7.236-26.245-6.7-35.4,5.5-7.505,10-28.335,49.824-29.287,64.146-.909,14.356,10.289,28.464,10.289,28.464l.1,60.768Z" transform="translate(-5469.184 -2322.43)" fill="#009846"/>
    <path id="Path_7866" data-name="Path 7866" d="M6288.937,3836.288a19.607,19.607,0,0,1,.125-4.94,2.487,2.487,0,1,1-.125,4.94Z" transform="translate(-5784.963 -3519.982)" fill="#fefefe"/>
    <path id="Path_7867" data-name="Path 7867" d="M7441.324,4147.058a19.665,19.665,0,0,1,.126-4.942,2.487,2.487,0,1,1-.126,4.942Z" transform="translate(-6845.021 -3805.852)" fill="#fefefe"/>
    <path id="Path_7868" data-name="Path 7868" d="M6717.811,4418.589a19.594,19.594,0,0,1,.127-4.942,2.487,2.487,0,1,1,1.1.153A19.564,19.564,0,0,1,6717.811,4418.589Z" transform="translate(-6179.476 -4055.627)" fill="#fefefe"/>
    <path id="Path_7869" data-name="Path 7869" d="M6551.1,3172.439a19.692,19.692,0,0,1,.125-4.943,2.487,2.487,0,1,1,1.1.156,19.651,19.651,0,0,1-1.229,4.788Z" transform="translate(-6026.124 -2909.32)" fill="#fefefe"/>
    <path id="Path_7870" data-name="Path 7870" d="M6996.794,3674.139a21.972,21.972,0,0,1,1.354-9.729,19.283,19.283,0,0,1-.126,4.942,19.53,19.53,0,0,1-1.228,4.787Z" transform="translate(-6436.107 -3370.823)" fill="#fefefe"/>
    <path id="Path_7871" data-name="Path 7871" d="M6099.682,3266.819a19.482,19.482,0,0,1,.126-4.942,2.487,2.487,0,1,1,1.1.154A19.536,19.536,0,0,1,6099.682,3266.819Z" transform="translate(-5610.87 -2996.138)" fill="#fefefe"/>
    <path id="Path_7872" data-name="Path 7872" d="M6579.016,3855.169a19.626,19.626,0,0,1-4.94-.126,2.487,2.487,0,1,1,.154-1.1,19.541,19.541,0,0,1,4.786,1.229Z" transform="translate(-6042.953 -3544.953)" fill="#fefefe"/>
    <path id="Path_7873" data-name="Path 7873" d="M7084.81,3375.511a19.621,19.621,0,0,1-4.941-.127,19.4,19.4,0,0,1-4.788-1.228,21.952,21.952,0,0,1,9.729,1.355Z" transform="translate(-6508.218 -3103.725)" fill="#fefefe"/>
    <path id="Path_7874" data-name="Path 7874" d="M6182.287,4419.178a19.569,19.569,0,0,1-4.941-.127,19.212,19.212,0,0,1-4.786-1.227,21.913,21.913,0,0,1,9.728,1.354Z" transform="translate(-5678.008 -4063.773)" fill="#fefefe"/>
    <path id="Path_7875" data-name="Path 7875" d="M7123.168,4003.746a19.636,19.636,0,0,1-4.939-.126,2.486,2.486,0,1,1,4.939.126Z" transform="translate(-6543.505 -3681.625)" fill="#fefefe"/>
    <path id="Path_7876" data-name="Path 7876" d="M6440.971,4180.461a19.6,19.6,0,0,1,3.583-3.4,2.488,2.488,0,1,1,.671.888A19.58,19.58,0,0,1,6440.971,4180.461Z" transform="translate(-5924.915 -3840.081)" fill="#fefefe"/>
    <path id="Path_7877" data-name="Path 7877" d="M7075.081,4301.631a19.609,19.609,0,0,1,3.584-3.4,2.487,2.487,0,1,1-3.584,3.4Z" transform="translate(-6508.218 -3951.543)" fill="#fefefe"/>
    <path id="Path_7878" data-name="Path 7878" d="M7243.01,3708.381a19.64,19.64,0,0,1,3.583-3.4,2.488,2.488,0,1,1-3.583,3.406Z" transform="translate(-6662.693 -3405.825)" fill="#fefefe"/>
    <path id="Path_7879" data-name="Path 7879" d="M6241.721,3495.132a21.971,21.971,0,1,1,4.253-2.517A19.524,19.524,0,0,1,6241.721,3495.132Z" transform="translate(-5741.628 -3209.661)" fill="#fefefe"/>
    <path id="Path_7880" data-name="Path 7880" d="M6890.161,3086.812a21.948,21.948,0,1,1,4.253-2.516,19.506,19.506,0,0,1-4.253,2.516Z" transform="translate(-6338.114 -2834.055)" fill="#fefefe"/>
    <path id="Path_7881" data-name="Path 7881" d="M6078.569,4051.471a19.344,19.344,0,0,1-3.529,3.362v-1.357A17.356,17.356,0,0,1,6078.569,4051.471Z" transform="translate(-5588.302 -3726.872)" fill="#fefefe"/>
    <path id="Path_7882" data-name="Path 7882" d="M6559.831,2825.281a19.627,19.627,0,0,1,3.583-3.405,19.384,19.384,0,0,1,4.255-2.516,19.263,19.263,0,0,1-3.583,3.4A19.517,19.517,0,0,1,6559.831,2825.281Z" transform="translate(-6034.25 -2593.479)" fill="#fefefe"/>
    <path id="Path_7883" data-name="Path 7883" d="M6006.811,3647.83a19.61,19.61,0,0,1,3.405,3.583,2.487,2.487,0,1,1-.888.67A19.608,19.608,0,0,1,6006.811,3647.83Z" transform="translate(-5525.539 -3355.572)" fill="#fefefe"/>
    <path id="Path_7884" data-name="Path 7884" d="M6237.15,3012.89a19.536,19.536,0,0,1,3.4,3.583,2.487,2.487,0,1,1-.888.671A19.605,19.605,0,0,1,6237.15,3012.89Z" transform="translate(-5737.423 -2771.504)" fill="#fefefe"/>
    <path id="Path_7885" data-name="Path 7885" d="M6818.75,4039.51a19.625,19.625,0,0,1,3.4,3.584,2.487,2.487,0,1,1-.887.671,19.56,19.56,0,0,1-2.517-4.255Z" transform="translate(-6272.426 -3715.869)" fill="#fefefe"/>
    <path id="Path_7886" data-name="Path 7886" d="M7422.5,4442.74a19.546,19.546,0,0,1,3.4,3.584,2.487,2.487,0,1,1-.889.669A19.54,19.54,0,0,1,7422.5,4442.74Z" transform="translate(-6827.803 -4086.793)" fill="#fefefe"/>
    <path id="Path_7887" data-name="Path 7887" d="M6807.53,2713.11a19.574,19.574,0,0,1,3.405,3.583,2.487,2.487,0,1,1-.889.671A19.6,19.6,0,0,1,6807.53,2713.11Z" transform="translate(-6262.104 -2495.742)" fill="#fefefe"/>
    <path id="Path_7888" data-name="Path 7888" d="M6699.33,3495.55a21.974,21.974,0,0,1,5.923,7.836,19.3,19.3,0,0,1-3.406-3.583A19.572,19.572,0,0,1,6699.33,3495.55Z" transform="translate(-6162.573 -3215.492)" fill="#fefefe"/>
    <path id="Path_7889" data-name="Path 7889" d="M6365.889,2191.427c-.746,1.984-12.234,14-21.528,12.344-3.027-.543-.8-17.193-.8-17.193l-.117-1.267-1.617-17.731,21.928-10.36,3.149-1.34s.123,4.882.213,10.96c.006.281.01.563.014.865.014.344.032.668.029.99.026.908.048,1.835.051,2.759.005.7.013,1.386-.009,2.125,0,.742-.021,1.461-.024,2.2a114.664,114.664,0,0,1-1.292,15.645Z" transform="translate(-5833.716 -1983.158)" fill="#c5665d"/>
    <path id="Path_7890" data-name="Path 7890" d="M6367.11,2166.85a35.718,35.718,0,0,1-23.673,18.471l-1.617-17.731,21.927-10.36,3.149-1.339S6367.02,2160.772,6367.11,2166.85Z" transform="translate(-5833.708 -1983.167)" fill="#29383e"/>
    <path id="Path_7891" data-name="Path 7891" d="M6057.758,1556.324c-2.481,31.15,15.9,36.153,22.616,36.679,6.1.479,26.923,1.333,32.607-29.4s-8.016-41.728-21.9-43.56-30.842,5.125-33.32,36.276Z" transform="translate(-5572.195 -1398.02)" fill="#c5665d"/>
    <path id="Path_7892" data-name="Path 7892" d="M6110.695,1854.5a20.376,20.376,0,0,0,2.116-.424,3.483,3.483,0,0,0,2.074-.846,1.11,1.11,0,0,0,.012-1.357,2.758,2.758,0,0,0-2.711-.67,4.039,4.039,0,0,0-2.555,1.408A1.184,1.184,0,0,0,6110.695,1854.5Z" transform="translate(-5619.879 -1702.821)" fill="#29383e"/>
    <path id="Path_7893" data-name="Path 7893" d="M6334.308,1859.53a20.361,20.361,0,0,1-2.109-.466,3.5,3.5,0,0,1-2.059-.884,1.111,1.111,0,0,1,.015-1.357,2.756,2.756,0,0,1,2.723-.62,4.054,4.054,0,0,1,2.528,1.457,1.186,1.186,0,0,1-1.1,1.868Z" transform="translate(-5822.757 -1707.403)" fill="#29383e"/>
    <path id="Path_7894" data-name="Path 7894" d="M6321.522,1996.86l.156.192c-.137,2.125.063,4.581,1.964,5.351l-.021.117C6321.285,2002.112,6321.051,1998.85,6321.522,1996.86Z" transform="translate(-5814.852 -1836.879)" fill="#29383e"/>
    <path id="Path_7895" data-name="Path 7895" d="M6324.249,1969.883c3.429-.148,3.472,6.722.295,6.858C6321.417,1976.874,6321.375,1970,6324.249,1969.883Z" transform="translate(-5815.608 -1812.061)" fill="#29383e"/>
    <path id="Path_7896" data-name="Path 7896" d="M6360.662,1971.975c.6.385,1.2,1.068,1.92,1.134.836.078,1.463-.644,2.006-1.339l.118.078c.028,1.316-.471,2.671-1.879,2.875-1.288.188-2.218-.974-2.555-2.294-.062-.245.146-.608.389-.454Z" transform="translate(-5850.671 -1813.799)" fill="#29383e"/>
    <path id="Path_7897" data-name="Path 7897" d="M6150.865,1990.99l-.16.191c.1,2.125-.148,4.577-2.065,5.311l.02.118C6151,1996.246,6151.3,1992.988,6150.865,1990.99Z" transform="translate(-5656.005 -1831.479)" fill="#29383e"/>
    <path id="Path_7898" data-name="Path 7898" d="M6121.413,1963.535c-3.426-.212-3.6,6.656-.425,6.851C6124.112,1970.579,6124.284,1963.713,6121.413,1963.535Z" transform="translate(-5628.482 -1806.22)" fill="#29383e"/>
    <path id="Path_7899" data-name="Path 7899" d="M6092.727,1963.886c-.551.351-1.105,1-1.754,1.025-.752.031-1.289-.725-1.751-1.45l-.109.073c-.069,1.312.332,2.689,1.586,2.973,1.144.258,2.016-.848,2.362-2.147C6093.125,1964.119,6092.948,1963.746,6092.727,1963.886Z" transform="translate(-5601.24 -1806.155)" fill="#29383e"/>
    <path id="Path_7900" data-name="Path 7900" d="M6278.432,2206.53c-.483.523-.956,1.235-1.723,1.339a5.611,5.611,0,0,1-2.312-.417l-.086.114a2.867,2.867,0,0,0,2.756,1.015,2.267,2.267,0,0,0,1.575-1.965C6278.667,2206.49,6278.5,2206.453,6278.432,2206.53Z" transform="translate(-5771.606 -2029.713)" fill="#29383e"/>
    <path id="Path_7901" data-name="Path 7901" d="M6174.254,1872.463s-.457,3.175-.466,4.674c0,.14.362.209.871.242l.059,0a7.126,7.126,0,0,0,6.936-2.623c.1-.146-.084-.3-.222-.209a10.742,10.742,0,0,1-6.519,1.829c-.1-.417.963-5.412.726-5.431a13.062,13.062,0,0,0-3.407.751c.758-6.642,2.576-13.108,3.234-19.733a.2.2,0,0,0-.391-.1c-2.386,6.643-3.428,14.267-4.389,21.107-.128.852,2.964-.257,3.565-.509Z" transform="translate(-5676.281 -1703.387)" fill="#29383e"/>
    <path id="Path_7902" data-name="Path 7902" d="M6224.3,2138.846a8.718,8.718,0,0,0,3.458,2.749,3.92,3.92,0,0,0,2.382.177c1.729-.432,1.791-2.013,1.491-3.371a9.386,9.386,0,0,0-.748-2.081,11.281,11.281,0,0,1-6.582,2.526Z" transform="translate(-5725.603 -1965.165)" fill="#29383e"/>
    <path id="Path_7903" data-name="Path 7903" d="M6267.45,2165.484a3.925,3.925,0,0,0,2.382.177c1.729-.432,1.791-2.013,1.49-3.371C6269.474,2162.458,6267.629,2163.69,6267.45,2165.484Z" transform="translate(-5765.296 -1989.054)" fill="#f29284"/>
    <path id="Path_7904" data-name="Path 7904" d="M6128.695,1545.14a12.816,12.816,0,0,1-7.125-10.466,33.447,33.447,0,0,1-13.576-11.03c.207.641,1.69,5.274,2.519,7.613-19.7-3.776-25.74-18.9-25.74-18.9-6.425,6.354-7.72,10.432-8.655,12.465,0,0-.09-12.1,6.17-20.175,7.659-9.885,33.381-12.448,45.223.546C6140.258,1519.21,6128.695,1545.14,6128.695,1545.14Z" transform="translate(-5589.293 -1376.449)" fill="#29383e"/>
    <path id="Path_7905" data-name="Path 7905" d="M6187.031,1675.559a36.369,36.369,0,0,0,10.1,3.762l.008-.045a30.927,30.927,0,0,1-14.438-8.819,29.378,29.378,0,0,1-4.229-5.968,20.27,20.27,0,0,1-2.585-7.531.152.152,0,0,0-.3.026,23.705,23.705,0,0,0,1.528,7.779,21.671,21.671,0,0,0,4.352,6.549,24.9,24.9,0,0,0,5.568,4.248Z" transform="translate(-5680.789 -1524.086)" fill="#29383e"/>
    <path id="Path_7906" data-name="Path 7906" d="M6666.264,2002.457s6.751-9.8,11.194-7.4-.583,16.576-5.768,18.547a5.284,5.284,0,0,1-7.1-2.79l1.673-8.354Z" transform="translate(-6130.617 -1834.87)" fill="#c5665d"/>
    <path id="Path_7907" data-name="Path 7907" d="M6708.716,2049.67l.029.138c-3.633,1.5-5.526,4.895-6.846,8.406,1.075-1.355,2.544-2.105,4.359-.828.1.066.006.215-.1.2a3.249,3.249,0,0,0-3.568,1.159,15.673,15.673,0,0,0-1.693,2.906c-.168.328-.758.157-.637-.219l.031-.084c-.126-4.645,3.438-11.171,8.422-11.674Z" transform="translate(-6163.417 -1885.458)" fill="#29383e"/>
    <path id="Path_7908" data-name="Path 7908" d="M6699.061,2195.908a2.278,2.278,0,1,0,2.278-2.277A2.278,2.278,0,0,0,6699.061,2195.908Z" transform="translate(-6162.325 -2017.884)" fill="#fefefe"/>
    <path id="Path_7909" data-name="Path 7909" d="M6216.778,2520.68s-6.378,18.1,5.149,19.382,41.627-20.973,41.627-20.973-8.359-13.525-21.7-12.08c-11.071,1.2-25.078,13.671-25.078,13.671Z" transform="translate(-5717.065 -2306.054)" fill="#c5665d"/>
    <path id="Path_7910" data-name="Path 7910" d="M5354.263,2758.4c-.022,22.363-12.849,89.4-25.187,98.431-24.689,18.07-82.58,16.825-98.547,17.1-6.891.12-15.943-45.767-10.808-51.052s75.665-7.232,79.274-9.938c2.511-1.882,22.417-34.515,33.943-55.5,15.579-28.361,21.334-10.306,21.325.954Z" transform="translate(-4800.123 -2522.582)" fill="#c5665d"/>
    <path id="Path_7911" data-name="Path 7911" d="M4245.833,3679.116s-20.838-2.305-34.537-3.17c-7.642-.484-20.818-.143-26.595,2.069-8.64,3.31-42.665,22.671-38.148,31.021,4.088,7.56,14.483-.8,14.483-.8s-12.219,8.072-5.859,14.323c6.417,6.308,18.9-5.9,18.9-5.9s-13.566,7.669-6.142,13.7c6.446,5.23,22.345-7.269,22.345-7.269s-15.125,6.489-9.046,12.493c6.716,6.635,32.91-9.111,32.91-9.111,17.046,5.679,28.05,6.785,41.09,5.961,2.394-.151-9.4-53.309-9.4-53.309Z" transform="translate(-3813.95 -3381.258)" fill="#c5665d"/>
    <path id="Path_7912" data-name="Path 7912" d="M4418.277,4035.856c1.021-.917,2.065-1.807,3.088-2.722a67.537,67.537,0,0,1,6.191-5.078c2.134-1.5,4.326-2.889,6.566-4.222,2.366-1.409,4.887-2.582,7.214-4.044a.154.154,0,1,1,.156.263,71.314,71.314,0,0,0-6.689,4.659c-2.154,1.566-4.288,3.163-6.422,4.76-2.085,1.563-4.261,2.969-6.39,4.469-1.059.748-2.088,1.543-3.115,2.336a21.843,21.843,0,0,1-2.978,2.2c-.106.057-.2-.088-.137-.175a16.952,16.952,0,0,1,2.515-2.449Z" transform="translate(-4061.948 -3697.702)" fill="#29383e"/>
    <path id="Path_7913" data-name="Path 7913" d="M4300.137,3905.15c1.415-1.838,9.192-8.181,11.278-9.685a74.706,74.706,0,0,1,12.86-7.512.155.155,0,0,1,.155.263c-4.019,2.932-8.089,5.811-12.151,8.69-1.986,1.408-10.811,8.073-11.822,8.655-.242.14-.472-.213-.319-.412Z" transform="translate(-3955.561 -3576.443)" fill="#29383e"/>
    <path id="Path_7914" data-name="Path 7914" d="M4581.842,4159.715c1.436-1.687,8.777-7.569,10.769-8.914a95.753,95.753,0,0,1,12.814-6.353c.165-.053.3.173.156.263-4.092,2.435-8.214,4.79-12.189,7.419-1.935,1.28-9.357,6.829-11.312,7.892-.177.1-.362-.159-.238-.306Z" transform="translate(-4214.703 -3812.394)" fill="#29383e"/>
    <path id="Path_7915" data-name="Path 7915" d="M5347.05,2859.629l-19.04-60.506s69.29-4.428,71.538-5.589,26.944-44.792,36.709-61.755,24.9-9.981,19.254,28.308c-5.677,38.519-11.906,68.451-20.539,77.354C5424.5,2848.241,5386.193,2859.371,5347.05,2859.629Z" transform="translate(-4901.125 -2504.902)" fill="#009846"/>
    <path id="Path_7916" data-name="Path 7916" d="M6288.937,3836.288a19.607,19.607,0,0,1,.125-4.94,2.487,2.487,0,1,1-.125,4.94Z" transform="translate(-5784.963 -3519.982)" fill="#fefefe"/>
    <path id="Path_7917" data-name="Path 7917" d="M5811.111,4268.479a19.652,19.652,0,0,1,.125-4.94,2.487,2.487,0,1,1-.125,4.941Z" transform="translate(-5345.421 -3917.544)" fill="#fefefe"/>
    <path id="Path_7918" data-name="Path 7918" d="M6551.1,3172.439a19.692,19.692,0,0,1,.125-4.943,2.487,2.487,0,1,1,1.1.156,19.651,19.651,0,0,1-1.229,4.788Z" transform="translate(-6026.124 -2909.32)" fill="#fefefe"/>
    <path id="Path_7919" data-name="Path 7919" d="M6579.016,3855.169a19.626,19.626,0,0,1-4.94-.126,2.487,2.487,0,1,1,.154-1.1,19.541,19.541,0,0,1,4.786,1.229Z" transform="translate(-6042.953 -3544.953)" fill="#fefefe"/>
    <path id="Path_7920" data-name="Path 7920" d="M5748.719,3878.94a19.618,19.618,0,0,1-4.94-.127,2.487,2.487,0,1,1,.152-1.1A19.529,19.529,0,0,1,5748.719,3878.94Z" transform="translate(-5279.177 -3566.819)" fill="#fefefe"/>
    <path id="Path_7921" data-name="Path 7921" d="M6440.971,4180.461a19.6,19.6,0,0,1,3.583-3.4,2.488,2.488,0,1,1,.671.888A19.58,19.58,0,0,1,6440.971,4180.461Z" transform="translate(-5924.915 -3840.081)" fill="#fefefe"/>
    <path id="Path_7922" data-name="Path 7922" d="M5444.411,3731.051a19.667,19.667,0,0,1,3.583-3.4,2.487,2.487,0,1,1-3.583,3.4Z" transform="translate(-5008.199 -3426.678)" fill="#fefefe"/>
    <path id="Path_7923" data-name="Path 7923" d="M6261.532,3489.19a19.242,19.242,0,0,1-3.585,3.407,22.731,22.731,0,0,1-3.207,2.038c.345-.535.723-1.124,1.114-1.76l.011-.01c.456-.4.936-.79,1.414-1.158a19.494,19.494,0,0,1,4.254-2.517Z" transform="translate(-5753.604 -3209.642)" fill="#fefefe"/>
    <path id="Path_7924" data-name="Path 7924" d="M6893.126,3117.99c-.033.468-.089.937-.145,1.414a15.94,15.94,0,0,1-2.861,1.537A18.827,18.827,0,0,1,6893.126,3117.99Z" transform="translate(-6338.078 -2868.183)" fill="#fefefe"/>
    <path id="Path_7925" data-name="Path 7925" d="M6021.3,4057.392a21.952,21.952,0,0,1,7.836-5.921,19.34,19.34,0,0,1-3.582,3.4A19.632,19.632,0,0,1,6021.3,4057.392Z" transform="translate(-5538.868 -3726.872)" fill="#fefefe"/>
    <path id="Path_7926" data-name="Path 7926" d="M6006.811,3647.83a19.61,19.61,0,0,1,3.405,3.583,2.487,2.487,0,1,1-.888.67A19.608,19.608,0,0,1,6006.811,3647.83Z" transform="translate(-5525.539 -3355.572)" fill="#fefefe"/>
    <path id="Path_7927" data-name="Path 7927" d="M6817.566,2730.067a19.377,19.377,0,0,1-3.4-3.574,20.556,20.556,0,0,1-2.16-3.463,5.839,5.839,0,0,1,.613.033,22.8,22.8,0,0,1,2.427,2.75A19.4,19.4,0,0,1,6817.566,2730.067Z" transform="translate(-6266.225 -2504.868)" fill="#fefefe"/>
    <path id="Path_7928" data-name="Path 7928" d="M6699.33,3495.55a21.974,21.974,0,0,1,5.923,7.836,19.3,19.3,0,0,1-3.406-3.583A19.572,19.572,0,0,1,6699.33,3495.55Z" transform="translate(-6162.573 -3215.492)" fill="#fefefe"/>
    <path id="Path_7929" data-name="Path 7929" d="M6010.478,3150.429c-2.257,3.383-4.345,6.872-6.435,10.359l-.174.292c.1-.264.208-.528.313-.792.68-1.731,1.277-3.5,2.016-5.208.044-.1-.106-.187-.151-.084-.751,1.682-1.587,3.317-2.3,5.016q-.717,1.714-1.32,3.475c-1.551,2.583-3.1,5.168-4.623,7.769-2.05,3.5-4.088,7.017-6.152,10.514-.505.855-1,1.715-1.515,2.566a3.394,3.394,0,0,1-1.8,1.665,14.282,14.282,0,0,1-2.84.375c-1.014.105-2.027.23-3.038.353-4.612.559-9.191,1.321-13.794,1.924-.108.013-.109.183,0,.174,4.237-.317,8.48-.479,12.715-.823,2.085-.171,4.182-.315,6.258-.581a4.168,4.168,0,0,0,2.177-.779,6.339,6.339,0,0,0,1.392-1.835q6.294-10.893,12.578-21.791c2.37-4.119,4.776-8.22,6.958-12.442A.152.152,0,0,0,6010.478,3150.429Z" transform="translate(-5490.372 -2897.957)" fill="#29383e"/>
    <path id="Path_7930" data-name="Path 7930" d="M6139.041,3280.686a23.765,23.765,0,0,1-.988,4.092c-.331,1.19-.654,2.384-1.016,3.565-.414,1.34-.872,2.663-1.334,3.982q1.4-8.838,2.229-17.768c.015-.179-.292-.214-.317-.034-1.114,8.313-2.648,16.6-4.388,24.8s-3.87,16.38-6.262,24.43c-1.177,3.963-2.42,7.917-3.81,11.811a32.333,32.333,0,0,1-4.855,9.5c-2.434,3.027-5.751,4.932-9.231,6.534a106.146,106.146,0,0,1-11.337,4.443c-8.768,2.869-17.833,4.694-26.791,6.851l.028.171a202.353,202.353,0,0,0,24.424-4.944,100.882,100.882,0,0,0,11.978-4c3.577-1.493,7.262-3.112,10.146-5.763a25.473,25.473,0,0,0,5.967-9.214c1.5-3.645,2.683-7.432,3.852-11.192,2.555-8.216,4.7-16.507,6.444-24.932q.757-3.662,1.389-7.341a47.013,47.013,0,0,0,2.425-7.191c.339-1.277.665-2.564.915-3.863s.34-2.656.7-3.914c.034-.118-.16-.152-.171-.02Z" transform="translate(-5584.53 -3012.065)" fill="#29383e"/>
    <path id="Path_7931" data-name="Path 7931" d="M5528.073,3760.263c-3.142-8.694-6.458-17.317-9.214-26.145a261.207,261.207,0,0,1-7.163-26.493.156.156,0,0,1,.294-.087c3.26,8.534,5.909,17.337,8.651,26.05,2.763,8.783,5.162,17.671,7.938,26.447.105.334-.383.564-.507.226Z" transform="translate(-5070.091 -3410.415)" fill="#29383e"/>
    <path id="Path_7932" data-name="Path 7932" d="M5337.324,3653.969a49.375,49.375,0,0,0-4.979.014c-1.657.042-3.316.108-4.973.18-3.315.141-6.626.388-9.932.671a.423.423,0,0,0-.39.539,14.265,14.265,0,0,0,1.695,3.46l.16-.048a11.655,11.655,0,0,0-.865-3.154c3.163-.209,6.329-.4,9.491-.644,1.655-.126,3.313-.234,4.969-.363,1.611-.126,3.261-.177,4.858-.434.135-.021.08-.211-.034-.22Z" transform="translate(-4891.02 -3361.162)" fill="#29383e"/>
    <path id="Path_7933" data-name="Path 7933" d="M4636.91,3492.84c4.131,2.046,23,2.828,28.512,9.593,3.663,4.5,3.3,9.05,5.435,22.5,1.851,11.663-7.822,8.885-10.595,2.917-4.364-9.388-8.118-19.679-8.118-19.679a74.216,74.216,0,0,0-9.66.147l-5.574-15.474Z" transform="translate(-4265.397 -3213)" fill="#f4a5a2"/>
    <path id="Path_7934" data-name="Path 7934" d="M4782.922,4038.514c6.534-4.142,27.442,22.239,16.994,29.229S4775.523,4043.205,4782.922,4038.514Z" transform="translate(-4397.799 -3714.55)" fill="#f4a5a2"/>
    <path id="Path_7935" data-name="Path 7935" d="M4650.7,4108.654c6.533-4.142,27.442,22.239,16.995,29.231S4643.305,4113.347,4650.7,4108.654Z" transform="translate(-4276.174 -3779.071)" fill="#f4a5a2"/>
    <path id="Path_7936" data-name="Path 7936" d="M4548.649,4124.2c6.513-2.856,21.84,24.035,11.373,28.933S4541.27,4127.434,4548.649,4124.2Z" transform="translate(-4181.615 -3793.579)" fill="#f4a5a2"/>
    <path id="Path_7937" data-name="Path 7937" d="M4417.687,4117.2c6.852-.815,13.5,28.465,2.406,30.064S4409.925,4118.122,4417.687,4117.2Z" transform="translate(-4058.328 -3787.319)" fill="#f4a5a2"/>
    <path id="Path_7938" data-name="Path 7938" d="M4785.594,4157.049a32.358,32.358,0,0,1,3.249,4.246c1.086,1.568,2.154,3.158,3.083,4.825a45.905,45.905,0,0,1,2.452,4.921c.734,1.8,1.253,3.708,2.04,5.477a.154.154,0,1,1-.284.116,39.643,39.643,0,0,0-2.659-4.994c-.917-1.612-1.756-3.271-2.658-4.892-.877-1.581-1.714-3.185-2.617-4.752-.925-1.6-1.983-3.138-2.813-4.792a.131.131,0,0,1,.208-.155Z" transform="translate(-4401.963 -3823.954)" fill="#29383e"/>
    <path id="Path_7939" data-name="Path 7939" d="M4648.65,4154.373c.679,1.983,2.918,9.554,3.679,11.512s1.589,3.928,2.446,5.861c.871,1.962,1.637,4.044,2.682,5.919a.154.154,0,0,1-.269.152c-1.052-1.892-2.269-3.661-3.23-5.609-.95-1.923-1.794-3.882-2.56-5.886a101.146,101.146,0,0,1-3.066-11.91c-.025-.191.263-.2.317-.04Z" transform="translate(-4275.903 -3821.424)" fill="#29383e"/>
    <path id="Path_7940" data-name="Path 7940" d="M4545.639,4177.627c.52,2.827.864,5.687,1.4,8.514.263,1.4.536,2.788.791,4.184.124.675.234,1.354.355,2.03a12.2,12.2,0,0,0,.436,2.314c.077.187-.272.28-.3.038a16.9,16.9,0,0,0-.792-2.482c-.2-.654-.386-1.312-.554-1.978-.346-1.379-.617-2.764-.84-4.167a55.89,55.89,0,0,1-.868-8.4c0-.213.338-.269.378-.051Z" transform="translate(-4181.09 -3842.792)" fill="#29383e"/>
    <path id="Path_7941" data-name="Path 7941" d="M4883.316,1318.428a25.067,25.067,0,0,0,4.288-13.848c0-17.544-19.267-31.769-43.017-31.769s-43,14.225-43,31.769,19.246,31.768,43,31.768c11.517,0,21.957-3.336,29.67-8.789l14.818,3.768-5.759-12.9Z" transform="translate(-4416.882 -1170.84)" fill="#fcc32a"/>
    <path id="Path_7942" data-name="Path 7942" d="M5042.791,1618.1a4.46,4.46,0,1,1-4.46-4.459A4.46,4.46,0,0,1,5042.791,1618.1Z" transform="translate(-4630.551 -1484.363)" fill="#29383e"/>
    <path id="Path_7943" data-name="Path 7943" d="M5291.562,1618.1a4.461,4.461,0,1,1-4.46-4.459A4.46,4.46,0,0,1,5291.562,1618.1Z" transform="translate(-4859.39 -1484.363)" fill="#29383e"/>
    <path id="Path_7944" data-name="Path 7944" d="M5540.33,1618.1a4.46,4.46,0,1,1-4.459-4.459A4.46,4.46,0,0,1,5540.33,1618.1Z" transform="translate(-5088.228 -1484.363)" fill="#29383e"/>
    <path id="Path_7945" data-name="Path 7945" d="M3155.566,247.77c-2.479,20.771-15.836,24.559-18.084,30.1a96.606,96.606,0,0,0-2.8,10.618l-21.708-.051a93.475,93.475,0,0,0-2.752-10.631c-2.209-5.547-15.561-9.4-17.929-30.18-1.564-13.656,8.75-35.187,31.721-35.132s33.17,21.633,31.555,35.281Z" transform="translate(-2844.391 -195.473)" fill="#fcc32a"/>
    <path id="Path_7946" data-name="Path 7946" d="M3341.23,780.527l-6.36-34.546,1.1-.2,6.36,34.546Z" transform="translate(-3067.677 -686.037)" fill="#fefefe"/>
    <path id="Path_7947" data-name="Path 7947" d="M3548.554,781.153l-1.094-.208,6.522-34.515,1.095.207Z" transform="translate(-3263.234 -686.634)" fill="#fefefe"/>
    <path id="Path_7948" data-name="Path 7948" d="M3351.658,719.367a1.1,1.1,0,0,0-1.02.6c-.772,1.331-.272,4.586,1.051,7.417.083-.125.166-.257.246-.4,1.185-2.042,1.9-5.368,1.033-6.878a1.4,1.4,0,0,0-1.306-.745h0Zm9.441.023a1.441,1.441,0,0,0-1.274.823c-.92,1.583-.644,4.855.589,7a5.943,5.943,0,0,0,.551.8c1.36-2.918,1.872-6.587,1.025-8.062a.986.986,0,0,0-.888-.566Zm-4.486,13.192h-.008c-1.7,0-3.416-1.36-4.827-3.817-.064-.111-.128-.226-.189-.34a2.616,2.616,0,0,1-1.861,1.017h0c-3.255-.007-4.541-6.714-4.595-7l.548-.1c.012.066,1.252,6.538,4.049,6.545h0a2.268,2.268,0,0,0,1.588-1c-1.375-2.824-2.135-6.522-1.16-8.2a1.663,1.663,0,0,1,1.5-.879h.006a1.966,1.966,0,0,1,1.788,1.025c.975,1.7.253,5.215-1.036,7.434a7.974,7.974,0,0,1-.446.686c.094.18.191.359.291.532.757,1.321,2.329,3.534,4.346,3.538h.007c1.343,0,2.7-1.057,3.814-2.978.092-.158.182-.32.268-.485a6.334,6.334,0,0,1-.764-1.07c-1.341-2.335-1.61-5.8-.586-7.558a1.985,1.985,0,0,1,1.755-1.1h0a1.539,1.539,0,0,1,1.369.846c.958,1.67.421,5.647-1.1,8.776a3.135,3.135,0,0,0,2.174.908h0c1.986,0,3.75-4.737,4.262-6.565l.535.151c-.079.285-1.985,6.971-4.8,6.971h0a3.642,3.642,0,0,1-2.437-.949c-.065.122-.131.24-.2.357-.861,1.485-2.307,3.255-4.294,3.255Z" transform="translate(-3077.115 -661.227)" fill="#fefefe"/>
    <path id="Path_7949" data-name="Path 7949" d="M3347.235,1153.977l-26.785-.063.013-5.233,26.784.063Z" transform="translate(-3054.413 -1056.656)" fill="#3f5e69"/>
    <path id="Path_7950" data-name="Path 7950" d="M3347.064,1229.867l-26.784-.062.012-5.234,26.784.064Z" transform="translate(-3054.256 -1126.465)" fill="#3f5e69"/>
    <path id="Path_7951" data-name="Path 7951" d="M3346.884,1305.777l-26.784-.063.013-5.233,26.783.062Z" transform="translate(-3054.09 -1196.294)" fill="#3f5e69"/>
    <path id="Path_7952" data-name="Path 7952" d="M3495.183-.009a15.315,15.315,0,0,1,.485,4.317,15.087,15.087,0,0,1-.624,4.318,15.107,15.107,0,0,1-.489-4.336,15.32,15.32,0,0,1,.616-4.3h.011Z" transform="translate(-3214.568 0)" fill="#29383e"/>
    <path id="Path_7953" data-name="Path 7953" d="M3199.321,73.81a15.326,15.326,0,0,1,2.592,3.511,15.128,15.128,0,0,1,1.619,4.051,15.076,15.076,0,0,1-2.591-3.51A15.261,15.261,0,0,1,3199.321,73.81Z" transform="translate(-2942.988 -67.905)" fill="#29383e"/>
    <path id="Path_7954" data-name="Path 7954" d="M2973.93,289.45a15.326,15.326,0,0,1,4,1.744,15.078,15.078,0,0,1,3.428,2.7,15.145,15.145,0,0,1-4-1.743,15.309,15.309,0,0,1-3.428-2.7Z" transform="translate(-2735.656 -266.268)" fill="#29383e"/>
    <path id="Path_7955" data-name="Path 7955" d="M2886.58,583.268a15.273,15.273,0,0,1,4.334-.49,15.081,15.081,0,0,1,4.318.623,17.121,17.121,0,0,1-8.652-.134Z" transform="translate(-2655.305 -536.095)" fill="#29383e"/>
    <path id="Path_7956" data-name="Path 7956" d="M2960.611,843.542a15.3,15.3,0,0,1,3.509-2.592,15.144,15.144,0,0,1,4.052-1.62,15.065,15.065,0,0,1-3.51,2.592,15.275,15.275,0,0,1-4.051,1.62Z" transform="translate(-2723.404 -772.091)" fill="#29383e"/>
    <path id="Path_7957" data-name="Path 7957" d="M3918.8,863.961a17.118,17.118,0,0,1-7.428-4.441,15.078,15.078,0,0,1,4,1.743A15.327,15.327,0,0,1,3918.8,863.961Z" transform="translate(-3597.988 -790.664)" fill="#29383e"/>
    <path id="Path_7958" data-name="Path 7958" d="M3992.094,608.37a15.285,15.285,0,0,1-4.336.489,15.113,15.113,0,0,1-4.318-.623,15.171,15.171,0,0,1,4.336-.49A15.336,15.336,0,0,1,3992.094,608.37Z" transform="translate(-3664.283 -559.062)" fill="#29383e"/>
    <path id="Path_7959" data-name="Path 7959" d="M3930.591,312.52a17.126,17.126,0,0,1-7.561,4.211,15.091,15.091,0,0,1,3.51-2.592A15.258,15.258,0,0,1,3930.591,312.52Z" transform="translate(-3608.713 -287.49)" fill="#29383e"/>
    <path id="Path_7960" data-name="Path 7960" d="M3750.754,87.131a15.361,15.361,0,0,1-1.745,4,15.113,15.113,0,0,1-2.7,3.427,17.1,17.1,0,0,1,4.444-7.427Z" transform="translate(-3446.152 -80.158)" fill="#29383e"/>
  </g>
</svg>
