<svg id="automation" xmlns="http://www.w3.org/2000/svg" xmlns:xlink="http://www.w3.org/1999/xlink" width="119.857" height="121.029" viewBox="0 0 119.857 121.029">
  <defs>
    <linearGradient id="linear-gradient" x1="0.5" x2="0.5" y2="1" gradientUnits="objectBoundingBox">
      <stop offset="0" stop-color="#ffce4a"/>
      <stop offset="1" stop-color="#ff9f6f"/>
    </linearGradient>
  </defs>
  <path id="Path_6925" data-name="Path 6925" d="M129.836,121a3.546,3.546,0,1,0,3.546,3.546A3.55,3.55,0,0,0,129.836,121Z" transform="translate(-97.023 -92.397)" fill="url(#linear-gradient)"/>
  <path id="Path_6926" data-name="Path 6926" d="M68.105,39.611l-7.8-6.068a24.4,24.4,0,0,0,0-2.789l7.8-6.068L58.163,7.463,49.01,11.179a25.031,25.031,0,0,0-2.416-1.4L45.235,0H25.35L23.991,9.782a25.356,25.356,0,0,0-2.418,1.4l-9.15-3.716L2.48,24.686l7.794,6.068a25.534,25.534,0,0,0,0,2.789L2.48,39.611l9.942,17.223,9.15-3.716a25.354,25.354,0,0,0,2.418,1.4L25.35,64.3H45.235l1.359-9.782a25.032,25.032,0,0,0,2.416-1.4l9.153,3.716ZM35.293,42.786A10.65,10.65,0,0,1,24.655,32.148c.585-14.112,20.692-14.107,21.275,0A10.65,10.65,0,0,1,35.293,42.786Z" transform="translate(-2.48 0)" fill="url(#linear-gradient)"/>
  <path id="Path_6927" data-name="Path 6927" d="M354.046,354.71a3.546,3.546,0,1,0,3.546,3.546A3.55,3.55,0,0,0,354.046,354.71Z" transform="translate(-268.233 -270.862)" fill="url(#linear-gradient)"/>
  <path id="Path_6928" data-name="Path 6928" d="M281.522,262.826c0-.506-.017-1.016-.047-1.527l8.094-6.3-10.243-17.738-9.5,3.858a25.69,25.69,0,0,0-2.65-1.532l-1.409-10.155H245.282l-1.409,10.155a25.689,25.689,0,0,0-2.65,1.532l-9.5-3.858L221.48,255l8.094,6.3a24.836,24.836,0,0,0,0,3.054l-8.094,6.3L231.723,288.4l9.5-3.858a26.142,26.142,0,0,0,2.65,1.532l1.409,10.155h20.485l1.409-10.155a26.138,26.138,0,0,0,2.65-1.532l9.5,3.858,10.243-17.741-8.094-6.3C281.505,263.845,281.522,263.335,281.522,262.826Zm-26,10.4a10.649,10.649,0,0,1-10.637-10.637c.585-14.112,20.692-14.107,21.275,0A10.649,10.649,0,0,1,255.524,273.227Z" transform="translate(-169.712 -175.196)" fill="url(#linear-gradient)"/>
  <path id="Path_6929" data-name="Path 6929" d="M61.425,346.4l3.095,3.115H61.125a10.671,10.671,0,0,1-10.659-10.659V328H43.375v10.852a17.77,17.77,0,0,0,17.75,17.75H64.52l-3.095,3.115,5.031,5L78.04,353.057,66.456,341.4Z" transform="translate(-33.708 -250.466)" fill="url(#linear-gradient)"/>
  <path id="Path_6930" data-name="Path 6930" d="M342.595,47l-3.1-3.115h3.395a10.671,10.671,0,0,1,10.659,10.659V65.393h7.092V54.541a17.77,17.77,0,0,0-17.75-17.75H339.5l3.1-3.115-5.031-5L325.98,40.336,337.564,52Z" transform="translate(-249.509 -21.898)" fill="url(#linear-gradient)"/>
</svg>
