<?xml version="1.0" encoding="UTF-8"?>
<!DOCTYPE svg PUBLIC "-//W3C//DTD SVG 1.1//EN" "http://www.w3.org/Graphics/SVG/1.1/DTD/svg11.dtd">
<!-- Creator: CorelDRAW 2019 (64-Bit) -->
<svg xmlns="http://www.w3.org/2000/svg" xml:space="preserve" width="0.0600472in" height="0.0533386in" version="1.1" shape-rendering="geometricPrecision" text-rendering="geometricPrecision" image-rendering="optimizeQuality" fill-rule="evenodd" clip-rule="evenodd"
viewBox="0 0 0.36 0.32"
 xmlns:xlink="http://www.w3.org/1999/xlink"
 xmlns:xodm="http://www.corel.com/coreldraw/odm/2003">
 <defs>
    <linearGradient id="id0" gradientUnits="userSpaceOnUse" x1="-0.01" y1="0.27" x2="0.24" y2="0.25">
     <stop offset="0" stop-opacity="1" stop-color="#83C17B"/>
     <stop offset="0.509804" stop-opacity="1" stop-color="#5FB56A"/>
     <stop offset="1" stop-opacity="1" stop-color="#169179"/>
    </linearGradient>
    <linearGradient id="id1" gradientUnits="userSpaceOnUse" x1="0.09" y1="0.23" x2="0.21" y2="0.02">
     <stop offset="0" stop-opacity="1" stop-color="#83C17B"/>
     <stop offset="0.509804" stop-opacity="1" stop-color="#5FB56A"/>
     <stop offset="1" stop-opacity="1" stop-color="#169179"/>
    </linearGradient>
    <linearGradient id="id2" gradientUnits="userSpaceOnUse" x1="0.35" y1="0.32" x2="0.2" y2="0.13">
     <stop offset="0" stop-opacity="1" stop-color="#83C17B"/>
     <stop offset="0.509804" stop-opacity="1" stop-color="#5FB56A"/>
     <stop offset="1" stop-opacity="1" stop-color="#169179"/>
    </linearGradient>
 </defs>
 <g id="Layer_x0020_1">
  <metadata id="CorelCorpID_0Corel-Layer"/>
  <g id="_1606263623376">
   <path fill="url(#id0)" d="M0.07 0.29l0 0c0,0 0.02,-0.02 0.05,-0.03 0.04,-0 0.05,0.02 0.06,0.02l0 0c0.01,0.01 0.02,0.01 0.03,0.01 0.02,-0 0.04,-0.02 0.04,-0.04 -0,-0.02 -0.02,-0.04 -0.04,-0.04 -0.01,0 -0.02,0.01 -0.03,0.01l-0 0c-0,0 -0.02,0.02 -0.05,0.03 -0.04,0 -0.05,-0.02 -0.05,-0.02l-0 0c-0.01,-0.01 -0.02,-0.01 -0.03,-0.01 -0.02,0 -0.04,0.02 -0.04,0.04 0,0.02 0.02,0.04 0.04,0.04 0.01,-0 0.02,-0.01 0.03,-0.01z"/>
   <path fill="url(#id1)" d="M0.15 0.17l0 -0c0,0 -0.01,-0.03 0,-0.06 0.02,-0.03 0.04,-0.04 0.05,-0.04l0 -0c0.01,-0 0.02,-0.01 0.03,-0.02 0.01,-0.02 0,-0.04 -0.02,-0.05 -0.02,-0.01 -0.04,-0 -0.05,0.02 -0.01,0.01 -0.01,0.02 -0,0.03l-0 0c0,0 0.01,0.03 -0.01,0.06 -0.02,0.03 -0.05,0.03 -0.05,0.03l0 0c-0.01,0 -0.02,0.01 -0.03,0.02 -0.01,0.02 -0,0.04 0.02,0.06 0.02,0.01 0.04,0 0.06,-0.02 0.01,-0.01 0.01,-0.02 0,-0.03z"/>
   <path fill="url(#id2)" d="M0.32 0.24l0 -0c0,0 -0.03,0 -0.05,-0.03 -0.02,-0.03 -0.02,-0.05 -0.02,-0.06l-0 -0c0,-0.01 -0,-0.02 -0.01,-0.03 -0.01,-0.02 -0.04,-0.02 -0.06,-0.01 -0.02,0.01 -0.02,0.04 -0.01,0.06 0.01,0.01 0.02,0.01 0.03,0.02l0 0c0,0 0.03,0 0.05,0.03 0.02,0.03 0.01,0.06 0.01,0.06l0 0c-0,0.01 0,0.02 0.01,0.03 0.01,0.02 0.04,0.02 0.06,0.01 0.02,-0.01 0.02,-0.04 0.01,-0.06 -0.01,-0.01 -0.02,-0.01 -0.03,-0.02z"/>
  </g>
 </g>
</svg>
