<svg xmlns="http://www.w3.org/2000/svg" width="79.805" height="59.854" viewBox="0 0 79.805 59.854">
  <g id="envelope-regular_4_" data-name="envelope-regular (4)" transform="translate(0 -64)" fill="#68c766">
    <path d="M 72.32333374023438 123.1037673950195 L 7.481722831726074 123.1037673950195 C 3.769834041595459 123.1037673950195 0.7500008344650269 120.0839233398438 0.7500008344650269 116.3720321655273 L 0.7500008344650269 71.48172760009766 C 0.7500008344650269 67.76983642578125 3.769834041595459 64.75 7.481722831726074 64.75 L 72.32333374023438 64.75 C 76.03520965576172 64.75 79.05504608154297 67.76983642578125 79.05504608154297 71.48172760009766 L 79.05504608154297 116.3720321655273 C 79.05504608154297 120.0839233398438 76.03520965576172 123.1037673950195 72.32333374023438 123.1037673950195 Z M 6.731722831726074 85.88619995117188 L 6.731722831726074 87.44240570068359 L 6.731722831726074 116.3720321655273 L 6.731722831726074 117.1220321655273 L 7.481722831726074 117.1220321655273 L 72.32333374023438 117.1220321655273 L 73.07333374023438 117.1220321655273 L 73.07333374023438 116.3720321655273 L 73.07333374023438 87.44256591796875 L 73.07333374023438 85.88634490966797 L 71.85606384277344 86.85592651367188 C 68.11104583740234 89.8388671875 62.91472244262695 93.93132781982422 55.50293350219727 99.73512268066406 C 54.98902130126953 100.1396942138672 54.42616653442383 100.6079025268555 53.83024597167969 101.1035919189453 C 52.09418869018555 102.5476989746094 49.93358993530273 104.3449325561523 47.5532341003418 105.7472686767578 C 44.81990051269531 107.3575439453125 42.3374137878418 108.1403274536133 39.96391296386719 108.1403274536133 L 39.90657806396484 108.1401672363281 L 39.90253448486328 108.1401443481445 L 39.89849090576172 108.1401672363281 L 39.84171295166016 108.1403274536133 C 37.45977783203125 108.1403274536133 34.963134765625 107.3496704101562 32.20911026000977 105.7231674194336 C 29.81773376464844 104.3108444213867 27.67025566101074 102.5201721191406 25.94472312927246 101.0813369750977 C 25.356689453125 100.5910110473633 24.80126762390137 100.1278762817383 24.3022346496582 99.73504638671875 C 16.89030075073242 93.93108367919922 11.69442272186279 89.83896636962891 7.948989868164062 86.85574340820312 L 6.731722831726074 85.88619995117188 Z M 6.731722831726074 70.73172760009766 L 6.731722831726074 71.48172760009766 L 6.731722831726074 77.84194946289062 L 6.731722831726074 78.19841003417969 L 7.00812292098999 78.42350006103516 C 10.85884571075439 81.55937194824219 17.13597869873047 86.52609252929688 27.99731254577637 95.03096008300781 C 28.42853355407715 95.37017822265625 28.94946670532227 95.80489349365234 29.50098991394043 96.26513671875 C 32.48160171508789 98.75244903564453 36.56367874145508 102.1589279174805 39.83901214599609 102.1584930419922 C 39.86006546020508 102.1584930419922 39.88151550292969 102.1583404541016 39.90261459350586 102.1580581665039 C 39.92353820800781 102.1583404541016 39.94443893432617 102.1584777832031 39.96548843383789 102.1584777832031 C 43.24131011962891 102.1584777832031 47.32328796386719 98.75232696533203 50.3038215637207 96.2652587890625 C 50.85538864135742 95.80501556396484 51.37636566162109 95.37029266357422 51.80904388427734 95.02994537353516 C 62.66494369506836 86.52936553955078 68.94207763671875 81.56266021728516 72.79692077636719 78.42351531982422 L 73.07333374023438 78.19841003417969 L 73.07333374023438 77.84194946289062 L 73.07333374023438 71.48172760009766 L 73.07333374023438 70.73172760009766 L 72.32333374023438 70.73172760009766 L 7.481722831726074 70.73172760009766 L 6.731722831726074 70.73172760009766 Z" stroke="none"/>
    <path d="M 7.481719970703125 65.5 C 4.183387756347656 65.5 1.5 68.18338775634766 1.5 71.48172760009766 L 1.5 116.3720321655273 C 1.5 119.6703796386719 4.183387756347656 122.3537673950195 7.481719970703125 122.3537673950195 L 72.32333374023438 122.3537673950195 C 75.62165832519531 122.3537673950195 78.30504608154297 119.6703796386719 78.30504608154297 116.3720321655273 L 78.30504608154297 71.48172760009766 C 78.30504608154297 68.18338775634766 75.62165832519531 65.5 72.32333374023438 65.5 L 7.481719970703125 65.5 M 39.96549987792969 102.9084701538086 C 39.92311859130859 102.9084701538086 39.88076400756836 102.9084777832031 39.83890151977539 102.9084777832031 C 36.29167938232422 102.9084777832031 32.0888557434082 99.40140533447266 29.02009963989258 96.84063720703125 C 28.47299957275391 96.38410186767578 27.95623397827148 95.95288848876953 27.5349235534668 95.62146759033203 C 16.66989135742188 87.11370086669922 10.389404296875 82.14430999755859 6.534530639648438 79.00505828857422 L 5.981719970703125 78.55487060546875 L 5.981719970703125 69.98172760009766 L 73.82333374023438 69.98172760009766 L 73.82333374023438 78.55487823486328 L 73.27051544189453 79.00506591796875 C 69.41178131103516 82.14739227294922 63.13129043579102 87.11678314208984 52.27273559570312 95.61943817138672 C 51.84855651855469 95.95307922363281 51.33161163330078 96.38443756103516 50.78432464599609 96.84112548828125 C 47.71572494506836 99.40167236328125 43.51313400268555 102.9084701538086 39.96549987792969 102.9084701538086 M 39.84173583984375 107.3903274536133 L 39.90254592895508 107.39013671875 L 39.96389007568359 107.3903274536133 C 42.19977951049805 107.3903274536133 44.55774688720703 106.6415023803711 47.17253494262695 105.1010589599609 C 49.5006103515625 103.7295379638672 51.63534545898438 101.9538116455078 53.35063171386719 100.5269927978516 C 53.95053482055664 100.0279769897461 54.51716613769531 99.55663299560547 55.04053497314453 99.14462280273438 C 62.44996643066406 93.34266662597656 67.64473724365234 89.25143432617188 71.3887939453125 86.26927185058594 L 73.82333374023438 84.33013916015625 L 73.82333374023438 117.8720321655273 L 5.981719970703125 117.8720321655273 L 5.981719970703125 84.33000183105469 L 8.416259765625 86.26908874511719 C 12.1600341796875 89.25099182128906 17.35435485839844 93.34188079833984 24.7661247253418 99.14572143554688 C 25.27346801757812 99.54508972167969 25.83283233642578 100.0115127563477 26.42503356933594 100.5053100585938 C 28.12979125976562 101.9268264770508 30.25141143798828 103.6959381103516 32.59051132202148 105.0773773193359 C 35.22579956054688 106.6337585449219 37.59769058227539 107.3903274536133 39.84173583984375 107.3903274536133 M 7.481719970703125 64 L 72.32333374023438 64 C 76.45542144775391 64 79.80504608154297 67.34962463378906 79.80504608154297 71.48172760009766 L 79.80504608154297 116.3720321655273 C 79.80504608154297 120.5041122436523 76.45542144775391 123.8537673950195 72.32333374023438 123.8537673950195 L 7.481719970703125 123.8537673950195 C 3.349632263183594 123.8537673950195 0 120.5041122436523 0 116.3720321655273 L 0 71.48172760009766 C 0 67.34962463378906 3.349632263183594 64 7.481719970703125 64 Z M 39.96549987792969 101.4084701538086 C 43.58066177368164 101.4084701538086 48.73557662963867 96.49329376220703 51.34535598754883 94.44046020507812 C 63.25672149658203 85.11341094970703 68.82843017578125 80.68798065185547 72.32333374023438 77.84194946289062 L 72.32333374023438 71.48172760009766 L 7.481719970703125 71.48172760009766 L 7.481719970703125 77.84194946289062 C 10.97708892822266 80.68843841552734 16.55018997192383 85.11482238769531 28.45970153808594 94.44046020507812 C 31.08360290527344 96.50447082519531 36.2852897644043 101.4668960571289 39.90252304077148 101.4079666137695 C 39.92350006103516 101.4083023071289 39.94441604614258 101.4084701538086 39.96549987792969 101.4084701538086 Z M 39.84173583984375 108.8903198242188 C 33.17543029785156 108.8903198242188 27.23477172851562 102.997932434082 23.83833312988281 100.3243713378906 C 16.11828994750977 94.27913665771484 11.05331420898438 90.28715515136719 7.481719970703125 87.44240570068359 L 7.481719970703125 116.3720321655273 L 72.32333374023438 116.3720321655273 L 72.32333374023438 87.44256591796875 C 68.7515869140625 90.28749084472656 63.68521118164062 94.28057098388672 55.96532440185547 100.3256225585938 C 52.45140838623047 103.0919723510742 46.56110382080078 108.9237670898438 39.90252304077148 108.8901596069336 C 39.88210296630859 108.890266418457 39.86214065551758 108.8903198242188 39.84173583984375 108.8903198242188 Z" stroke="none" fill="#fff"/>
  </g>
</svg>
