<svg xmlns="http://www.w3.org/2000/svg" width="31.912" height="23.321" viewBox="0 0 31.912 23.321">
  <g id="Icon_ionic-ios-mail-unread" data-name="Icon ionic-ios-mail-unread" transform="translate(-3.375 -7.313)">
    <path id="Path_1363" data-name="Path 1363" d="M33.239,10.995a3.682,3.682,0,1,1-3.682-3.682A3.682,3.682,0,0,1,33.239,10.995Z" transform="translate(2.048 0)" fill="#4d4d4d"/>
    <g id="Group_298" data-name="Group 298" transform="translate(3.375 8.54)">
      <path id="Path_1364" data-name="Path 1364" d="M31.6,15.772a5.112,5.112,0,0,1-1.2-.146l-3.636,3.705a.148.148,0,0,0,0,.215L32.548,25.7a1,1,0,0,1,0,1.411,1,1,0,0,1-1.411,0L25.384,20.98a.157.157,0,0,0-.222,0l-1.4,1.427a6.176,6.176,0,0,1-4.4,1.856,6.3,6.3,0,0,1-4.5-1.91l-1.35-1.373a.157.157,0,0,0-.222,0L7.533,27.11a1,1,0,0,1-1.411,0,1,1,0,0,1,0-1.411L11.9,19.546a.163.163,0,0,0,0-.215L3.636,10.923a.151.151,0,0,0-.261.107V27.854A2.462,2.462,0,0,0,5.83,30.308h27a2.462,2.462,0,0,0,2.455-2.455V14.2A5.089,5.089,0,0,1,31.6,15.772Z" transform="translate(-3.375 -8.216)" fill="#4d4d4d"/>
      <path id="Path_1365" data-name="Path 1365" d="M26.426,10.892a5.1,5.1,0,0,1,.629-2.455H5.745a2.4,2.4,0,0,0-1.519.537L16.262,21.225a4.2,4.2,0,0,0,6,0l6.175-6.283A5.075,5.075,0,0,1,26.426,10.892Z" transform="translate(-3.298 -8.438)" fill="#4d4d4d"/>
    </g>
  </g>
</svg>
