<svg xmlns="http://www.w3.org/2000/svg" width="69.446" height="69.445" viewBox="0 0 69.446 69.445">
  <path id="phone-solid_4_" data-name="phone-solid (4)" d="M66.912,3.327,52.807.072a3.276,3.276,0,0,0-3.73,1.885l-6.51,15.191a3.247,3.247,0,0,0,.936,3.8l8.219,6.727A50.267,50.267,0,0,1,27.687,51.707L20.96,43.488a3.252,3.252,0,0,0-3.8-.936L1.971,49.062a3.294,3.294,0,0,0-1.9,3.743L3.328,66.911A3.254,3.254,0,0,0,6.5,69.434,62.926,62.926,0,0,0,69.435,6.5,3.251,3.251,0,0,0,66.912,3.327Z" transform="translate(0.01 0.011)" fill="#68c766"/>
</svg>
