<svg xmlns="http://www.w3.org/2000/svg" width="731.501" height="688.91" viewBox="0 0 731.501 688.91">
  <g id="Layer_x0020_1" transform="translate(0.01 -13.812)">
    <path id="Path_5893" data-name="Path 5893" d="M9058.03,1502.5h71.533v-3.1H9058.03Z" transform="translate(-8558.411 -1416.695)" fill="#cdcdcd"/>
    <path id="Path_5894" data-name="Path 5894" d="M4466.7,7981.506h78.059v-4.366H4466.7Z" transform="translate(-4220.333 -7537.132)" fill="#60a4c2"/>
    <path id="Path_5895" data-name="Path 5895" d="M2602.033,7077.356H2485.391L2456.2,7051.19l2.914-3.25,27.948,25.05h114.972Z" transform="translate(-2320.729 -6659.185)" fill="#9900a6"/>
    <path id="Path_5896" data-name="Path 5896" d="M2687.487,3198.779,2533.05,3077.584l2.7-3.435,154.436,121.2Z" transform="translate(-2393.34 -2904.584)" fill="#eebd3a"/>
    <path id="Path_5897" data-name="Path 5897" d="M3154.74,3899.263l-132.691-103.35,1.342-1.724,132.691,103.35Z" transform="translate(-2855.367 -3584.908)" fill="#cacaca"/>
    <path id="Path_5898" data-name="Path 5898" d="M7914.162,4042.925l-1.6-1.483,18.087-19.52V3982.57h2.183v40.209Z" transform="translate(-7476.124 -3762.896)" fill="#c84b2a"/>
    <path id="Path_5899" data-name="Path 5899" d="M7937.559,2624.828l-3.209-2.96,25.621-27.758V2471.6H7949.5v-4.367h14.836v128.587Z" transform="translate(-7496.711 -2331.141)" fill="#cdcdcd"/>
    <path id="Path_5900" data-name="Path 5900" d="M8407.879,6054.057h72.6v-4.366h-72.6Z" transform="translate(-7944.121 -5715.998)" fill="#cdcdcd"/>
    <path id="Path_5901" data-name="Path 5901" d="M8605.78,6291.536h119.546v-4.366H8605.78Z" transform="translate(-8131.107 -5940.378)" fill="#cdcdcd"/>
    <path id="Path_5902" data-name="Path 5902" d="M9681.682,5915.471a5.2,5.2,0,1,0,5.2,5.2A5.207,5.207,0,0,0,9681.682,5915.471Zm0,14.465a9.263,9.263,0,1,1,9.265-9.264A9.275,9.275,0,0,1,9681.682,5929.937Z" transform="translate(-9138.911 -5585.345)" fill="#cdcdcd"/>
    <path id="Path_5903" data-name="Path 5903" d="M12935.142,5974.93a5.2,5.2,0,1,0,5.2,5.2A5.206,5.206,0,0,0,12935.142,5974.93Zm0,14.465a9.263,9.263,0,1,1,9.264-9.263A9.271,9.271,0,0,1,12935.142,5989.4Z" transform="translate(-12212.914 -5641.524)" fill="#cdcdcd"/>
    <path id="Path_5904" data-name="Path 5904" d="M3210.573,10508.141a5.2,5.2,0,1,0,5.2,5.2A5.207,5.207,0,0,0,3210.573,10508.141Zm0,14.466a9.263,9.263,0,1,1,9.263-9.264A9.275,9.275,0,0,1,3210.573,10522.606Z" transform="translate(-3024.74 -9924.69)" fill="#cdcdcd"/>
    <path id="Path_5905" data-name="Path 5905" d="M6120.062,12408.23a5.2,5.2,0,1,0,5.2,5.2A5.21,5.21,0,0,0,6120.062,12408.23Zm0,14.464a9.263,9.263,0,1,1,9.264-9.262A9.27,9.27,0,0,1,6120.062,12422.694Z" transform="translate(-5773.745 -11719.972)" fill="#cdcdcd"/>
    <path id="Path_5906" data-name="Path 5906" d="M8731.625,446.151a5.2,5.2,0,1,0,5.2,5.2A5.208,5.208,0,0,0,8731.625,446.151Zm0,14.467a9.264,9.264,0,1,1,9.262-9.264A9.276,9.276,0,0,1,8731.625,460.618Z" transform="translate(-8241.256 -417.705)" fill="#cdcdcd"/>
    <path id="Path_5907" data-name="Path 5907" d="M2318.893,2867.441a5.2,5.2,0,1,0,5.2,5.2A5.208,5.208,0,0,0,2318.893,2867.441Zm0,14.465a9.263,9.263,0,1,1,9.263-9.263A9.274,9.274,0,0,1,2318.893,2881.906Z" transform="translate(-2182.243 -2705.44)" fill="#eebd3a"/>
    <path id="Path_5908" data-name="Path 5908" d="M3427.273,6046.611a5.2,5.2,0,1,0,5.2,5.2A5.208,5.208,0,0,0,3427.273,6046.611Zm0,14.465a9.263,9.263,0,1,1,9.263-9.262A9.273,9.273,0,0,1,3427.273,6061.076Z" transform="translate(-3229.487 -5709.251)" fill="#cdcdcd"/>
    <path id="Path_5909" data-name="Path 5909" d="M4800.374,9062.48a5.2,5.2,0,1,0,5.2,5.2A5.207,5.207,0,0,0,4800.374,9062.48Zm0,14.465a9.263,9.263,0,1,1,9.262-9.264A9.273,9.273,0,0,1,4800.374,9076.945Z" transform="translate(-4526.849 -8558.769)" fill="#cdcdcd"/>
    <path id="Path_5910" data-name="Path 5910" d="M9186.863,8963.52a5.2,5.2,0,1,0,5.2,5.2A5.21,5.21,0,0,0,9186.863,8963.52Zm0,14.465a9.263,9.263,0,1,1,9.263-9.262A9.274,9.274,0,0,1,9186.863,8977.984Z" transform="translate(-8671.385 -8465.267)" fill="#cdcdcd"/>
    <path id="Path_5911" data-name="Path 5911" d="M4800.374,373.591a5.2,5.2,0,1,0,5.2,5.2A5.209,5.209,0,0,0,4800.374,373.591Zm0,14.465a9.263,9.263,0,1,1,9.262-9.261A9.272,9.272,0,0,1,4800.374,388.056Z" transform="translate(-4526.849 -349.147)" fill="#cdcdcd"/>
    <path id="Path_5912" data-name="Path 5912" d="M8580.229,7163.554h108.446v-2.184H8580.229Z" transform="translate(-8106.965 -6766.359)" fill="#60a4c2"/>
    <path id="Path_5913" data-name="Path 5913" d="M8652.81,6974.366h90.613V6970H8652.81Z" transform="translate(-8175.542 -6585.545)" fill="#eebd3a"/>
    <path id="Path_5914" data-name="Path 5914" d="M4572.39,6091.435h72.6v-2.185h-72.6Z" transform="translate(-4320.192 -5753.376)" fill="#cdcdcd"/>
    <path id="Path_5915" data-name="Path 5915" d="M4532.81,6467.484h72.6V6465.3h-72.6Z" transform="translate(-4282.795 -6108.682)" fill="#cdcdcd"/>
    <path id="Path_5916" data-name="Path 5916" d="M3922.14,6734.563H4009.3v-2.184H3922.14Z" transform="translate(-3705.809 -6361.031)" fill="#cdcdcd"/>
    <path id="Path_5917" data-name="Path 5917" d="M875.532,3662.809l-27.372-26.255V3618.53h4.061v16.293l26.122,25.056Z" transform="translate(-801.386 -3418.937)" fill="#cdcdcd"/>
    <path id="Path_5918" data-name="Path 5918" d="M8197.313,3935.551l-3.2-2.969,70.973-76.573h77.333v4.366H8266.99Z" transform="translate(-7742.143 -3643.317)" fill="#cdcdcd"/>
    <path id="Path_5919" data-name="Path 5919" d="M7722.3,4872.381l-3.2-2.968,70.975-76.573h30.019v4.367h-28.114Z" transform="translate(-7293.334 -4528.474)" fill="#cdcdcd"/>
    <path id="Path_5920" data-name="Path 5920" d="M8236.631,4138.238l-1.6-1.482,70.649-76.226h76.849v2.183h-75.9Z" transform="translate(-7780.806 -3836.557)" fill="#cdcdcd"/>
    <path id="Path_5921" data-name="Path 5921" d="M4248.99,6320.391h46.77v-4.062h-46.77Z" transform="translate(-4014.631 -5967.93)" fill="#cdcdcd"/>
    <path id="Path_5922" data-name="Path 5922" d="M3496.88,6923.98h80.241v-4.061H3496.88Z" transform="translate(-3304.006 -6538.226)" fill="#cdcdcd"/>
    <path id="Path_5923" data-name="Path 5923" d="M4914.81,707.422h4.06V636.46h-4.06Z" transform="translate(-4643.725 -601.354)" fill="#cdcdcd"/>
    <path id="Path_5924" data-name="Path 5924" d="M10025.55,9469.363h-62.677l-80.762-52.732,2.219-3.4,79.75,52.074h61.47Z" transform="translate(-9337.036 -8894.01)" fill="#a9c732"/>
    <path id="Path_5925" data-name="Path 5925" d="M5072.261,656.9H5068.2V604.042l31.131-32.612,2.937,2.8-30.006,31.437Z" transform="translate(-4788.654 -539.911)" fill="#cdcdcd"/>
    <path id="Path_5926" data-name="Path 5926" d="M1448.37,8700.734h53.493v-2.186H1448.37Z" transform="translate(-1368.489 -8218.749)" fill="#cdcdcd"/>
    <path id="Path_5927" data-name="Path 5927" d="M7273.507,10979.156l-3.157-3.017,24.114-25.24h51.148v4.368h-49.28Z" transform="translate(-6869.337 -10346.862)" fill="#cdcdcd"/>
    <path id="Path_5928" data-name="Path 5928" d="M7971.779,10755.185h38.756V10753h-38.756Z" transform="translate(-7532.076 -10159.88)" fill="#cacaca"/>
    <path id="Path_5929" data-name="Path 5929" d="M5156.4,8273.294h-4.367V8152.66h31.657v4.366H5156.4Z" transform="translate(-4867.861 -7702.971)" fill="#cdcdcd"/>
    <path id="Path_5930" data-name="Path 5930" d="M4914.5,9410.093h4.367v-60.044H4914.5Z" transform="translate(-4643.432 -8834.313)" fill="#cdcdcd"/>
    <path id="Path_5931" data-name="Path 5931" d="M5175.1,11152.342h4.366v-64.64H5175.1Z" transform="translate(-4889.659 -10476.12)" fill="#cdcdcd"/>
    <path id="Path_5932" data-name="Path 5932" d="M7887.3,7535.275l-86.363-56.246,1.191-1.83,86.363,56.246Z" transform="translate(-7370.661 -7064.768)" fill="#cdcdcd"/>
    <path id="Path_5933" data-name="Path 5933" d="M7297.679,8545.1h2.184V8461.04h-2.184Z" transform="translate(-6895.159 -7994.341)" fill="#cacaca"/>
    <path id="Path_5934" data-name="Path 5934" d="M7093.169,8506.871h4.367v-52.4h-4.367Z" transform="translate(-6701.929 -7988.132)" fill="#cdcdcd"/>
    <path id="Path_5935" data-name="Path 5935" d="M2968.36,1847.716l-145.3-114.322V1652.44h2.183v79.893L2969.71,1846Z" transform="translate(-2667.353 -1561.294)" fill="#eebd3a"/>
    <path id="Path_5936" data-name="Path 5936" d="M6119.37,3823.537h4.367v-79.7h-4.367Z" transform="translate(-5781.843 -3537.335)" fill="#cdcdcd"/>
    <path id="Path_5937" data-name="Path 5937" d="M1323.708,3875.135h-47.471l-77.767-65.8,2.821-3.333,76.546,64.769h45.872Z" transform="translate(-1132.374 -3596.066)" fill="#cdcdcd"/>
    <path id="Path_5938" data-name="Path 5938" d="M9667.53,3439.713h-28.991l-77.77-65.8,2.822-3.334,76.547,64.767h27.392Z" transform="translate(-9033.42 -3184.663)" fill="#cdcdcd"/>
    <path id="Path_5939" data-name="Path 5939" d="M9767.384,3314.331h-47.072l-.3-.259-77.16-65.285,1.412-1.667,76.849,65.026h46.274Z" transform="translate(-9110.972 -3068.013)" fill="#cdcdcd"/>
    <path id="Path_5940" data-name="Path 5940" d="M9785.98,3195.323l-77.16-65.287,1.411-1.666,77.155,65.286Z" transform="translate(-9173.305 -2955.813)" fill="#cdcdcd"/>
    <path id="Path_5941" data-name="Path 5941" d="M11426.3,10163.459h40.255v-4.059H11426.3Z" transform="translate(-10796.051 -9599.021)" fill="#cdcdcd"/>
    <path id="Path_5942" data-name="Path 5942" d="M7041.53,1214.863h4.368V1006.89h-4.368Z" transform="translate(-6653.138 -951.351)" fill="#cdcdcd"/>
    <path id="Path_5943" data-name="Path 5943" d="M5796.089,4281.088h2.183V4218.86h-2.183Z" transform="translate(-5476.394 -3986.153)" fill="#cacaca"/>
    <path id="Path_5944" data-name="Path 5944" d="M5904.439,4514.851h4.062V4466.27h-4.062Z" transform="translate(-5578.768 -4219.917)" fill="#cdcdcd"/>
    <path id="Path_5945" data-name="Path 5945" d="M9048.659,1655.66h42.013v-1.55h-42.013Z" transform="translate(-8549.557 -1562.871)" fill="#cdcdcd"/>
    <path id="Path_5946" data-name="Path 5946" d="M702.85,6549.964H761.8v-2.184H702.85Z" transform="translate(-664.091 -6186.613)" fill="#cdcdcd"/>
    <path id="Path_5947" data-name="Path 5947" d="M2630.431,5170.328a5.359,5.359,0,1,1-5.5-5.213,5.36,5.36,0,0,1,5.5,5.213Z" transform="translate(-2475.224 -4880.212)" fill="#cdcdcd"/>
    <path id="Path_5948" data-name="Path 5948" d="M2028.652,4713.323l-36.573-28.93,1.354-1.713,36.573,28.93Z" transform="translate(-1882.209 -4424.39)" fill="#cdcdcd"/>
    <path id="Path_5949" data-name="Path 5949" d="M1948.96,4871.334l-88.33-71.816,2.755-3.388,88.329,71.816Z" transform="translate(-1758.01 -4531.582)" fill="#cdcdcd"/>
    <path id="Path_5950" data-name="Path 5950" d="M761.709,3475.935a8.325,8.325,0,1,1-8.325-8.324A8.324,8.324,0,0,1,761.709,3475.935Z" transform="translate(-703.973 -3276.342)" fill="#828282"/>
    <path id="Path_5951" data-name="Path 5951" d="M4309.055,7881.522a8.552,8.552,0,1,1-8.553-8.552A8.553,8.553,0,0,1,4309.055,7881.522Z" transform="translate(-4055.221 -7438.708)" fill="#60a4c2"/>
    <path id="Path_5952" data-name="Path 5952" d="M7876.8,2362.875a7.715,7.715,0,1,1-7.715-7.716A7.715,7.715,0,0,1,7876.8,2362.875Z" transform="translate(-7427.757 -2225.253)" fill="#bdc2c5"/>
    <path id="Path_5953" data-name="Path 5953" d="M7804.863,2288.922a9.733,9.733,0,1,0,9.734,9.732A9.744,9.744,0,0,0,7804.863,2288.922Zm0,21.2a11.465,11.465,0,1,1,11.464-11.465A11.477,11.477,0,0,1,7804.863,2310.12Z" transform="translate(-7363.535 -2161.031)" fill="#bdc2c5"/>
    <path id="Path_5954" data-name="Path 5954" d="M7872.729,9776.814a7.715,7.715,0,1,1-7.714-7.715A7.715,7.715,0,0,1,7872.729,9776.814Z" transform="translate(-7423.911 -9230.25)" fill="#bdc2c5"/>
    <path id="Path_5955" data-name="Path 5955" d="M7800.8,9702.861a9.733,9.733,0,1,0,9.734,9.733A9.745,9.745,0,0,0,7800.8,9702.861Zm0,21.2a11.465,11.465,0,1,1,11.463-11.466A11.479,11.479,0,0,1,7800.8,9724.061Z" transform="translate(-7359.701 -9166.03)" fill="#bdc2c5"/>
    <path id="Path_5956" data-name="Path 5956" d="M2214.58,6798.285a7.715,7.715,0,1,1-7.716-7.715A7.716,7.716,0,0,1,2214.58,6798.285Z" transform="translate(-2077.857 -6416.011)" fill="#9900a6"/>
    <path id="Path_5957" data-name="Path 5957" d="M2142.644,6724.311a9.735,9.735,0,1,0,9.734,9.735A9.746,9.746,0,0,0,2142.644,6724.311Zm0,21.2a11.464,11.464,0,1,1,11.465-11.461A11.475,11.475,0,0,1,2142.644,6745.508Z" transform="translate(-2013.636 -6351.772)" fill="#9900a6"/>
    <path id="Path_5958" data-name="Path 5958" d="M3113.07,1530.56,2969.218,1418l-.138-95.549,9.825-.013.131,90.769,140.09,109.614Z" transform="translate(-2805.319 -1249.496)" fill="#979797"/>
    <path id="Path_5959" data-name="Path 5959" d="M7306.846,3244.348h-9.826v-60.954a30.057,30.057,0,0,1,30.023-30.023H7337.6v9.825h-10.553a20.222,20.222,0,0,0-20.2,20.2v60.954Z" transform="translate(-6894.536 -2979.434)" fill="#979797"/>
    <path id="Path_5960" data-name="Path 5960" d="M8504.369,5683.425h42.581V5673.6h-42.581Z" transform="translate(-8035.289 -5360.652)" fill="#979797"/>
    <path id="Path_5961" data-name="Path 5961" d="M9223.941,4763.98H9197.2v-9.825h26.742a20.221,20.221,0,0,0,20.2-20.2V4700.48h9.826v33.478A30.056,30.056,0,0,1,9223.941,4763.98Z" transform="translate(-8689.904 -4441.208)" fill="#979797"/>
    <path id="Path_5962" data-name="Path 5962" d="M6744.629,3564.689h9.826V3500.5h-9.826Z" transform="translate(-6372.614 -3307.417)" fill="#979797"/>
    <path id="Path_5963" data-name="Path 5963" d="M6238.5,2027.541h-9.826v-60.589a20.219,20.219,0,0,0-20.2-20.2h-9.925v-9.825h9.925a30.055,30.055,0,0,1,30.022,30.022v60.59Z" transform="translate(-5856.655 -1830.092)" fill="#979797"/>
    <path id="Path_5964" data-name="Path 5964" d="M4707.669,7675.845h30.65v-9.825h-30.65Z" transform="translate(-4448.01 -7243.173)" fill="#979797"/>
    <path id="Path_5965" data-name="Path 5965" d="M3648.716,7706.96h-9.826v-10.917a30.058,30.058,0,0,1,30.023-30.023h33.3v9.825h-33.3a20.222,20.222,0,0,0-20.2,20.2v10.917Z" transform="translate(-3438.183 -7243.173)" fill="#979797"/>
    <path id="Path_5966" data-name="Path 5966" d="M3204.221,8240.417h-4v-9.825h4a20.22,20.22,0,0,0,20.2-20.2v-23.106h9.826V8210.4a30.057,30.057,0,0,1-30.023,30.021Z" transform="translate(-3023.709 -7735.69)" fill="#979797"/>
    <path id="Path_5967" data-name="Path 5967" d="M5373.666,9284.439h-9.827a30.056,30.056,0,0,1,30.023-30.021h15.031v9.825h-15.031A20.218,20.218,0,0,0,5373.666,9284.439Z" transform="translate(-5067.986 -8743.958)" fill="#979797"/>
    <path id="Path_5968" data-name="Path 5968" d="M6009.955,8495.941H5995.33v-9.824h14.625a20.218,20.218,0,0,0,20.2-20.2V8441.27h9.827v24.651A30.056,30.056,0,0,1,6009.955,8495.941Z" transform="translate(-5664.645 -7975.661)" fill="#979797"/>
    <path id="Path_5969" data-name="Path 5969" d="M7873.375,3017.648a12.738,12.738,0,1,1-12.738-12.738A12.739,12.739,0,0,1,7873.375,3017.648Z" transform="translate(-7415.03 -2839.164)" fill="#979797"/>
    <path id="Path_5970" data-name="Path 5970" d="M9305.159,7433.959l18.27.129-13.74,17.573Z" transform="translate(-8791.909 -7023.912)" fill="#979797"/>
    <path id="Path_5971" data-name="Path 5971" d="M10822.468,8915.172l-18.269.025,13.6-17.687Z" transform="translate(-10208.265 -8406.735)" fill="#505050"/>
    <path id="Path_5972" data-name="Path 5972" d="M8735.966,7566.211l-13.646-9.056,5.434-8.186,13.645,9.054Zm27.289,18.108-13.645-9.054,5.432-8.187,13.646,9.055Zm27.288,18.111-13.645-9.056,5.434-8.187,13.646,9.055Zm27.291,18.109-13.646-9.056,5.434-8.186,13.644,9.055Zm26.772,17.766-13.128-8.712,5.432-8.186,13.127,8.711Z" transform="translate(-8241.217 -7132.58)" fill="#505050"/>
    <path id="Path_5973" data-name="Path 5973" d="M9486.017,7547.954,9369.4,7471.167l5.4-8.207,116.619,76.787Z" transform="translate(-8852.606 -7051.313)" fill="#979797"/>
    <path id="Path_5974" data-name="Path 5974" d="M2863.836,6290.416h-9.826v-16.375h9.826Zm-4.058,34.616a29.794,29.794,0,0,1-5.769-17.7v-.544h9.826v.544a20.034,20.034,0,0,0,3.875,11.9Zm33.379,12.326h-9.125a30.082,30.082,0,0,1-8.546-1.234l2.793-9.42a20.245,20.245,0,0,0,5.753.831h9.125v9.824Zm32.751,0h-16.375v-9.824h16.375Zm32.752,0h-16.376v-9.824h16.376Z" transform="translate(-2696.596 -5927.973)" fill="#505050"/>
    <path id="Path_5975" data-name="Path 5975" d="M34.744,5093.08H30.012A30.055,30.055,0,0,1-.01,5063.06v-13.1H9.816v13.1a20.219,20.219,0,0,0,20.2,20.2h4.732Z" transform="translate(0 -4771.411)" fill="#505050"/>
    <path id="Path_5976" data-name="Path 5976" d="M34.744,5093.08H30.012A30.055,30.055,0,0,1-.01,5063.06v-13.1H9.816v13.1a20.219,20.219,0,0,0,20.2,20.2h4.732Z" transform="translate(0 -4771.411)" fill="#505050"/>
    <path id="Path_5977" data-name="Path 5977" d="M9.826,4473.012H0v-4.731a30.055,30.055,0,0,1,30.022-30.021H33.3v9.824H30.022a20.219,20.219,0,0,0-20.2,20.2v4.731Z" transform="translate(-0.009 -4193.452)" fill="#505050"/>
    <path id="Path_5978" data-name="Path 5978" d="M9.826,4473.012H0v-4.731a30.055,30.055,0,0,1,30.022-30.021H33.3v9.824H30.022a20.219,20.219,0,0,0-20.2,20.2v4.731Z" transform="translate(-0.009 -4193.452)" fill="#505050"/>
    <path id="Path_5979" data-name="Path 5979" d="M574.731,4277.34,556.01,4291.77V4262.91Z" transform="translate(-525.351 -4027.774)" fill="#505050"/>
    <path id="Path_5980" data-name="Path 5980" d="M739.112,5688.6h-9.826v-4.732a20.219,20.219,0,0,0-20.2-20.2H605.27v-9.825H709.089a30.057,30.057,0,0,1,30.023,30.02Z" transform="translate(-571.894 -5341.992)" fill="#505050"/>
    <path id="Path_5981" data-name="Path 5981" d="M8662.7,6534.485h98.253v-9.825H8662.7Z" transform="translate(-8184.888 -6164.769)" fill="#979797"/>
    <path id="Path_5982" data-name="Path 5982" d="M9772.714,9323.009a8.324,8.324,0,1,1,8.324-8.324A8.325,8.325,0,0,1,9772.714,9323.009Z" transform="translate(-9225.808 -8793.034)" fill="#a9c732"/>
    <path id="Path_5983" data-name="Path 5983" d="M4010.595,6202.389a8.325,8.325,0,1,1,8.325-8.325A8.325,8.325,0,0,1,4010.595,6202.389Z" transform="translate(-3781.52 -5844.543)" fill="#cdcdcd"/>
    <path id="Path_5984" data-name="Path 5984" d="M7367.734,8115.5h-4.06v-66.3l-34.834-22.871,2.229-3.393L7367.734,8047Z" transform="translate(-6924.601 -7580.396)" fill="#cdcdcd"/>
    <path id="Path_5985" data-name="Path 5985" d="M7704.685,8006.13l-88.976-58.955,2.243-3.386,88.975,58.955Z" transform="translate(-7195.647 -7505.621)" fill="#cdcdcd"/>
    <path id="Path_5986" data-name="Path 5986" d="M10275.423,11338.651a5.2,5.2,0,1,0,5.2,5.2A5.207,5.207,0,0,0,10275.423,11338.651Zm0,14.466a9.263,9.263,0,1,1,9.263-9.264A9.274,9.274,0,0,1,10275.423,11353.117Z" transform="translate(-9699.901 -10709.391)" fill="#cdcdcd"/>
    <path id="Path_5987" data-name="Path 5987" d="M9933.593,11129.538l-22.383-15.284,2.29-3.354,22.383,15.284Z" transform="translate(-9364.53 -10498.039)" fill="#cdcdcd"/>
    <path id="Path_5988" data-name="Path 5988" d="M5658.468,326.144a7.715,7.715,0,1,1-7.713-7.714A7.714,7.714,0,0,1,5658.468,326.144Z" transform="translate(-5331.786 -300.866)" fill="#a9c732"/>
    <path id="Path_5989" data-name="Path 5989" d="M5586.524,252.143a9.734,9.734,0,1,0,9.732,9.732A9.745,9.745,0,0,0,5586.524,252.143Zm0,21.2a11.465,11.465,0,1,1,11.465-11.465A11.478,11.478,0,0,1,5586.524,273.341Z" transform="translate(-5267.557 -236.598)" fill="#a9c732"/>
    <path id="Path_5990" data-name="Path 5990" d="M7030.749,11456.146a7.715,7.715,0,1,1-7.715-7.716A7.715,7.715,0,0,1,7030.749,11456.146Z" transform="translate(-6628.374 -10816.95)" fill="#bdc2c5"/>
    <path id="Path_5991" data-name="Path 5991" d="M6958.814,11382.16a9.734,9.734,0,1,0,9.732,9.732A9.744,9.744,0,0,0,6958.814,11382.16Zm0,21.2a11.464,11.464,0,1,1,11.462-11.465A11.475,11.475,0,0,1,6958.814,11403.357Z" transform="translate(-6564.153 -10752.701)" fill="#bdc2c5"/>
    <path id="Path_5992" data-name="Path 5992" d="M5744.369,11624.226l-25.239-24.109V11572.2h4.368v26.047l23.888,22.824Z" transform="translate(-5403.68 -10933.893)" fill="#cdcdcd"/>
    <path id="Path_5993" data-name="Path 5993" d="M8170.5,3830.02a5.36,5.36,0,1,1-5.5-5.213A5.362,5.362,0,0,1,8170.5,3830.02Z" transform="translate(-7709.71 -3613.833)" fill="#c84b2a"/>
    <path id="Path_5994" data-name="Path 5994" d="M10545.6,7089.17a5.36,5.36,0,1,1-5.5-5.214A5.363,5.363,0,0,1,10545.6,7089.17Z" transform="translate(-9953.802 -6693.213)" fill="#60a4c2"/>
    <path id="Path_5995" data-name="Path 5995" d="M5729.431,4064.229a5.36,5.36,0,1,1-5.5-5.213,5.359,5.359,0,0,1,5.5,5.213Z" transform="translate(-5403.287 -3835.125)" fill="#60a4c2"/>
    <path id="Path_5996" data-name="Path 5996" d="M11825.528,4351.18a5.359,5.359,0,1,1-5.5-5.214,5.361,5.361,0,0,1,5.5,5.214Z" transform="translate(-11163.134 -4106.247)" fill="#828282"/>
    <path id="Path_5997" data-name="Path 5997" d="M2901.591,3671.67a5.36,5.36,0,1,1-5.5-5.214A5.361,5.361,0,0,1,2901.591,3671.67Z" transform="translate(-2731.426 -3464.217)" fill="#828282"/>
    <path id="Path_5998" data-name="Path 5998" d="M3768.24,6662.868a5.359,5.359,0,1,1-5.5-5.213A5.36,5.36,0,0,1,3768.24,6662.868Z" transform="translate(-3550.273 -6290.426)" fill="#828282"/>
    <path id="Path_5999" data-name="Path 5999" d="M7246.861,9825.31a5.36,5.36,0,1,1-5.5-5.214A5.36,5.36,0,0,1,7246.861,9825.31Z" transform="translate(-6837.017 -9278.431)" fill="#828282"/>
    <path id="Path_6000" data-name="Path 6000" d="M5384.44,10638.361h2.184V10554.3h-2.184Z" transform="translate(-5087.451 -9972.14)" fill="#cacaca"/>
    <path id="Path_6001" data-name="Path 6001" d="M5333.583,11918.567a5.36,5.36,0,1,1-5.5-5.212,5.357,5.357,0,0,1,5.5,5.212Z" transform="translate(-5029.273 -11256.229)" fill="#828282"/>
    <path id="Path_6002" data-name="Path 6002" d="M7895.23,10680.86a5.36,5.36,0,1,1-5.5-5.215A5.36,5.36,0,0,1,7895.23,10680.86Z" transform="translate(-7449.624 -10086.79)" fill="#828282"/>
    <path id="Path_6003" data-name="Path 6003" d="M9334.192,8456.883a5.36,5.36,0,1,1,3.891-6.5,5.361,5.361,0,0,1-3.891,6.5Z" transform="translate(-8813.039 -7980.436)" fill="#cdcdcd"/>
    <path id="Path_6004" data-name="Path 6004" d="M1381.691,8619.778a5.359,5.359,0,1,1-5.5-5.214,5.357,5.357,0,0,1,5.5,5.214Z" transform="translate(-1295.362 -8139.395)" fill="#636363"/>
    <path id="Path_6005" data-name="Path 6005" d="M2474.3,9741.812l-46.544-47.884,2.912-2.829,46.544,47.884Z" transform="translate(-2293.857 -9156.551)" fill="#cdcdcd"/>
    <path id="Path_6006" data-name="Path 6006" d="M3335.905,4866.5a8.553,8.553,0,1,1-8.553-8.554A8.553,8.553,0,0,1,3335.905,4866.5Z" transform="translate(-3135.749 -4589.992)" fill="#bdc2c5"/>
    <path id="Path_6007" data-name="Path 6007" d="M5077.646,12259.812a8.553,8.553,0,1,1-8.553-8.552A8.555,8.555,0,0,1,5077.646,12259.812Z" transform="translate(-4781.417 -11575.498)" fill="#bdc2c5"/>
    <path id="Path_6008" data-name="Path 6008" d="M2726.787,9569.309H2670.4l-.318-.311-41.4-40.3,1.523-1.563,41.081,39.994h55.5Z" transform="translate(-2483.694 -9001.627)" fill="#cacaca"/>
    <path id="Path_6009" data-name="Path 6009" d="M4317.571,10176.759a5.36,5.36,0,1,1-5.5-5.214,5.361,5.361,0,0,1,5.5,5.214Z" transform="translate(-4069.302 -9610.494)" fill="#828282"/>
    <path id="Path_6010" data-name="Path 6010" d="M1667.846,6482.509a5.361,5.361,0,1,1,5.505,5.212,5.36,5.36,0,0,1-5.505-5.212Z" transform="translate(-1575.858 -6119.742)" fill="#cdcdcd"/>
    <path id="Path_6011" data-name="Path 6011" d="M11423.8,7829.825h81.15v-2.186h-81.15Z" transform="translate(-10793.687 -7395.877)" fill="#cdcdcd"/>
    <path id="Path_6012" data-name="Path 6012" d="M12791.268,7762.408a5.36,5.36,0,1,1,5.5,5.213,5.36,5.36,0,0,1-5.5-5.213Z" transform="translate(-12085.727 -7329.044)" fill="#cdcdcd"/>
    <path id="Path_6013" data-name="Path 6013" d="M11298.4,7928.825h58.952v-2.185H11298.4Z" transform="translate(-10675.207 -7489.417)" fill="#cdcdcd"/>
    <path id="Path_6014" data-name="Path 6014" d="M7656.589,559.444h60.772V557.26h-60.772Z" transform="translate(-7234.271 -526.522)" fill="#cdcdcd"/>
    <path id="Path_6015" data-name="Path 6015" d="M7576.732,478.5a5.36,5.36,0,1,1-5.5-5.214A5.36,5.36,0,0,1,7576.732,478.5Z" transform="translate(-7148.693 -447.179)" fill="#9900a6"/>
    <path id="Path_6016" data-name="Path 6016" d="M8059.03,658.4h40.212V656.22H8059.03Z" transform="translate(-7614.514 -620.024)" fill="#cdcdcd"/>
    <path id="Path_6017" data-name="Path 6017" d="M6024.679,3512.185a8.325,8.325,0,1,1-8.325-8.325A8.325,8.325,0,0,1,6024.679,3512.185Z" transform="translate(-5676.644 -3310.592)" fill="#cdcdcd"/>
    <path id="Path_6018" data-name="Path 6018" d="M11856.7,6106.071h62.368v-4.061H11856.7Z" transform="translate(-11202.711 -5765.432)" fill="#cdcdcd"/>
    <path id="Path_6019" data-name="Path 6019" d="M2629.67,9689.877l-29.84-29.841,1.543-1.546,29.841,29.841Z" transform="translate(-2456.436 -9125.741)" fill="#cdcdcd"/>
    <path id="Path_6020" data-name="Path 6020" d="M3207.944,4125.451l-126.5-98.62,1.341-1.721,126.5,98.62Z" transform="translate(-2911.481 -3803.091)" fill="#cdcdcd"/>
    <path id="Path_6021" data-name="Path 6021" d="M1273.356,4059.195l-18.2-17.1,1.5-1.592,18.2,17.1Z" transform="translate(-1185.937 -3817.632)" fill="#cdcdcd"/>
    <path id="Path_6022" data-name="Path 6022" d="M7423.049,8160.085h2.184V8104.77h-2.184Z" transform="translate(-7013.614 -7657.722)" fill="#cdcdcd"/>
    <path id="Path_6023" data-name="Path 6023" d="M8199.389,10593.489h24.019v-2.189h-24.019Z" transform="translate(-7747.131 -10007.098)" fill="#cdcdcd"/>
    <path id="Path_6024" data-name="Path 6024" d="M8258.848,7922.085l-23.459-14.9,1.174-1.843,23.455,14.9Z" transform="translate(-7781.145 -7469.292)" fill="#cdcdcd"/>
    <path id="Path_6025" data-name="Path 6025" d="M11731.3,6253.054h55.318v-2.184H11731.3Z" transform="translate(-11084.228 -5906.081)" fill="#cdcdcd"/>
    <path id="Path_6026" data-name="Path 6026" d="M11971.033,2847.68a5.2,5.2,0,1,0,5.2,5.2A5.209,5.209,0,0,0,11971.033,2847.68Zm0,14.467a9.264,9.264,0,1,1,9.263-9.263A9.273,9.273,0,0,1,11971.033,2862.147Z" transform="translate(-11301.985 -2686.77)" fill="#cdcdcd"/>
    <path id="Path_6027" data-name="Path 6027" d="M10971.9,2978.84h57.994v-4.06H10971.9Z" transform="translate(-10366.715 -2810.695)" fill="#cdcdcd"/>
    <path id="Path_6028" data-name="Path 6028" d="M10846.5,3125.834h50.95v-2.184h-50.95Z" transform="translate(-10248.231 -2951.354)" fill="#cdcdcd"/>
    <path id="Path_6029" data-name="Path 6029" d="M2451.242,11343.052a5.2,5.2,0,1,0,5.2,5.2A5.207,5.207,0,0,0,2451.242,11343.052Zm0,14.463a9.262,9.262,0,1,1,9.263-9.261A9.272,9.272,0,0,1,2451.242,11357.515Z" transform="translate(-2307.293 -10713.547)" fill="#cdcdcd"/>
    <path id="Path_6030" data-name="Path 6030" d="M2716.3,11474.159h62.364v-4.061H2716.3Z" transform="translate(-2566.482 -10837.424)" fill="#cdcdcd"/>
    <path id="Path_6031" data-name="Path 6031" d="M2969.48,11670.688h55.313v-2.189H2969.48Z" transform="translate(-2805.697 -11024.88)" fill="#cdcdcd"/>
    <path id="Path_6032" data-name="Path 6032" d="M4773.561,1039.271h2.183V992.69h-2.183Z" transform="translate(-4510.267 -937.935)" fill="#cdcdcd"/>
    <path id="Path_6033" data-name="Path 6033" d="M5248.5,1296.561h2.184V1249.98H5248.5Z" transform="translate(-4959.009 -1181.033)" fill="#cdcdcd"/>
    <path id="Path_6034" data-name="Path 6034" d="M4635.02,1326.428h2.183V1276.39h-2.183Z" transform="translate(-4379.368 -1205.986)" fill="#cdcdcd"/>
    <path id="Path_6035" data-name="Path 6035" d="M12265.986,6948.993h-9.8l-12.283-8.379,1.229-1.8,11.728,8h9.129Z" transform="translate(-11568.554 -6556.075)" fill="#cdcdcd"/>
    <path id="Path_6036" data-name="Path 6036" d="M11848.867,6839.975h-13.631l-32.035-22.856,1.269-1.778,31.467,22.449h12.931Z" transform="translate(-11152.161 -6439.416)" fill="#cdcdcd"/>
    <path id="Path_6037" data-name="Path 6037" d="M9641.869,4712.665a7.715,7.715,0,1,1-7.715-7.715A7.716,7.716,0,0,1,9641.869,4712.665Z" transform="translate(-9095.467 -4445.431)" fill="#60a4c2"/>
    <path id="Path_6038" data-name="Path 6038" d="M9569.924,4638.718a9.734,9.734,0,1,0,9.733,9.735A9.745,9.745,0,0,0,9569.924,4638.718Zm0,21.2a11.464,11.464,0,1,1,11.465-11.463A11.477,11.477,0,0,1,9569.924,4659.917Z" transform="translate(-9031.238 -4381.22)" fill="#60a4c2"/>
    <path id="Path_6039" data-name="Path 6039" d="M10420.181,1394.954a7.716,7.716,0,1,1-7.716-7.714A7.716,7.716,0,0,1,10420.181,1394.954Z" transform="translate(-9830.847 -1310.722)" fill="#bdc2c5"/>
    <path id="Path_6040" data-name="Path 6040" d="M10348.233,1320.991a9.734,9.734,0,1,0,9.734,9.733A9.744,9.744,0,0,0,10348.233,1320.991Zm0,21.2a11.464,11.464,0,1,1,11.465-11.464A11.476,11.476,0,0,1,10348.233,1342.188Z" transform="translate(-9766.618 -1246.491)" fill="#bdc2c5"/>
    <path id="Path_6041" data-name="Path 6041" d="M8367.079,962.754a2.091,2.091,0,1,1,2.091-2.092A2.091,2.091,0,0,1,8367.079,962.754Zm1.417,5.829H8354.43v-1.521H8368.5Zm-14.74-7.92a2.091,2.091,0,1,1,2.091,2.092A2.092,2.092,0,0,1,8353.756,960.663Zm18.673-5.639h-5.354V952.39h-1.159v2.633h-8.906V952.39h-1.159v2.633H8350.5a1.138,1.138,0,0,0-1.137,1.136v14.2a1.137,1.137,0,0,0,1.137,1.136h21.931a1.137,1.137,0,0,0,1.137-1.136v-14.2a1.138,1.138,0,0,0-1.137-1.136Z" transform="translate(-7888.83 -899.858)" fill="#999"/>
    <path id="Path_6042" data-name="Path 6042" d="M8217.3,1336.741h-4.349V1324.51h4.349Z" transform="translate(-7759.944 -1251.452)" fill="#999"/>
    <path id="Path_6043" data-name="Path 6043" d="M8217.3,1574.523h-4.349V1562.29h4.349Z" transform="translate(-7759.944 -1476.116)" fill="#999"/>
    <path id="Path_6044" data-name="Path 6044" d="M8169.675,1789.08a4.825,4.825,0,0,0-1.512,9.408v-1.645a3.316,3.316,0,1,1,3.022,0v1.645a4.825,4.825,0,0,0-1.511-9.408Z" transform="translate(-7714.496 -1690.397)" fill="#999"/>
    <path id="Path_6045" data-name="Path 6045" d="M8852.458,1336.741h-4.349V1324.51h4.349Z" transform="translate(-8360.068 -1251.452)" fill="#999"/>
    <path id="Path_6046" data-name="Path 6046" d="M8852.458,1574.523h-4.349V1562.29h4.349Z" transform="translate(-8360.068 -1476.116)" fill="#999"/>
    <path id="Path_6047" data-name="Path 6047" d="M8804.855,1789.08a4.825,4.825,0,0,0-1.51,9.408v-1.645a3.316,3.316,0,1,1,3.022,0v1.645a4.825,4.825,0,0,0-1.512-9.408Z" transform="translate(-8314.642 -1690.397)" fill="#999"/>
    <path id="Path_6048" data-name="Path 6048" d="M8329.683,1328.249a1.689,1.689,0,0,1-1.689,1.687H8322.7l3.59-3.59a1.055,1.055,0,0,0-1.492-1.492l-5.081,5.082h-6.5a1.688,1.688,0,0,1-1.688-1.687v-5.911a1.688,1.688,0,0,1,1.688-1.687h14.774a1.688,1.688,0,0,1,1.688,1.687v5.911Zm4.274-15.689h-26.7a1.137,1.137,0,0,0-1.136,1.137v20.168a1.135,1.135,0,0,0,1.136,1.136h26.7a1.135,1.135,0,0,0,1.136-1.136V1313.7A1.137,1.137,0,0,0,8333.957,1312.56Z" transform="translate(-7847.975 -1240.161)" fill="#999"/>
    <path id="Path_6049" data-name="Path 6049" d="M8408.82,1752.907H8416V1741.72h-7.175Z" transform="translate(-7945.011 -1645.649)" fill="#999"/>
    <path id="Path_6050" data-name="Path 6050" d="M8408.82,1970.857H8416v-5.307h-7.175Z" transform="translate(-7945.011 -1857.133)" fill="#999"/>
    <path id="Path_6051" data-name="Path 6051" d="M8350.181,2077.2a2.234,2.234,0,0,1-2.058,2.374H8340a2.4,2.4,0,0,1,0-4.749h8.126A2.234,2.234,0,0,1,8350.181,2077.2Z" transform="translate(-7878.04 -1960.385)" fill="#999"/>
    <path id="Path_6052" data-name="Path 6052" d="M8600.989,1752.907h7.175V1741.72h-7.175Z" transform="translate(-8126.58 -1645.649)" fill="#999"/>
    <path id="Path_6053" data-name="Path 6053" d="M8600.989,1970.857h7.175v-5.307h-7.175Z" transform="translate(-8126.58 -1857.133)" fill="#999"/>
    <path id="Path_6054" data-name="Path 6054" d="M8580.019,2077.2a2.234,2.234,0,0,0,2.061,2.374h8.123a2.4,2.4,0,0,0,0-4.749h-8.123A2.235,2.235,0,0,0,8580.019,2077.2Z" transform="translate(-8106.766 -1960.385)" fill="#999"/>
    <path id="Path_6055" data-name="Path 6055" d="M1185.418,7316.825c0-6.208-6.049-11.424-14.252-12.935a14.776,14.776,0,0,1,.514,3.871,15.224,15.224,0,0,1-2.291,7.973,20.758,20.758,0,0,1-5.966,6.207,30.188,30.188,0,0,1-10.413,4.524,23.973,23.973,0,0,0,13.266,3.735q1.111,0,2.191-.086l13.047,6.045-5.911-7.652c5.856-2.287,9.814-6.661,9.814-11.681Z" transform="translate(-1089.421 -6901.017)" fill="#bdc2c5"/>
    <path id="Path_6056" data-name="Path 6056" d="M606,7080.7c0-9.459-10.975-17.127-24.514-17.127s-24.513,7.668-24.513,17.127c0,7.194,6.347,13.351,15.342,15.888l-4.032,10.8,14.8-9.6c12.795-.576,22.917-8.008,22.917-17.093Z" transform="translate(-526.258 -6673.952)" fill="#bdc2c5"/>
    <path id="Path_6057" data-name="Path 6057" d="M6675.94,10117.6a6.274,6.274,0,0,0-1.532-4.665,5.012,5.012,0,0,0-3.788-1.58h-8.905c-.017-1.29-.018-3.311.077-5.105a11.9,11.9,0,0,0-2.747-7.4,3.756,3.756,0,0,0-2.272-1.456,5.869,5.869,0,0,0-.747-.046c-1.644,0-3.583.656-3.962,2.095a4.1,4.1,0,0,0,.155,1.983,8.365,8.365,0,0,1,.206,3.692c-.49,2.757-4.69,9.459-5.99,10.593a5.353,5.353,0,0,1-1.558.845,2.751,2.751,0,0,0-2.486-1.764h-9.784a1.977,1.977,0,0,0-2.013,2.218l-.1,19.219.011.167a2.737,2.737,0,0,0,2.629,2.314h12.488a1.978,1.978,0,0,0,2-2.314l-.087-.635a4.493,4.493,0,0,1,1.015.233c1.05.421,6.406,2.542,9.008,2.542h11.139c.759,0,3.292-.168,4.053-2.3a3.775,3.775,0,0,0-.128-2.82c0-.079-.008-.147-.009-.194l0-.058a3.24,3.24,0,0,0,2.529-2.668,4.462,4.462,0,0,0-.708-3.491,3.668,3.668,0,0,0,2.084-3.92,4.582,4.582,0,0,0-1.816-3.28,2.949,2.949,0,0,0,1.243-2.2Z" transform="translate(-6264.771 -9540.384)" fill="#bdc2c5"/>
    <path id="Path_6058" data-name="Path 6058" d="M4033.257,5274.017a11.816,11.816,0,0,0-1.212.063c.021-.313.033-.625.033-.942a13.659,13.659,0,0,0-27.259-1.263,10.445,10.445,0,0,1,4.043,8.137h.1a8.393,8.393,0,0,1,8.563,8.193,8.109,8.109,0,0,1-3.747,6.767h19.537v0a10.488,10.488,0,1,0-.057-20.953Z" transform="translate(-3783.929 -4969.374)" fill="#636363"/>
    <path id="Path_6059" data-name="Path 6059" d="M3594.068,5488.143a6.912,6.912,0,0,0-7.082-6.713,7.59,7.59,0,0,0-.784.041l-.876.092.06-.878c.014-.211.021-.419.021-.619a8.975,8.975,0,0,0-17.92-.729l-.063.778-.772-.1a7.607,7.607,0,0,0-.987-.065,7.453,7.453,0,0,0-.04,14.905h21.4a6.916,6.916,0,0,0,7.044-6.711Z" transform="translate(-3361.953 -5169.311)" fill="#636363"/>
    <path id="Path_6060" data-name="Path 6060" d="M5528.584,8585.844a9.219,9.219,0,1,1,9.22-9.219A9.219,9.219,0,0,1,5528.584,8585.844Zm17.088-21.983h-1.006v-.974a.351.351,0,0,0-.35-.351h-5.447a.349.349,0,0,0-.349.351v.974h-4.127l-1.751-2.655a.444.444,0,0,0-.473-.406H5525a.442.442,0,0,0-.471.406l-1.753,2.655H5511.5a2.2,2.2,0,0,0-2.2,2.2V8587.2a2.2,2.2,0,0,0,2.2,2.2h34.176a2.2,2.2,0,0,0,2.2-2.2v-21.138A2.2,2.2,0,0,0,5545.673,8563.86Z" transform="translate(-5205.424 -8088.597)" fill="#cdcdcd"/>
    <path id="Path_6061" data-name="Path 6061" d="M5753.636,8736.33a6.146,6.146,0,1,0,6.145,6.145A6.145,6.145,0,0,0,5753.636,8736.33Z" transform="translate(-5430.476 -8254.446)" fill="#cdcdcd"/>
    <path id="Path_6065" data-name="Path 6065" d="M1519.352,10392.3c-4.818,0-8.722,5.9-8.722,13.178,0,.348.008.694.026,1.034h12.137a25.882,25.882,0,0,1,2.85-10.16c-1.584-2.5-3.818-4.051-6.292-4.051Z" transform="translate(-1427.315 -9819.073)" fill="#60a4c2"/>
    <path id="Path_6066" data-name="Path 6066" d="M1573.766,10187.3a5.3,5.3,0,1,0,5.548,5.3A5.424,5.424,0,0,0,1573.766,10187.3Z" transform="translate(-1481.728 -9625.383)" fill="#60a4c2"/>
    <path id="Path_6067" data-name="Path 6067" d="M1800.547,10343.95c-2.334-4.728-6.066-7.791-10.27-7.791-4.014,0-7.6,2.793-9.946,7.161a25.2,25.2,0,0,0-2.768,9.858c-.058.765-.092,1.537-.092,2.322,0,.512.016,1.018.04,1.518h25.531c.025-.5.035-1.006.035-1.518,0-.381,0-.759-.023-1.141a25.854,25.854,0,0,0-2.508-10.411Z" transform="translate(-1679.437 -9766.03)" fill="#60a4c2"/>
    <path id="Path_6068" data-name="Path 6068" d="M1870.2,10035.3a7.784,7.784,0,1,0,8.138,7.777A7.966,7.966,0,0,0,1870.2,10035.3Z" transform="translate(-1759.361 -9481.767)" fill="#60a4c2"/>
    <path id="Path_6069" data-name="Path 6069" d="M3508.241,9213.453a22.167,22.167,0,0,0,34.03,18.734l2.6,4.553,4.212-7.955,4.211-7.953-8.992-.4-8.991-.4,2.5,4.371a13.054,13.054,0,0,1-7.4,2.265,13.208,13.208,0,1,1,9.868-21.989,4.482,4.482,0,1,0,6.7-5.96,22.175,22.175,0,0,0-38.742,14.738Z" transform="translate(-3314.74 -8684.301)" fill="#cdcdcd"/>
    <path id="Path_6070" data-name="Path 6070" d="M451.8,6410.29a5.2,5.2,0,1,0,5.2,5.2A5.208,5.208,0,0,0,451.8,6410.29Zm0,14.465a9.263,9.263,0,1,1,9.263-9.262A9.273,9.273,0,0,1,451.8,6424.755Z" transform="translate(-418.139 -6052.87)" fill="#c84b2a"/>
    <path id="Path_6071" data-name="Path 6071" d="M12152.111,6862.246a5.36,5.36,0,1,1,7.414-1.584A5.363,5.363,0,0,1,12152.111,6862.246Z" transform="translate(-11479.518 -6474.419)" fill="#cdcdcd"/>
    <path id="Path_6072" data-name="Path 6072" d="M4789.449,9990.955a46.945,46.945,0,1,1-46.944-46.945A46.945,46.945,0,0,1,4789.449,9990.955Z" transform="translate(-4436.569 -9395.512)" fill="#c84b2a"/>
    <path id="Path_6073" data-name="Path 6073" d="M3309.538,11075.614a28.781,28.781,0,1,1-31.7-25.528A28.782,28.782,0,0,1,3309.538,11075.614Z" transform="translate(-3072.766 -10440.419)" fill="#eebd3a"/>
    <path id="Path_6074" data-name="Path 6074" d="M8635.948,9812.213a51.4,51.4,0,1,1-57.929-43.916A51.4,51.4,0,0,1,8635.948,9812.213Z" transform="translate(-8062.926 -9229.032)" fill="#9900a6"/>
    <path id="Path_6075" data-name="Path 6075" d="M10623.621,5486.541a44.761,44.761,0,1,1-44.76-44.761A44.761,44.761,0,0,1,10623.621,5486.541Z" transform="translate(-9953.062 -5141.618)" fill="#a9c732"/>
    <path id="Path_6076" data-name="Path 6076" d="M1285.773,4036.161a28.932,28.932,0,1,1-28.932-28.931A28.933,28.933,0,0,1,1285.773,4036.161Z" transform="translate(-1160.189 -3786.197)" fill="#60a4c2"/>
    <path id="Path_6077" data-name="Path 6077" d="M5017.282,4690.387a109.717,109.717,0,1,1-109.717-109.716A109.716,109.716,0,0,1,5017.282,4690.387Z" transform="translate(-4533.215 -4328.006)" fill="#60a4c2"/>
    <path id="Path_6078" data-name="Path 6078" d="M1701.906,8330.041a40.393,40.393,0,1,1-40.393-40.392A40.394,40.394,0,0,1,1701.906,8330.041Z" transform="translate(-1531.711 -7832.404)" fill="#a9c732"/>
    <path id="Path_6079" data-name="Path 6079" d="M8939.362,2054.691a70.96,70.96,0,1,1-70.962-70.96A70.962,70.962,0,0,1,8939.362,2054.691Z" transform="translate(-8312.196 -1874.31)" fill="#eebd3a"/>
    <path id="Path_6080" data-name="Path 6080" d="M4074.455,1540.1a59.772,59.772,0,1,1-59.772-59.77A59.772,59.772,0,0,1,4074.455,1540.1Z" transform="translate(-3736.772 -1398.677)" fill="#c84b2a"/>
    <path id="Path_6081" data-name="Path 6081" d="M9320.119,2652.858a11.339,11.339,0,1,1-12.281-10.31A11.339,11.339,0,0,1,9320.119,2652.858Zm11.472-1.755,4.193-2.649a27.387,27.387,0,0,0-2.05-6.271l-4.955.36a22.278,22.278,0,0,0-1.609-2.463l2.308-4.383a27.851,27.851,0,0,0-4.919-4.4l-4.105,2.782a22.91,22.91,0,0,0-2.623-1.332l-.2-4.948a27.243,27.243,0,0,0-6.462-1.349l-2.158,4.459c-.722,0-1.447.022-2.181.084-.253.025-.5.057-.754.086l-2.646-4.2a27.373,27.373,0,0,0-6.271,2.054l.358,4.954a22.281,22.281,0,0,0-2.459,1.609l-4.389-2.307a27.527,27.527,0,0,0-4.4,4.922l2.784,4.1a23.118,23.118,0,0,0-1.333,2.622l-4.951.193a27.461,27.461,0,0,0-1.346,6.464l4.462,2.159c-.006.721.019,1.448.081,2.179.024.254.056.5.087.754l-4.2,2.646a27.332,27.332,0,0,0,2.051,6.271l4.95-.359a23.527,23.527,0,0,0,1.609,2.461l-2.306,4.384a27.467,27.467,0,0,0,4.921,4.4l4.105-2.782a22.394,22.394,0,0,0,2.621,1.334l.2,4.951a27.374,27.374,0,0,0,6.461,1.345l2.163-4.458c.719.005,1.448-.021,2.18-.083.252-.022.5-.057.751-.087l2.646,4.2a27.366,27.366,0,0,0,6.274-2.052l-.358-4.952a23.493,23.493,0,0,0,2.46-1.61l4.386,2.306a27.887,27.887,0,0,0,4.4-4.92l-2.785-4.105a24.184,24.184,0,0,0,1.334-2.622l4.946-.194a27.136,27.136,0,0,0,1.345-6.463l-4.457-2.161c0-.721-.02-1.448-.083-2.18-.021-.253-.055-.5-.085-.752Z" transform="translate(-8769.487 -2481.579)" fill="#fff"/>
    <path id="Path_6082" data-name="Path 6082" d="M10181.71,3147.521a8.145,8.145,0,1,1-11.218-2.624A8.151,8.151,0,0,1,10181.71,3147.521Zm6.615-8.39a17.493,17.493,0,0,0-2.144-2.021l.916-3.621a21.759,21.759,0,0,0-4.127-2.211l-2.514,2.772a18.454,18.454,0,0,0-2.859-.673l-1.024-3.6a21.541,21.541,0,0,0-4.673.154l-.8,3.648a17.948,17.948,0,0,0-2.808.859l-2.686-2.6a20.8,20.8,0,0,0-2.061,1.121,21.4,21.4,0,0,0-1.917,1.339l1.14,3.566a18.337,18.337,0,0,0-2.017,2.141l-3.623-.912a21.675,21.675,0,0,0-2.21,4.12l2.774,2.518a18.479,18.479,0,0,0-.672,2.86l-3.6,1.025a21.454,21.454,0,0,0,.147,4.678l3.653.786a18.163,18.163,0,0,0,.851,2.818l-2.6,2.682a20.627,20.627,0,0,0,1.123,2.053,22.79,22.79,0,0,0,1.34,1.926l3.564-1.145a18.554,18.554,0,0,0,2.143,2.016l-.911,3.627a21.54,21.54,0,0,0,4.121,2.2l2.517-2.77a17.66,17.66,0,0,0,2.86.67l1.024,3.6a21.827,21.827,0,0,0,4.675-.148l.79-3.652a18.062,18.062,0,0,0,2.817-.857l2.686,2.6a20.685,20.685,0,0,0,2.053-1.121,21.63,21.63,0,0,0,1.921-1.344l-1.143-3.56a18.117,18.117,0,0,0,2.016-2.143l3.626.912a21.441,21.441,0,0,0,2.207-4.122l-2.77-2.521a18.581,18.581,0,0,0,.672-2.853l3.6-1.024a21.9,21.9,0,0,0-.146-4.679l-3.65-.792a18.687,18.687,0,0,0-.858-2.815l2.607-2.683a21.608,21.608,0,0,0-2.471-3.977l-3.56,1.145Z" transform="translate(-9593.324 -2957.082)" fill="#fff"/>
    <path id="Path_6083" data-name="Path 6083" d="M5637.581,5556.009a3.64,3.64,0,0,1-3.84,3.4H5530.588a3.64,3.64,0,0,1-3.839-3.4v-68.476a3.64,3.64,0,0,1,3.839-3.4h103.152a3.64,3.64,0,0,1,3.84,3.4Zm8.475-83.2H5518.274a4.6,4.6,0,0,0-4.753,4.426v89.071a4.6,4.6,0,0,0,4.753,4.426h127.782a4.6,4.6,0,0,0,4.754-4.426v-89.071A4.6,4.6,0,0,0,5646.056,5472.81Z" transform="translate(-5209.412 -5170.937)" fill="#fff"/>
    <path id="Path_6084" data-name="Path 6084" d="M5438.154,7321.04h-21.4a1.516,1.516,0,0,1,0-3.029h21.4a1.516,1.516,0,0,1,0,3.029Zm-88.375-6.839v5.91a5.638,5.638,0,0,0,5.38,5.863h144.593a5.639,5.639,0,0,0,5.381-5.863v-5.91Z" transform="translate(-5054.703 -6910.759)" fill="#fff"/>
    <path id="Path_6085" data-name="Path 6085" d="M10848.7,6022.859v25.452a3.305,3.305,0,0,0,3.355,3.25h47.368a3.3,3.3,0,0,0,3.353-3.25v-25.427l-27.045,14.531-27.03-14.555Z" transform="translate(-10250.31 -5690.646)" fill="#fff"/>
    <path id="Path_6086" data-name="Path 6086" d="M10899.352,5932.621h-47.367a3.354,3.354,0,0,0-3.354,3.354v.562l27.038,13.374,27.038-13.374v-.562A3.355,3.355,0,0,0,10899.352,5932.621Z" transform="translate(-10250.244 -5605.386)" fill="#fff"/>
    <path id="Path_6087" data-name="Path 6087" d="M10003.8,10967.353l1.815,1.081c1.485.885,3.673-.053,4.89-2.1s1-4.411-.488-5.295l-1.9-1.131a23.213,23.213,0,0,1-1.965,4.288A18.383,18.383,0,0,1,10003.8,10967.353Z" transform="translate(-9452.012 -10355.378)" fill="#fff"/>
    <path id="Path_6088" data-name="Path 6088" d="M8845.479,10148.227a16.833,16.833,0,1,1-5.85-23.075,16.836,16.836,0,0,1,5.85,23.075Zm-35.053-20.873a23.962,23.962,0,0,0,38.641,28.016l21.277,12.67a19.65,19.65,0,0,0,4.338-7.428l-21.213-12.633a23.962,23.962,0,0,0-43.042-20.625Z" transform="translate(-8321.273 -9557.682)" fill="#fff"/>
    <path id="Path_6089" data-name="Path 6089" d="M4383.74,2155.68H4457.3v-4.42H4383.74Z" transform="translate(-4141.949 -2032.599)" fill="#fff"/>
    <path id="Path_6090" data-name="Path 6090" d="M4383.74,2310.332H4457.3v-4.422H4383.74Z" transform="translate(-4141.949 -2178.719)" fill="#fff"/>
    <path id="Path_6091" data-name="Path 6091" d="M4383.74,2464.972H4457.3v-4.422H4383.74Z" transform="translate(-4141.949 -2324.829)" fill="#fff"/>
    <path id="Path_6092" data-name="Path 6092" d="M4383.74,2619.574H4457.3v-4.425H4383.74Z" transform="translate(-4141.949 -2470.902)" fill="#fff"/>
    <path id="Path_6093" data-name="Path 6093" d="M4383.74,2774.242H4457.3v-4.422H4383.74Z" transform="translate(-4141.949 -2617.041)" fill="#fff"/>
    <path id="Path_6094" data-name="Path 6094" d="M4383.74,2928.864h36.581v-4.424H4383.74Z" transform="translate(-4141.949 -2763.132)" fill="#fff"/>
    <path id="Path_6095" data-name="Path 6095" d="M5083.561,10167.534a10.626,10.626,0,0,1,21.252,0v4.97h-21.252Zm31.1,4.97h-1.554v-4.97a18.923,18.923,0,1,0-37.845,0v4.97h-1.554a5.761,5.761,0,0,0-5.762,5.76v27.333a5.763,5.763,0,0,0,5.762,5.762h40.953a5.759,5.759,0,0,0,5.758-5.762v-27.333A5.758,5.758,0,0,0,5114.664,10172.5Z" transform="translate(-4788.418 -9588.826)" fill="#fff"/>
    <path id="Path_6096" data-name="Path 6096" d="M3476.622,11235.6l5.615,11.374,12.556,1.826-9.087,8.859,2.146,12.5-11.23-5.9-11.233,5.9,2.145-12.5-9.084-8.859,12.557-1.826Z" transform="translate(-3267.696 -10615.858)" fill="#fff"/>
    <path id="Path_6098" data-name="Path 6098" d="M2276.622,9176.59a6.659,6.659,0,1,0,6.743,6.576A6.656,6.656,0,0,0,2276.622,9176.59Z" transform="translate(-2144.847 -8670.42)" fill="#fff"/>
    <path id="Path_6099" data-name="Path 6099" d="M2071.155,8896.849a23,23,0,0,0-18.265,9.809l6.9,5.976a14.171,14.171,0,0,1,23.431.12l6.816-6.051a23.068,23.068,0,0,0-18.883-9.853Z" transform="translate(-1939.665 -8406.109)" fill="#fff"/>
    <path id="Path_6100" data-name="Path 6100" d="M1884.071,8618.032c-11.78.15-22.227,6.293-28.981,15.744l6.9,5.975a27.774,27.774,0,0,1,22.2-12.072c9.262-.116,17.568,4.628,22.911,12.064l6.816-6.058C1906.938,8624.035,1896.124,8617.881,1884.071,8618.032Z" transform="translate(-1752.775 -8142.671)" fill="#fff"/>
  </g>
</svg>
